G04 #@! TF.GenerationSoftware,KiCad,Pcbnew,(6.0.1)*
G04 #@! TF.CreationDate,2022-03-23T19:49:34+02:00*
G04 #@! TF.ProjectId,infinity-table-pcb,696e6669-6e69-4747-992d-7461626c652d,rev?*
G04 #@! TF.SameCoordinates,Original*
G04 #@! TF.FileFunction,Copper,L2,Bot*
G04 #@! TF.FilePolarity,Positive*
%FSLAX46Y46*%
G04 Gerber Fmt 4.6, Leading zero omitted, Abs format (unit mm)*
G04 Created by KiCad (PCBNEW (6.0.1)) date 2022-03-23 19:49:34*
%MOMM*%
%LPD*%
G01*
G04 APERTURE LIST*
G04 Aperture macros list*
%AMRoundRect*
0 Rectangle with rounded corners*
0 $1 Rounding radius*
0 $2 $3 $4 $5 $6 $7 $8 $9 X,Y pos of 4 corners*
0 Add a 4 corners polygon primitive as box body*
4,1,4,$2,$3,$4,$5,$6,$7,$8,$9,$2,$3,0*
0 Add four circle primitives for the rounded corners*
1,1,$1+$1,$2,$3*
1,1,$1+$1,$4,$5*
1,1,$1+$1,$6,$7*
1,1,$1+$1,$8,$9*
0 Add four rect primitives between the rounded corners*
20,1,$1+$1,$2,$3,$4,$5,0*
20,1,$1+$1,$4,$5,$6,$7,0*
20,1,$1+$1,$6,$7,$8,$9,0*
20,1,$1+$1,$8,$9,$2,$3,0*%
G04 Aperture macros list end*
G04 #@! TA.AperFunction,ComponentPad*
%ADD10C,8.600000*%
G04 #@! TD*
G04 #@! TA.AperFunction,ComponentPad*
%ADD11C,1.724000*%
G04 #@! TD*
G04 #@! TA.AperFunction,ComponentPad*
%ADD12R,1.600000X1.600000*%
G04 #@! TD*
G04 #@! TA.AperFunction,ComponentPad*
%ADD13O,1.600000X1.600000*%
G04 #@! TD*
G04 #@! TA.AperFunction,ComponentPad*
%ADD14R,1.700000X1.700000*%
G04 #@! TD*
G04 #@! TA.AperFunction,ComponentPad*
%ADD15O,1.700000X1.700000*%
G04 #@! TD*
G04 #@! TA.AperFunction,ComponentPad*
%ADD16O,4.500000X2.250000*%
G04 #@! TD*
G04 #@! TA.AperFunction,ComponentPad*
%ADD17O,4.000000X2.000000*%
G04 #@! TD*
G04 #@! TA.AperFunction,ComponentPad*
%ADD18O,2.000000X4.000000*%
G04 #@! TD*
G04 #@! TA.AperFunction,SMDPad,CuDef*
%ADD19RoundRect,0.250000X-0.475000X0.250000X-0.475000X-0.250000X0.475000X-0.250000X0.475000X0.250000X0*%
G04 #@! TD*
G04 #@! TA.AperFunction,SMDPad,CuDef*
%ADD20RoundRect,0.100000X-0.100000X0.637500X-0.100000X-0.637500X0.100000X-0.637500X0.100000X0.637500X0*%
G04 #@! TD*
G04 #@! TA.AperFunction,SMDPad,CuDef*
%ADD21RoundRect,0.250000X-0.450000X0.262500X-0.450000X-0.262500X0.450000X-0.262500X0.450000X0.262500X0*%
G04 #@! TD*
G04 #@! TA.AperFunction,ViaPad*
%ADD22C,0.800000*%
G04 #@! TD*
G04 #@! TA.AperFunction,Conductor*
%ADD23C,0.250000*%
G04 #@! TD*
G04 #@! TA.AperFunction,Conductor*
%ADD24C,2.540000*%
G04 #@! TD*
G04 #@! TA.AperFunction,Conductor*
%ADD25C,0.635000*%
G04 #@! TD*
G04 APERTURE END LIST*
D10*
X71323200Y-108458000D03*
D11*
X104724200Y-90170000D03*
X104724200Y-85090000D03*
X116814600Y-90170000D03*
X116814600Y-85090000D03*
D10*
X148031200Y-83820000D03*
D11*
X104749600Y-106172000D03*
X104749600Y-101092000D03*
X116840000Y-106172000D03*
X116840000Y-101092000D03*
D12*
X109423200Y-96012000D03*
D13*
X111963200Y-96012000D03*
X114503200Y-96012000D03*
X117043200Y-96012000D03*
X119583200Y-96012000D03*
X122123200Y-96012000D03*
X124663200Y-96012000D03*
X127203200Y-96012000D03*
X129743200Y-96012000D03*
X132283200Y-96012000D03*
X134823200Y-96012000D03*
X137363200Y-96012000D03*
X139903200Y-96012000D03*
X142443200Y-96012000D03*
X144983200Y-96012000D03*
X144983200Y-111252000D03*
X142443200Y-111252000D03*
X139903200Y-111252000D03*
X137363200Y-111252000D03*
X134823200Y-111252000D03*
X132283200Y-111252000D03*
X129743200Y-111252000D03*
X127203200Y-111252000D03*
X124663200Y-111252000D03*
X122123200Y-111252000D03*
X119583200Y-111252000D03*
X117043200Y-111252000D03*
X114503200Y-111252000D03*
X111963200Y-111252000D03*
X109423200Y-111252000D03*
D14*
X100076000Y-109474000D03*
D15*
X97536000Y-109474000D03*
X94996000Y-109474000D03*
X92456000Y-109474000D03*
D16*
X82804000Y-103982000D03*
D17*
X82804000Y-109982000D03*
D18*
X78304000Y-110982000D03*
X87304000Y-110982000D03*
D19*
X123952000Y-89408000D03*
X123952000Y-91308000D03*
X123698000Y-84582000D03*
X123698000Y-86482000D03*
D14*
X140716000Y-81026000D03*
D15*
X138176000Y-81026000D03*
X135636000Y-81026000D03*
X133096000Y-81026000D03*
X130556000Y-81026000D03*
X128016000Y-81026000D03*
X125476000Y-81026000D03*
X122936000Y-81026000D03*
X120396000Y-81026000D03*
X117856000Y-81026000D03*
D20*
X125924000Y-85043980D03*
X126574000Y-85043980D03*
X127224000Y-85043980D03*
X127874000Y-85043980D03*
X128524000Y-85043980D03*
X129174000Y-85043980D03*
X129824000Y-85043980D03*
X130474000Y-85043980D03*
X131124000Y-85043980D03*
X131774000Y-85043980D03*
X131774000Y-90768980D03*
X131124000Y-90768980D03*
X130474000Y-90768980D03*
X129824000Y-90768980D03*
X129174000Y-90768980D03*
X128524000Y-90768980D03*
X127874000Y-90768980D03*
X127224000Y-90768980D03*
X126574000Y-90768980D03*
X125924000Y-90768980D03*
D21*
X120497600Y-84480400D03*
X120497600Y-86305400D03*
D22*
X132537200Y-90830400D03*
X135331200Y-84988400D03*
X152400000Y-93980000D03*
X144983200Y-98755200D03*
X100101400Y-92481400D03*
X67310000Y-85090000D03*
X121945400Y-93751400D03*
X87630000Y-80010000D03*
X128701800Y-89001600D03*
X122123200Y-87630000D03*
X121691400Y-97739200D03*
X85979000Y-103555800D03*
X100203000Y-101371400D03*
X118999000Y-83464400D03*
X131419600Y-88925400D03*
X147269200Y-97078800D03*
X90474800Y-98679000D03*
X113030000Y-80010000D03*
X108889800Y-104571800D03*
X92710000Y-99161600D03*
X115570000Y-80010000D03*
X133553200Y-97307400D03*
X80010000Y-80010000D03*
X112039400Y-90220800D03*
X138607800Y-109855000D03*
X103809800Y-104571800D03*
X102844600Y-90144600D03*
X97332800Y-101752400D03*
X132969000Y-84912200D03*
X104952800Y-112344200D03*
X85090000Y-80010000D03*
X98729800Y-104571800D03*
X110921800Y-94462600D03*
X125907800Y-109677200D03*
X147294600Y-107213400D03*
X147269200Y-99618800D03*
X99872800Y-112344200D03*
X144983200Y-106375200D03*
X141097000Y-97383600D03*
X82550000Y-80010000D03*
X127457200Y-87630000D03*
X93980000Y-88138000D03*
X141198600Y-109728000D03*
X74930000Y-80010000D03*
X77470000Y-80010000D03*
X136067800Y-109728000D03*
X120802400Y-108153200D03*
X118160800Y-109601000D03*
X134848600Y-90779600D03*
X144983200Y-108915200D03*
X88239600Y-103555800D03*
X81280000Y-107873800D03*
X118313200Y-105079800D03*
X106959400Y-90220800D03*
X97561400Y-92481400D03*
X90119200Y-86131400D03*
X107492800Y-112344200D03*
X67310000Y-90170000D03*
X144983200Y-101295200D03*
X152400000Y-106680000D03*
X90170000Y-108204000D03*
X124434600Y-102971600D03*
X80416400Y-102235000D03*
X145313400Y-93040200D03*
X152400000Y-104140000D03*
X131038600Y-109778800D03*
X128447800Y-109728000D03*
X93980000Y-84074000D03*
X110490000Y-80010000D03*
X115214400Y-92456000D03*
X112674400Y-92456000D03*
X84582000Y-101930200D03*
X101269800Y-104571800D03*
X121691400Y-102819200D03*
X72390000Y-80010000D03*
X90170000Y-80010000D03*
X144983200Y-103835200D03*
X92710000Y-80010000D03*
X133527800Y-109778800D03*
X97942400Y-86131400D03*
X67310000Y-97790000D03*
X136982200Y-92024200D03*
X67310000Y-92710000D03*
X97764600Y-90144600D03*
X152400000Y-99060000D03*
X109601000Y-101396800D03*
X113969800Y-104571800D03*
X110871000Y-97485200D03*
X124434600Y-97891600D03*
X147320000Y-111760000D03*
X152400000Y-96520000D03*
X92252800Y-112344200D03*
X113969800Y-107111800D03*
X92710000Y-101701600D03*
X119608600Y-101219000D03*
X107950000Y-80010000D03*
X121564400Y-105003600D03*
X113233200Y-94564200D03*
X152400000Y-91440000D03*
X152400000Y-88900000D03*
X147040600Y-94538800D03*
X107594400Y-92456000D03*
X118160800Y-107645200D03*
X130987800Y-97383600D03*
X115163600Y-109169200D03*
X116713000Y-104241600D03*
X102870000Y-80010000D03*
X100330000Y-80010000D03*
X147294600Y-104673400D03*
X110134400Y-92456000D03*
X137947400Y-82956400D03*
X117754400Y-92456000D03*
X152400000Y-101600000D03*
X107061000Y-101396800D03*
X139522200Y-92024200D03*
X95250000Y-80010000D03*
X121691400Y-100279200D03*
X109499400Y-90220800D03*
X124434600Y-100431600D03*
X125272800Y-87376000D03*
X102514400Y-92456000D03*
X136042400Y-97459800D03*
X119100600Y-86512400D03*
X90170000Y-110236000D03*
X88392000Y-108204000D03*
X94792800Y-112344200D03*
X122275600Y-90144600D03*
X90474800Y-101219000D03*
X123342400Y-107264200D03*
X105410000Y-80010000D03*
X124333000Y-105156000D03*
X106349800Y-104571800D03*
X111429800Y-104571800D03*
X100304600Y-90144600D03*
X138607800Y-97459800D03*
X67310000Y-102870000D03*
X79959200Y-105460800D03*
X142443200Y-92989400D03*
X125323600Y-88646000D03*
X128473200Y-97383600D03*
X102412800Y-112344200D03*
X112141000Y-101396800D03*
X147294600Y-109753400D03*
X119608600Y-98679000D03*
X94919800Y-102539800D03*
X118745000Y-89712800D03*
X114579400Y-90220800D03*
X102793800Y-101422200D03*
X113233200Y-97383600D03*
X67310000Y-100330000D03*
X89712800Y-112344200D03*
X67310000Y-87630000D03*
X84836000Y-108204000D03*
X96164400Y-106299000D03*
X122123200Y-85801200D03*
X114681000Y-101396800D03*
X97332800Y-112344200D03*
X105054400Y-92456000D03*
X143687800Y-109905800D03*
X119989600Y-93014800D03*
X120853200Y-109880400D03*
X123367800Y-109778800D03*
X129997200Y-87630000D03*
X67310000Y-95250000D03*
X97790000Y-80010000D03*
X132511800Y-87096600D03*
X93014800Y-104165400D03*
X90474800Y-103555800D03*
X147294600Y-102133400D03*
X116738400Y-82499200D03*
X143713200Y-97536000D03*
D23*
X125924000Y-92192800D02*
X129743200Y-96012000D01*
X125924000Y-90768980D02*
X125924000Y-92192800D01*
X127224000Y-90768980D02*
X127224000Y-92857082D01*
X129070457Y-94703540D02*
X130974740Y-94703540D01*
X130974740Y-94703540D02*
X132283200Y-96012000D01*
X127224000Y-92857082D02*
X129070457Y-94703540D01*
X127874000Y-92871365D02*
X129185118Y-94182483D01*
X127874000Y-90768980D02*
X127874000Y-92871365D01*
X132993683Y-94182483D02*
X134823200Y-96012000D01*
X129185118Y-94182483D02*
X132993683Y-94182483D01*
X136550400Y-96012000D02*
X137363200Y-96012000D01*
X128524000Y-92885647D02*
X129371316Y-93732963D01*
X134271363Y-93732963D02*
X136550400Y-96012000D01*
X129371316Y-93732963D02*
X134271363Y-93732963D01*
X128524000Y-90768980D02*
X128524000Y-92885647D01*
X134457561Y-93283443D02*
X135763718Y-94589600D01*
X137922000Y-94589600D02*
X139344400Y-96012000D01*
X135763718Y-94589600D02*
X137922000Y-94589600D01*
X139344400Y-96012000D02*
X139903200Y-96012000D01*
X129557514Y-93283443D02*
X134457561Y-93283443D01*
X129174000Y-92899929D02*
X129557514Y-93283443D01*
X129174000Y-90768980D02*
X129174000Y-92899929D01*
X129824000Y-92384400D02*
X130273523Y-92833923D01*
X140571280Y-94140080D02*
X142443200Y-96012000D01*
X135949916Y-94140080D02*
X140571280Y-94140080D01*
X130273523Y-92833923D02*
X134643759Y-92833923D01*
X134643759Y-92833923D02*
X135949916Y-94140080D01*
X129824000Y-90768980D02*
X129824000Y-92384400D01*
X140757478Y-93690560D02*
X141732718Y-94665800D01*
X130474000Y-91505502D02*
X131352901Y-92384403D01*
X143637000Y-94665800D02*
X144983200Y-96012000D01*
X136136114Y-93690560D02*
X140757478Y-93690560D01*
X141732718Y-94665800D02*
X143637000Y-94665800D01*
X130474000Y-90768980D02*
X130474000Y-91505502D01*
X134829957Y-92384403D02*
X136136114Y-93690560D01*
X131352901Y-92384403D02*
X134829957Y-92384403D01*
X131124000Y-91500000D02*
X131558883Y-91934883D01*
X141918916Y-94216280D02*
X144990880Y-94216280D01*
X131124000Y-90768980D02*
X131124000Y-91500000D01*
X135016155Y-91934883D02*
X136322312Y-93241040D01*
X146107711Y-95333111D02*
X146107711Y-110127489D01*
X146107711Y-110127489D02*
X144983200Y-111252000D01*
X131558883Y-91934883D02*
X135016155Y-91934883D01*
X144990880Y-94216280D02*
X146107711Y-95333111D01*
X140943676Y-93241040D02*
X141918916Y-94216280D01*
X136322312Y-93241040D02*
X140943676Y-93241040D01*
D24*
X91364520Y-105842520D02*
X82296000Y-105842520D01*
D25*
X114630200Y-103251000D02*
X115316000Y-103936800D01*
D23*
X120998689Y-96186811D02*
X119878100Y-97307400D01*
D25*
X115316000Y-103936800D02*
X115316000Y-106781600D01*
X116484400Y-107950000D02*
X116484400Y-110693200D01*
X116484400Y-110693200D02*
X117043200Y-111252000D01*
D23*
X117094000Y-103022400D02*
X114858800Y-103022400D01*
X126199841Y-89706960D02*
X125553040Y-89706960D01*
X123952000Y-93726000D02*
X122790511Y-94887489D01*
X122790511Y-94887489D02*
X121657411Y-94887489D01*
X120998689Y-95546211D02*
X120998689Y-96186811D01*
X125553040Y-89706960D02*
X123952000Y-91308000D01*
X126574000Y-90768980D02*
X126574000Y-90081119D01*
X126574000Y-90081119D02*
X126199841Y-89706960D01*
X119303800Y-97307400D02*
X118465600Y-98145600D01*
D25*
X96139000Y-103251000D02*
X114630200Y-103251000D01*
D23*
X119878100Y-97307400D02*
X119303800Y-97307400D01*
X118465600Y-101650800D02*
X117094000Y-103022400D01*
D25*
X115316000Y-106781600D02*
X116484400Y-107950000D01*
D23*
X114858800Y-103022400D02*
X114630200Y-103251000D01*
X123952000Y-91308000D02*
X123952000Y-93726000D01*
D24*
X92456000Y-106934000D02*
X91364520Y-105842520D01*
D23*
X121657411Y-94887489D02*
X120998689Y-95546211D01*
X118465600Y-98145600D02*
X118465600Y-101650800D01*
D24*
X92456000Y-109474000D02*
X92456000Y-106934000D01*
D25*
X92456000Y-106934000D02*
X96139000Y-103251000D01*
D23*
X125222000Y-86106000D02*
X123698000Y-84582000D01*
X126574000Y-85461000D02*
X126574000Y-86148861D01*
X131408980Y-86523020D02*
X131774000Y-86158000D01*
X120497600Y-83337400D02*
X118186200Y-81026000D01*
X118186200Y-81026000D02*
X117856000Y-81026000D01*
X120599200Y-84582000D02*
X120497600Y-84480400D01*
X126574000Y-85731841D02*
X126199841Y-86106000D01*
X126199841Y-86106000D02*
X125222000Y-86106000D01*
X126948159Y-86523020D02*
X131408980Y-86523020D01*
X120497600Y-84480400D02*
X120497600Y-83337400D01*
X126574000Y-85043980D02*
X126574000Y-85731841D01*
X123698000Y-84582000D02*
X120599200Y-84582000D01*
X131774000Y-86158000D02*
X131774000Y-85461000D01*
X126574000Y-86148861D02*
X126948159Y-86523020D01*
X135432800Y-83820000D02*
X131645837Y-83820000D01*
X138176000Y-81076800D02*
X135432800Y-83820000D01*
X131645837Y-83820000D02*
X131124000Y-84341837D01*
X131124000Y-84341837D02*
X131124000Y-85043980D01*
X130474000Y-84410000D02*
X130474000Y-85461000D01*
X130474000Y-84356119D02*
X130474000Y-85043980D01*
X133654800Y-83058000D02*
X131772119Y-83058000D01*
X131772119Y-83058000D02*
X130474000Y-84356119D01*
X135636000Y-81076800D02*
X133654800Y-83058000D01*
X129824000Y-84348800D02*
X129824000Y-85043980D01*
X133096000Y-81076800D02*
X129824000Y-84348800D01*
X129174000Y-82916000D02*
X129174000Y-85461000D01*
X130556000Y-81534000D02*
X129174000Y-82916000D01*
X128524000Y-84200282D02*
X128524000Y-85461000D01*
X128320800Y-80822800D02*
X128320800Y-83997082D01*
X128320800Y-83997082D02*
X128524000Y-84200282D01*
X125476000Y-81483200D02*
X127871280Y-83878480D01*
X127871280Y-85041260D02*
X127874000Y-85043980D01*
X127871280Y-83878480D02*
X127871280Y-85041260D01*
X126643683Y-83761520D02*
X127224000Y-84341837D01*
X122936000Y-81280000D02*
X125417520Y-83761520D01*
X125417520Y-83761520D02*
X126643683Y-83761520D01*
X127224000Y-84341837D02*
X127224000Y-85043980D01*
X124473493Y-83593473D02*
X125924000Y-85043980D01*
X120396000Y-80518000D02*
X120396000Y-82296000D01*
X124473493Y-83566000D02*
X124473493Y-83593473D01*
X121666000Y-83566000D02*
X124473493Y-83566000D01*
X120396000Y-82296000D02*
X121666000Y-83566000D01*
G04 #@! TA.AperFunction,Conductor*
G36*
X153104121Y-79268002D02*
G01*
X153150614Y-79321658D01*
X153162000Y-79374000D01*
X153162000Y-112904000D01*
X153141998Y-112972121D01*
X153088342Y-113018614D01*
X153036000Y-113030000D01*
X84237156Y-113030000D01*
X84169035Y-113009998D01*
X84122542Y-112956342D01*
X84111635Y-112914982D01*
X84098022Y-112759393D01*
X84097543Y-112753913D01*
X84091135Y-112729999D01*
X84039707Y-112538067D01*
X84039706Y-112538065D01*
X84038284Y-112532757D01*
X84035961Y-112527775D01*
X83943849Y-112330238D01*
X83943846Y-112330233D01*
X83941523Y-112325251D01*
X83924999Y-112301652D01*
X86295524Y-112301652D01*
X86297990Y-112310281D01*
X86297991Y-112310286D01*
X86303639Y-112330048D01*
X86307217Y-112346809D01*
X86310130Y-112367152D01*
X86310133Y-112367162D01*
X86311405Y-112376045D01*
X86322021Y-112399395D01*
X86328464Y-112416907D01*
X86335512Y-112441565D01*
X86351274Y-112466548D01*
X86359404Y-112481614D01*
X86371633Y-112508510D01*
X86388374Y-112527939D01*
X86399479Y-112542947D01*
X86413160Y-112564631D01*
X86419888Y-112570573D01*
X86435296Y-112584181D01*
X86447340Y-112596373D01*
X86466619Y-112618747D01*
X86474147Y-112623626D01*
X86474150Y-112623629D01*
X86488139Y-112632696D01*
X86503013Y-112643986D01*
X86522228Y-112660956D01*
X86530354Y-112664771D01*
X86530355Y-112664772D01*
X86536021Y-112667432D01*
X86548966Y-112673510D01*
X86563935Y-112681824D01*
X86588727Y-112697893D01*
X86605650Y-112702954D01*
X86613290Y-112705239D01*
X86630736Y-112711901D01*
X86653948Y-112722799D01*
X86683130Y-112727343D01*
X86699849Y-112731126D01*
X86719536Y-112737014D01*
X86719539Y-112737015D01*
X86728141Y-112739587D01*
X86737116Y-112739642D01*
X86737117Y-112739642D01*
X86743810Y-112739683D01*
X86762556Y-112739797D01*
X86763328Y-112739830D01*
X86764423Y-112740000D01*
X86795298Y-112740000D01*
X86796068Y-112740002D01*
X86869716Y-112740452D01*
X86869717Y-112740452D01*
X86873652Y-112740476D01*
X86874996Y-112740092D01*
X86876341Y-112740000D01*
X87795298Y-112740000D01*
X87796069Y-112740002D01*
X87873652Y-112740476D01*
X87882281Y-112738010D01*
X87882286Y-112738009D01*
X87902048Y-112732361D01*
X87918809Y-112728783D01*
X87939152Y-112725870D01*
X87939162Y-112725867D01*
X87948045Y-112724595D01*
X87971395Y-112713979D01*
X87988907Y-112707536D01*
X88004937Y-112702954D01*
X88013565Y-112700488D01*
X88038548Y-112684726D01*
X88053614Y-112676596D01*
X88080510Y-112664367D01*
X88099939Y-112647626D01*
X88114947Y-112636521D01*
X88129039Y-112627630D01*
X88136631Y-112622840D01*
X88156182Y-112600703D01*
X88168374Y-112588659D01*
X88183949Y-112575239D01*
X88183950Y-112575237D01*
X88190747Y-112569381D01*
X88195626Y-112561853D01*
X88195629Y-112561850D01*
X88204696Y-112547861D01*
X88215986Y-112532987D01*
X88227012Y-112520502D01*
X88232956Y-112513772D01*
X88245510Y-112487034D01*
X88253824Y-112472065D01*
X88269893Y-112447273D01*
X88277239Y-112422709D01*
X88283901Y-112405264D01*
X88290983Y-112390179D01*
X88294799Y-112382052D01*
X88299343Y-112352870D01*
X88303126Y-112336151D01*
X88309014Y-112316464D01*
X88309015Y-112316461D01*
X88311587Y-112307859D01*
X88311797Y-112273444D01*
X88311830Y-112272672D01*
X88312000Y-112271577D01*
X88312000Y-112240702D01*
X88312002Y-112239932D01*
X88312452Y-112166284D01*
X88312452Y-112166283D01*
X88312476Y-112162348D01*
X88312092Y-112161004D01*
X88312000Y-112159659D01*
X88312000Y-109740702D01*
X88312002Y-109739932D01*
X88312304Y-109690546D01*
X88312476Y-109662348D01*
X88310010Y-109653719D01*
X88310009Y-109653714D01*
X88304361Y-109633952D01*
X88300783Y-109617191D01*
X88297870Y-109596848D01*
X88297867Y-109596838D01*
X88296595Y-109587955D01*
X88285979Y-109564605D01*
X88279536Y-109547093D01*
X88274954Y-109531063D01*
X88272488Y-109522435D01*
X88256726Y-109497452D01*
X88248596Y-109482386D01*
X88236367Y-109455490D01*
X88219626Y-109436061D01*
X88208521Y-109421053D01*
X88199630Y-109406961D01*
X88194840Y-109399369D01*
X88172703Y-109379818D01*
X88160659Y-109367626D01*
X88147239Y-109352051D01*
X88147237Y-109352050D01*
X88141381Y-109345253D01*
X88133853Y-109340374D01*
X88133850Y-109340371D01*
X88119861Y-109331304D01*
X88104987Y-109320014D01*
X88092502Y-109308988D01*
X88085772Y-109303044D01*
X88077646Y-109299229D01*
X88077645Y-109299228D01*
X88071979Y-109296568D01*
X88059034Y-109290490D01*
X88044065Y-109282176D01*
X88019273Y-109266107D01*
X87994709Y-109258761D01*
X87977264Y-109252099D01*
X87972827Y-109250016D01*
X87954052Y-109241201D01*
X87924870Y-109236657D01*
X87908151Y-109232874D01*
X87888464Y-109226986D01*
X87888461Y-109226985D01*
X87879859Y-109224413D01*
X87870884Y-109224358D01*
X87870883Y-109224358D01*
X87864190Y-109224317D01*
X87845444Y-109224203D01*
X87844672Y-109224170D01*
X87843577Y-109224000D01*
X87812702Y-109224000D01*
X87811932Y-109223998D01*
X87738284Y-109223548D01*
X87738283Y-109223548D01*
X87734348Y-109223524D01*
X87733004Y-109223908D01*
X87731659Y-109224000D01*
X86812702Y-109224000D01*
X86811932Y-109223998D01*
X86811078Y-109223993D01*
X86734348Y-109223524D01*
X86725719Y-109225990D01*
X86725714Y-109225991D01*
X86705952Y-109231639D01*
X86689191Y-109235217D01*
X86668848Y-109238130D01*
X86668838Y-109238133D01*
X86659955Y-109239405D01*
X86636605Y-109250021D01*
X86619093Y-109256464D01*
X86611057Y-109258761D01*
X86594435Y-109263512D01*
X86569452Y-109279274D01*
X86554386Y-109287404D01*
X86527490Y-109299633D01*
X86508061Y-109316374D01*
X86493053Y-109327479D01*
X86471369Y-109341160D01*
X86465427Y-109347888D01*
X86451819Y-109363296D01*
X86439627Y-109375340D01*
X86417253Y-109394619D01*
X86412374Y-109402147D01*
X86412371Y-109402150D01*
X86403304Y-109416139D01*
X86392014Y-109431013D01*
X86375044Y-109450228D01*
X86362490Y-109476966D01*
X86354176Y-109491935D01*
X86338107Y-109516727D01*
X86335535Y-109525327D01*
X86330761Y-109541290D01*
X86324099Y-109558736D01*
X86313201Y-109581948D01*
X86308658Y-109611128D01*
X86304874Y-109627849D01*
X86298986Y-109647536D01*
X86298985Y-109647539D01*
X86296413Y-109656141D01*
X86296206Y-109690090D01*
X86296203Y-109690546D01*
X86296170Y-109691328D01*
X86296000Y-109692423D01*
X86296000Y-109723298D01*
X86295998Y-109724068D01*
X86295524Y-109801652D01*
X86295908Y-109802996D01*
X86296000Y-109804341D01*
X86296000Y-112223298D01*
X86295998Y-112224068D01*
X86295524Y-112301652D01*
X83924999Y-112301652D01*
X83810198Y-112137700D01*
X83648300Y-111975802D01*
X83643792Y-111972645D01*
X83643789Y-111972643D01*
X83552539Y-111908749D01*
X83460749Y-111844477D01*
X83455767Y-111842154D01*
X83455762Y-111842151D01*
X83258225Y-111750039D01*
X83258224Y-111750039D01*
X83253243Y-111747716D01*
X83247935Y-111746294D01*
X83247933Y-111746293D01*
X83037402Y-111689881D01*
X83037400Y-111689881D01*
X83032087Y-111688457D01*
X82932520Y-111679746D01*
X82863851Y-111673738D01*
X82863844Y-111673738D01*
X82861127Y-111673500D01*
X82746873Y-111673500D01*
X82744156Y-111673738D01*
X82744149Y-111673738D01*
X82675480Y-111679746D01*
X82575913Y-111688457D01*
X82570600Y-111689881D01*
X82570598Y-111689881D01*
X82360067Y-111746293D01*
X82360065Y-111746294D01*
X82354757Y-111747716D01*
X82349776Y-111750039D01*
X82349775Y-111750039D01*
X82152238Y-111842151D01*
X82152233Y-111842154D01*
X82147251Y-111844477D01*
X82055461Y-111908749D01*
X81964211Y-111972643D01*
X81964208Y-111972645D01*
X81959700Y-111975802D01*
X81797802Y-112137700D01*
X81666477Y-112325251D01*
X81664154Y-112330233D01*
X81664151Y-112330238D01*
X81572039Y-112527775D01*
X81569716Y-112532757D01*
X81568294Y-112538065D01*
X81568293Y-112538067D01*
X81516865Y-112729999D01*
X81510457Y-112753913D01*
X81509978Y-112759393D01*
X81496365Y-112914982D01*
X81470501Y-112981100D01*
X81412998Y-113022739D01*
X81370844Y-113030000D01*
X66674000Y-113030000D01*
X66605879Y-113009998D01*
X66559386Y-112956342D01*
X66548000Y-112904000D01*
X66548000Y-112301652D01*
X77295524Y-112301652D01*
X77297990Y-112310281D01*
X77297991Y-112310286D01*
X77303639Y-112330048D01*
X77307217Y-112346809D01*
X77310130Y-112367152D01*
X77310133Y-112367162D01*
X77311405Y-112376045D01*
X77322021Y-112399395D01*
X77328464Y-112416907D01*
X77335512Y-112441565D01*
X77351274Y-112466548D01*
X77359404Y-112481614D01*
X77371633Y-112508510D01*
X77388374Y-112527939D01*
X77399479Y-112542947D01*
X77413160Y-112564631D01*
X77419888Y-112570573D01*
X77435296Y-112584181D01*
X77447340Y-112596373D01*
X77466619Y-112618747D01*
X77474147Y-112623626D01*
X77474150Y-112623629D01*
X77488139Y-112632696D01*
X77503013Y-112643986D01*
X77522228Y-112660956D01*
X77530354Y-112664771D01*
X77530355Y-112664772D01*
X77536021Y-112667432D01*
X77548966Y-112673510D01*
X77563935Y-112681824D01*
X77588727Y-112697893D01*
X77605650Y-112702954D01*
X77613290Y-112705239D01*
X77630736Y-112711901D01*
X77653948Y-112722799D01*
X77683130Y-112727343D01*
X77699849Y-112731126D01*
X77719536Y-112737014D01*
X77719539Y-112737015D01*
X77728141Y-112739587D01*
X77737116Y-112739642D01*
X77737117Y-112739642D01*
X77743810Y-112739683D01*
X77762556Y-112739797D01*
X77763328Y-112739830D01*
X77764423Y-112740000D01*
X77795298Y-112740000D01*
X77796068Y-112740002D01*
X77869716Y-112740452D01*
X77869717Y-112740452D01*
X77873652Y-112740476D01*
X77874996Y-112740092D01*
X77876341Y-112740000D01*
X78795298Y-112740000D01*
X78796069Y-112740002D01*
X78873652Y-112740476D01*
X78882281Y-112738010D01*
X78882286Y-112738009D01*
X78902048Y-112732361D01*
X78918809Y-112728783D01*
X78939152Y-112725870D01*
X78939162Y-112725867D01*
X78948045Y-112724595D01*
X78971395Y-112713979D01*
X78988907Y-112707536D01*
X79004937Y-112702954D01*
X79013565Y-112700488D01*
X79038548Y-112684726D01*
X79053614Y-112676596D01*
X79080510Y-112664367D01*
X79099939Y-112647626D01*
X79114947Y-112636521D01*
X79129039Y-112627630D01*
X79136631Y-112622840D01*
X79156182Y-112600703D01*
X79168374Y-112588659D01*
X79183949Y-112575239D01*
X79183950Y-112575237D01*
X79190747Y-112569381D01*
X79195626Y-112561853D01*
X79195629Y-112561850D01*
X79204696Y-112547861D01*
X79215986Y-112532987D01*
X79227012Y-112520502D01*
X79232956Y-112513772D01*
X79245510Y-112487034D01*
X79253824Y-112472065D01*
X79269893Y-112447273D01*
X79277239Y-112422709D01*
X79283901Y-112405264D01*
X79290983Y-112390179D01*
X79294799Y-112382052D01*
X79299343Y-112352870D01*
X79303126Y-112336151D01*
X79309014Y-112316464D01*
X79309015Y-112316461D01*
X79311587Y-112307859D01*
X79311797Y-112273444D01*
X79311830Y-112272672D01*
X79312000Y-112271577D01*
X79312000Y-112240702D01*
X79312002Y-112239932D01*
X79312452Y-112166284D01*
X79312452Y-112166283D01*
X79312476Y-112162348D01*
X79312092Y-112161004D01*
X79312000Y-112159659D01*
X79312000Y-110551652D01*
X81145524Y-110551652D01*
X81147990Y-110560281D01*
X81147991Y-110560286D01*
X81153639Y-110580048D01*
X81157217Y-110596809D01*
X81160130Y-110617152D01*
X81160133Y-110617162D01*
X81161405Y-110626045D01*
X81172021Y-110649395D01*
X81178464Y-110666907D01*
X81185512Y-110691565D01*
X81201274Y-110716548D01*
X81209404Y-110731614D01*
X81221633Y-110758510D01*
X81238374Y-110777939D01*
X81249479Y-110792947D01*
X81263160Y-110814631D01*
X81269888Y-110820573D01*
X81285296Y-110834181D01*
X81297340Y-110846373D01*
X81316619Y-110868747D01*
X81324147Y-110873626D01*
X81324150Y-110873629D01*
X81338139Y-110882696D01*
X81353013Y-110893986D01*
X81372228Y-110910956D01*
X81380354Y-110914771D01*
X81380355Y-110914772D01*
X81386021Y-110917432D01*
X81398966Y-110923510D01*
X81413935Y-110931824D01*
X81438727Y-110947893D01*
X81455650Y-110952954D01*
X81463290Y-110955239D01*
X81480736Y-110961901D01*
X81503948Y-110972799D01*
X81533130Y-110977343D01*
X81549849Y-110981126D01*
X81569536Y-110987014D01*
X81569539Y-110987015D01*
X81578141Y-110989587D01*
X81587116Y-110989642D01*
X81587117Y-110989642D01*
X81593810Y-110989683D01*
X81612556Y-110989797D01*
X81613328Y-110989830D01*
X81614423Y-110990000D01*
X81645298Y-110990000D01*
X81646068Y-110990002D01*
X81719716Y-110990452D01*
X81719717Y-110990452D01*
X81723652Y-110990476D01*
X81724996Y-110990092D01*
X81726341Y-110990000D01*
X83945298Y-110990000D01*
X83946069Y-110990002D01*
X84023652Y-110990476D01*
X84032281Y-110988010D01*
X84032286Y-110988009D01*
X84052048Y-110982361D01*
X84068809Y-110978783D01*
X84089152Y-110975870D01*
X84089162Y-110975867D01*
X84098045Y-110974595D01*
X84121395Y-110963979D01*
X84138907Y-110957536D01*
X84154937Y-110952954D01*
X84163565Y-110950488D01*
X84188548Y-110934726D01*
X84203614Y-110926596D01*
X84230510Y-110914367D01*
X84249939Y-110897626D01*
X84264947Y-110886521D01*
X84279039Y-110877630D01*
X84286631Y-110872840D01*
X84306182Y-110850703D01*
X84318374Y-110838659D01*
X84333949Y-110825239D01*
X84333950Y-110825237D01*
X84340747Y-110819381D01*
X84345626Y-110811853D01*
X84345629Y-110811850D01*
X84354696Y-110797861D01*
X84365986Y-110782987D01*
X84377012Y-110770502D01*
X84382956Y-110763772D01*
X84395510Y-110737034D01*
X84403824Y-110722065D01*
X84419893Y-110697273D01*
X84427239Y-110672709D01*
X84433901Y-110655264D01*
X84437700Y-110647173D01*
X84444799Y-110632052D01*
X84449343Y-110602870D01*
X84453126Y-110586151D01*
X84459014Y-110566464D01*
X84459015Y-110566461D01*
X84461587Y-110557859D01*
X84461797Y-110523444D01*
X84461830Y-110522672D01*
X84462000Y-110521577D01*
X84462000Y-110490702D01*
X84462002Y-110489932D01*
X84462452Y-110416284D01*
X84462452Y-110416283D01*
X84462476Y-110412348D01*
X84462092Y-110411004D01*
X84462000Y-110409659D01*
X84462000Y-109490702D01*
X84462002Y-109489932D01*
X84462152Y-109465389D01*
X84462476Y-109412348D01*
X84460010Y-109403719D01*
X84460009Y-109403714D01*
X84454361Y-109383952D01*
X84450783Y-109367191D01*
X84447870Y-109346848D01*
X84447867Y-109346838D01*
X84446595Y-109337955D01*
X84435979Y-109314605D01*
X84429536Y-109297093D01*
X84424954Y-109281063D01*
X84422488Y-109272435D01*
X84406726Y-109247452D01*
X84398596Y-109232386D01*
X84386367Y-109205490D01*
X84369626Y-109186061D01*
X84358521Y-109171053D01*
X84349630Y-109156961D01*
X84344840Y-109149369D01*
X84322703Y-109129818D01*
X84310659Y-109117626D01*
X84297239Y-109102051D01*
X84297237Y-109102050D01*
X84291381Y-109095253D01*
X84283853Y-109090374D01*
X84283850Y-109090371D01*
X84269861Y-109081304D01*
X84254987Y-109070014D01*
X84242502Y-109058988D01*
X84235772Y-109053044D01*
X84227646Y-109049229D01*
X84227645Y-109049228D01*
X84221979Y-109046568D01*
X84209034Y-109040490D01*
X84194065Y-109032176D01*
X84169273Y-109016107D01*
X84144709Y-109008761D01*
X84127264Y-109002099D01*
X84122827Y-109000016D01*
X84104052Y-108991201D01*
X84074870Y-108986657D01*
X84058151Y-108982874D01*
X84038464Y-108976986D01*
X84038461Y-108976985D01*
X84029859Y-108974413D01*
X84020884Y-108974358D01*
X84020883Y-108974358D01*
X84014190Y-108974317D01*
X83995444Y-108974203D01*
X83994672Y-108974170D01*
X83993577Y-108974000D01*
X83962702Y-108974000D01*
X83961932Y-108973998D01*
X83888284Y-108973548D01*
X83888283Y-108973548D01*
X83884348Y-108973524D01*
X83883004Y-108973908D01*
X83881659Y-108974000D01*
X81662702Y-108974000D01*
X81661932Y-108973998D01*
X81661078Y-108973993D01*
X81584348Y-108973524D01*
X81575719Y-108975990D01*
X81575714Y-108975991D01*
X81555952Y-108981639D01*
X81539191Y-108985217D01*
X81518848Y-108988130D01*
X81518838Y-108988133D01*
X81509955Y-108989405D01*
X81486605Y-109000021D01*
X81469093Y-109006464D01*
X81461057Y-109008761D01*
X81444435Y-109013512D01*
X81419452Y-109029274D01*
X81404386Y-109037404D01*
X81377490Y-109049633D01*
X81358061Y-109066374D01*
X81343053Y-109077479D01*
X81321369Y-109091160D01*
X81315427Y-109097888D01*
X81301819Y-109113296D01*
X81289627Y-109125340D01*
X81267253Y-109144619D01*
X81262374Y-109152147D01*
X81262371Y-109152150D01*
X81253304Y-109166139D01*
X81242014Y-109181013D01*
X81225044Y-109200228D01*
X81212490Y-109226966D01*
X81204176Y-109241935D01*
X81188107Y-109266727D01*
X81185535Y-109275327D01*
X81180761Y-109291290D01*
X81174099Y-109308736D01*
X81163201Y-109331948D01*
X81160071Y-109352051D01*
X81158658Y-109361128D01*
X81154874Y-109377849D01*
X81148986Y-109397536D01*
X81148985Y-109397539D01*
X81146413Y-109406141D01*
X81146274Y-109428973D01*
X81146203Y-109440546D01*
X81146170Y-109441328D01*
X81146000Y-109442423D01*
X81146000Y-109473298D01*
X81145998Y-109474068D01*
X81145703Y-109522435D01*
X81145524Y-109551652D01*
X81145908Y-109552996D01*
X81146000Y-109554341D01*
X81146000Y-110473298D01*
X81145998Y-110474068D01*
X81145524Y-110551652D01*
X79312000Y-110551652D01*
X79312000Y-109740702D01*
X79312002Y-109739932D01*
X79312304Y-109690546D01*
X79312476Y-109662348D01*
X79310010Y-109653719D01*
X79310009Y-109653714D01*
X79304361Y-109633952D01*
X79300783Y-109617191D01*
X79297870Y-109596848D01*
X79297867Y-109596838D01*
X79296595Y-109587955D01*
X79285979Y-109564605D01*
X79279536Y-109547093D01*
X79274954Y-109531063D01*
X79272488Y-109522435D01*
X79256726Y-109497452D01*
X79248596Y-109482386D01*
X79236367Y-109455490D01*
X79219626Y-109436061D01*
X79208521Y-109421053D01*
X79199630Y-109406961D01*
X79194840Y-109399369D01*
X79172703Y-109379818D01*
X79160659Y-109367626D01*
X79147239Y-109352051D01*
X79147237Y-109352050D01*
X79141381Y-109345253D01*
X79133853Y-109340374D01*
X79133850Y-109340371D01*
X79119861Y-109331304D01*
X79104987Y-109320014D01*
X79092502Y-109308988D01*
X79085772Y-109303044D01*
X79077646Y-109299229D01*
X79077645Y-109299228D01*
X79071979Y-109296568D01*
X79059034Y-109290490D01*
X79044065Y-109282176D01*
X79019273Y-109266107D01*
X78994709Y-109258761D01*
X78977264Y-109252099D01*
X78972827Y-109250016D01*
X78954052Y-109241201D01*
X78924870Y-109236657D01*
X78908151Y-109232874D01*
X78888464Y-109226986D01*
X78888461Y-109226985D01*
X78879859Y-109224413D01*
X78870884Y-109224358D01*
X78870883Y-109224358D01*
X78864190Y-109224317D01*
X78845444Y-109224203D01*
X78844672Y-109224170D01*
X78843577Y-109224000D01*
X78812702Y-109224000D01*
X78811932Y-109223998D01*
X78738284Y-109223548D01*
X78738283Y-109223548D01*
X78734348Y-109223524D01*
X78733004Y-109223908D01*
X78731659Y-109224000D01*
X77812702Y-109224000D01*
X77811932Y-109223998D01*
X77811078Y-109223993D01*
X77734348Y-109223524D01*
X77725719Y-109225990D01*
X77725714Y-109225991D01*
X77705952Y-109231639D01*
X77689191Y-109235217D01*
X77668848Y-109238130D01*
X77668838Y-109238133D01*
X77659955Y-109239405D01*
X77636605Y-109250021D01*
X77619093Y-109256464D01*
X77611057Y-109258761D01*
X77594435Y-109263512D01*
X77569452Y-109279274D01*
X77554386Y-109287404D01*
X77527490Y-109299633D01*
X77508061Y-109316374D01*
X77493053Y-109327479D01*
X77471369Y-109341160D01*
X77465427Y-109347888D01*
X77451819Y-109363296D01*
X77439627Y-109375340D01*
X77417253Y-109394619D01*
X77412374Y-109402147D01*
X77412371Y-109402150D01*
X77403304Y-109416139D01*
X77392014Y-109431013D01*
X77375044Y-109450228D01*
X77362490Y-109476966D01*
X77354176Y-109491935D01*
X77338107Y-109516727D01*
X77335535Y-109525327D01*
X77330761Y-109541290D01*
X77324099Y-109558736D01*
X77313201Y-109581948D01*
X77308658Y-109611128D01*
X77304874Y-109627849D01*
X77298986Y-109647536D01*
X77298985Y-109647539D01*
X77296413Y-109656141D01*
X77296206Y-109690090D01*
X77296203Y-109690546D01*
X77296170Y-109691328D01*
X77296000Y-109692423D01*
X77296000Y-109723298D01*
X77295998Y-109724068D01*
X77295524Y-109801652D01*
X77295908Y-109802996D01*
X77296000Y-109804341D01*
X77296000Y-112223298D01*
X77295998Y-112224068D01*
X77295524Y-112301652D01*
X66548000Y-112301652D01*
X66548000Y-103982000D01*
X80040449Y-103982000D01*
X80060622Y-104238326D01*
X80061776Y-104243133D01*
X80061777Y-104243139D01*
X80082773Y-104330591D01*
X80120645Y-104488340D01*
X80122538Y-104492911D01*
X80122539Y-104492913D01*
X80148917Y-104556594D01*
X80219040Y-104725887D01*
X80353384Y-104945116D01*
X80520369Y-105140631D01*
X80524131Y-105143844D01*
X80560959Y-105175298D01*
X80599769Y-105234748D01*
X80599131Y-105309522D01*
X80561791Y-105426173D01*
X80519300Y-105687079D01*
X80519168Y-105697147D01*
X80516391Y-105909341D01*
X80515840Y-105951399D01*
X80551486Y-106213328D01*
X80552795Y-106217818D01*
X80552796Y-106217824D01*
X80622652Y-106457487D01*
X80625457Y-106467110D01*
X80736127Y-106707172D01*
X80762140Y-106746848D01*
X80878499Y-106924325D01*
X80878503Y-106924330D01*
X80881065Y-106928238D01*
X81057086Y-107125453D01*
X81260324Y-107294484D01*
X81486314Y-107431619D01*
X81490622Y-107433425D01*
X81490623Y-107433426D01*
X81725776Y-107532034D01*
X81725781Y-107532036D01*
X81730091Y-107533843D01*
X81734623Y-107534994D01*
X81734626Y-107534995D01*
X81862121Y-107567374D01*
X81986301Y-107598912D01*
X82205856Y-107621020D01*
X90551500Y-107621020D01*
X90619621Y-107641022D01*
X90666114Y-107694678D01*
X90677500Y-107747020D01*
X90677500Y-109541108D01*
X90677673Y-109543433D01*
X90677673Y-109543439D01*
X90689002Y-109695883D01*
X90692103Y-109737616D01*
X90750443Y-109995441D01*
X90752135Y-109999793D01*
X90752136Y-109999795D01*
X90835903Y-110215200D01*
X90846251Y-110241811D01*
X90848568Y-110245865D01*
X90848569Y-110245867D01*
X90852367Y-110252512D01*
X90977422Y-110471313D01*
X91141075Y-110678906D01*
X91222651Y-110755645D01*
X91307111Y-110835097D01*
X91333615Y-110860030D01*
X91337458Y-110862696D01*
X91546974Y-111008042D01*
X91546979Y-111008045D01*
X91550812Y-111010704D01*
X91555001Y-111012770D01*
X91555003Y-111012771D01*
X91783706Y-111125555D01*
X91783709Y-111125556D01*
X91787894Y-111127620D01*
X91792337Y-111129042D01*
X91792339Y-111129043D01*
X91913774Y-111167915D01*
X92039653Y-111208209D01*
X92106803Y-111219145D01*
X92295947Y-111249949D01*
X92295948Y-111249949D01*
X92300559Y-111250700D01*
X92432719Y-111252430D01*
X92560202Y-111254099D01*
X92560205Y-111254099D01*
X92564879Y-111254160D01*
X92580751Y-111252000D01*
X108109702Y-111252000D01*
X108129657Y-111480087D01*
X108131081Y-111485400D01*
X108131081Y-111485402D01*
X108185872Y-111689881D01*
X108188916Y-111701243D01*
X108191239Y-111706224D01*
X108191239Y-111706225D01*
X108283351Y-111903762D01*
X108283354Y-111903767D01*
X108285677Y-111908749D01*
X108417002Y-112096300D01*
X108578900Y-112258198D01*
X108583408Y-112261355D01*
X108583411Y-112261357D01*
X108643352Y-112303328D01*
X108766451Y-112389523D01*
X108771433Y-112391846D01*
X108771438Y-112391849D01*
X108958902Y-112479264D01*
X108973957Y-112486284D01*
X108979265Y-112487706D01*
X108979267Y-112487707D01*
X109189798Y-112544119D01*
X109189800Y-112544119D01*
X109195113Y-112545543D01*
X109423200Y-112565498D01*
X109651287Y-112545543D01*
X109656600Y-112544119D01*
X109656602Y-112544119D01*
X109867133Y-112487707D01*
X109867135Y-112487706D01*
X109872443Y-112486284D01*
X109887498Y-112479264D01*
X110074962Y-112391849D01*
X110074967Y-112391846D01*
X110079949Y-112389523D01*
X110203048Y-112303328D01*
X110262989Y-112261357D01*
X110262992Y-112261355D01*
X110267500Y-112258198D01*
X110429398Y-112096300D01*
X110560723Y-111908749D01*
X110563046Y-111903767D01*
X110563049Y-111903762D01*
X110655161Y-111706225D01*
X110655161Y-111706224D01*
X110657484Y-111701243D01*
X110660529Y-111689881D01*
X110715319Y-111485402D01*
X110715319Y-111485400D01*
X110716743Y-111480087D01*
X110736698Y-111252000D01*
X110716743Y-111023913D01*
X110715317Y-111018591D01*
X110658907Y-110808067D01*
X110658906Y-110808065D01*
X110657484Y-110802757D01*
X110651539Y-110790007D01*
X110563049Y-110600238D01*
X110563046Y-110600233D01*
X110560723Y-110595251D01*
X110475330Y-110473298D01*
X110432557Y-110412211D01*
X110432555Y-110412208D01*
X110429398Y-110407700D01*
X110267500Y-110245802D01*
X110262992Y-110242645D01*
X110262989Y-110242643D01*
X110167923Y-110176077D01*
X110079949Y-110114477D01*
X110074967Y-110112154D01*
X110074962Y-110112151D01*
X109877425Y-110020039D01*
X109877424Y-110020039D01*
X109872443Y-110017716D01*
X109867135Y-110016294D01*
X109867133Y-110016293D01*
X109656602Y-109959881D01*
X109656600Y-109959881D01*
X109651287Y-109958457D01*
X109423200Y-109938502D01*
X109195113Y-109958457D01*
X109189800Y-109959881D01*
X109189798Y-109959881D01*
X108979267Y-110016293D01*
X108979265Y-110016294D01*
X108973957Y-110017716D01*
X108968976Y-110020039D01*
X108968975Y-110020039D01*
X108771438Y-110112151D01*
X108771433Y-110112154D01*
X108766451Y-110114477D01*
X108678477Y-110176077D01*
X108583411Y-110242643D01*
X108583408Y-110242645D01*
X108578900Y-110245802D01*
X108417002Y-110407700D01*
X108413845Y-110412208D01*
X108413843Y-110412211D01*
X108371070Y-110473298D01*
X108285677Y-110595251D01*
X108283354Y-110600233D01*
X108283351Y-110600238D01*
X108194861Y-110790007D01*
X108188916Y-110802757D01*
X108187494Y-110808065D01*
X108187493Y-110808067D01*
X108131083Y-111018591D01*
X108129657Y-111023913D01*
X108109702Y-111252000D01*
X92580751Y-111252000D01*
X92826808Y-111218514D01*
X92831298Y-111217205D01*
X92831304Y-111217204D01*
X92939268Y-111185735D01*
X93080590Y-111144543D01*
X93084837Y-111142585D01*
X93084840Y-111142584D01*
X93175050Y-111100996D01*
X93320652Y-111033873D01*
X93390606Y-110988009D01*
X93537805Y-110891501D01*
X93537810Y-110891497D01*
X93541718Y-110888935D01*
X93680232Y-110765307D01*
X93735441Y-110716031D01*
X93735443Y-110716029D01*
X93738933Y-110712914D01*
X93879321Y-110544116D01*
X93904970Y-110513276D01*
X93904971Y-110513275D01*
X93907964Y-110509676D01*
X93908129Y-110509814D01*
X93962405Y-110467202D01*
X94033086Y-110460510D01*
X94089624Y-110487269D01*
X94118846Y-110511529D01*
X94214126Y-110590632D01*
X94407000Y-110703338D01*
X94411825Y-110705180D01*
X94411826Y-110705181D01*
X94474893Y-110729264D01*
X94615692Y-110783030D01*
X94620760Y-110784061D01*
X94620763Y-110784062D01*
X94728017Y-110805883D01*
X94834597Y-110827567D01*
X94839772Y-110827757D01*
X94839774Y-110827757D01*
X95052673Y-110835564D01*
X95052677Y-110835564D01*
X95057837Y-110835753D01*
X95062957Y-110835097D01*
X95062959Y-110835097D01*
X95274288Y-110808025D01*
X95274289Y-110808025D01*
X95279416Y-110807368D01*
X95294785Y-110802757D01*
X95488429Y-110744661D01*
X95488434Y-110744659D01*
X95493384Y-110743174D01*
X95693994Y-110644896D01*
X95875860Y-110515173D01*
X95880004Y-110511044D01*
X96030435Y-110361137D01*
X96034096Y-110357489D01*
X96071358Y-110305634D01*
X96161435Y-110180277D01*
X96164453Y-110176077D01*
X96168666Y-110167554D01*
X96261136Y-109980453D01*
X96261137Y-109980451D01*
X96263430Y-109975811D01*
X96328370Y-109762069D01*
X96357529Y-109540590D01*
X96358894Y-109484736D01*
X96359074Y-109477365D01*
X96359074Y-109477361D01*
X96359156Y-109474000D01*
X96340852Y-109251361D01*
X96286431Y-109034702D01*
X96197354Y-108829840D01*
X96076014Y-108642277D01*
X95925670Y-108477051D01*
X95921619Y-108473852D01*
X95921615Y-108473848D01*
X95754414Y-108341800D01*
X95754410Y-108341798D01*
X95750359Y-108338598D01*
X95554789Y-108230638D01*
X95549920Y-108228914D01*
X95549916Y-108228912D01*
X95349087Y-108157795D01*
X95349083Y-108157794D01*
X95344212Y-108156069D01*
X95339119Y-108155162D01*
X95339116Y-108155161D01*
X95129373Y-108117800D01*
X95129367Y-108117799D01*
X95124284Y-108116894D01*
X95050452Y-108115992D01*
X94906081Y-108114228D01*
X94906079Y-108114228D01*
X94900911Y-108114165D01*
X94680091Y-108147955D01*
X94467756Y-108217357D01*
X94418678Y-108242905D01*
X94349020Y-108256617D01*
X94283005Y-108230491D01*
X94241594Y-108172823D01*
X94234500Y-108131141D01*
X94234500Y-106989478D01*
X94234703Y-106982335D01*
X94238950Y-106907550D01*
X94238950Y-106907543D01*
X94239215Y-106902874D01*
X94235720Y-106864839D01*
X94228650Y-106787887D01*
X94228468Y-106785697D01*
X94220245Y-106675053D01*
X94220243Y-106675039D01*
X94219897Y-106670384D01*
X94218275Y-106663214D01*
X94215698Y-106646942D01*
X94215455Y-106644297D01*
X94215027Y-106639640D01*
X94187567Y-106527418D01*
X94187063Y-106525279D01*
X94174862Y-106471360D01*
X94173944Y-106467302D01*
X94178418Y-106396447D01*
X94207742Y-106350399D01*
X94419740Y-106138401D01*
X103374814Y-106138401D01*
X103387786Y-106363390D01*
X103388923Y-106368436D01*
X103388924Y-106368442D01*
X103398867Y-106412559D01*
X103437332Y-106583240D01*
X103439274Y-106588022D01*
X103439275Y-106588026D01*
X103489243Y-106711081D01*
X103522119Y-106792045D01*
X103639871Y-106984199D01*
X103787425Y-107154541D01*
X103960819Y-107298495D01*
X104155397Y-107412197D01*
X104365932Y-107492593D01*
X104370998Y-107493624D01*
X104370999Y-107493624D01*
X104409092Y-107501374D01*
X104586771Y-107537523D01*
X104713903Y-107542185D01*
X104806819Y-107545592D01*
X104806823Y-107545592D01*
X104811983Y-107545781D01*
X104817103Y-107545125D01*
X104817105Y-107545125D01*
X105030393Y-107517803D01*
X105030396Y-107517802D01*
X105035520Y-107517146D01*
X105117359Y-107492593D01*
X105246424Y-107453871D01*
X105251377Y-107452385D01*
X105256016Y-107450112D01*
X105256022Y-107450110D01*
X105413877Y-107372777D01*
X105453760Y-107353239D01*
X105530508Y-107298495D01*
X105633019Y-107225375D01*
X105633024Y-107225371D01*
X105637231Y-107222370D01*
X105796865Y-107063293D01*
X105928374Y-106880279D01*
X106013929Y-106707172D01*
X106025932Y-106682886D01*
X106025933Y-106682884D01*
X106028226Y-106678244D01*
X106074700Y-106525279D01*
X106092237Y-106467557D01*
X106092237Y-106467556D01*
X106093739Y-106462613D01*
X106106802Y-106363390D01*
X106122718Y-106242500D01*
X106122719Y-106242493D01*
X106123155Y-106239178D01*
X106124797Y-106172000D01*
X106117506Y-106083321D01*
X106106755Y-105952546D01*
X106106754Y-105952540D01*
X106106331Y-105947395D01*
X106051429Y-105728821D01*
X105961566Y-105522150D01*
X105839154Y-105332930D01*
X105817855Y-105309522D01*
X105690960Y-105170067D01*
X105690958Y-105170066D01*
X105687482Y-105166245D01*
X105683431Y-105163046D01*
X105683427Y-105163042D01*
X105514680Y-105029774D01*
X105510622Y-105026569D01*
X105313325Y-104917655D01*
X105178283Y-104869834D01*
X105105763Y-104844153D01*
X105105759Y-104844152D01*
X105100888Y-104842427D01*
X105095795Y-104841520D01*
X105095792Y-104841519D01*
X104884106Y-104803812D01*
X104884100Y-104803811D01*
X104879017Y-104802906D01*
X104805325Y-104802006D01*
X104658841Y-104800216D01*
X104658839Y-104800216D01*
X104653671Y-104800153D01*
X104430901Y-104834242D01*
X104216690Y-104904257D01*
X104212102Y-104906645D01*
X104212098Y-104906647D01*
X104051600Y-104990197D01*
X104016790Y-105008318D01*
X104012657Y-105011421D01*
X104012654Y-105011423D01*
X103840706Y-105140525D01*
X103836571Y-105143630D01*
X103680871Y-105306560D01*
X103553873Y-105492733D01*
X103458987Y-105697147D01*
X103398762Y-105914314D01*
X103374814Y-106138401D01*
X94419740Y-106138401D01*
X96444235Y-104113905D01*
X96506547Y-104079880D01*
X96533330Y-104077000D01*
X114235868Y-104077000D01*
X114303989Y-104097002D01*
X114324963Y-104113904D01*
X114453095Y-104242035D01*
X114487120Y-104304347D01*
X114490000Y-104331131D01*
X114490000Y-106741567D01*
X114489558Y-106752111D01*
X114485377Y-106801900D01*
X114486279Y-106808660D01*
X114495706Y-106879304D01*
X114496073Y-106882343D01*
X114504511Y-106960017D01*
X114506687Y-106966483D01*
X114507204Y-106968833D01*
X114507301Y-106969383D01*
X114507480Y-106970150D01*
X114507635Y-106970685D01*
X114508211Y-106973032D01*
X114509113Y-106979790D01*
X114535810Y-107053140D01*
X114536826Y-107056043D01*
X114559575Y-107123639D01*
X114559578Y-107123646D01*
X114561754Y-107130111D01*
X114565269Y-107135960D01*
X114566282Y-107138153D01*
X114566494Y-107138668D01*
X114566827Y-107139366D01*
X114567100Y-107139867D01*
X114568160Y-107142021D01*
X114570494Y-107148434D01*
X114612342Y-107214375D01*
X114613956Y-107216990D01*
X114654186Y-107283944D01*
X114658867Y-107288895D01*
X114660337Y-107290831D01*
X114660985Y-107291762D01*
X114663885Y-107295596D01*
X114666657Y-107299964D01*
X114670323Y-107304064D01*
X114722245Y-107355986D01*
X114724698Y-107358507D01*
X114777496Y-107414340D01*
X114783138Y-107418174D01*
X114787982Y-107422297D01*
X114795412Y-107429153D01*
X115218556Y-107852296D01*
X115621495Y-108255235D01*
X115655520Y-108317548D01*
X115658400Y-108344331D01*
X115658400Y-110252512D01*
X115638398Y-110320633D01*
X115584742Y-110367126D01*
X115514468Y-110377230D01*
X115449888Y-110347736D01*
X115443305Y-110341607D01*
X115347500Y-110245802D01*
X115342992Y-110242645D01*
X115342989Y-110242643D01*
X115247923Y-110176077D01*
X115159949Y-110114477D01*
X115154967Y-110112154D01*
X115154962Y-110112151D01*
X114957425Y-110020039D01*
X114957424Y-110020039D01*
X114952443Y-110017716D01*
X114947135Y-110016294D01*
X114947133Y-110016293D01*
X114736602Y-109959881D01*
X114736600Y-109959881D01*
X114731287Y-109958457D01*
X114503200Y-109938502D01*
X114275113Y-109958457D01*
X114269800Y-109959881D01*
X114269798Y-109959881D01*
X114059267Y-110016293D01*
X114059265Y-110016294D01*
X114053957Y-110017716D01*
X114048976Y-110020039D01*
X114048975Y-110020039D01*
X113851438Y-110112151D01*
X113851433Y-110112154D01*
X113846451Y-110114477D01*
X113758477Y-110176077D01*
X113663411Y-110242643D01*
X113663408Y-110242645D01*
X113658900Y-110245802D01*
X113497002Y-110407700D01*
X113493845Y-110412208D01*
X113493843Y-110412211D01*
X113451070Y-110473298D01*
X113365677Y-110595251D01*
X113363354Y-110600233D01*
X113363351Y-110600238D01*
X113274861Y-110790007D01*
X113268916Y-110802757D01*
X113267494Y-110808065D01*
X113267493Y-110808067D01*
X113211083Y-111018591D01*
X113209657Y-111023913D01*
X113189702Y-111252000D01*
X113209657Y-111480087D01*
X113211081Y-111485400D01*
X113211081Y-111485402D01*
X113265872Y-111689881D01*
X113268916Y-111701243D01*
X113271239Y-111706224D01*
X113271239Y-111706225D01*
X113363351Y-111903762D01*
X113363354Y-111903767D01*
X113365677Y-111908749D01*
X113497002Y-112096300D01*
X113658900Y-112258198D01*
X113663408Y-112261355D01*
X113663411Y-112261357D01*
X113723352Y-112303328D01*
X113846451Y-112389523D01*
X113851433Y-112391846D01*
X113851438Y-112391849D01*
X114038902Y-112479264D01*
X114053957Y-112486284D01*
X114059265Y-112487706D01*
X114059267Y-112487707D01*
X114269798Y-112544119D01*
X114269800Y-112544119D01*
X114275113Y-112545543D01*
X114503200Y-112565498D01*
X114731287Y-112545543D01*
X114736600Y-112544119D01*
X114736602Y-112544119D01*
X114947133Y-112487707D01*
X114947135Y-112487706D01*
X114952443Y-112486284D01*
X114967498Y-112479264D01*
X115154962Y-112391849D01*
X115154967Y-112391846D01*
X115159949Y-112389523D01*
X115283048Y-112303328D01*
X115342989Y-112261357D01*
X115342992Y-112261355D01*
X115347500Y-112258198D01*
X115509398Y-112096300D01*
X115640723Y-111908749D01*
X115643046Y-111903767D01*
X115643049Y-111903762D01*
X115659005Y-111869543D01*
X115705922Y-111816258D01*
X115774199Y-111796797D01*
X115842159Y-111817339D01*
X115887395Y-111869543D01*
X115903351Y-111903762D01*
X115903354Y-111903767D01*
X115905677Y-111908749D01*
X116037002Y-112096300D01*
X116198900Y-112258198D01*
X116203408Y-112261355D01*
X116203411Y-112261357D01*
X116263352Y-112303328D01*
X116386451Y-112389523D01*
X116391433Y-112391846D01*
X116391438Y-112391849D01*
X116578902Y-112479264D01*
X116593957Y-112486284D01*
X116599265Y-112487706D01*
X116599267Y-112487707D01*
X116809798Y-112544119D01*
X116809800Y-112544119D01*
X116815113Y-112545543D01*
X117043200Y-112565498D01*
X117271287Y-112545543D01*
X117276600Y-112544119D01*
X117276602Y-112544119D01*
X117487133Y-112487707D01*
X117487135Y-112487706D01*
X117492443Y-112486284D01*
X117507498Y-112479264D01*
X117694962Y-112391849D01*
X117694967Y-112391846D01*
X117699949Y-112389523D01*
X117823048Y-112303328D01*
X117882989Y-112261357D01*
X117882992Y-112261355D01*
X117887500Y-112258198D01*
X118049398Y-112096300D01*
X118180723Y-111908749D01*
X118183046Y-111903767D01*
X118183049Y-111903762D01*
X118199005Y-111869543D01*
X118245922Y-111816258D01*
X118314199Y-111796797D01*
X118382159Y-111817339D01*
X118427395Y-111869543D01*
X118443351Y-111903762D01*
X118443354Y-111903767D01*
X118445677Y-111908749D01*
X118577002Y-112096300D01*
X118738900Y-112258198D01*
X118743408Y-112261355D01*
X118743411Y-112261357D01*
X118803352Y-112303328D01*
X118926451Y-112389523D01*
X118931433Y-112391846D01*
X118931438Y-112391849D01*
X119118902Y-112479264D01*
X119133957Y-112486284D01*
X119139265Y-112487706D01*
X119139267Y-112487707D01*
X119349798Y-112544119D01*
X119349800Y-112544119D01*
X119355113Y-112545543D01*
X119583200Y-112565498D01*
X119811287Y-112545543D01*
X119816600Y-112544119D01*
X119816602Y-112544119D01*
X120027133Y-112487707D01*
X120027135Y-112487706D01*
X120032443Y-112486284D01*
X120047498Y-112479264D01*
X120234962Y-112391849D01*
X120234967Y-112391846D01*
X120239949Y-112389523D01*
X120363048Y-112303328D01*
X120422989Y-112261357D01*
X120422992Y-112261355D01*
X120427500Y-112258198D01*
X120589398Y-112096300D01*
X120720723Y-111908749D01*
X120723046Y-111903767D01*
X120723049Y-111903762D01*
X120739005Y-111869543D01*
X120785922Y-111816258D01*
X120854199Y-111796797D01*
X120922159Y-111817339D01*
X120967395Y-111869543D01*
X120983351Y-111903762D01*
X120983354Y-111903767D01*
X120985677Y-111908749D01*
X121117002Y-112096300D01*
X121278900Y-112258198D01*
X121283408Y-112261355D01*
X121283411Y-112261357D01*
X121343352Y-112303328D01*
X121466451Y-112389523D01*
X121471433Y-112391846D01*
X121471438Y-112391849D01*
X121658902Y-112479264D01*
X121673957Y-112486284D01*
X121679265Y-112487706D01*
X121679267Y-112487707D01*
X121889798Y-112544119D01*
X121889800Y-112544119D01*
X121895113Y-112545543D01*
X122123200Y-112565498D01*
X122351287Y-112545543D01*
X122356600Y-112544119D01*
X122356602Y-112544119D01*
X122567133Y-112487707D01*
X122567135Y-112487706D01*
X122572443Y-112486284D01*
X122587498Y-112479264D01*
X122774962Y-112391849D01*
X122774967Y-112391846D01*
X122779949Y-112389523D01*
X122903048Y-112303328D01*
X122962989Y-112261357D01*
X122962992Y-112261355D01*
X122967500Y-112258198D01*
X123129398Y-112096300D01*
X123260723Y-111908749D01*
X123263046Y-111903767D01*
X123263049Y-111903762D01*
X123279005Y-111869543D01*
X123325922Y-111816258D01*
X123394199Y-111796797D01*
X123462159Y-111817339D01*
X123507395Y-111869543D01*
X123523351Y-111903762D01*
X123523354Y-111903767D01*
X123525677Y-111908749D01*
X123657002Y-112096300D01*
X123818900Y-112258198D01*
X123823408Y-112261355D01*
X123823411Y-112261357D01*
X123883352Y-112303328D01*
X124006451Y-112389523D01*
X124011433Y-112391846D01*
X124011438Y-112391849D01*
X124198902Y-112479264D01*
X124213957Y-112486284D01*
X124219265Y-112487706D01*
X124219267Y-112487707D01*
X124429798Y-112544119D01*
X124429800Y-112544119D01*
X124435113Y-112545543D01*
X124663200Y-112565498D01*
X124891287Y-112545543D01*
X124896600Y-112544119D01*
X124896602Y-112544119D01*
X125107133Y-112487707D01*
X125107135Y-112487706D01*
X125112443Y-112486284D01*
X125127498Y-112479264D01*
X125314962Y-112391849D01*
X125314967Y-112391846D01*
X125319949Y-112389523D01*
X125443048Y-112303328D01*
X125502989Y-112261357D01*
X125502992Y-112261355D01*
X125507500Y-112258198D01*
X125669398Y-112096300D01*
X125800723Y-111908749D01*
X125803046Y-111903767D01*
X125803049Y-111903762D01*
X125819005Y-111869543D01*
X125865922Y-111816258D01*
X125934199Y-111796797D01*
X126002159Y-111817339D01*
X126047395Y-111869543D01*
X126063351Y-111903762D01*
X126063354Y-111903767D01*
X126065677Y-111908749D01*
X126197002Y-112096300D01*
X126358900Y-112258198D01*
X126363408Y-112261355D01*
X126363411Y-112261357D01*
X126423352Y-112303328D01*
X126546451Y-112389523D01*
X126551433Y-112391846D01*
X126551438Y-112391849D01*
X126738902Y-112479264D01*
X126753957Y-112486284D01*
X126759265Y-112487706D01*
X126759267Y-112487707D01*
X126969798Y-112544119D01*
X126969800Y-112544119D01*
X126975113Y-112545543D01*
X127203200Y-112565498D01*
X127431287Y-112545543D01*
X127436600Y-112544119D01*
X127436602Y-112544119D01*
X127647133Y-112487707D01*
X127647135Y-112487706D01*
X127652443Y-112486284D01*
X127667498Y-112479264D01*
X127854962Y-112391849D01*
X127854967Y-112391846D01*
X127859949Y-112389523D01*
X127983048Y-112303328D01*
X128042989Y-112261357D01*
X128042992Y-112261355D01*
X128047500Y-112258198D01*
X128209398Y-112096300D01*
X128340723Y-111908749D01*
X128343046Y-111903767D01*
X128343049Y-111903762D01*
X128359005Y-111869543D01*
X128405922Y-111816258D01*
X128474199Y-111796797D01*
X128542159Y-111817339D01*
X128587395Y-111869543D01*
X128603351Y-111903762D01*
X128603354Y-111903767D01*
X128605677Y-111908749D01*
X128737002Y-112096300D01*
X128898900Y-112258198D01*
X128903408Y-112261355D01*
X128903411Y-112261357D01*
X128963352Y-112303328D01*
X129086451Y-112389523D01*
X129091433Y-112391846D01*
X129091438Y-112391849D01*
X129278902Y-112479264D01*
X129293957Y-112486284D01*
X129299265Y-112487706D01*
X129299267Y-112487707D01*
X129509798Y-112544119D01*
X129509800Y-112544119D01*
X129515113Y-112545543D01*
X129743200Y-112565498D01*
X129971287Y-112545543D01*
X129976600Y-112544119D01*
X129976602Y-112544119D01*
X130187133Y-112487707D01*
X130187135Y-112487706D01*
X130192443Y-112486284D01*
X130207498Y-112479264D01*
X130394962Y-112391849D01*
X130394967Y-112391846D01*
X130399949Y-112389523D01*
X130523048Y-112303328D01*
X130582989Y-112261357D01*
X130582992Y-112261355D01*
X130587500Y-112258198D01*
X130749398Y-112096300D01*
X130880723Y-111908749D01*
X130883046Y-111903767D01*
X130883049Y-111903762D01*
X130899005Y-111869543D01*
X130945922Y-111816258D01*
X131014199Y-111796797D01*
X131082159Y-111817339D01*
X131127395Y-111869543D01*
X131143351Y-111903762D01*
X131143354Y-111903767D01*
X131145677Y-111908749D01*
X131277002Y-112096300D01*
X131438900Y-112258198D01*
X131443408Y-112261355D01*
X131443411Y-112261357D01*
X131503352Y-112303328D01*
X131626451Y-112389523D01*
X131631433Y-112391846D01*
X131631438Y-112391849D01*
X131818902Y-112479264D01*
X131833957Y-112486284D01*
X131839265Y-112487706D01*
X131839267Y-112487707D01*
X132049798Y-112544119D01*
X132049800Y-112544119D01*
X132055113Y-112545543D01*
X132283200Y-112565498D01*
X132511287Y-112545543D01*
X132516600Y-112544119D01*
X132516602Y-112544119D01*
X132727133Y-112487707D01*
X132727135Y-112487706D01*
X132732443Y-112486284D01*
X132747498Y-112479264D01*
X132934962Y-112391849D01*
X132934967Y-112391846D01*
X132939949Y-112389523D01*
X133063048Y-112303328D01*
X133122989Y-112261357D01*
X133122992Y-112261355D01*
X133127500Y-112258198D01*
X133289398Y-112096300D01*
X133420723Y-111908749D01*
X133423046Y-111903767D01*
X133423049Y-111903762D01*
X133439005Y-111869543D01*
X133485922Y-111816258D01*
X133554199Y-111796797D01*
X133622159Y-111817339D01*
X133667395Y-111869543D01*
X133683351Y-111903762D01*
X133683354Y-111903767D01*
X133685677Y-111908749D01*
X133817002Y-112096300D01*
X133978900Y-112258198D01*
X133983408Y-112261355D01*
X133983411Y-112261357D01*
X134043352Y-112303328D01*
X134166451Y-112389523D01*
X134171433Y-112391846D01*
X134171438Y-112391849D01*
X134358902Y-112479264D01*
X134373957Y-112486284D01*
X134379265Y-112487706D01*
X134379267Y-112487707D01*
X134589798Y-112544119D01*
X134589800Y-112544119D01*
X134595113Y-112545543D01*
X134823200Y-112565498D01*
X135051287Y-112545543D01*
X135056600Y-112544119D01*
X135056602Y-112544119D01*
X135267133Y-112487707D01*
X135267135Y-112487706D01*
X135272443Y-112486284D01*
X135287498Y-112479264D01*
X135474962Y-112391849D01*
X135474967Y-112391846D01*
X135479949Y-112389523D01*
X135603048Y-112303328D01*
X135662989Y-112261357D01*
X135662992Y-112261355D01*
X135667500Y-112258198D01*
X135829398Y-112096300D01*
X135960723Y-111908749D01*
X135963046Y-111903767D01*
X135963049Y-111903762D01*
X135979005Y-111869543D01*
X136025922Y-111816258D01*
X136094199Y-111796797D01*
X136162159Y-111817339D01*
X136207395Y-111869543D01*
X136223351Y-111903762D01*
X136223354Y-111903767D01*
X136225677Y-111908749D01*
X136357002Y-112096300D01*
X136518900Y-112258198D01*
X136523408Y-112261355D01*
X136523411Y-112261357D01*
X136583352Y-112303328D01*
X136706451Y-112389523D01*
X136711433Y-112391846D01*
X136711438Y-112391849D01*
X136898902Y-112479264D01*
X136913957Y-112486284D01*
X136919265Y-112487706D01*
X136919267Y-112487707D01*
X137129798Y-112544119D01*
X137129800Y-112544119D01*
X137135113Y-112545543D01*
X137363200Y-112565498D01*
X137591287Y-112545543D01*
X137596600Y-112544119D01*
X137596602Y-112544119D01*
X137807133Y-112487707D01*
X137807135Y-112487706D01*
X137812443Y-112486284D01*
X137827498Y-112479264D01*
X138014962Y-112391849D01*
X138014967Y-112391846D01*
X138019949Y-112389523D01*
X138143048Y-112303328D01*
X138202989Y-112261357D01*
X138202992Y-112261355D01*
X138207500Y-112258198D01*
X138369398Y-112096300D01*
X138500723Y-111908749D01*
X138503046Y-111903767D01*
X138503049Y-111903762D01*
X138519005Y-111869543D01*
X138565922Y-111816258D01*
X138634199Y-111796797D01*
X138702159Y-111817339D01*
X138747395Y-111869543D01*
X138763351Y-111903762D01*
X138763354Y-111903767D01*
X138765677Y-111908749D01*
X138897002Y-112096300D01*
X139058900Y-112258198D01*
X139063408Y-112261355D01*
X139063411Y-112261357D01*
X139123352Y-112303328D01*
X139246451Y-112389523D01*
X139251433Y-112391846D01*
X139251438Y-112391849D01*
X139438902Y-112479264D01*
X139453957Y-112486284D01*
X139459265Y-112487706D01*
X139459267Y-112487707D01*
X139669798Y-112544119D01*
X139669800Y-112544119D01*
X139675113Y-112545543D01*
X139903200Y-112565498D01*
X140131287Y-112545543D01*
X140136600Y-112544119D01*
X140136602Y-112544119D01*
X140347133Y-112487707D01*
X140347135Y-112487706D01*
X140352443Y-112486284D01*
X140367498Y-112479264D01*
X140554962Y-112391849D01*
X140554967Y-112391846D01*
X140559949Y-112389523D01*
X140683048Y-112303328D01*
X140742989Y-112261357D01*
X140742992Y-112261355D01*
X140747500Y-112258198D01*
X140909398Y-112096300D01*
X141040723Y-111908749D01*
X141043046Y-111903767D01*
X141043049Y-111903762D01*
X141059005Y-111869543D01*
X141105922Y-111816258D01*
X141174199Y-111796797D01*
X141242159Y-111817339D01*
X141287395Y-111869543D01*
X141303351Y-111903762D01*
X141303354Y-111903767D01*
X141305677Y-111908749D01*
X141437002Y-112096300D01*
X141598900Y-112258198D01*
X141603408Y-112261355D01*
X141603411Y-112261357D01*
X141663352Y-112303328D01*
X141786451Y-112389523D01*
X141791433Y-112391846D01*
X141791438Y-112391849D01*
X141978902Y-112479264D01*
X141993957Y-112486284D01*
X141999265Y-112487706D01*
X141999267Y-112487707D01*
X142209798Y-112544119D01*
X142209800Y-112544119D01*
X142215113Y-112545543D01*
X142443200Y-112565498D01*
X142671287Y-112545543D01*
X142676600Y-112544119D01*
X142676602Y-112544119D01*
X142887133Y-112487707D01*
X142887135Y-112487706D01*
X142892443Y-112486284D01*
X142907498Y-112479264D01*
X143094962Y-112391849D01*
X143094967Y-112391846D01*
X143099949Y-112389523D01*
X143223048Y-112303328D01*
X143282989Y-112261357D01*
X143282992Y-112261355D01*
X143287500Y-112258198D01*
X143449398Y-112096300D01*
X143580723Y-111908749D01*
X143583046Y-111903767D01*
X143583049Y-111903762D01*
X143599005Y-111869543D01*
X143645922Y-111816258D01*
X143714199Y-111796797D01*
X143782159Y-111817339D01*
X143827395Y-111869543D01*
X143843351Y-111903762D01*
X143843354Y-111903767D01*
X143845677Y-111908749D01*
X143977002Y-112096300D01*
X144138900Y-112258198D01*
X144143408Y-112261355D01*
X144143411Y-112261357D01*
X144203352Y-112303328D01*
X144326451Y-112389523D01*
X144331433Y-112391846D01*
X144331438Y-112391849D01*
X144518902Y-112479264D01*
X144533957Y-112486284D01*
X144539265Y-112487706D01*
X144539267Y-112487707D01*
X144749798Y-112544119D01*
X144749800Y-112544119D01*
X144755113Y-112545543D01*
X144983200Y-112565498D01*
X145211287Y-112545543D01*
X145216600Y-112544119D01*
X145216602Y-112544119D01*
X145427133Y-112487707D01*
X145427135Y-112487706D01*
X145432443Y-112486284D01*
X145447498Y-112479264D01*
X145634962Y-112391849D01*
X145634967Y-112391846D01*
X145639949Y-112389523D01*
X145763048Y-112303328D01*
X145822989Y-112261357D01*
X145822992Y-112261355D01*
X145827500Y-112258198D01*
X145989398Y-112096300D01*
X146120723Y-111908749D01*
X146123046Y-111903767D01*
X146123049Y-111903762D01*
X146215161Y-111706225D01*
X146215161Y-111706224D01*
X146217484Y-111701243D01*
X146220529Y-111689881D01*
X146275319Y-111485402D01*
X146275319Y-111485400D01*
X146276743Y-111480087D01*
X146296698Y-111252000D01*
X146276743Y-111023913D01*
X146275319Y-111018598D01*
X146275318Y-111018591D01*
X146269800Y-110998000D01*
X149516526Y-110998000D01*
X149536391Y-111250403D01*
X149537545Y-111255210D01*
X149537546Y-111255216D01*
X149575179Y-111411968D01*
X149595495Y-111496591D01*
X149597388Y-111501162D01*
X149597389Y-111501164D01*
X149680265Y-111701243D01*
X149692384Y-111730502D01*
X149824672Y-111946376D01*
X149989102Y-112138898D01*
X150181624Y-112303328D01*
X150397498Y-112435616D01*
X150402068Y-112437509D01*
X150402072Y-112437511D01*
X150626836Y-112530611D01*
X150631409Y-112532505D01*
X150685717Y-112545543D01*
X150872784Y-112590454D01*
X150872790Y-112590455D01*
X150877597Y-112591609D01*
X150977416Y-112599465D01*
X151064345Y-112606307D01*
X151064352Y-112606307D01*
X151066801Y-112606500D01*
X151193199Y-112606500D01*
X151195648Y-112606307D01*
X151195655Y-112606307D01*
X151282584Y-112599465D01*
X151382403Y-112591609D01*
X151387210Y-112590455D01*
X151387216Y-112590454D01*
X151574283Y-112545543D01*
X151628591Y-112532505D01*
X151633164Y-112530611D01*
X151857928Y-112437511D01*
X151857932Y-112437509D01*
X151862502Y-112435616D01*
X152078376Y-112303328D01*
X152270898Y-112138898D01*
X152435328Y-111946376D01*
X152567616Y-111730502D01*
X152579736Y-111701243D01*
X152662611Y-111501164D01*
X152662612Y-111501162D01*
X152664505Y-111496591D01*
X152684821Y-111411968D01*
X152722454Y-111255216D01*
X152722455Y-111255210D01*
X152723609Y-111250403D01*
X152743474Y-110998000D01*
X152723609Y-110745597D01*
X152718378Y-110723805D01*
X152683865Y-110580048D01*
X152664505Y-110499409D01*
X152662611Y-110494836D01*
X152569511Y-110270072D01*
X152569509Y-110270068D01*
X152567616Y-110265498D01*
X152435328Y-110049624D01*
X152270898Y-109857102D01*
X152078376Y-109692672D01*
X151862502Y-109560384D01*
X151857932Y-109558491D01*
X151857928Y-109558489D01*
X151633164Y-109465389D01*
X151633162Y-109465388D01*
X151628591Y-109463495D01*
X151493293Y-109431013D01*
X151387216Y-109405546D01*
X151387210Y-109405545D01*
X151382403Y-109404391D01*
X151282584Y-109396535D01*
X151195655Y-109389693D01*
X151195648Y-109389693D01*
X151193199Y-109389500D01*
X151066801Y-109389500D01*
X151064352Y-109389693D01*
X151064345Y-109389693D01*
X150977416Y-109396535D01*
X150877597Y-109404391D01*
X150872790Y-109405545D01*
X150872784Y-109405546D01*
X150766707Y-109431013D01*
X150631409Y-109463495D01*
X150626838Y-109465388D01*
X150626836Y-109465389D01*
X150402072Y-109558489D01*
X150402068Y-109558491D01*
X150397498Y-109560384D01*
X150181624Y-109692672D01*
X149989102Y-109857102D01*
X149824672Y-110049624D01*
X149692384Y-110265498D01*
X149690491Y-110270068D01*
X149690489Y-110270072D01*
X149597389Y-110494836D01*
X149595495Y-110499409D01*
X149576135Y-110580048D01*
X149541623Y-110723805D01*
X149536391Y-110745597D01*
X149516526Y-110998000D01*
X146269800Y-110998000D01*
X146259741Y-110960459D01*
X146261430Y-110889483D01*
X146292352Y-110838752D01*
X146499958Y-110631146D01*
X146508248Y-110623602D01*
X146514729Y-110619489D01*
X146561370Y-110569821D01*
X146564124Y-110566980D01*
X146583846Y-110547258D01*
X146586330Y-110544056D01*
X146594028Y-110535044D01*
X146618872Y-110508587D01*
X146624297Y-110502810D01*
X146634058Y-110485055D01*
X146644909Y-110468536D01*
X146657325Y-110452530D01*
X146673010Y-110416284D01*
X146674885Y-110411952D01*
X146680102Y-110401302D01*
X146701406Y-110362549D01*
X146706444Y-110342926D01*
X146712848Y-110324223D01*
X146717744Y-110312909D01*
X146717744Y-110312908D01*
X146720892Y-110305634D01*
X146722131Y-110297811D01*
X146722134Y-110297801D01*
X146727810Y-110261965D01*
X146730216Y-110250345D01*
X146739239Y-110215200D01*
X146739239Y-110215199D01*
X146741211Y-110207519D01*
X146741211Y-110187265D01*
X146742762Y-110167554D01*
X146744691Y-110155375D01*
X146745931Y-110147546D01*
X146741770Y-110103527D01*
X146741211Y-110091670D01*
X146741211Y-95411879D01*
X146741738Y-95400696D01*
X146743413Y-95393203D01*
X146741273Y-95325112D01*
X146741211Y-95321155D01*
X146741211Y-95293255D01*
X146740707Y-95289264D01*
X146739774Y-95277422D01*
X146738634Y-95241147D01*
X146738385Y-95233222D01*
X146732732Y-95213763D01*
X146728723Y-95194404D01*
X146728260Y-95190742D01*
X146726185Y-95174314D01*
X146723269Y-95166948D01*
X146723267Y-95166942D01*
X146709911Y-95133209D01*
X146706066Y-95121979D01*
X146695941Y-95087128D01*
X146695941Y-95087127D01*
X146693730Y-95079518D01*
X146683416Y-95062077D01*
X146674719Y-95044324D01*
X146670183Y-95032869D01*
X146667263Y-95025494D01*
X146641274Y-94989723D01*
X146634758Y-94979803D01*
X146612253Y-94941749D01*
X146597932Y-94927428D01*
X146585091Y-94912394D01*
X146577842Y-94902417D01*
X146573183Y-94896004D01*
X146539106Y-94867813D01*
X146530327Y-94859823D01*
X145494532Y-93824027D01*
X145486992Y-93815741D01*
X145482880Y-93809262D01*
X145433228Y-93762636D01*
X145430387Y-93759882D01*
X145410650Y-93740145D01*
X145407453Y-93737665D01*
X145398431Y-93729960D01*
X145371980Y-93705121D01*
X145366201Y-93699694D01*
X145359255Y-93695875D01*
X145359252Y-93695873D01*
X145348446Y-93689932D01*
X145331927Y-93679081D01*
X145331463Y-93678721D01*
X145315921Y-93666666D01*
X145308652Y-93663521D01*
X145308648Y-93663518D01*
X145275343Y-93649106D01*
X145264693Y-93643889D01*
X145225940Y-93622585D01*
X145206317Y-93617547D01*
X145187614Y-93611143D01*
X145176300Y-93606247D01*
X145176299Y-93606247D01*
X145169025Y-93603099D01*
X145161202Y-93601860D01*
X145161192Y-93601857D01*
X145125356Y-93596181D01*
X145113736Y-93593775D01*
X145078591Y-93584752D01*
X145078590Y-93584752D01*
X145070910Y-93582780D01*
X145050656Y-93582780D01*
X145030945Y-93581229D01*
X145018766Y-93579300D01*
X145010937Y-93578060D01*
X145003045Y-93578806D01*
X144966919Y-93582221D01*
X144955061Y-93582780D01*
X142233511Y-93582780D01*
X142165390Y-93562778D01*
X142144415Y-93545875D01*
X141447323Y-92848782D01*
X141439789Y-92840503D01*
X141435676Y-92834022D01*
X141386024Y-92787396D01*
X141383183Y-92784642D01*
X141363446Y-92764905D01*
X141360249Y-92762425D01*
X141351227Y-92754720D01*
X141324776Y-92729881D01*
X141318997Y-92724454D01*
X141312051Y-92720635D01*
X141312048Y-92720633D01*
X141301242Y-92714692D01*
X141284723Y-92703841D01*
X141284259Y-92703481D01*
X141268717Y-92691426D01*
X141261448Y-92688281D01*
X141261444Y-92688278D01*
X141228139Y-92673866D01*
X141217489Y-92668649D01*
X141178736Y-92647345D01*
X141159113Y-92642307D01*
X141140410Y-92635903D01*
X141129096Y-92631007D01*
X141129095Y-92631007D01*
X141121821Y-92627859D01*
X141113998Y-92626620D01*
X141113988Y-92626617D01*
X141078152Y-92620941D01*
X141066532Y-92618535D01*
X141031387Y-92609512D01*
X141031386Y-92609512D01*
X141023706Y-92607540D01*
X141003452Y-92607540D01*
X140983741Y-92605989D01*
X140971562Y-92604060D01*
X140963733Y-92602820D01*
X140955841Y-92603566D01*
X140919715Y-92606981D01*
X140907857Y-92607540D01*
X136636906Y-92607540D01*
X136568785Y-92587538D01*
X136547811Y-92570635D01*
X135519807Y-91542630D01*
X135512267Y-91534344D01*
X135508155Y-91527865D01*
X135458503Y-91481239D01*
X135455662Y-91478485D01*
X135435925Y-91458748D01*
X135432728Y-91456268D01*
X135423706Y-91448563D01*
X135397255Y-91423724D01*
X135391476Y-91418297D01*
X135384530Y-91414478D01*
X135384527Y-91414476D01*
X135373721Y-91408535D01*
X135357202Y-91397684D01*
X135356738Y-91397324D01*
X135341196Y-91385269D01*
X135333927Y-91382124D01*
X135333923Y-91382121D01*
X135300618Y-91367709D01*
X135289968Y-91362492D01*
X135251215Y-91341188D01*
X135231592Y-91336150D01*
X135212889Y-91329746D01*
X135201575Y-91324850D01*
X135201574Y-91324850D01*
X135194300Y-91321702D01*
X135186477Y-91320463D01*
X135186467Y-91320460D01*
X135150631Y-91314784D01*
X135139011Y-91312378D01*
X135103866Y-91303355D01*
X135103865Y-91303355D01*
X135096185Y-91301383D01*
X135075931Y-91301383D01*
X135056220Y-91299832D01*
X135044041Y-91297903D01*
X135036212Y-91296663D01*
X135028320Y-91297409D01*
X134992194Y-91300824D01*
X134980336Y-91301383D01*
X131958500Y-91301383D01*
X131890379Y-91281381D01*
X131843886Y-91227725D01*
X131832500Y-91175383D01*
X131832499Y-90095719D01*
X131832499Y-90091596D01*
X131816838Y-89972630D01*
X131755524Y-89824604D01*
X131684337Y-89731832D01*
X131663014Y-89704044D01*
X131663013Y-89704043D01*
X131657987Y-89697493D01*
X131651437Y-89692467D01*
X131651434Y-89692464D01*
X131594431Y-89648724D01*
X131530875Y-89599956D01*
X131382850Y-89538642D01*
X131354586Y-89534921D01*
X131267972Y-89523518D01*
X131267971Y-89523518D01*
X131263885Y-89522980D01*
X131124017Y-89522980D01*
X130984116Y-89522981D01*
X130980031Y-89523519D01*
X130980027Y-89523519D01*
X130873337Y-89537564D01*
X130873335Y-89537564D01*
X130865150Y-89538642D01*
X130847219Y-89546069D01*
X130776630Y-89553659D01*
X130750782Y-89546070D01*
X130747339Y-89544643D01*
X130740480Y-89541802D01*
X130740477Y-89541801D01*
X130732850Y-89538642D01*
X130704586Y-89534921D01*
X130617972Y-89523518D01*
X130617971Y-89523518D01*
X130613885Y-89522980D01*
X130474017Y-89522980D01*
X130334116Y-89522981D01*
X130330031Y-89523519D01*
X130330027Y-89523519D01*
X130223337Y-89537564D01*
X130223335Y-89537564D01*
X130215150Y-89538642D01*
X130197219Y-89546069D01*
X130126630Y-89553659D01*
X130100782Y-89546070D01*
X130097339Y-89544643D01*
X130090480Y-89541802D01*
X130090477Y-89541801D01*
X130082850Y-89538642D01*
X130054586Y-89534921D01*
X129967972Y-89523518D01*
X129967971Y-89523518D01*
X129963885Y-89522980D01*
X129824017Y-89522980D01*
X129684116Y-89522981D01*
X129680031Y-89523519D01*
X129680027Y-89523519D01*
X129573337Y-89537564D01*
X129573335Y-89537564D01*
X129565150Y-89538642D01*
X129547219Y-89546069D01*
X129476630Y-89553659D01*
X129450782Y-89546070D01*
X129447339Y-89544643D01*
X129440480Y-89541802D01*
X129440477Y-89541801D01*
X129432850Y-89538642D01*
X129404586Y-89534921D01*
X129317972Y-89523518D01*
X129317971Y-89523518D01*
X129313885Y-89522980D01*
X129174017Y-89522980D01*
X129034116Y-89522981D01*
X129030031Y-89523519D01*
X129030027Y-89523519D01*
X128923337Y-89537564D01*
X128923335Y-89537564D01*
X128915150Y-89538642D01*
X128897219Y-89546069D01*
X128826630Y-89553659D01*
X128800782Y-89546070D01*
X128797339Y-89544643D01*
X128790480Y-89541802D01*
X128790477Y-89541801D01*
X128782850Y-89538642D01*
X128754586Y-89534921D01*
X128667972Y-89523518D01*
X128667971Y-89523518D01*
X128663885Y-89522980D01*
X128524017Y-89522980D01*
X128384116Y-89522981D01*
X128380031Y-89523519D01*
X128380027Y-89523519D01*
X128273337Y-89537564D01*
X128273335Y-89537564D01*
X128265150Y-89538642D01*
X128247219Y-89546069D01*
X128176630Y-89553659D01*
X128150782Y-89546070D01*
X128147339Y-89544643D01*
X128140480Y-89541802D01*
X128140477Y-89541801D01*
X128132850Y-89538642D01*
X128104586Y-89534921D01*
X128017972Y-89523518D01*
X128017971Y-89523518D01*
X128013885Y-89522980D01*
X127874017Y-89522980D01*
X127734116Y-89522981D01*
X127730031Y-89523519D01*
X127730027Y-89523519D01*
X127623337Y-89537564D01*
X127623335Y-89537564D01*
X127615150Y-89538642D01*
X127597219Y-89546069D01*
X127526630Y-89553659D01*
X127500782Y-89546070D01*
X127497339Y-89544643D01*
X127490480Y-89541802D01*
X127490477Y-89541801D01*
X127482850Y-89538642D01*
X127454586Y-89534921D01*
X127367972Y-89523518D01*
X127367971Y-89523518D01*
X127363885Y-89522980D01*
X127224017Y-89522980D01*
X127084116Y-89522981D01*
X126993419Y-89534921D01*
X126923272Y-89523981D01*
X126887879Y-89499094D01*
X126703488Y-89314702D01*
X126695954Y-89306423D01*
X126691841Y-89299942D01*
X126642188Y-89253315D01*
X126639347Y-89250561D01*
X126619611Y-89230825D01*
X126616414Y-89228345D01*
X126607392Y-89220640D01*
X126593957Y-89208024D01*
X126575162Y-89190374D01*
X126568216Y-89186555D01*
X126568213Y-89186553D01*
X126557407Y-89180612D01*
X126540888Y-89169761D01*
X126533776Y-89164245D01*
X126524882Y-89157346D01*
X126517613Y-89154201D01*
X126517609Y-89154198D01*
X126484304Y-89139786D01*
X126473654Y-89134569D01*
X126434901Y-89113265D01*
X126415278Y-89108227D01*
X126396575Y-89101823D01*
X126385261Y-89096927D01*
X126385260Y-89096927D01*
X126377986Y-89093779D01*
X126370163Y-89092540D01*
X126370153Y-89092537D01*
X126334317Y-89086861D01*
X126322697Y-89084455D01*
X126287552Y-89075432D01*
X126287551Y-89075432D01*
X126279871Y-89073460D01*
X126259617Y-89073460D01*
X126239906Y-89071909D01*
X126237375Y-89071508D01*
X126219898Y-89068740D01*
X126212006Y-89069486D01*
X126175880Y-89072901D01*
X126164022Y-89073460D01*
X125631803Y-89073460D01*
X125620619Y-89072933D01*
X125613131Y-89071259D01*
X125605208Y-89071508D01*
X125545073Y-89073398D01*
X125541115Y-89073460D01*
X125513184Y-89073460D01*
X125509269Y-89073955D01*
X125509265Y-89073955D01*
X125509207Y-89073963D01*
X125509178Y-89073966D01*
X125497336Y-89074899D01*
X125453150Y-89076287D01*
X125435784Y-89081332D01*
X125433698Y-89081938D01*
X125414346Y-89085946D01*
X125402108Y-89087492D01*
X125402106Y-89087493D01*
X125394243Y-89088486D01*
X125353126Y-89104766D01*
X125341925Y-89108601D01*
X125299446Y-89120942D01*
X125292627Y-89124975D01*
X125292622Y-89124977D01*
X125282011Y-89131253D01*
X125264261Y-89139950D01*
X125245423Y-89147408D01*
X125239007Y-89152069D01*
X125239006Y-89152070D01*
X125225061Y-89162202D01*
X125216989Y-89168067D01*
X125209665Y-89173388D01*
X125199741Y-89179907D01*
X125168500Y-89198382D01*
X125168495Y-89198386D01*
X125161677Y-89202418D01*
X125147353Y-89216742D01*
X125132321Y-89229581D01*
X125115933Y-89241488D01*
X125087752Y-89275553D01*
X125079762Y-89284333D01*
X124101500Y-90262595D01*
X124039188Y-90296621D01*
X124012405Y-90299500D01*
X123426600Y-90299500D01*
X123423354Y-90299837D01*
X123423350Y-90299837D01*
X123327692Y-90309762D01*
X123327688Y-90309763D01*
X123320834Y-90310474D01*
X123314298Y-90312655D01*
X123314296Y-90312655D01*
X123183711Y-90356222D01*
X123153054Y-90366450D01*
X123002652Y-90459522D01*
X122997479Y-90464704D01*
X122956371Y-90505884D01*
X122877695Y-90584697D01*
X122873855Y-90590927D01*
X122873854Y-90590928D01*
X122834702Y-90654445D01*
X122784885Y-90735262D01*
X122782581Y-90742209D01*
X122737449Y-90878279D01*
X122729203Y-90903139D01*
X122718500Y-91007600D01*
X122718500Y-91608400D01*
X122729474Y-91714166D01*
X122785450Y-91881946D01*
X122878522Y-92032348D01*
X123003697Y-92157305D01*
X123009927Y-92161145D01*
X123009928Y-92161146D01*
X123147090Y-92245694D01*
X123154262Y-92250115D01*
X123211286Y-92269029D01*
X123232167Y-92275955D01*
X123290527Y-92316386D01*
X123317764Y-92381950D01*
X123318500Y-92395548D01*
X123318500Y-93411405D01*
X123298498Y-93479526D01*
X123281595Y-93500500D01*
X122565011Y-94217084D01*
X122502699Y-94251110D01*
X122475916Y-94253989D01*
X121736179Y-94253989D01*
X121724996Y-94253462D01*
X121717503Y-94251787D01*
X121709577Y-94252036D01*
X121709576Y-94252036D01*
X121649413Y-94253927D01*
X121645455Y-94253989D01*
X121617555Y-94253989D01*
X121613565Y-94254493D01*
X121601731Y-94255425D01*
X121557522Y-94256815D01*
X121549906Y-94259028D01*
X121549904Y-94259028D01*
X121538063Y-94262468D01*
X121518704Y-94266477D01*
X121517394Y-94266643D01*
X121498614Y-94269015D01*
X121491248Y-94271931D01*
X121491242Y-94271933D01*
X121457509Y-94285289D01*
X121446279Y-94289134D01*
X121411428Y-94299259D01*
X121403818Y-94301470D01*
X121396995Y-94305505D01*
X121386377Y-94311784D01*
X121368624Y-94320481D01*
X121360979Y-94323508D01*
X121349794Y-94327937D01*
X121343379Y-94332598D01*
X121314023Y-94353926D01*
X121304106Y-94360440D01*
X121266049Y-94382947D01*
X121251728Y-94397268D01*
X121236695Y-94410108D01*
X121220304Y-94422017D01*
X121193927Y-94453902D01*
X121192123Y-94456082D01*
X121184133Y-94464863D01*
X120624441Y-95024554D01*
X120562129Y-95058579D01*
X120491313Y-95053514D01*
X120446251Y-95024553D01*
X120427500Y-95005802D01*
X120422992Y-95002645D01*
X120422989Y-95002643D01*
X120324449Y-94933645D01*
X120239949Y-94874477D01*
X120234967Y-94872154D01*
X120234962Y-94872151D01*
X120037425Y-94780039D01*
X120037424Y-94780039D01*
X120032443Y-94777716D01*
X120027135Y-94776294D01*
X120027133Y-94776293D01*
X119816602Y-94719881D01*
X119816600Y-94719881D01*
X119811287Y-94718457D01*
X119583200Y-94698502D01*
X119355113Y-94718457D01*
X119349800Y-94719881D01*
X119349798Y-94719881D01*
X119139267Y-94776293D01*
X119139265Y-94776294D01*
X119133957Y-94777716D01*
X119128976Y-94780039D01*
X119128975Y-94780039D01*
X118931438Y-94872151D01*
X118931433Y-94872154D01*
X118926451Y-94874477D01*
X118841951Y-94933645D01*
X118743411Y-95002643D01*
X118743408Y-95002645D01*
X118738900Y-95005802D01*
X118577002Y-95167700D01*
X118573845Y-95172208D01*
X118573843Y-95172211D01*
X118544748Y-95213763D01*
X118445677Y-95355251D01*
X118443354Y-95360233D01*
X118443351Y-95360238D01*
X118427395Y-95394457D01*
X118348916Y-95562757D01*
X118347494Y-95568065D01*
X118347493Y-95568067D01*
X118334483Y-95616621D01*
X118289657Y-95783913D01*
X118269702Y-96012000D01*
X118289657Y-96240087D01*
X118291081Y-96245400D01*
X118291081Y-96245402D01*
X118306618Y-96303384D01*
X118348916Y-96461243D01*
X118351239Y-96466224D01*
X118351239Y-96466225D01*
X118443351Y-96663762D01*
X118443354Y-96663767D01*
X118445677Y-96668749D01*
X118577002Y-96856300D01*
X118628903Y-96908201D01*
X118662929Y-96970513D01*
X118657864Y-97041328D01*
X118628903Y-97086391D01*
X118073342Y-97641952D01*
X118065062Y-97649487D01*
X118058582Y-97653600D01*
X118011957Y-97703251D01*
X118009202Y-97706093D01*
X117989465Y-97725830D01*
X117986985Y-97729027D01*
X117979282Y-97738047D01*
X117949014Y-97770279D01*
X117945195Y-97777225D01*
X117945193Y-97777228D01*
X117939252Y-97788034D01*
X117928401Y-97804553D01*
X117915986Y-97820559D01*
X117912841Y-97827828D01*
X117912838Y-97827832D01*
X117898426Y-97861137D01*
X117893209Y-97871787D01*
X117871905Y-97910540D01*
X117869934Y-97918215D01*
X117869934Y-97918216D01*
X117866867Y-97930162D01*
X117860463Y-97948866D01*
X117852419Y-97967455D01*
X117851180Y-97975278D01*
X117851177Y-97975288D01*
X117845501Y-98011124D01*
X117843095Y-98022744D01*
X117834072Y-98057889D01*
X117832100Y-98065570D01*
X117832100Y-98085824D01*
X117830549Y-98105534D01*
X117827380Y-98125543D01*
X117828126Y-98133435D01*
X117831541Y-98169561D01*
X117832100Y-98181419D01*
X117832100Y-101336205D01*
X117812098Y-101404326D01*
X117795195Y-101425300D01*
X116868500Y-102351995D01*
X116806188Y-102386021D01*
X116779405Y-102388900D01*
X114937567Y-102388900D01*
X114926384Y-102388373D01*
X114918891Y-102386698D01*
X114910965Y-102386947D01*
X114910964Y-102386947D01*
X114850814Y-102388838D01*
X114846855Y-102388900D01*
X114818944Y-102388900D01*
X114815010Y-102389397D01*
X114815009Y-102389397D01*
X114814944Y-102389405D01*
X114803107Y-102390338D01*
X114771290Y-102391338D01*
X114766829Y-102391478D01*
X114758910Y-102391727D01*
X114741254Y-102396856D01*
X114739458Y-102397378D01*
X114720106Y-102401386D01*
X114713035Y-102402280D01*
X114700003Y-102403926D01*
X114670516Y-102415601D01*
X114620618Y-102424399D01*
X114563565Y-102422805D01*
X114556859Y-102424084D01*
X114550523Y-102424594D01*
X114540416Y-102425000D01*
X96179035Y-102425000D01*
X96168492Y-102424558D01*
X96118701Y-102420377D01*
X96111941Y-102421279D01*
X96111937Y-102421279D01*
X96041288Y-102430705D01*
X96038234Y-102431075D01*
X95967364Y-102438774D01*
X95967361Y-102438775D01*
X95960583Y-102439511D01*
X95954122Y-102441685D01*
X95951753Y-102442206D01*
X95951204Y-102442303D01*
X95950463Y-102442475D01*
X95949923Y-102442632D01*
X95947571Y-102443210D01*
X95940810Y-102444112D01*
X95867428Y-102470821D01*
X95864524Y-102471838D01*
X95790489Y-102496754D01*
X95784639Y-102500269D01*
X95782447Y-102501282D01*
X95781932Y-102501494D01*
X95781234Y-102501827D01*
X95780733Y-102502100D01*
X95778579Y-102503160D01*
X95772166Y-102505494D01*
X95706169Y-102547377D01*
X95703700Y-102548902D01*
X95636656Y-102589186D01*
X95631694Y-102593878D01*
X95629772Y-102595337D01*
X95628851Y-102595976D01*
X95625005Y-102598885D01*
X95620637Y-102601657D01*
X95616537Y-102605323D01*
X95564632Y-102657228D01*
X95562111Y-102659680D01*
X95506260Y-102712496D01*
X95502426Y-102718137D01*
X95498291Y-102722996D01*
X95491434Y-102730426D01*
X93218615Y-105003246D01*
X93156303Y-105037271D01*
X93085488Y-105032207D01*
X93040425Y-105003246D01*
X92661346Y-104624167D01*
X92656438Y-104618973D01*
X92606551Y-104563079D01*
X92606549Y-104563077D01*
X92603434Y-104559587D01*
X92514596Y-104485701D01*
X92512945Y-104484304D01*
X92512045Y-104483528D01*
X92475957Y-104452433D01*
X92428917Y-104411900D01*
X92428913Y-104411897D01*
X92425379Y-104408852D01*
X92419168Y-104404933D01*
X92405842Y-104395251D01*
X92403795Y-104393549D01*
X92403793Y-104393547D01*
X92400196Y-104390556D01*
X92391886Y-104385513D01*
X92301378Y-104330591D01*
X92299509Y-104329434D01*
X92205769Y-104270289D01*
X92205767Y-104270288D01*
X92201816Y-104267795D01*
X92197537Y-104265912D01*
X92197531Y-104265909D01*
X92195106Y-104264842D01*
X92180493Y-104257236D01*
X92178197Y-104255843D01*
X92174206Y-104253421D01*
X92169897Y-104251614D01*
X92067610Y-104208721D01*
X92065590Y-104207853D01*
X91964142Y-104163215D01*
X91964141Y-104163214D01*
X91959860Y-104161331D01*
X91955351Y-104160102D01*
X91955346Y-104160100D01*
X91952785Y-104159402D01*
X91937200Y-104154037D01*
X91930429Y-104151197D01*
X91818368Y-104122737D01*
X91816354Y-104122207D01*
X91704826Y-104091801D01*
X91700195Y-104091253D01*
X91700180Y-104091250D01*
X91697533Y-104090937D01*
X91681334Y-104087935D01*
X91678756Y-104087280D01*
X91678753Y-104087279D01*
X91674219Y-104086128D01*
X91559216Y-104074547D01*
X91557148Y-104074321D01*
X91442315Y-104060730D01*
X91336608Y-104063960D01*
X91336568Y-104063961D01*
X91332720Y-104064020D01*
X85690480Y-104064020D01*
X85622359Y-104044018D01*
X85575866Y-103990362D01*
X85564868Y-103947906D01*
X85549952Y-103758383D01*
X85547378Y-103725674D01*
X85531156Y-103658102D01*
X85499667Y-103526942D01*
X85487355Y-103475660D01*
X85388960Y-103238113D01*
X85254616Y-103018884D01*
X85087631Y-102823369D01*
X84892116Y-102656384D01*
X84672887Y-102522040D01*
X84668317Y-102520147D01*
X84668313Y-102520145D01*
X84439913Y-102425539D01*
X84439911Y-102425538D01*
X84435340Y-102423645D01*
X84325930Y-102397378D01*
X84190139Y-102364777D01*
X84190133Y-102364776D01*
X84185326Y-102363622D01*
X84096035Y-102356595D01*
X83995637Y-102348693D01*
X83995628Y-102348693D01*
X83993180Y-102348500D01*
X81614820Y-102348500D01*
X81612372Y-102348693D01*
X81612363Y-102348693D01*
X81511965Y-102356595D01*
X81422674Y-102363622D01*
X81417867Y-102364776D01*
X81417861Y-102364777D01*
X81282070Y-102397378D01*
X81172660Y-102423645D01*
X81168089Y-102425538D01*
X81168087Y-102425539D01*
X80939687Y-102520145D01*
X80939683Y-102520147D01*
X80935113Y-102522040D01*
X80715884Y-102656384D01*
X80520369Y-102823369D01*
X80353384Y-103018884D01*
X80219040Y-103238113D01*
X80120645Y-103475660D01*
X80108333Y-103526942D01*
X80076845Y-103658102D01*
X80060622Y-103725674D01*
X80040449Y-103982000D01*
X66548000Y-103982000D01*
X66548000Y-91095511D01*
X71191477Y-91095511D01*
X71191528Y-91097655D01*
X71193610Y-91186000D01*
X71203641Y-91611650D01*
X71205332Y-91683422D01*
X71259141Y-92269029D01*
X71259480Y-92271132D01*
X71259481Y-92271142D01*
X71280871Y-92403942D01*
X71352657Y-92849620D01*
X71485445Y-93422506D01*
X71656890Y-93985034D01*
X71657651Y-93987032D01*
X71657653Y-93987038D01*
X71684416Y-94057306D01*
X71866199Y-94534599D01*
X71867102Y-94536557D01*
X71867105Y-94536565D01*
X71980789Y-94783164D01*
X72112402Y-95068654D01*
X72394359Y-95584727D01*
X72710763Y-96080428D01*
X73060150Y-96553460D01*
X73061546Y-96555103D01*
X73061549Y-96555107D01*
X73414463Y-96970513D01*
X73440902Y-97001634D01*
X73442399Y-97003171D01*
X73442402Y-97003174D01*
X73849760Y-97421339D01*
X73849769Y-97421348D01*
X73851254Y-97422872D01*
X74289307Y-97815225D01*
X74322311Y-97840964D01*
X74751345Y-98175560D01*
X74751357Y-98175569D01*
X74753032Y-98176875D01*
X75240280Y-98506147D01*
X75242118Y-98507214D01*
X75242125Y-98507219D01*
X75684920Y-98764415D01*
X75748796Y-98801517D01*
X75750722Y-98802467D01*
X75750728Y-98802470D01*
X76274286Y-99060660D01*
X76276223Y-99061615D01*
X76278215Y-99062434D01*
X76818149Y-99284428D01*
X76818159Y-99284432D01*
X76820120Y-99285238D01*
X77089473Y-99375101D01*
X77375940Y-99470674D01*
X77375947Y-99470676D01*
X77377967Y-99471350D01*
X77947181Y-99619089D01*
X77949278Y-99619483D01*
X77949281Y-99619484D01*
X78162937Y-99659661D01*
X78525125Y-99727770D01*
X78527232Y-99728019D01*
X78527236Y-99728020D01*
X78739639Y-99753160D01*
X79109123Y-99796891D01*
X79111269Y-99796998D01*
X79111271Y-99796998D01*
X79694337Y-99826025D01*
X79694343Y-99826025D01*
X79696470Y-99826131D01*
X79698599Y-99826092D01*
X79698601Y-99826092D01*
X79845208Y-99823405D01*
X80284445Y-99815355D01*
X80669636Y-99781994D01*
X80868180Y-99764798D01*
X80868184Y-99764798D01*
X80870326Y-99764612D01*
X81451399Y-99674138D01*
X82024972Y-99544351D01*
X82588390Y-99375854D01*
X82590387Y-99375105D01*
X82590400Y-99375101D01*
X82952673Y-99239292D01*
X83139043Y-99169425D01*
X83140994Y-99168538D01*
X83672437Y-98926906D01*
X83672451Y-98926899D01*
X83674380Y-98926022D01*
X83676251Y-98925013D01*
X83676260Y-98925008D01*
X84190055Y-98647779D01*
X84190057Y-98647778D01*
X84191923Y-98646771D01*
X84193704Y-98645647D01*
X84193713Y-98645642D01*
X84416702Y-98504946D01*
X84689273Y-98332966D01*
X85044441Y-98073499D01*
X85162405Y-97987321D01*
X85162415Y-97987313D01*
X85164129Y-97986061D01*
X85469992Y-97728956D01*
X85612643Y-97609045D01*
X85612649Y-97609039D01*
X85614289Y-97607661D01*
X85615842Y-97606164D01*
X86036123Y-97201013D01*
X86036134Y-97201002D01*
X86037671Y-97199520D01*
X86344868Y-96860134D01*
X108114700Y-96860134D01*
X108121455Y-96922316D01*
X108172585Y-97058705D01*
X108259939Y-97175261D01*
X108376495Y-97262615D01*
X108512884Y-97313745D01*
X108575066Y-97320500D01*
X110271334Y-97320500D01*
X110333516Y-97313745D01*
X110469905Y-97262615D01*
X110586461Y-97175261D01*
X110673815Y-97058705D01*
X110724945Y-96922316D01*
X110726117Y-96911526D01*
X110727003Y-96909394D01*
X110727625Y-96906778D01*
X110728048Y-96906879D01*
X110753355Y-96845965D01*
X110811717Y-96805537D01*
X110882671Y-96803078D01*
X110943690Y-96839371D01*
X110950689Y-96848031D01*
X110953843Y-96851789D01*
X110957002Y-96856300D01*
X111118900Y-97018198D01*
X111123408Y-97021355D01*
X111123411Y-97021357D01*
X111151933Y-97041328D01*
X111306451Y-97149523D01*
X111311433Y-97151846D01*
X111311438Y-97151849D01*
X111416872Y-97201013D01*
X111513957Y-97246284D01*
X111519265Y-97247706D01*
X111519267Y-97247707D01*
X111729798Y-97304119D01*
X111729800Y-97304119D01*
X111735113Y-97305543D01*
X111963200Y-97325498D01*
X112191287Y-97305543D01*
X112196600Y-97304119D01*
X112196602Y-97304119D01*
X112407133Y-97247707D01*
X112407135Y-97247706D01*
X112412443Y-97246284D01*
X112509528Y-97201013D01*
X112614962Y-97151849D01*
X112614967Y-97151846D01*
X112619949Y-97149523D01*
X112774467Y-97041328D01*
X112802989Y-97021357D01*
X112802992Y-97021355D01*
X112807500Y-97018198D01*
X112969398Y-96856300D01*
X113100723Y-96668749D01*
X113103046Y-96663767D01*
X113103049Y-96663762D01*
X113119005Y-96629543D01*
X113165922Y-96576258D01*
X113234199Y-96556797D01*
X113302159Y-96577339D01*
X113347395Y-96629543D01*
X113363351Y-96663762D01*
X113363354Y-96663767D01*
X113365677Y-96668749D01*
X113497002Y-96856300D01*
X113658900Y-97018198D01*
X113663408Y-97021355D01*
X113663411Y-97021357D01*
X113691933Y-97041328D01*
X113846451Y-97149523D01*
X113851433Y-97151846D01*
X113851438Y-97151849D01*
X113956872Y-97201013D01*
X114053957Y-97246284D01*
X114059265Y-97247706D01*
X114059267Y-97247707D01*
X114269798Y-97304119D01*
X114269800Y-97304119D01*
X114275113Y-97305543D01*
X114503200Y-97325498D01*
X114731287Y-97305543D01*
X114736600Y-97304119D01*
X114736602Y-97304119D01*
X114947133Y-97247707D01*
X114947135Y-97247706D01*
X114952443Y-97246284D01*
X115049528Y-97201013D01*
X115154962Y-97151849D01*
X115154967Y-97151846D01*
X115159949Y-97149523D01*
X115314467Y-97041328D01*
X115342989Y-97021357D01*
X115342992Y-97021355D01*
X115347500Y-97018198D01*
X115509398Y-96856300D01*
X115640723Y-96668749D01*
X115643046Y-96663767D01*
X115643049Y-96663762D01*
X115735161Y-96466225D01*
X115735161Y-96466224D01*
X115737484Y-96461243D01*
X115779783Y-96303384D01*
X115795319Y-96245402D01*
X115795319Y-96245400D01*
X115796743Y-96240087D01*
X115816698Y-96012000D01*
X115796743Y-95783913D01*
X115751917Y-95616621D01*
X115738907Y-95568067D01*
X115738906Y-95568065D01*
X115737484Y-95562757D01*
X115659005Y-95394457D01*
X115643049Y-95360238D01*
X115643046Y-95360233D01*
X115640723Y-95355251D01*
X115541652Y-95213763D01*
X115512557Y-95172211D01*
X115512555Y-95172208D01*
X115509398Y-95167700D01*
X115347500Y-95005802D01*
X115342992Y-95002645D01*
X115342989Y-95002643D01*
X115244449Y-94933645D01*
X115159949Y-94874477D01*
X115154967Y-94872154D01*
X115154962Y-94872151D01*
X114957425Y-94780039D01*
X114957424Y-94780039D01*
X114952443Y-94777716D01*
X114947135Y-94776294D01*
X114947133Y-94776293D01*
X114736602Y-94719881D01*
X114736600Y-94719881D01*
X114731287Y-94718457D01*
X114503200Y-94698502D01*
X114275113Y-94718457D01*
X114269800Y-94719881D01*
X114269798Y-94719881D01*
X114059267Y-94776293D01*
X114059265Y-94776294D01*
X114053957Y-94777716D01*
X114048976Y-94780039D01*
X114048975Y-94780039D01*
X113851438Y-94872151D01*
X113851433Y-94872154D01*
X113846451Y-94874477D01*
X113761951Y-94933645D01*
X113663411Y-95002643D01*
X113663408Y-95002645D01*
X113658900Y-95005802D01*
X113497002Y-95167700D01*
X113493845Y-95172208D01*
X113493843Y-95172211D01*
X113464748Y-95213763D01*
X113365677Y-95355251D01*
X113363354Y-95360233D01*
X113363351Y-95360238D01*
X113347395Y-95394457D01*
X113300478Y-95447742D01*
X113232201Y-95467203D01*
X113164241Y-95446661D01*
X113119005Y-95394457D01*
X113103049Y-95360238D01*
X113103046Y-95360233D01*
X113100723Y-95355251D01*
X113001652Y-95213763D01*
X112972557Y-95172211D01*
X112972555Y-95172208D01*
X112969398Y-95167700D01*
X112807500Y-95005802D01*
X112802992Y-95002645D01*
X112802989Y-95002643D01*
X112704449Y-94933645D01*
X112619949Y-94874477D01*
X112614967Y-94872154D01*
X112614962Y-94872151D01*
X112417425Y-94780039D01*
X112417424Y-94780039D01*
X112412443Y-94777716D01*
X112407135Y-94776294D01*
X112407133Y-94776293D01*
X112196602Y-94719881D01*
X112196600Y-94719881D01*
X112191287Y-94718457D01*
X111963200Y-94698502D01*
X111735113Y-94718457D01*
X111729800Y-94719881D01*
X111729798Y-94719881D01*
X111519267Y-94776293D01*
X111519265Y-94776294D01*
X111513957Y-94777716D01*
X111508976Y-94780039D01*
X111508975Y-94780039D01*
X111311438Y-94872151D01*
X111311433Y-94872154D01*
X111306451Y-94874477D01*
X111221951Y-94933645D01*
X111123411Y-95002643D01*
X111123408Y-95002645D01*
X111118900Y-95005802D01*
X110957002Y-95167700D01*
X110953843Y-95172211D01*
X110950308Y-95176424D01*
X110949174Y-95175473D01*
X110899129Y-95215471D01*
X110828510Y-95222776D01*
X110765151Y-95190742D01*
X110729170Y-95129538D01*
X110726118Y-95112483D01*
X110724945Y-95101684D01*
X110673815Y-94965295D01*
X110586461Y-94848739D01*
X110469905Y-94761385D01*
X110333516Y-94710255D01*
X110271334Y-94703500D01*
X108575066Y-94703500D01*
X108512884Y-94710255D01*
X108376495Y-94761385D01*
X108259939Y-94848739D01*
X108172585Y-94965295D01*
X108121455Y-95101684D01*
X108114700Y-95163866D01*
X108114700Y-96860134D01*
X86344868Y-96860134D01*
X86432312Y-96763527D01*
X86503479Y-96673253D01*
X86795060Y-96303384D01*
X86795063Y-96303380D01*
X86796385Y-96301703D01*
X86994378Y-96012000D01*
X87126988Y-95817965D01*
X87126995Y-95817955D01*
X87128204Y-95816185D01*
X87372856Y-95400019D01*
X87425150Y-95311064D01*
X87425153Y-95311058D01*
X87426232Y-95309223D01*
X87436205Y-95289265D01*
X87652734Y-94855919D01*
X87689088Y-94783164D01*
X87689905Y-94781206D01*
X87689911Y-94781193D01*
X87895239Y-94289134D01*
X87915556Y-94240446D01*
X87951841Y-94133553D01*
X88103893Y-93685624D01*
X88103897Y-93685611D01*
X88104586Y-93683581D01*
X88121282Y-93620614D01*
X88158690Y-93479526D01*
X88255304Y-93115148D01*
X88306839Y-92848782D01*
X88366600Y-92539902D01*
X88366602Y-92539892D01*
X88367010Y-92537781D01*
X88373960Y-92481587D01*
X88402369Y-92251868D01*
X88439187Y-91954153D01*
X88471502Y-91366968D01*
X88472049Y-91314784D01*
X88472960Y-91227725D01*
X88473397Y-91186000D01*
X88473036Y-91175383D01*
X88453459Y-90600398D01*
X88453458Y-90600386D01*
X88453386Y-90598266D01*
X88444359Y-90510162D01*
X88406064Y-90136401D01*
X103349414Y-90136401D01*
X103362386Y-90361390D01*
X103363523Y-90366436D01*
X103363524Y-90366442D01*
X103363526Y-90366450D01*
X103411932Y-90581240D01*
X103413874Y-90586022D01*
X103413875Y-90586026D01*
X103450509Y-90676244D01*
X103496719Y-90790045D01*
X103614471Y-90982199D01*
X103762025Y-91152541D01*
X103935419Y-91296495D01*
X104129997Y-91410197D01*
X104134822Y-91412039D01*
X104134823Y-91412040D01*
X104165420Y-91423724D01*
X104340532Y-91490593D01*
X104345598Y-91491624D01*
X104345599Y-91491624D01*
X104398629Y-91502413D01*
X104561371Y-91535523D01*
X104688503Y-91540185D01*
X104781419Y-91543592D01*
X104781423Y-91543592D01*
X104786583Y-91543781D01*
X104791703Y-91543125D01*
X104791705Y-91543125D01*
X105004993Y-91515803D01*
X105004996Y-91515802D01*
X105010120Y-91515146D01*
X105091959Y-91490593D01*
X105221024Y-91451871D01*
X105225977Y-91450385D01*
X105230616Y-91448112D01*
X105230622Y-91448110D01*
X105388477Y-91370777D01*
X105428360Y-91351239D01*
X105503827Y-91297409D01*
X105607619Y-91223375D01*
X105607624Y-91223371D01*
X105611831Y-91220370D01*
X105771465Y-91061293D01*
X105902974Y-90878279D01*
X105970224Y-90742209D01*
X106000532Y-90680886D01*
X106000533Y-90680884D01*
X106002826Y-90676244D01*
X106068339Y-90460613D01*
X106081402Y-90361390D01*
X106097318Y-90240500D01*
X106097319Y-90240493D01*
X106097755Y-90237178D01*
X106099397Y-90170000D01*
X106096635Y-90136401D01*
X115439814Y-90136401D01*
X115452786Y-90361390D01*
X115453923Y-90366436D01*
X115453924Y-90366442D01*
X115453926Y-90366450D01*
X115502332Y-90581240D01*
X115504274Y-90586022D01*
X115504275Y-90586026D01*
X115540909Y-90676244D01*
X115587119Y-90790045D01*
X115704871Y-90982199D01*
X115852425Y-91152541D01*
X116025819Y-91296495D01*
X116220397Y-91410197D01*
X116225222Y-91412039D01*
X116225223Y-91412040D01*
X116255820Y-91423724D01*
X116430932Y-91490593D01*
X116435998Y-91491624D01*
X116435999Y-91491624D01*
X116489029Y-91502413D01*
X116651771Y-91535523D01*
X116778903Y-91540185D01*
X116871819Y-91543592D01*
X116871823Y-91543592D01*
X116876983Y-91543781D01*
X116882103Y-91543125D01*
X116882105Y-91543125D01*
X117095393Y-91515803D01*
X117095396Y-91515802D01*
X117100520Y-91515146D01*
X117182359Y-91490593D01*
X117311424Y-91451871D01*
X117316377Y-91450385D01*
X117321016Y-91448112D01*
X117321022Y-91448110D01*
X117478877Y-91370777D01*
X117518760Y-91351239D01*
X117594227Y-91297409D01*
X117698019Y-91223375D01*
X117698024Y-91223371D01*
X117702231Y-91220370D01*
X117861865Y-91061293D01*
X117993374Y-90878279D01*
X118060624Y-90742209D01*
X118090932Y-90680886D01*
X118090933Y-90680884D01*
X118093226Y-90676244D01*
X118158739Y-90460613D01*
X118171802Y-90361390D01*
X118187718Y-90240500D01*
X118187719Y-90240493D01*
X118188155Y-90237178D01*
X118189797Y-90170000D01*
X118176736Y-90011136D01*
X118171755Y-89950546D01*
X118171754Y-89950540D01*
X118171331Y-89945395D01*
X118116429Y-89726821D01*
X118114370Y-89722085D01*
X118028626Y-89524887D01*
X118028624Y-89524884D01*
X118026566Y-89520150D01*
X117951727Y-89404467D01*
X117906964Y-89335273D01*
X117906962Y-89335270D01*
X117904154Y-89330930D01*
X117881401Y-89305924D01*
X117755960Y-89168067D01*
X117755958Y-89168066D01*
X117752482Y-89164245D01*
X117748431Y-89161046D01*
X117748427Y-89161042D01*
X117579680Y-89027774D01*
X117575622Y-89024569D01*
X117378325Y-88915655D01*
X117263372Y-88874948D01*
X117170763Y-88842153D01*
X117170759Y-88842152D01*
X117165888Y-88840427D01*
X117160795Y-88839520D01*
X117160792Y-88839519D01*
X116949106Y-88801812D01*
X116949100Y-88801811D01*
X116944017Y-88800906D01*
X116870325Y-88800006D01*
X116723841Y-88798216D01*
X116723839Y-88798216D01*
X116718671Y-88798153D01*
X116495901Y-88832242D01*
X116281690Y-88902257D01*
X116277102Y-88904645D01*
X116277098Y-88904647D01*
X116251144Y-88918158D01*
X116081790Y-89006318D01*
X116077657Y-89009421D01*
X116077654Y-89009423D01*
X115905706Y-89138525D01*
X115901571Y-89141630D01*
X115854990Y-89190374D01*
X115796123Y-89251975D01*
X115745871Y-89304560D01*
X115618873Y-89490733D01*
X115523987Y-89695147D01*
X115463762Y-89912314D01*
X115439814Y-90136401D01*
X106096635Y-90136401D01*
X106086336Y-90011136D01*
X106081355Y-89950546D01*
X106081354Y-89950540D01*
X106080931Y-89945395D01*
X106026029Y-89726821D01*
X106023970Y-89722085D01*
X105938226Y-89524887D01*
X105938224Y-89524884D01*
X105936166Y-89520150D01*
X105861327Y-89404467D01*
X105816564Y-89335273D01*
X105816562Y-89335270D01*
X105813754Y-89330930D01*
X105791001Y-89305924D01*
X105665560Y-89168067D01*
X105665558Y-89168066D01*
X105662082Y-89164245D01*
X105658031Y-89161046D01*
X105658027Y-89161042D01*
X105489280Y-89027774D01*
X105485222Y-89024569D01*
X105287925Y-88915655D01*
X105172972Y-88874948D01*
X105080363Y-88842153D01*
X105080359Y-88842152D01*
X105075488Y-88840427D01*
X105070395Y-88839520D01*
X105070392Y-88839519D01*
X104858706Y-88801812D01*
X104858700Y-88801811D01*
X104853617Y-88800906D01*
X104779925Y-88800006D01*
X104633441Y-88798216D01*
X104633439Y-88798216D01*
X104628271Y-88798153D01*
X104405501Y-88832242D01*
X104191290Y-88902257D01*
X104186702Y-88904645D01*
X104186698Y-88904647D01*
X104160744Y-88918158D01*
X103991390Y-89006318D01*
X103987257Y-89009421D01*
X103987254Y-89009423D01*
X103815306Y-89138525D01*
X103811171Y-89141630D01*
X103764590Y-89190374D01*
X103705723Y-89251975D01*
X103655471Y-89304560D01*
X103528473Y-89490733D01*
X103433587Y-89695147D01*
X103373362Y-89912314D01*
X103349414Y-90136401D01*
X88406064Y-90136401D01*
X88393666Y-90015391D01*
X88393665Y-90015387D01*
X88393447Y-90013255D01*
X88380926Y-89940384D01*
X88294221Y-89435793D01*
X88294221Y-89435791D01*
X88293857Y-89433675D01*
X88293353Y-89431601D01*
X88293350Y-89431585D01*
X88155583Y-88864294D01*
X88155582Y-88864290D01*
X88155077Y-88862211D01*
X88147901Y-88839519D01*
X87978394Y-88303542D01*
X87978394Y-88303541D01*
X87977751Y-88301509D01*
X87945097Y-88218398D01*
X87763483Y-87756162D01*
X87763481Y-87756158D01*
X87762699Y-87754167D01*
X87510917Y-87222719D01*
X87223571Y-86709627D01*
X87184627Y-86650000D01*
X86903150Y-86219037D01*
X86903146Y-86219031D01*
X86901993Y-86217266D01*
X86887498Y-86198065D01*
X86548951Y-85749614D01*
X86548945Y-85749607D01*
X86547671Y-85747919D01*
X86198237Y-85345232D01*
X86163646Y-85305369D01*
X86163643Y-85305366D01*
X86162247Y-85303757D01*
X86095133Y-85236290D01*
X85749028Y-84888368D01*
X85747506Y-84886838D01*
X85305369Y-84499094D01*
X85244976Y-84453003D01*
X85017456Y-84279366D01*
X84837883Y-84142320D01*
X84347213Y-83818168D01*
X83835632Y-83528140D01*
X83833683Y-83527204D01*
X83307441Y-83274506D01*
X83307435Y-83274503D01*
X83305510Y-83273579D01*
X83303530Y-83272789D01*
X83303523Y-83272786D01*
X82761279Y-83056453D01*
X82761275Y-83056452D01*
X82759301Y-83055664D01*
X82457440Y-82958456D01*
X82201565Y-82876057D01*
X82201554Y-82876054D01*
X82199536Y-82875404D01*
X82197473Y-82874891D01*
X82197464Y-82874889D01*
X81814324Y-82779717D01*
X81628806Y-82733634D01*
X81049755Y-82631011D01*
X81047643Y-82630783D01*
X81047640Y-82630783D01*
X80467204Y-82568239D01*
X80467193Y-82568238D01*
X80465066Y-82568009D01*
X79877445Y-82544921D01*
X79875326Y-82544982D01*
X79875316Y-82544982D01*
X79291760Y-82561792D01*
X79291754Y-82561792D01*
X79289615Y-82561854D01*
X79287483Y-82562061D01*
X79287470Y-82562062D01*
X78896129Y-82600090D01*
X78704297Y-82618730D01*
X78702178Y-82619083D01*
X78702168Y-82619084D01*
X78126306Y-82714934D01*
X78126302Y-82714935D01*
X78124204Y-82715284D01*
X77552021Y-82851069D01*
X77549964Y-82851708D01*
X77549963Y-82851708D01*
X76992456Y-83024819D01*
X76992449Y-83024822D01*
X76990399Y-83025458D01*
X76441938Y-83237641D01*
X75909179Y-83486637D01*
X75394589Y-83771292D01*
X74900552Y-84090288D01*
X74792844Y-84170717D01*
X74431064Y-84440870D01*
X74431049Y-84440882D01*
X74429355Y-84442147D01*
X73983181Y-84825240D01*
X73981655Y-84826743D01*
X73981652Y-84826745D01*
X73922047Y-84885421D01*
X73564097Y-85237793D01*
X73508858Y-85300120D01*
X73175472Y-85676281D01*
X73175464Y-85676291D01*
X73174043Y-85677894D01*
X72814826Y-86143505D01*
X72813627Y-86145299D01*
X72813623Y-86145305D01*
X72498342Y-86617158D01*
X72488110Y-86632471D01*
X72405511Y-86776405D01*
X72199037Y-87136201D01*
X72195407Y-87142526D01*
X71938074Y-87671309D01*
X71717302Y-88216369D01*
X71716637Y-88218398D01*
X71598179Y-88579752D01*
X71534113Y-88775183D01*
X71389357Y-89345162D01*
X71388973Y-89347266D01*
X71388971Y-89347274D01*
X71356882Y-89522980D01*
X71283703Y-89923668D01*
X71283460Y-89925816D01*
X71283460Y-89925817D01*
X71223124Y-90459522D01*
X71217641Y-90508019D01*
X71191477Y-91095511D01*
X66548000Y-91095511D01*
X66548000Y-81280000D01*
X66966526Y-81280000D01*
X66986391Y-81532403D01*
X66987545Y-81537210D01*
X66987546Y-81537216D01*
X67011221Y-81635829D01*
X67045495Y-81778591D01*
X67047388Y-81783162D01*
X67047389Y-81783164D01*
X67138548Y-82003240D01*
X67142384Y-82012502D01*
X67274672Y-82228376D01*
X67439102Y-82420898D01*
X67631624Y-82585328D01*
X67847498Y-82717616D01*
X67852068Y-82719509D01*
X67852072Y-82719511D01*
X68076836Y-82812611D01*
X68081409Y-82814505D01*
X68166032Y-82834821D01*
X68322784Y-82872454D01*
X68322790Y-82872455D01*
X68327597Y-82873609D01*
X68427416Y-82881465D01*
X68514345Y-82888307D01*
X68514352Y-82888307D01*
X68516801Y-82888500D01*
X68643199Y-82888500D01*
X68645648Y-82888307D01*
X68645655Y-82888307D01*
X68732584Y-82881465D01*
X68832403Y-82873609D01*
X68837210Y-82872455D01*
X68837216Y-82872454D01*
X68993968Y-82834821D01*
X69078591Y-82814505D01*
X69083164Y-82812611D01*
X69307928Y-82719511D01*
X69307932Y-82719509D01*
X69312502Y-82717616D01*
X69528376Y-82585328D01*
X69720898Y-82420898D01*
X69885328Y-82228376D01*
X70017616Y-82012502D01*
X70021453Y-82003240D01*
X70112611Y-81783164D01*
X70112612Y-81783162D01*
X70114505Y-81778591D01*
X70148779Y-81635829D01*
X70172454Y-81537216D01*
X70172455Y-81537210D01*
X70173609Y-81532403D01*
X70193474Y-81280000D01*
X70173609Y-81027597D01*
X70172421Y-81022646D01*
X70165230Y-80992695D01*
X116493251Y-80992695D01*
X116493548Y-80997848D01*
X116493548Y-80997851D01*
X116499011Y-81092590D01*
X116506110Y-81215715D01*
X116507247Y-81220761D01*
X116507248Y-81220767D01*
X116519486Y-81275070D01*
X116555222Y-81433639D01*
X116639266Y-81640616D01*
X116690019Y-81723438D01*
X116753291Y-81826688D01*
X116755987Y-81831088D01*
X116902250Y-81999938D01*
X117074126Y-82142632D01*
X117267000Y-82255338D01*
X117271825Y-82257180D01*
X117271826Y-82257181D01*
X117297600Y-82267023D01*
X117475692Y-82335030D01*
X117480760Y-82336061D01*
X117480763Y-82336062D01*
X117588017Y-82357883D01*
X117694597Y-82379567D01*
X117699772Y-82379757D01*
X117699774Y-82379757D01*
X117912673Y-82387564D01*
X117912677Y-82387564D01*
X117917837Y-82387753D01*
X117922957Y-82387097D01*
X117922959Y-82387097D01*
X118134288Y-82360025D01*
X118134289Y-82360025D01*
X118139416Y-82359368D01*
X118144366Y-82357883D01*
X118348438Y-82296658D01*
X118348439Y-82296658D01*
X118353384Y-82295174D01*
X118410847Y-82267023D01*
X118480821Y-82255016D01*
X118546179Y-82282746D01*
X118555375Y-82291079D01*
X119652526Y-83388230D01*
X119686552Y-83450542D01*
X119681487Y-83521357D01*
X119638940Y-83578193D01*
X119629735Y-83584469D01*
X119573252Y-83619422D01*
X119448295Y-83744597D01*
X119444455Y-83750827D01*
X119444454Y-83750828D01*
X119402215Y-83819353D01*
X119355485Y-83895162D01*
X119299803Y-84063039D01*
X119289100Y-84167500D01*
X119289100Y-84793300D01*
X119289437Y-84796546D01*
X119289437Y-84796550D01*
X119292270Y-84823848D01*
X119300074Y-84899066D01*
X119356050Y-85066846D01*
X119449122Y-85217248D01*
X119574297Y-85342205D01*
X119580527Y-85346045D01*
X119580528Y-85346046D01*
X119717690Y-85430594D01*
X119724862Y-85435015D01*
X119804605Y-85461464D01*
X119886211Y-85488532D01*
X119886213Y-85488532D01*
X119892739Y-85490697D01*
X119899575Y-85491397D01*
X119899578Y-85491398D01*
X119942631Y-85495809D01*
X119997200Y-85501400D01*
X120998000Y-85501400D01*
X121001246Y-85501063D01*
X121001250Y-85501063D01*
X121096908Y-85491138D01*
X121096912Y-85491137D01*
X121103766Y-85490426D01*
X121110302Y-85488245D01*
X121110304Y-85488245D01*
X121242406Y-85444172D01*
X121271546Y-85434450D01*
X121421948Y-85341378D01*
X121510689Y-85252482D01*
X121572971Y-85218403D01*
X121599862Y-85215500D01*
X122498101Y-85215500D01*
X122566222Y-85235502D01*
X122605245Y-85275197D01*
X122624522Y-85306348D01*
X122749697Y-85431305D01*
X122755927Y-85435145D01*
X122755928Y-85435146D01*
X122863412Y-85501400D01*
X122900262Y-85524115D01*
X122980005Y-85550564D01*
X123061611Y-85577632D01*
X123061613Y-85577632D01*
X123068139Y-85579797D01*
X123074975Y-85580497D01*
X123074978Y-85580498D01*
X123118031Y-85584909D01*
X123172600Y-85590500D01*
X123758406Y-85590500D01*
X123826527Y-85610502D01*
X123847501Y-85627405D01*
X124718343Y-86498247D01*
X124725887Y-86506537D01*
X124730000Y-86513018D01*
X124735777Y-86518443D01*
X124779667Y-86559658D01*
X124782509Y-86562413D01*
X124802230Y-86582134D01*
X124805425Y-86584612D01*
X124814447Y-86592318D01*
X124846679Y-86622586D01*
X124853628Y-86626406D01*
X124864432Y-86632346D01*
X124880956Y-86643199D01*
X124896959Y-86655613D01*
X124937543Y-86673176D01*
X124948173Y-86678383D01*
X124986940Y-86699695D01*
X124994617Y-86701666D01*
X124994622Y-86701668D01*
X125006558Y-86704732D01*
X125025266Y-86711137D01*
X125043855Y-86719181D01*
X125051680Y-86720420D01*
X125051682Y-86720421D01*
X125087519Y-86726097D01*
X125099140Y-86728504D01*
X125134289Y-86737528D01*
X125141970Y-86739500D01*
X125162231Y-86739500D01*
X125181940Y-86741051D01*
X125201943Y-86744219D01*
X125209835Y-86743473D01*
X125215062Y-86742979D01*
X125245954Y-86740059D01*
X125257811Y-86739500D01*
X126121074Y-86739500D01*
X126132257Y-86740027D01*
X126139750Y-86741702D01*
X126147676Y-86741453D01*
X126147677Y-86741453D01*
X126207827Y-86739562D01*
X126211786Y-86739500D01*
X126216544Y-86739500D01*
X126284665Y-86759502D01*
X126305639Y-86776405D01*
X126444507Y-86915273D01*
X126452047Y-86923559D01*
X126456159Y-86930038D01*
X126461936Y-86935463D01*
X126505811Y-86976664D01*
X126508653Y-86979419D01*
X126528389Y-86999155D01*
X126531586Y-87001635D01*
X126540606Y-87009338D01*
X126572838Y-87039606D01*
X126579784Y-87043425D01*
X126579787Y-87043427D01*
X126590593Y-87049368D01*
X126607112Y-87060219D01*
X126623118Y-87072634D01*
X126630387Y-87075779D01*
X126630391Y-87075782D01*
X126663696Y-87090194D01*
X126674346Y-87095411D01*
X126713099Y-87116715D01*
X126720774Y-87118686D01*
X126720775Y-87118686D01*
X126732721Y-87121753D01*
X126751426Y-87128157D01*
X126770014Y-87136201D01*
X126777837Y-87137440D01*
X126777847Y-87137443D01*
X126813683Y-87143119D01*
X126825303Y-87145525D01*
X126857118Y-87153693D01*
X126868129Y-87156520D01*
X126888383Y-87156520D01*
X126908093Y-87158071D01*
X126928102Y-87161240D01*
X126935994Y-87160494D01*
X126954739Y-87158722D01*
X126972121Y-87157079D01*
X126983978Y-87156520D01*
X131330213Y-87156520D01*
X131341396Y-87157047D01*
X131348889Y-87158722D01*
X131356815Y-87158473D01*
X131356816Y-87158473D01*
X131416966Y-87156582D01*
X131420925Y-87156520D01*
X131448836Y-87156520D01*
X131452771Y-87156023D01*
X131452836Y-87156015D01*
X131464673Y-87155082D01*
X131496931Y-87154068D01*
X131500950Y-87153942D01*
X131508869Y-87153693D01*
X131528323Y-87148041D01*
X131547680Y-87144033D01*
X131559910Y-87142488D01*
X131559911Y-87142488D01*
X131567777Y-87141494D01*
X131575148Y-87138575D01*
X131575150Y-87138575D01*
X131608892Y-87125216D01*
X131620122Y-87121371D01*
X131654963Y-87111249D01*
X131654964Y-87111249D01*
X131662573Y-87109038D01*
X131669392Y-87105005D01*
X131669397Y-87105003D01*
X131680008Y-87098727D01*
X131697756Y-87090032D01*
X131716597Y-87082572D01*
X131752367Y-87056584D01*
X131762287Y-87050068D01*
X131793515Y-87031600D01*
X131793518Y-87031598D01*
X131800342Y-87027562D01*
X131814663Y-87013241D01*
X131829697Y-87000400D01*
X131839674Y-86993151D01*
X131846087Y-86988492D01*
X131874278Y-86954415D01*
X131882268Y-86945636D01*
X132166247Y-86661657D01*
X132174537Y-86654113D01*
X132181018Y-86650000D01*
X132227659Y-86600332D01*
X132230413Y-86597491D01*
X132250134Y-86577770D01*
X132252612Y-86574575D01*
X132260318Y-86565553D01*
X132285158Y-86539101D01*
X132290586Y-86533321D01*
X132300346Y-86515568D01*
X132311199Y-86499045D01*
X132318753Y-86489306D01*
X132323613Y-86483041D01*
X132341176Y-86442457D01*
X132346383Y-86431827D01*
X132367695Y-86393060D01*
X132369666Y-86385383D01*
X132369668Y-86385378D01*
X132372732Y-86373442D01*
X132379138Y-86354730D01*
X132384033Y-86343419D01*
X132387181Y-86336145D01*
X132388421Y-86328317D01*
X132388423Y-86328310D01*
X132394099Y-86292476D01*
X132396505Y-86280856D01*
X132405528Y-86245711D01*
X132405528Y-86245710D01*
X132407500Y-86238030D01*
X132407500Y-86217776D01*
X132409051Y-86198065D01*
X132410980Y-86185886D01*
X132412220Y-86178057D01*
X132408059Y-86134038D01*
X132407500Y-86122181D01*
X132407500Y-86008648D01*
X132417091Y-85960430D01*
X132463678Y-85847959D01*
X132466838Y-85840330D01*
X132482500Y-85721365D01*
X132482499Y-84579500D01*
X132502501Y-84511379D01*
X132556157Y-84464886D01*
X132608499Y-84453500D01*
X135354033Y-84453500D01*
X135365216Y-84454027D01*
X135372709Y-84455702D01*
X135380635Y-84455453D01*
X135380636Y-84455453D01*
X135440786Y-84453562D01*
X135444745Y-84453500D01*
X135472656Y-84453500D01*
X135476591Y-84453003D01*
X135476656Y-84452995D01*
X135488493Y-84452062D01*
X135520751Y-84451048D01*
X135524770Y-84450922D01*
X135532689Y-84450673D01*
X135552143Y-84445021D01*
X135571500Y-84441013D01*
X135583730Y-84439468D01*
X135583731Y-84439468D01*
X135591597Y-84438474D01*
X135598968Y-84435555D01*
X135598970Y-84435555D01*
X135632712Y-84422196D01*
X135643942Y-84418351D01*
X135678783Y-84408229D01*
X135678784Y-84408229D01*
X135686393Y-84406018D01*
X135693212Y-84401985D01*
X135693217Y-84401983D01*
X135703828Y-84395707D01*
X135721576Y-84387012D01*
X135740417Y-84379552D01*
X135776187Y-84353564D01*
X135786107Y-84347048D01*
X135817335Y-84328580D01*
X135817338Y-84328578D01*
X135824162Y-84324542D01*
X135838483Y-84310221D01*
X135853517Y-84297380D01*
X135863494Y-84290131D01*
X135869907Y-84285472D01*
X135898098Y-84251395D01*
X135906088Y-84242616D01*
X137762761Y-82385943D01*
X137825073Y-82351917D01*
X137876974Y-82351567D01*
X138014597Y-82379567D01*
X138019772Y-82379757D01*
X138019774Y-82379757D01*
X138232673Y-82387564D01*
X138232677Y-82387564D01*
X138237837Y-82387753D01*
X138242957Y-82387097D01*
X138242959Y-82387097D01*
X138454288Y-82360025D01*
X138454289Y-82360025D01*
X138459416Y-82359368D01*
X138464366Y-82357883D01*
X138668429Y-82296661D01*
X138668434Y-82296659D01*
X138673384Y-82295174D01*
X138873994Y-82196896D01*
X139055860Y-82067173D01*
X139214096Y-81909489D01*
X139273594Y-81826689D01*
X139341435Y-81732277D01*
X139344453Y-81728077D01*
X139365320Y-81685857D01*
X139441136Y-81532453D01*
X139441137Y-81532451D01*
X139443430Y-81527811D01*
X139508370Y-81314069D01*
X139537529Y-81092590D01*
X139537611Y-81089240D01*
X139539074Y-81029365D01*
X139539074Y-81029361D01*
X139539156Y-81026000D01*
X139520852Y-80803361D01*
X139466431Y-80586702D01*
X139377354Y-80381840D01*
X139256014Y-80194277D01*
X139105670Y-80029051D01*
X139101619Y-80025852D01*
X139101615Y-80025848D01*
X138934414Y-79893800D01*
X138934410Y-79893798D01*
X138930359Y-79890598D01*
X138734789Y-79782638D01*
X138729920Y-79780914D01*
X138729916Y-79780912D01*
X138529087Y-79709795D01*
X138529083Y-79709794D01*
X138524212Y-79708069D01*
X138519119Y-79707162D01*
X138519116Y-79707161D01*
X138309373Y-79669800D01*
X138309367Y-79669799D01*
X138304284Y-79668894D01*
X138230452Y-79667992D01*
X138086081Y-79666228D01*
X138086079Y-79666228D01*
X138080911Y-79666165D01*
X137860091Y-79699955D01*
X137647756Y-79769357D01*
X137449607Y-79872507D01*
X137445474Y-79875610D01*
X137445471Y-79875612D01*
X137309259Y-79977883D01*
X137270965Y-80006635D01*
X137116629Y-80168138D01*
X137009201Y-80325621D01*
X136954293Y-80370621D01*
X136883768Y-80378792D01*
X136820021Y-80347538D01*
X136799324Y-80323054D01*
X136718822Y-80198617D01*
X136718820Y-80198614D01*
X136716014Y-80194277D01*
X136565670Y-80029051D01*
X136561619Y-80025852D01*
X136561615Y-80025848D01*
X136394414Y-79893800D01*
X136394410Y-79893798D01*
X136390359Y-79890598D01*
X136194789Y-79782638D01*
X136189920Y-79780914D01*
X136189916Y-79780912D01*
X135989087Y-79709795D01*
X135989083Y-79709794D01*
X135984212Y-79708069D01*
X135979119Y-79707162D01*
X135979116Y-79707161D01*
X135769373Y-79669800D01*
X135769367Y-79669799D01*
X135764284Y-79668894D01*
X135690452Y-79667992D01*
X135546081Y-79666228D01*
X135546079Y-79666228D01*
X135540911Y-79666165D01*
X135320091Y-79699955D01*
X135107756Y-79769357D01*
X134909607Y-79872507D01*
X134905474Y-79875610D01*
X134905471Y-79875612D01*
X134769259Y-79977883D01*
X134730965Y-80006635D01*
X134576629Y-80168138D01*
X134469201Y-80325621D01*
X134414293Y-80370621D01*
X134343768Y-80378792D01*
X134280021Y-80347538D01*
X134259324Y-80323054D01*
X134178822Y-80198617D01*
X134178820Y-80198614D01*
X134176014Y-80194277D01*
X134025670Y-80029051D01*
X134021619Y-80025852D01*
X134021615Y-80025848D01*
X133854414Y-79893800D01*
X133854410Y-79893798D01*
X133850359Y-79890598D01*
X133654789Y-79782638D01*
X133649920Y-79780914D01*
X133649916Y-79780912D01*
X133449087Y-79709795D01*
X133449083Y-79709794D01*
X133444212Y-79708069D01*
X133439119Y-79707162D01*
X133439116Y-79707161D01*
X133229373Y-79669800D01*
X133229367Y-79669799D01*
X133224284Y-79668894D01*
X133150452Y-79667992D01*
X133006081Y-79666228D01*
X133006079Y-79666228D01*
X133000911Y-79666165D01*
X132780091Y-79699955D01*
X132567756Y-79769357D01*
X132369607Y-79872507D01*
X132365474Y-79875610D01*
X132365471Y-79875612D01*
X132229259Y-79977883D01*
X132190965Y-80006635D01*
X132036629Y-80168138D01*
X131929201Y-80325621D01*
X131874293Y-80370621D01*
X131803768Y-80378792D01*
X131740021Y-80347538D01*
X131719324Y-80323054D01*
X131638822Y-80198617D01*
X131638820Y-80198614D01*
X131636014Y-80194277D01*
X131485670Y-80029051D01*
X131481619Y-80025852D01*
X131481615Y-80025848D01*
X131314414Y-79893800D01*
X131314410Y-79893798D01*
X131310359Y-79890598D01*
X131114789Y-79782638D01*
X131109920Y-79780914D01*
X131109916Y-79780912D01*
X130909087Y-79709795D01*
X130909083Y-79709794D01*
X130904212Y-79708069D01*
X130899119Y-79707162D01*
X130899116Y-79707161D01*
X130689373Y-79669800D01*
X130689367Y-79669799D01*
X130684284Y-79668894D01*
X130610452Y-79667992D01*
X130466081Y-79666228D01*
X130466079Y-79666228D01*
X130460911Y-79666165D01*
X130240091Y-79699955D01*
X130027756Y-79769357D01*
X129829607Y-79872507D01*
X129825474Y-79875610D01*
X129825471Y-79875612D01*
X129689259Y-79977883D01*
X129650965Y-80006635D01*
X129496629Y-80168138D01*
X129389201Y-80325621D01*
X129334293Y-80370621D01*
X129263768Y-80378792D01*
X129200021Y-80347538D01*
X129179324Y-80323054D01*
X129098822Y-80198617D01*
X129098820Y-80198614D01*
X129096014Y-80194277D01*
X128945670Y-80029051D01*
X128941619Y-80025852D01*
X128941615Y-80025848D01*
X128774414Y-79893800D01*
X128774410Y-79893798D01*
X128770359Y-79890598D01*
X128574789Y-79782638D01*
X128569920Y-79780914D01*
X128569916Y-79780912D01*
X128369087Y-79709795D01*
X128369083Y-79709794D01*
X128364212Y-79708069D01*
X128359119Y-79707162D01*
X128359116Y-79707161D01*
X128149373Y-79669800D01*
X128149367Y-79669799D01*
X128144284Y-79668894D01*
X128070452Y-79667992D01*
X127926081Y-79666228D01*
X127926079Y-79666228D01*
X127920911Y-79666165D01*
X127700091Y-79699955D01*
X127487756Y-79769357D01*
X127289607Y-79872507D01*
X127285474Y-79875610D01*
X127285471Y-79875612D01*
X127149259Y-79977883D01*
X127110965Y-80006635D01*
X126956629Y-80168138D01*
X126849201Y-80325621D01*
X126794293Y-80370621D01*
X126723768Y-80378792D01*
X126660021Y-80347538D01*
X126639324Y-80323054D01*
X126558822Y-80198617D01*
X126558820Y-80198614D01*
X126556014Y-80194277D01*
X126405670Y-80029051D01*
X126401619Y-80025852D01*
X126401615Y-80025848D01*
X126234414Y-79893800D01*
X126234410Y-79893798D01*
X126230359Y-79890598D01*
X126034789Y-79782638D01*
X126029920Y-79780914D01*
X126029916Y-79780912D01*
X125829087Y-79709795D01*
X125829083Y-79709794D01*
X125824212Y-79708069D01*
X125819119Y-79707162D01*
X125819116Y-79707161D01*
X125609373Y-79669800D01*
X125609367Y-79669799D01*
X125604284Y-79668894D01*
X125530452Y-79667992D01*
X125386081Y-79666228D01*
X125386079Y-79666228D01*
X125380911Y-79666165D01*
X125160091Y-79699955D01*
X124947756Y-79769357D01*
X124749607Y-79872507D01*
X124745474Y-79875610D01*
X124745471Y-79875612D01*
X124609259Y-79977883D01*
X124570965Y-80006635D01*
X124416629Y-80168138D01*
X124309201Y-80325621D01*
X124254293Y-80370621D01*
X124183768Y-80378792D01*
X124120021Y-80347538D01*
X124099324Y-80323054D01*
X124018822Y-80198617D01*
X124018820Y-80198614D01*
X124016014Y-80194277D01*
X123865670Y-80029051D01*
X123861619Y-80025852D01*
X123861615Y-80025848D01*
X123694414Y-79893800D01*
X123694410Y-79893798D01*
X123690359Y-79890598D01*
X123494789Y-79782638D01*
X123489920Y-79780914D01*
X123489916Y-79780912D01*
X123289087Y-79709795D01*
X123289083Y-79709794D01*
X123284212Y-79708069D01*
X123279119Y-79707162D01*
X123279116Y-79707161D01*
X123069373Y-79669800D01*
X123069367Y-79669799D01*
X123064284Y-79668894D01*
X122990452Y-79667992D01*
X122846081Y-79666228D01*
X122846079Y-79666228D01*
X122840911Y-79666165D01*
X122620091Y-79699955D01*
X122407756Y-79769357D01*
X122209607Y-79872507D01*
X122205474Y-79875610D01*
X122205471Y-79875612D01*
X122069259Y-79977883D01*
X122030965Y-80006635D01*
X121876629Y-80168138D01*
X121769201Y-80325621D01*
X121714293Y-80370621D01*
X121643768Y-80378792D01*
X121580021Y-80347538D01*
X121559324Y-80323054D01*
X121478822Y-80198617D01*
X121478820Y-80198614D01*
X121476014Y-80194277D01*
X121325670Y-80029051D01*
X121321619Y-80025852D01*
X121321615Y-80025848D01*
X121154414Y-79893800D01*
X121154410Y-79893798D01*
X121150359Y-79890598D01*
X120954789Y-79782638D01*
X120949920Y-79780914D01*
X120949916Y-79780912D01*
X120749087Y-79709795D01*
X120749083Y-79709794D01*
X120744212Y-79708069D01*
X120739119Y-79707162D01*
X120739116Y-79707161D01*
X120529373Y-79669800D01*
X120529367Y-79669799D01*
X120524284Y-79668894D01*
X120450452Y-79667992D01*
X120306081Y-79666228D01*
X120306079Y-79666228D01*
X120300911Y-79666165D01*
X120080091Y-79699955D01*
X119867756Y-79769357D01*
X119669607Y-79872507D01*
X119665474Y-79875610D01*
X119665471Y-79875612D01*
X119529259Y-79977883D01*
X119490965Y-80006635D01*
X119336629Y-80168138D01*
X119229201Y-80325621D01*
X119174293Y-80370621D01*
X119103768Y-80378792D01*
X119040021Y-80347538D01*
X119019324Y-80323054D01*
X118938822Y-80198617D01*
X118938820Y-80198614D01*
X118936014Y-80194277D01*
X118785670Y-80029051D01*
X118781619Y-80025852D01*
X118781615Y-80025848D01*
X118614414Y-79893800D01*
X118614410Y-79893798D01*
X118610359Y-79890598D01*
X118414789Y-79782638D01*
X118409920Y-79780914D01*
X118409916Y-79780912D01*
X118209087Y-79709795D01*
X118209083Y-79709794D01*
X118204212Y-79708069D01*
X118199119Y-79707162D01*
X118199116Y-79707161D01*
X117989373Y-79669800D01*
X117989367Y-79669799D01*
X117984284Y-79668894D01*
X117910452Y-79667992D01*
X117766081Y-79666228D01*
X117766079Y-79666228D01*
X117760911Y-79666165D01*
X117540091Y-79699955D01*
X117327756Y-79769357D01*
X117129607Y-79872507D01*
X117125474Y-79875610D01*
X117125471Y-79875612D01*
X116989259Y-79977883D01*
X116950965Y-80006635D01*
X116796629Y-80168138D01*
X116670743Y-80352680D01*
X116655003Y-80386590D01*
X116582271Y-80543278D01*
X116576688Y-80555305D01*
X116516989Y-80770570D01*
X116493251Y-80992695D01*
X70165230Y-80992695D01*
X70115660Y-80786221D01*
X70114505Y-80781409D01*
X70112143Y-80775707D01*
X70019511Y-80552072D01*
X70019509Y-80552068D01*
X70017616Y-80547498D01*
X69885328Y-80331624D01*
X69720898Y-80139102D01*
X69528376Y-79974672D01*
X69312502Y-79842384D01*
X69307932Y-79840491D01*
X69307928Y-79840489D01*
X69083164Y-79747389D01*
X69083162Y-79747388D01*
X69078591Y-79745495D01*
X68929889Y-79709795D01*
X68837216Y-79687546D01*
X68837210Y-79687545D01*
X68832403Y-79686391D01*
X68732584Y-79678535D01*
X68645655Y-79671693D01*
X68645648Y-79671693D01*
X68643199Y-79671500D01*
X68516801Y-79671500D01*
X68514352Y-79671693D01*
X68514345Y-79671693D01*
X68427416Y-79678535D01*
X68327597Y-79686391D01*
X68322790Y-79687545D01*
X68322784Y-79687546D01*
X68230111Y-79709795D01*
X68081409Y-79745495D01*
X68076838Y-79747388D01*
X68076836Y-79747389D01*
X67852072Y-79840489D01*
X67852068Y-79840491D01*
X67847498Y-79842384D01*
X67631624Y-79974672D01*
X67439102Y-80139102D01*
X67274672Y-80331624D01*
X67142384Y-80547498D01*
X67140491Y-80552068D01*
X67140489Y-80552072D01*
X67047857Y-80775707D01*
X67045495Y-80781409D01*
X67044340Y-80786221D01*
X66987580Y-81022646D01*
X66986391Y-81027597D01*
X66966526Y-81280000D01*
X66548000Y-81280000D01*
X66548000Y-79374000D01*
X66568002Y-79305879D01*
X66621658Y-79259386D01*
X66674000Y-79248000D01*
X153036000Y-79248000D01*
X153104121Y-79268002D01*
G37*
G04 #@! TD.AperFunction*
G04 #@! TA.AperFunction,Conductor*
G36*
X136162158Y-96577337D02*
G01*
X136207394Y-96629541D01*
X136225677Y-96668749D01*
X136357002Y-96856300D01*
X136518900Y-97018198D01*
X136523408Y-97021355D01*
X136523411Y-97021357D01*
X136551933Y-97041328D01*
X136706451Y-97149523D01*
X136711433Y-97151846D01*
X136711438Y-97151849D01*
X136816872Y-97201013D01*
X136913957Y-97246284D01*
X136919265Y-97247706D01*
X136919267Y-97247707D01*
X137129798Y-97304119D01*
X137129800Y-97304119D01*
X137135113Y-97305543D01*
X137363200Y-97325498D01*
X137591287Y-97305543D01*
X137596600Y-97304119D01*
X137596602Y-97304119D01*
X137807133Y-97247707D01*
X137807135Y-97247706D01*
X137812443Y-97246284D01*
X137909528Y-97201013D01*
X138014962Y-97151849D01*
X138014967Y-97151846D01*
X138019949Y-97149523D01*
X138174467Y-97041328D01*
X138202989Y-97021357D01*
X138202992Y-97021355D01*
X138207500Y-97018198D01*
X138369398Y-96856300D01*
X138500723Y-96668749D01*
X138503046Y-96663767D01*
X138503049Y-96663762D01*
X138519005Y-96629543D01*
X138565922Y-96576258D01*
X138634199Y-96556797D01*
X138702159Y-96577339D01*
X138747395Y-96629543D01*
X138763351Y-96663762D01*
X138763354Y-96663767D01*
X138765677Y-96668749D01*
X138897002Y-96856300D01*
X139058900Y-97018198D01*
X139063408Y-97021355D01*
X139063411Y-97021357D01*
X139091933Y-97041328D01*
X139246451Y-97149523D01*
X139251433Y-97151846D01*
X139251438Y-97151849D01*
X139356872Y-97201013D01*
X139453957Y-97246284D01*
X139459265Y-97247706D01*
X139459267Y-97247707D01*
X139669798Y-97304119D01*
X139669800Y-97304119D01*
X139675113Y-97305543D01*
X139903200Y-97325498D01*
X140131287Y-97305543D01*
X140136600Y-97304119D01*
X140136602Y-97304119D01*
X140347133Y-97247707D01*
X140347135Y-97247706D01*
X140352443Y-97246284D01*
X140449528Y-97201013D01*
X140554962Y-97151849D01*
X140554967Y-97151846D01*
X140559949Y-97149523D01*
X140714467Y-97041328D01*
X140742989Y-97021357D01*
X140742992Y-97021355D01*
X140747500Y-97018198D01*
X140909398Y-96856300D01*
X141040723Y-96668749D01*
X141043046Y-96663767D01*
X141043049Y-96663762D01*
X141059005Y-96629543D01*
X141105922Y-96576258D01*
X141174199Y-96556797D01*
X141242159Y-96577339D01*
X141287395Y-96629543D01*
X141303351Y-96663762D01*
X141303354Y-96663767D01*
X141305677Y-96668749D01*
X141437002Y-96856300D01*
X141598900Y-97018198D01*
X141603408Y-97021355D01*
X141603411Y-97021357D01*
X141631933Y-97041328D01*
X141786451Y-97149523D01*
X141791433Y-97151846D01*
X141791438Y-97151849D01*
X141896872Y-97201013D01*
X141993957Y-97246284D01*
X141999265Y-97247706D01*
X141999267Y-97247707D01*
X142209798Y-97304119D01*
X142209800Y-97304119D01*
X142215113Y-97305543D01*
X142443200Y-97325498D01*
X142671287Y-97305543D01*
X142676600Y-97304119D01*
X142676602Y-97304119D01*
X142887133Y-97247707D01*
X142887135Y-97247706D01*
X142892443Y-97246284D01*
X142989528Y-97201013D01*
X143094962Y-97151849D01*
X143094967Y-97151846D01*
X143099949Y-97149523D01*
X143254467Y-97041328D01*
X143282989Y-97021357D01*
X143282992Y-97021355D01*
X143287500Y-97018198D01*
X143449398Y-96856300D01*
X143580723Y-96668749D01*
X143583046Y-96663767D01*
X143583049Y-96663762D01*
X143599005Y-96629543D01*
X143645922Y-96576258D01*
X143714199Y-96556797D01*
X143782159Y-96577339D01*
X143827395Y-96629543D01*
X143843351Y-96663762D01*
X143843354Y-96663767D01*
X143845677Y-96668749D01*
X143977002Y-96856300D01*
X144138900Y-97018198D01*
X144143408Y-97021355D01*
X144143411Y-97021357D01*
X144171933Y-97041328D01*
X144326451Y-97149523D01*
X144331433Y-97151846D01*
X144331438Y-97151849D01*
X144436872Y-97201013D01*
X144533957Y-97246284D01*
X144539265Y-97247706D01*
X144539267Y-97247707D01*
X144749798Y-97304119D01*
X144749800Y-97304119D01*
X144755113Y-97305543D01*
X144983200Y-97325498D01*
X145211287Y-97305543D01*
X145315601Y-97277592D01*
X145386576Y-97279282D01*
X145445372Y-97319076D01*
X145473320Y-97384340D01*
X145474211Y-97399299D01*
X145474211Y-109812895D01*
X145454209Y-109881016D01*
X145437306Y-109901990D01*
X145396448Y-109942848D01*
X145334136Y-109976874D01*
X145274741Y-109975459D01*
X145216609Y-109959882D01*
X145216598Y-109959880D01*
X145211287Y-109958457D01*
X144983200Y-109938502D01*
X144755113Y-109958457D01*
X144749800Y-109959881D01*
X144749798Y-109959881D01*
X144539267Y-110016293D01*
X144539265Y-110016294D01*
X144533957Y-110017716D01*
X144528976Y-110020039D01*
X144528975Y-110020039D01*
X144331438Y-110112151D01*
X144331433Y-110112154D01*
X144326451Y-110114477D01*
X144238477Y-110176077D01*
X144143411Y-110242643D01*
X144143408Y-110242645D01*
X144138900Y-110245802D01*
X143977002Y-110407700D01*
X143973845Y-110412208D01*
X143973843Y-110412211D01*
X143931070Y-110473298D01*
X143845677Y-110595251D01*
X143843354Y-110600233D01*
X143843351Y-110600238D01*
X143827395Y-110634457D01*
X143780478Y-110687742D01*
X143712201Y-110707203D01*
X143644241Y-110686661D01*
X143599005Y-110634457D01*
X143583049Y-110600238D01*
X143583046Y-110600233D01*
X143580723Y-110595251D01*
X143495330Y-110473298D01*
X143452557Y-110412211D01*
X143452555Y-110412208D01*
X143449398Y-110407700D01*
X143287500Y-110245802D01*
X143282992Y-110242645D01*
X143282989Y-110242643D01*
X143187923Y-110176077D01*
X143099949Y-110114477D01*
X143094967Y-110112154D01*
X143094962Y-110112151D01*
X142897425Y-110020039D01*
X142897424Y-110020039D01*
X142892443Y-110017716D01*
X142887135Y-110016294D01*
X142887133Y-110016293D01*
X142676602Y-109959881D01*
X142676600Y-109959881D01*
X142671287Y-109958457D01*
X142443200Y-109938502D01*
X142215113Y-109958457D01*
X142209800Y-109959881D01*
X142209798Y-109959881D01*
X141999267Y-110016293D01*
X141999265Y-110016294D01*
X141993957Y-110017716D01*
X141988976Y-110020039D01*
X141988975Y-110020039D01*
X141791438Y-110112151D01*
X141791433Y-110112154D01*
X141786451Y-110114477D01*
X141698477Y-110176077D01*
X141603411Y-110242643D01*
X141603408Y-110242645D01*
X141598900Y-110245802D01*
X141437002Y-110407700D01*
X141433845Y-110412208D01*
X141433843Y-110412211D01*
X141391070Y-110473298D01*
X141305677Y-110595251D01*
X141303354Y-110600233D01*
X141303351Y-110600238D01*
X141287395Y-110634457D01*
X141240478Y-110687742D01*
X141172201Y-110707203D01*
X141104241Y-110686661D01*
X141059005Y-110634457D01*
X141043049Y-110600238D01*
X141043046Y-110600233D01*
X141040723Y-110595251D01*
X140955330Y-110473298D01*
X140912557Y-110412211D01*
X140912555Y-110412208D01*
X140909398Y-110407700D01*
X140747500Y-110245802D01*
X140742992Y-110242645D01*
X140742989Y-110242643D01*
X140647923Y-110176077D01*
X140559949Y-110114477D01*
X140554967Y-110112154D01*
X140554962Y-110112151D01*
X140357425Y-110020039D01*
X140357424Y-110020039D01*
X140352443Y-110017716D01*
X140347135Y-110016294D01*
X140347133Y-110016293D01*
X140136602Y-109959881D01*
X140136600Y-109959881D01*
X140131287Y-109958457D01*
X139903200Y-109938502D01*
X139675113Y-109958457D01*
X139669800Y-109959881D01*
X139669798Y-109959881D01*
X139459267Y-110016293D01*
X139459265Y-110016294D01*
X139453957Y-110017716D01*
X139448976Y-110020039D01*
X139448975Y-110020039D01*
X139251438Y-110112151D01*
X139251433Y-110112154D01*
X139246451Y-110114477D01*
X139158477Y-110176077D01*
X139063411Y-110242643D01*
X139063408Y-110242645D01*
X139058900Y-110245802D01*
X138897002Y-110407700D01*
X138893845Y-110412208D01*
X138893843Y-110412211D01*
X138851070Y-110473298D01*
X138765677Y-110595251D01*
X138763354Y-110600233D01*
X138763351Y-110600238D01*
X138747395Y-110634457D01*
X138700478Y-110687742D01*
X138632201Y-110707203D01*
X138564241Y-110686661D01*
X138519005Y-110634457D01*
X138503049Y-110600238D01*
X138503046Y-110600233D01*
X138500723Y-110595251D01*
X138415330Y-110473298D01*
X138372557Y-110412211D01*
X138372555Y-110412208D01*
X138369398Y-110407700D01*
X138207500Y-110245802D01*
X138202992Y-110242645D01*
X138202989Y-110242643D01*
X138107923Y-110176077D01*
X138019949Y-110114477D01*
X138014967Y-110112154D01*
X138014962Y-110112151D01*
X137817425Y-110020039D01*
X137817424Y-110020039D01*
X137812443Y-110017716D01*
X137807135Y-110016294D01*
X137807133Y-110016293D01*
X137596602Y-109959881D01*
X137596600Y-109959881D01*
X137591287Y-109958457D01*
X137363200Y-109938502D01*
X137135113Y-109958457D01*
X137129800Y-109959881D01*
X137129798Y-109959881D01*
X136919267Y-110016293D01*
X136919265Y-110016294D01*
X136913957Y-110017716D01*
X136908976Y-110020039D01*
X136908975Y-110020039D01*
X136711438Y-110112151D01*
X136711433Y-110112154D01*
X136706451Y-110114477D01*
X136618477Y-110176077D01*
X136523411Y-110242643D01*
X136523408Y-110242645D01*
X136518900Y-110245802D01*
X136357002Y-110407700D01*
X136353845Y-110412208D01*
X136353843Y-110412211D01*
X136311070Y-110473298D01*
X136225677Y-110595251D01*
X136223354Y-110600233D01*
X136223351Y-110600238D01*
X136207395Y-110634457D01*
X136160478Y-110687742D01*
X136092201Y-110707203D01*
X136024241Y-110686661D01*
X135979005Y-110634457D01*
X135963049Y-110600238D01*
X135963046Y-110600233D01*
X135960723Y-110595251D01*
X135875330Y-110473298D01*
X135832557Y-110412211D01*
X135832555Y-110412208D01*
X135829398Y-110407700D01*
X135667500Y-110245802D01*
X135662992Y-110242645D01*
X135662989Y-110242643D01*
X135567923Y-110176077D01*
X135479949Y-110114477D01*
X135474967Y-110112154D01*
X135474962Y-110112151D01*
X135277425Y-110020039D01*
X135277424Y-110020039D01*
X135272443Y-110017716D01*
X135267135Y-110016294D01*
X135267133Y-110016293D01*
X135056602Y-109959881D01*
X135056600Y-109959881D01*
X135051287Y-109958457D01*
X134823200Y-109938502D01*
X134595113Y-109958457D01*
X134589800Y-109959881D01*
X134589798Y-109959881D01*
X134379267Y-110016293D01*
X134379265Y-110016294D01*
X134373957Y-110017716D01*
X134368976Y-110020039D01*
X134368975Y-110020039D01*
X134171438Y-110112151D01*
X134171433Y-110112154D01*
X134166451Y-110114477D01*
X134078477Y-110176077D01*
X133983411Y-110242643D01*
X133983408Y-110242645D01*
X133978900Y-110245802D01*
X133817002Y-110407700D01*
X133813845Y-110412208D01*
X133813843Y-110412211D01*
X133771070Y-110473298D01*
X133685677Y-110595251D01*
X133683354Y-110600233D01*
X133683351Y-110600238D01*
X133667395Y-110634457D01*
X133620478Y-110687742D01*
X133552201Y-110707203D01*
X133484241Y-110686661D01*
X133439005Y-110634457D01*
X133423049Y-110600238D01*
X133423046Y-110600233D01*
X133420723Y-110595251D01*
X133335330Y-110473298D01*
X133292557Y-110412211D01*
X133292555Y-110412208D01*
X133289398Y-110407700D01*
X133127500Y-110245802D01*
X133122992Y-110242645D01*
X133122989Y-110242643D01*
X133027923Y-110176077D01*
X132939949Y-110114477D01*
X132934967Y-110112154D01*
X132934962Y-110112151D01*
X132737425Y-110020039D01*
X132737424Y-110020039D01*
X132732443Y-110017716D01*
X132727135Y-110016294D01*
X132727133Y-110016293D01*
X132516602Y-109959881D01*
X132516600Y-109959881D01*
X132511287Y-109958457D01*
X132283200Y-109938502D01*
X132055113Y-109958457D01*
X132049800Y-109959881D01*
X132049798Y-109959881D01*
X131839267Y-110016293D01*
X131839265Y-110016294D01*
X131833957Y-110017716D01*
X131828976Y-110020039D01*
X131828975Y-110020039D01*
X131631438Y-110112151D01*
X131631433Y-110112154D01*
X131626451Y-110114477D01*
X131538477Y-110176077D01*
X131443411Y-110242643D01*
X131443408Y-110242645D01*
X131438900Y-110245802D01*
X131277002Y-110407700D01*
X131273845Y-110412208D01*
X131273843Y-110412211D01*
X131231070Y-110473298D01*
X131145677Y-110595251D01*
X131143354Y-110600233D01*
X131143351Y-110600238D01*
X131127395Y-110634457D01*
X131080478Y-110687742D01*
X131012201Y-110707203D01*
X130944241Y-110686661D01*
X130899005Y-110634457D01*
X130883049Y-110600238D01*
X130883046Y-110600233D01*
X130880723Y-110595251D01*
X130795330Y-110473298D01*
X130752557Y-110412211D01*
X130752555Y-110412208D01*
X130749398Y-110407700D01*
X130587500Y-110245802D01*
X130582992Y-110242645D01*
X130582989Y-110242643D01*
X130487923Y-110176077D01*
X130399949Y-110114477D01*
X130394967Y-110112154D01*
X130394962Y-110112151D01*
X130197425Y-110020039D01*
X130197424Y-110020039D01*
X130192443Y-110017716D01*
X130187135Y-110016294D01*
X130187133Y-110016293D01*
X129976602Y-109959881D01*
X129976600Y-109959881D01*
X129971287Y-109958457D01*
X129743200Y-109938502D01*
X129515113Y-109958457D01*
X129509800Y-109959881D01*
X129509798Y-109959881D01*
X129299267Y-110016293D01*
X129299265Y-110016294D01*
X129293957Y-110017716D01*
X129288976Y-110020039D01*
X129288975Y-110020039D01*
X129091438Y-110112151D01*
X129091433Y-110112154D01*
X129086451Y-110114477D01*
X128998477Y-110176077D01*
X128903411Y-110242643D01*
X128903408Y-110242645D01*
X128898900Y-110245802D01*
X128737002Y-110407700D01*
X128733845Y-110412208D01*
X128733843Y-110412211D01*
X128691070Y-110473298D01*
X128605677Y-110595251D01*
X128603354Y-110600233D01*
X128603351Y-110600238D01*
X128587395Y-110634457D01*
X128540478Y-110687742D01*
X128472201Y-110707203D01*
X128404241Y-110686661D01*
X128359005Y-110634457D01*
X128343049Y-110600238D01*
X128343046Y-110600233D01*
X128340723Y-110595251D01*
X128255330Y-110473298D01*
X128212557Y-110412211D01*
X128212555Y-110412208D01*
X128209398Y-110407700D01*
X128047500Y-110245802D01*
X128042992Y-110242645D01*
X128042989Y-110242643D01*
X127947923Y-110176077D01*
X127859949Y-110114477D01*
X127854967Y-110112154D01*
X127854962Y-110112151D01*
X127657425Y-110020039D01*
X127657424Y-110020039D01*
X127652443Y-110017716D01*
X127647135Y-110016294D01*
X127647133Y-110016293D01*
X127436602Y-109959881D01*
X127436600Y-109959881D01*
X127431287Y-109958457D01*
X127203200Y-109938502D01*
X126975113Y-109958457D01*
X126969800Y-109959881D01*
X126969798Y-109959881D01*
X126759267Y-110016293D01*
X126759265Y-110016294D01*
X126753957Y-110017716D01*
X126748976Y-110020039D01*
X126748975Y-110020039D01*
X126551438Y-110112151D01*
X126551433Y-110112154D01*
X126546451Y-110114477D01*
X126458477Y-110176077D01*
X126363411Y-110242643D01*
X126363408Y-110242645D01*
X126358900Y-110245802D01*
X126197002Y-110407700D01*
X126193845Y-110412208D01*
X126193843Y-110412211D01*
X126151070Y-110473298D01*
X126065677Y-110595251D01*
X126063354Y-110600233D01*
X126063351Y-110600238D01*
X126047395Y-110634457D01*
X126000478Y-110687742D01*
X125932201Y-110707203D01*
X125864241Y-110686661D01*
X125819005Y-110634457D01*
X125803049Y-110600238D01*
X125803046Y-110600233D01*
X125800723Y-110595251D01*
X125715330Y-110473298D01*
X125672557Y-110412211D01*
X125672555Y-110412208D01*
X125669398Y-110407700D01*
X125507500Y-110245802D01*
X125502992Y-110242645D01*
X125502989Y-110242643D01*
X125407923Y-110176077D01*
X125319949Y-110114477D01*
X125314967Y-110112154D01*
X125314962Y-110112151D01*
X125117425Y-110020039D01*
X125117424Y-110020039D01*
X125112443Y-110017716D01*
X125107135Y-110016294D01*
X125107133Y-110016293D01*
X124896602Y-109959881D01*
X124896600Y-109959881D01*
X124891287Y-109958457D01*
X124663200Y-109938502D01*
X124435113Y-109958457D01*
X124429800Y-109959881D01*
X124429798Y-109959881D01*
X124219267Y-110016293D01*
X124219265Y-110016294D01*
X124213957Y-110017716D01*
X124208976Y-110020039D01*
X124208975Y-110020039D01*
X124011438Y-110112151D01*
X124011433Y-110112154D01*
X124006451Y-110114477D01*
X123918477Y-110176077D01*
X123823411Y-110242643D01*
X123823408Y-110242645D01*
X123818900Y-110245802D01*
X123657002Y-110407700D01*
X123653845Y-110412208D01*
X123653843Y-110412211D01*
X123611070Y-110473298D01*
X123525677Y-110595251D01*
X123523354Y-110600233D01*
X123523351Y-110600238D01*
X123507395Y-110634457D01*
X123460478Y-110687742D01*
X123392201Y-110707203D01*
X123324241Y-110686661D01*
X123279005Y-110634457D01*
X123263049Y-110600238D01*
X123263046Y-110600233D01*
X123260723Y-110595251D01*
X123175330Y-110473298D01*
X123132557Y-110412211D01*
X123132555Y-110412208D01*
X123129398Y-110407700D01*
X122967500Y-110245802D01*
X122962992Y-110242645D01*
X122962989Y-110242643D01*
X122867923Y-110176077D01*
X122779949Y-110114477D01*
X122774967Y-110112154D01*
X122774962Y-110112151D01*
X122577425Y-110020039D01*
X122577424Y-110020039D01*
X122572443Y-110017716D01*
X122567135Y-110016294D01*
X122567133Y-110016293D01*
X122356602Y-109959881D01*
X122356600Y-109959881D01*
X122351287Y-109958457D01*
X122123200Y-109938502D01*
X121895113Y-109958457D01*
X121889800Y-109959881D01*
X121889798Y-109959881D01*
X121679267Y-110016293D01*
X121679265Y-110016294D01*
X121673957Y-110017716D01*
X121668976Y-110020039D01*
X121668975Y-110020039D01*
X121471438Y-110112151D01*
X121471433Y-110112154D01*
X121466451Y-110114477D01*
X121378477Y-110176077D01*
X121283411Y-110242643D01*
X121283408Y-110242645D01*
X121278900Y-110245802D01*
X121117002Y-110407700D01*
X121113845Y-110412208D01*
X121113843Y-110412211D01*
X121071070Y-110473298D01*
X120985677Y-110595251D01*
X120983354Y-110600233D01*
X120983351Y-110600238D01*
X120967395Y-110634457D01*
X120920478Y-110687742D01*
X120852201Y-110707203D01*
X120784241Y-110686661D01*
X120739005Y-110634457D01*
X120723049Y-110600238D01*
X120723046Y-110600233D01*
X120720723Y-110595251D01*
X120635330Y-110473298D01*
X120592557Y-110412211D01*
X120592555Y-110412208D01*
X120589398Y-110407700D01*
X120427500Y-110245802D01*
X120422992Y-110242645D01*
X120422989Y-110242643D01*
X120327923Y-110176077D01*
X120239949Y-110114477D01*
X120234967Y-110112154D01*
X120234962Y-110112151D01*
X120037425Y-110020039D01*
X120037424Y-110020039D01*
X120032443Y-110017716D01*
X120027135Y-110016294D01*
X120027133Y-110016293D01*
X119816602Y-109959881D01*
X119816600Y-109959881D01*
X119811287Y-109958457D01*
X119583200Y-109938502D01*
X119355113Y-109958457D01*
X119349800Y-109959881D01*
X119349798Y-109959881D01*
X119139267Y-110016293D01*
X119139265Y-110016294D01*
X119133957Y-110017716D01*
X119128976Y-110020039D01*
X119128975Y-110020039D01*
X118931438Y-110112151D01*
X118931433Y-110112154D01*
X118926451Y-110114477D01*
X118838477Y-110176077D01*
X118743411Y-110242643D01*
X118743408Y-110242645D01*
X118738900Y-110245802D01*
X118577002Y-110407700D01*
X118573845Y-110412208D01*
X118573843Y-110412211D01*
X118531070Y-110473298D01*
X118445677Y-110595251D01*
X118443354Y-110600233D01*
X118443351Y-110600238D01*
X118427395Y-110634457D01*
X118380478Y-110687742D01*
X118312201Y-110707203D01*
X118244241Y-110686661D01*
X118199005Y-110634457D01*
X118183049Y-110600238D01*
X118183046Y-110600233D01*
X118180723Y-110595251D01*
X118095330Y-110473298D01*
X118052557Y-110412211D01*
X118052555Y-110412208D01*
X118049398Y-110407700D01*
X117887500Y-110245802D01*
X117882992Y-110242645D01*
X117882989Y-110242643D01*
X117787923Y-110176077D01*
X117699949Y-110114477D01*
X117694967Y-110112154D01*
X117694962Y-110112151D01*
X117552809Y-110045865D01*
X117492443Y-110017716D01*
X117403789Y-109993961D01*
X117343166Y-109957009D01*
X117312145Y-109893149D01*
X117310400Y-109872254D01*
X117310400Y-107990033D01*
X117310842Y-107979489D01*
X117314452Y-107936498D01*
X117315023Y-107929700D01*
X117304689Y-107852257D01*
X117304324Y-107849236D01*
X117296626Y-107778366D01*
X117296626Y-107778364D01*
X117295889Y-107771583D01*
X117293713Y-107765117D01*
X117293196Y-107762767D01*
X117293099Y-107762218D01*
X117292922Y-107761459D01*
X117292764Y-107760914D01*
X117292189Y-107758575D01*
X117291287Y-107751810D01*
X117264569Y-107678404D01*
X117263568Y-107675545D01*
X117261931Y-107670679D01*
X117244070Y-107617606D01*
X117241300Y-107546665D01*
X117277324Y-107485486D01*
X117327279Y-107456735D01*
X117341777Y-107452385D01*
X117544160Y-107353239D01*
X117620908Y-107298495D01*
X117723419Y-107225375D01*
X117723424Y-107225371D01*
X117727631Y-107222370D01*
X117887265Y-107063293D01*
X118018774Y-106880279D01*
X118104329Y-106707172D01*
X118116332Y-106682886D01*
X118116333Y-106682884D01*
X118118626Y-106678244D01*
X118165100Y-106525279D01*
X118182637Y-106467557D01*
X118182637Y-106467556D01*
X118184139Y-106462613D01*
X118197202Y-106363390D01*
X118213118Y-106242500D01*
X118213119Y-106242493D01*
X118213555Y-106239178D01*
X118215197Y-106172000D01*
X118207906Y-106083321D01*
X118197155Y-105952546D01*
X118197154Y-105952540D01*
X118196731Y-105947395D01*
X118141829Y-105728821D01*
X118051966Y-105522150D01*
X117929554Y-105332930D01*
X117908255Y-105309522D01*
X117781360Y-105170067D01*
X117781358Y-105170066D01*
X117777882Y-105166245D01*
X117773831Y-105163046D01*
X117773827Y-105163042D01*
X117605080Y-105029774D01*
X117601022Y-105026569D01*
X117403725Y-104917655D01*
X117268683Y-104869834D01*
X117196163Y-104844153D01*
X117196159Y-104844152D01*
X117191288Y-104842427D01*
X117186195Y-104841520D01*
X117186192Y-104841519D01*
X116974506Y-104803812D01*
X116974500Y-104803811D01*
X116969417Y-104802906D01*
X116895725Y-104802006D01*
X116749241Y-104800216D01*
X116749239Y-104800216D01*
X116744071Y-104800153D01*
X116521301Y-104834242D01*
X116315939Y-104901365D01*
X116307145Y-104904239D01*
X116236181Y-104906390D01*
X116175319Y-104869834D01*
X116143883Y-104806176D01*
X116142000Y-104784474D01*
X116142000Y-103976834D01*
X116142442Y-103966290D01*
X116146052Y-103923299D01*
X116146623Y-103916501D01*
X116145721Y-103909737D01*
X116136295Y-103839088D01*
X116135925Y-103836035D01*
X116131522Y-103795510D01*
X116144049Y-103725627D01*
X116192369Y-103673611D01*
X116256785Y-103655900D01*
X117015233Y-103655900D01*
X117026416Y-103656427D01*
X117033909Y-103658102D01*
X117041835Y-103657853D01*
X117041836Y-103657853D01*
X117101986Y-103655962D01*
X117105945Y-103655900D01*
X117133856Y-103655900D01*
X117137791Y-103655403D01*
X117137856Y-103655395D01*
X117149693Y-103654462D01*
X117181951Y-103653448D01*
X117185970Y-103653322D01*
X117193889Y-103653073D01*
X117213343Y-103647421D01*
X117232700Y-103643413D01*
X117244930Y-103641868D01*
X117244931Y-103641868D01*
X117252797Y-103640874D01*
X117260168Y-103637955D01*
X117260170Y-103637955D01*
X117293912Y-103624596D01*
X117305142Y-103620751D01*
X117339983Y-103610629D01*
X117339984Y-103610629D01*
X117347593Y-103608418D01*
X117354412Y-103604385D01*
X117354417Y-103604383D01*
X117365028Y-103598107D01*
X117382776Y-103589412D01*
X117401617Y-103581952D01*
X117437387Y-103555964D01*
X117447307Y-103549448D01*
X117478535Y-103530980D01*
X117478538Y-103530978D01*
X117485362Y-103526942D01*
X117499683Y-103512621D01*
X117514717Y-103499780D01*
X117524694Y-103492531D01*
X117531107Y-103487872D01*
X117559298Y-103453795D01*
X117567288Y-103445016D01*
X118857847Y-102154457D01*
X118866137Y-102146913D01*
X118872618Y-102142800D01*
X118919259Y-102093132D01*
X118922013Y-102090291D01*
X118941734Y-102070570D01*
X118944212Y-102067375D01*
X118951918Y-102058353D01*
X118976758Y-102031901D01*
X118982186Y-102026121D01*
X118991946Y-102008368D01*
X119002799Y-101991845D01*
X119010353Y-101982106D01*
X119015213Y-101975841D01*
X119032776Y-101935257D01*
X119037983Y-101924627D01*
X119059295Y-101885860D01*
X119061266Y-101878183D01*
X119061268Y-101878178D01*
X119064332Y-101866242D01*
X119070738Y-101847530D01*
X119075633Y-101836219D01*
X119078781Y-101828945D01*
X119080021Y-101821117D01*
X119080023Y-101821110D01*
X119085699Y-101785276D01*
X119088105Y-101773656D01*
X119097128Y-101738511D01*
X119097128Y-101738510D01*
X119099100Y-101730830D01*
X119099100Y-101710576D01*
X119100651Y-101690865D01*
X119102580Y-101678686D01*
X119103820Y-101670857D01*
X119099659Y-101626838D01*
X119099100Y-101614981D01*
X119099100Y-98460195D01*
X119119102Y-98392074D01*
X119136005Y-98371099D01*
X119529301Y-97977804D01*
X119591613Y-97943779D01*
X119618396Y-97940900D01*
X119799333Y-97940900D01*
X119810516Y-97941427D01*
X119818009Y-97943102D01*
X119825935Y-97942853D01*
X119825936Y-97942853D01*
X119886086Y-97940962D01*
X119890045Y-97940900D01*
X119917956Y-97940900D01*
X119921891Y-97940403D01*
X119921956Y-97940395D01*
X119933793Y-97939462D01*
X119966051Y-97938448D01*
X119970070Y-97938322D01*
X119977989Y-97938073D01*
X119997443Y-97932421D01*
X120016800Y-97928413D01*
X120029030Y-97926868D01*
X120029031Y-97926868D01*
X120036897Y-97925874D01*
X120044268Y-97922955D01*
X120044270Y-97922955D01*
X120078012Y-97909596D01*
X120089242Y-97905751D01*
X120124083Y-97895629D01*
X120124084Y-97895629D01*
X120131693Y-97893418D01*
X120138512Y-97889385D01*
X120138517Y-97889383D01*
X120149128Y-97883107D01*
X120166876Y-97874412D01*
X120185717Y-97866952D01*
X120221487Y-97840964D01*
X120231407Y-97834448D01*
X120262635Y-97815980D01*
X120262638Y-97815978D01*
X120269462Y-97811942D01*
X120283783Y-97797621D01*
X120298817Y-97784780D01*
X120308794Y-97777531D01*
X120315207Y-97772872D01*
X120343398Y-97738795D01*
X120351388Y-97730016D01*
X121081958Y-96999446D01*
X121144270Y-96965420D01*
X121215085Y-96970485D01*
X121260148Y-96999446D01*
X121278900Y-97018198D01*
X121283408Y-97021355D01*
X121283411Y-97021357D01*
X121311933Y-97041328D01*
X121466451Y-97149523D01*
X121471433Y-97151846D01*
X121471438Y-97151849D01*
X121576872Y-97201013D01*
X121673957Y-97246284D01*
X121679265Y-97247706D01*
X121679267Y-97247707D01*
X121889798Y-97304119D01*
X121889800Y-97304119D01*
X121895113Y-97305543D01*
X122123200Y-97325498D01*
X122351287Y-97305543D01*
X122356600Y-97304119D01*
X122356602Y-97304119D01*
X122567133Y-97247707D01*
X122567135Y-97247706D01*
X122572443Y-97246284D01*
X122669528Y-97201013D01*
X122774962Y-97151849D01*
X122774967Y-97151846D01*
X122779949Y-97149523D01*
X122934467Y-97041328D01*
X122962989Y-97021357D01*
X122962992Y-97021355D01*
X122967500Y-97018198D01*
X123129398Y-96856300D01*
X123260723Y-96668749D01*
X123263046Y-96663767D01*
X123263049Y-96663762D01*
X123279005Y-96629543D01*
X123325922Y-96576258D01*
X123394199Y-96556797D01*
X123462159Y-96577339D01*
X123507395Y-96629543D01*
X123523351Y-96663762D01*
X123523354Y-96663767D01*
X123525677Y-96668749D01*
X123657002Y-96856300D01*
X123818900Y-97018198D01*
X123823408Y-97021355D01*
X123823411Y-97021357D01*
X123851933Y-97041328D01*
X124006451Y-97149523D01*
X124011433Y-97151846D01*
X124011438Y-97151849D01*
X124116872Y-97201013D01*
X124213957Y-97246284D01*
X124219265Y-97247706D01*
X124219267Y-97247707D01*
X124429798Y-97304119D01*
X124429800Y-97304119D01*
X124435113Y-97305543D01*
X124663200Y-97325498D01*
X124891287Y-97305543D01*
X124896600Y-97304119D01*
X124896602Y-97304119D01*
X125107133Y-97247707D01*
X125107135Y-97247706D01*
X125112443Y-97246284D01*
X125209528Y-97201013D01*
X125314962Y-97151849D01*
X125314967Y-97151846D01*
X125319949Y-97149523D01*
X125474467Y-97041328D01*
X125502989Y-97021357D01*
X125502992Y-97021355D01*
X125507500Y-97018198D01*
X125669398Y-96856300D01*
X125800723Y-96668749D01*
X125803046Y-96663767D01*
X125803049Y-96663762D01*
X125819005Y-96629543D01*
X125865922Y-96576258D01*
X125934199Y-96556797D01*
X126002159Y-96577339D01*
X126047395Y-96629543D01*
X126063351Y-96663762D01*
X126063354Y-96663767D01*
X126065677Y-96668749D01*
X126197002Y-96856300D01*
X126358900Y-97018198D01*
X126363408Y-97021355D01*
X126363411Y-97021357D01*
X126391933Y-97041328D01*
X126546451Y-97149523D01*
X126551433Y-97151846D01*
X126551438Y-97151849D01*
X126656872Y-97201013D01*
X126753957Y-97246284D01*
X126759265Y-97247706D01*
X126759267Y-97247707D01*
X126969798Y-97304119D01*
X126969800Y-97304119D01*
X126975113Y-97305543D01*
X127203200Y-97325498D01*
X127431287Y-97305543D01*
X127436600Y-97304119D01*
X127436602Y-97304119D01*
X127647133Y-97247707D01*
X127647135Y-97247706D01*
X127652443Y-97246284D01*
X127749528Y-97201013D01*
X127854962Y-97151849D01*
X127854967Y-97151846D01*
X127859949Y-97149523D01*
X128014467Y-97041328D01*
X128042989Y-97021357D01*
X128042992Y-97021355D01*
X128047500Y-97018198D01*
X128209398Y-96856300D01*
X128340723Y-96668749D01*
X128343046Y-96663767D01*
X128343049Y-96663762D01*
X128359005Y-96629543D01*
X128405922Y-96576258D01*
X128474199Y-96556797D01*
X128542159Y-96577339D01*
X128587395Y-96629543D01*
X128603351Y-96663762D01*
X128603354Y-96663767D01*
X128605677Y-96668749D01*
X128737002Y-96856300D01*
X128898900Y-97018198D01*
X128903408Y-97021355D01*
X128903411Y-97021357D01*
X128931933Y-97041328D01*
X129086451Y-97149523D01*
X129091433Y-97151846D01*
X129091438Y-97151849D01*
X129196872Y-97201013D01*
X129293957Y-97246284D01*
X129299265Y-97247706D01*
X129299267Y-97247707D01*
X129509798Y-97304119D01*
X129509800Y-97304119D01*
X129515113Y-97305543D01*
X129743200Y-97325498D01*
X129971287Y-97305543D01*
X129976600Y-97304119D01*
X129976602Y-97304119D01*
X130187133Y-97247707D01*
X130187135Y-97247706D01*
X130192443Y-97246284D01*
X130289528Y-97201013D01*
X130394962Y-97151849D01*
X130394967Y-97151846D01*
X130399949Y-97149523D01*
X130554467Y-97041328D01*
X130582989Y-97021357D01*
X130582992Y-97021355D01*
X130587500Y-97018198D01*
X130749398Y-96856300D01*
X130880723Y-96668749D01*
X130883046Y-96663767D01*
X130883049Y-96663762D01*
X130899005Y-96629543D01*
X130945922Y-96576258D01*
X131014199Y-96556797D01*
X131082159Y-96577339D01*
X131127395Y-96629543D01*
X131143351Y-96663762D01*
X131143354Y-96663767D01*
X131145677Y-96668749D01*
X131277002Y-96856300D01*
X131438900Y-97018198D01*
X131443408Y-97021355D01*
X131443411Y-97021357D01*
X131471933Y-97041328D01*
X131626451Y-97149523D01*
X131631433Y-97151846D01*
X131631438Y-97151849D01*
X131736872Y-97201013D01*
X131833957Y-97246284D01*
X131839265Y-97247706D01*
X131839267Y-97247707D01*
X132049798Y-97304119D01*
X132049800Y-97304119D01*
X132055113Y-97305543D01*
X132283200Y-97325498D01*
X132511287Y-97305543D01*
X132516600Y-97304119D01*
X132516602Y-97304119D01*
X132727133Y-97247707D01*
X132727135Y-97247706D01*
X132732443Y-97246284D01*
X132829528Y-97201013D01*
X132934962Y-97151849D01*
X132934967Y-97151846D01*
X132939949Y-97149523D01*
X133094467Y-97041328D01*
X133122989Y-97021357D01*
X133122992Y-97021355D01*
X133127500Y-97018198D01*
X133289398Y-96856300D01*
X133420723Y-96668749D01*
X133423046Y-96663767D01*
X133423049Y-96663762D01*
X133439005Y-96629543D01*
X133485922Y-96576258D01*
X133554199Y-96556797D01*
X133622159Y-96577339D01*
X133667395Y-96629543D01*
X133683351Y-96663762D01*
X133683354Y-96663767D01*
X133685677Y-96668749D01*
X133817002Y-96856300D01*
X133978900Y-97018198D01*
X133983408Y-97021355D01*
X133983411Y-97021357D01*
X134011933Y-97041328D01*
X134166451Y-97149523D01*
X134171433Y-97151846D01*
X134171438Y-97151849D01*
X134276872Y-97201013D01*
X134373957Y-97246284D01*
X134379265Y-97247706D01*
X134379267Y-97247707D01*
X134589798Y-97304119D01*
X134589800Y-97304119D01*
X134595113Y-97305543D01*
X134823200Y-97325498D01*
X135051287Y-97305543D01*
X135056600Y-97304119D01*
X135056602Y-97304119D01*
X135267133Y-97247707D01*
X135267135Y-97247706D01*
X135272443Y-97246284D01*
X135369528Y-97201013D01*
X135474962Y-97151849D01*
X135474967Y-97151846D01*
X135479949Y-97149523D01*
X135634467Y-97041328D01*
X135662989Y-97021357D01*
X135662992Y-97021355D01*
X135667500Y-97018198D01*
X135829398Y-96856300D01*
X135960723Y-96668749D01*
X135963047Y-96663764D01*
X135963051Y-96663758D01*
X135979005Y-96629543D01*
X136025921Y-96576258D01*
X136094198Y-96556796D01*
X136162158Y-96577337D01*
G37*
G04 #@! TD.AperFunction*
M02*
