G04 #@! TF.GenerationSoftware,KiCad,Pcbnew,(6.0.1)*
G04 #@! TF.CreationDate,2022-03-23T19:49:34+02:00*
G04 #@! TF.ProjectId,infinity-table-pcb,696e6669-6e69-4747-992d-7461626c652d,rev?*
G04 #@! TF.SameCoordinates,Original*
G04 #@! TF.FileFunction,Soldermask,Bot*
G04 #@! TF.FilePolarity,Negative*
%FSLAX46Y46*%
G04 Gerber Fmt 4.6, Leading zero omitted, Abs format (unit mm)*
G04 Created by KiCad (PCBNEW (6.0.1)) date 2022-03-23 19:49:34*
%MOMM*%
%LPD*%
G01*
G04 APERTURE LIST*
G04 Aperture macros list*
%AMRoundRect*
0 Rectangle with rounded corners*
0 $1 Rounding radius*
0 $2 $3 $4 $5 $6 $7 $8 $9 X,Y pos of 4 corners*
0 Add a 4 corners polygon primitive as box body*
4,1,4,$2,$3,$4,$5,$6,$7,$8,$9,$2,$3,0*
0 Add four circle primitives for the rounded corners*
1,1,$1+$1,$2,$3*
1,1,$1+$1,$4,$5*
1,1,$1+$1,$6,$7*
1,1,$1+$1,$8,$9*
0 Add four rect primitives between the rounded corners*
20,1,$1+$1,$2,$3,$4,$5,0*
20,1,$1+$1,$4,$5,$6,$7,0*
20,1,$1+$1,$6,$7,$8,$9,0*
20,1,$1+$1,$8,$9,$2,$3,0*%
G04 Aperture macros list end*
%ADD10C,2.302000*%
%ADD11C,8.702000*%
%ADD12C,1.826000*%
%ADD13RoundRect,0.051000X-0.800000X0.800000X-0.800000X-0.800000X0.800000X-0.800000X0.800000X0.800000X0*%
%ADD14O,1.702000X1.702000*%
%ADD15RoundRect,0.051000X0.850000X-0.850000X0.850000X0.850000X-0.850000X0.850000X-0.850000X-0.850000X0*%
%ADD16O,1.802000X1.802000*%
%ADD17C,1.702000*%
%ADD18O,4.602000X2.352000*%
%ADD19O,4.102000X2.102000*%
%ADD20O,2.102000X4.102000*%
%ADD21RoundRect,0.301000X-0.475000X0.250000X-0.475000X-0.250000X0.475000X-0.250000X0.475000X0.250000X0*%
%ADD22RoundRect,0.151000X-0.100000X0.637500X-0.100000X-0.637500X0.100000X-0.637500X0.100000X0.637500X0*%
%ADD23RoundRect,0.301000X-0.450000X0.262500X-0.450000X-0.262500X0.450000X-0.262500X0.450000X0.262500X0*%
G04 APERTURE END LIST*
D10*
X151130000Y-110998000D03*
D11*
X71323200Y-108458000D03*
D12*
X104724200Y-90170000D03*
X104724200Y-85090000D03*
X116814600Y-90170000D03*
X116814600Y-85090000D03*
D11*
X148031200Y-83820000D03*
D10*
X68580000Y-81280000D03*
D12*
X104749600Y-106172000D03*
X104749600Y-101092000D03*
X116840000Y-106172000D03*
X116840000Y-101092000D03*
D13*
X109423200Y-96012000D03*
D14*
X111963200Y-96012000D03*
X114503200Y-96012000D03*
X117043200Y-96012000D03*
X119583200Y-96012000D03*
X122123200Y-96012000D03*
X124663200Y-96012000D03*
X127203200Y-96012000D03*
X129743200Y-96012000D03*
X132283200Y-96012000D03*
X134823200Y-96012000D03*
X137363200Y-96012000D03*
X139903200Y-96012000D03*
X142443200Y-96012000D03*
X144983200Y-96012000D03*
X144983200Y-111252000D03*
X142443200Y-111252000D03*
X139903200Y-111252000D03*
X137363200Y-111252000D03*
X134823200Y-111252000D03*
X132283200Y-111252000D03*
X129743200Y-111252000D03*
X127203200Y-111252000D03*
X124663200Y-111252000D03*
X122123200Y-111252000D03*
X119583200Y-111252000D03*
X117043200Y-111252000D03*
X114503200Y-111252000D03*
X111963200Y-111252000D03*
X109423200Y-111252000D03*
D15*
X100076000Y-109474000D03*
D16*
X97536000Y-109474000D03*
X94996000Y-109474000D03*
X92456000Y-109474000D03*
D17*
X82804000Y-112982000D03*
D18*
X82804000Y-103982000D03*
D19*
X82804000Y-109982000D03*
D20*
X78304000Y-110982000D03*
X87304000Y-110982000D03*
D21*
X123952000Y-89408000D03*
X123952000Y-91308000D03*
X123698000Y-84582000D03*
X123698000Y-86482000D03*
D15*
X140716000Y-81026000D03*
D16*
X138176000Y-81026000D03*
X135636000Y-81026000D03*
X133096000Y-81026000D03*
X130556000Y-81026000D03*
X128016000Y-81026000D03*
X125476000Y-81026000D03*
X122936000Y-81026000D03*
X120396000Y-81026000D03*
X117856000Y-81026000D03*
D22*
X125924000Y-85043980D03*
X126574000Y-85043980D03*
X127224000Y-85043980D03*
X127874000Y-85043980D03*
X128524000Y-85043980D03*
X129174000Y-85043980D03*
X129824000Y-85043980D03*
X130474000Y-85043980D03*
X131124000Y-85043980D03*
X131774000Y-85043980D03*
X131774000Y-90768980D03*
X131124000Y-90768980D03*
X130474000Y-90768980D03*
X129824000Y-90768980D03*
X129174000Y-90768980D03*
X128524000Y-90768980D03*
X127874000Y-90768980D03*
X127224000Y-90768980D03*
X126574000Y-90768980D03*
X125924000Y-90768980D03*
D23*
X120497600Y-84480400D03*
X120497600Y-86305400D03*
G36*
X127452891Y-90054354D02*
G01*
X127499944Y-90093677D01*
X127568660Y-90102310D01*
X127631289Y-90072347D01*
X127638800Y-90063677D01*
X127640690Y-90063023D01*
X127642202Y-90064333D01*
X127641975Y-90066098D01*
X127636379Y-90074474D01*
X127625000Y-90131679D01*
X127625000Y-91406281D01*
X127636379Y-91463486D01*
X127648055Y-91480960D01*
X127648186Y-91482956D01*
X127646523Y-91484067D01*
X127645109Y-91483606D01*
X127598056Y-91444283D01*
X127529340Y-91435650D01*
X127466711Y-91465613D01*
X127459200Y-91474283D01*
X127457310Y-91474937D01*
X127455798Y-91473627D01*
X127456025Y-91471862D01*
X127461621Y-91463486D01*
X127473000Y-91406281D01*
X127473000Y-90131679D01*
X127461621Y-90074474D01*
X127449945Y-90057000D01*
X127449814Y-90055004D01*
X127451477Y-90053893D01*
X127452891Y-90054354D01*
G37*
G36*
X128102891Y-90054354D02*
G01*
X128149944Y-90093677D01*
X128218660Y-90102310D01*
X128281289Y-90072347D01*
X128288800Y-90063677D01*
X128290690Y-90063023D01*
X128292202Y-90064333D01*
X128291975Y-90066098D01*
X128286379Y-90074474D01*
X128275000Y-90131679D01*
X128275000Y-91406281D01*
X128286379Y-91463486D01*
X128298055Y-91480960D01*
X128298186Y-91482956D01*
X128296523Y-91484067D01*
X128295109Y-91483606D01*
X128248056Y-91444283D01*
X128179340Y-91435650D01*
X128116711Y-91465613D01*
X128109200Y-91474283D01*
X128107310Y-91474937D01*
X128105798Y-91473627D01*
X128106025Y-91471862D01*
X128111621Y-91463486D01*
X128123000Y-91406281D01*
X128123000Y-90131679D01*
X128111621Y-90074474D01*
X128099945Y-90057000D01*
X128099814Y-90055004D01*
X128101477Y-90053893D01*
X128102891Y-90054354D01*
G37*
G36*
X128752891Y-90054354D02*
G01*
X128799944Y-90093677D01*
X128868660Y-90102310D01*
X128931289Y-90072347D01*
X128938800Y-90063677D01*
X128940690Y-90063023D01*
X128942202Y-90064333D01*
X128941975Y-90066098D01*
X128936379Y-90074474D01*
X128925000Y-90131679D01*
X128925000Y-91406281D01*
X128936379Y-91463486D01*
X128948055Y-91480960D01*
X128948186Y-91482956D01*
X128946523Y-91484067D01*
X128945109Y-91483606D01*
X128898056Y-91444283D01*
X128829340Y-91435650D01*
X128766711Y-91465613D01*
X128759200Y-91474283D01*
X128757310Y-91474937D01*
X128755798Y-91473627D01*
X128756025Y-91471862D01*
X128761621Y-91463486D01*
X128773000Y-91406281D01*
X128773000Y-90131679D01*
X128761621Y-90074474D01*
X128749945Y-90057000D01*
X128749814Y-90055004D01*
X128751477Y-90053893D01*
X128752891Y-90054354D01*
G37*
G36*
X126152891Y-90054354D02*
G01*
X126199944Y-90093677D01*
X126268660Y-90102310D01*
X126331289Y-90072347D01*
X126338800Y-90063677D01*
X126340690Y-90063023D01*
X126342202Y-90064333D01*
X126341975Y-90066098D01*
X126336379Y-90074474D01*
X126325000Y-90131679D01*
X126325000Y-91406281D01*
X126336379Y-91463486D01*
X126348055Y-91480960D01*
X126348186Y-91482956D01*
X126346523Y-91484067D01*
X126345109Y-91483606D01*
X126298056Y-91444283D01*
X126229340Y-91435650D01*
X126166711Y-91465613D01*
X126159200Y-91474283D01*
X126157310Y-91474937D01*
X126155798Y-91473627D01*
X126156025Y-91471862D01*
X126161621Y-91463486D01*
X126173000Y-91406281D01*
X126173000Y-90131679D01*
X126161621Y-90074474D01*
X126149945Y-90057000D01*
X126149814Y-90055004D01*
X126151477Y-90053893D01*
X126152891Y-90054354D01*
G37*
G36*
X130052891Y-90054354D02*
G01*
X130099944Y-90093677D01*
X130168660Y-90102310D01*
X130231289Y-90072347D01*
X130238800Y-90063677D01*
X130240690Y-90063023D01*
X130242202Y-90064333D01*
X130241975Y-90066098D01*
X130236379Y-90074474D01*
X130225000Y-90131679D01*
X130225000Y-91406281D01*
X130236379Y-91463486D01*
X130248055Y-91480960D01*
X130248186Y-91482956D01*
X130246523Y-91484067D01*
X130245109Y-91483606D01*
X130198056Y-91444283D01*
X130129340Y-91435650D01*
X130066711Y-91465613D01*
X130059200Y-91474283D01*
X130057310Y-91474937D01*
X130055798Y-91473627D01*
X130056025Y-91471862D01*
X130061621Y-91463486D01*
X130073000Y-91406281D01*
X130073000Y-90131679D01*
X130061621Y-90074474D01*
X130049945Y-90057000D01*
X130049814Y-90055004D01*
X130051477Y-90053893D01*
X130052891Y-90054354D01*
G37*
G36*
X126802891Y-90054354D02*
G01*
X126849944Y-90093677D01*
X126918660Y-90102310D01*
X126981289Y-90072347D01*
X126988800Y-90063677D01*
X126990690Y-90063023D01*
X126992202Y-90064333D01*
X126991975Y-90066098D01*
X126986379Y-90074474D01*
X126975000Y-90131679D01*
X126975000Y-91406281D01*
X126986379Y-91463486D01*
X126998055Y-91480960D01*
X126998186Y-91482956D01*
X126996523Y-91484067D01*
X126995109Y-91483606D01*
X126948056Y-91444283D01*
X126879340Y-91435650D01*
X126816711Y-91465613D01*
X126809200Y-91474283D01*
X126807310Y-91474937D01*
X126805798Y-91473627D01*
X126806025Y-91471862D01*
X126811621Y-91463486D01*
X126823000Y-91406281D01*
X126823000Y-90131679D01*
X126811621Y-90074474D01*
X126799945Y-90057000D01*
X126799814Y-90055004D01*
X126801477Y-90053893D01*
X126802891Y-90054354D01*
G37*
G36*
X130702891Y-90054354D02*
G01*
X130749944Y-90093677D01*
X130818660Y-90102310D01*
X130881289Y-90072347D01*
X130888800Y-90063677D01*
X130890690Y-90063023D01*
X130892202Y-90064333D01*
X130891975Y-90066098D01*
X130886379Y-90074474D01*
X130875000Y-90131679D01*
X130875000Y-91406281D01*
X130886379Y-91463486D01*
X130898055Y-91480960D01*
X130898186Y-91482956D01*
X130896523Y-91484067D01*
X130895109Y-91483606D01*
X130848056Y-91444283D01*
X130779340Y-91435650D01*
X130716711Y-91465613D01*
X130709200Y-91474283D01*
X130707310Y-91474937D01*
X130705798Y-91473627D01*
X130706025Y-91471862D01*
X130711621Y-91463486D01*
X130723000Y-91406281D01*
X130723000Y-90131679D01*
X130711621Y-90074474D01*
X130699945Y-90057000D01*
X130699814Y-90055004D01*
X130701477Y-90053893D01*
X130702891Y-90054354D01*
G37*
G36*
X131352891Y-90054354D02*
G01*
X131399944Y-90093677D01*
X131468660Y-90102310D01*
X131531289Y-90072347D01*
X131538800Y-90063677D01*
X131540690Y-90063023D01*
X131542202Y-90064333D01*
X131541975Y-90066098D01*
X131536379Y-90074474D01*
X131525000Y-90131679D01*
X131525000Y-91406281D01*
X131536379Y-91463486D01*
X131548055Y-91480960D01*
X131548186Y-91482956D01*
X131546523Y-91484067D01*
X131545109Y-91483606D01*
X131498056Y-91444283D01*
X131429340Y-91435650D01*
X131366711Y-91465613D01*
X131359200Y-91474283D01*
X131357310Y-91474937D01*
X131355798Y-91473627D01*
X131356025Y-91471862D01*
X131361621Y-91463486D01*
X131373000Y-91406281D01*
X131373000Y-90131679D01*
X131361621Y-90074474D01*
X131349945Y-90057000D01*
X131349814Y-90055004D01*
X131351477Y-90053893D01*
X131352891Y-90054354D01*
G37*
G36*
X129402891Y-90054354D02*
G01*
X129449944Y-90093677D01*
X129518660Y-90102310D01*
X129581289Y-90072347D01*
X129588800Y-90063677D01*
X129590690Y-90063023D01*
X129592202Y-90064333D01*
X129591975Y-90066098D01*
X129586379Y-90074474D01*
X129575000Y-90131679D01*
X129575000Y-91406281D01*
X129586379Y-91463486D01*
X129598055Y-91480960D01*
X129598186Y-91482956D01*
X129596523Y-91484067D01*
X129595109Y-91483606D01*
X129548056Y-91444283D01*
X129479340Y-91435650D01*
X129416711Y-91465613D01*
X129409200Y-91474283D01*
X129407310Y-91474937D01*
X129405798Y-91473627D01*
X129406025Y-91471862D01*
X129411621Y-91463486D01*
X129423000Y-91406281D01*
X129423000Y-90131679D01*
X129411621Y-90074474D01*
X129399945Y-90057000D01*
X129399814Y-90055004D01*
X129401477Y-90053893D01*
X129402891Y-90054354D01*
G37*
G36*
X126802891Y-84329354D02*
G01*
X126849944Y-84368677D01*
X126918660Y-84377310D01*
X126981289Y-84347347D01*
X126988800Y-84338677D01*
X126990690Y-84338023D01*
X126992202Y-84339333D01*
X126991975Y-84341098D01*
X126986379Y-84349474D01*
X126975000Y-84406679D01*
X126975000Y-85681281D01*
X126986379Y-85738486D01*
X126998055Y-85755960D01*
X126998186Y-85757956D01*
X126996523Y-85759067D01*
X126995109Y-85758606D01*
X126948056Y-85719283D01*
X126879340Y-85710650D01*
X126816711Y-85740613D01*
X126809200Y-85749283D01*
X126807310Y-85749937D01*
X126805798Y-85748627D01*
X126806025Y-85746862D01*
X126811621Y-85738486D01*
X126823000Y-85681281D01*
X126823000Y-84406679D01*
X126811621Y-84349474D01*
X126799945Y-84332000D01*
X126799814Y-84330004D01*
X126801477Y-84328893D01*
X126802891Y-84329354D01*
G37*
G36*
X128752891Y-84329354D02*
G01*
X128799944Y-84368677D01*
X128868660Y-84377310D01*
X128931289Y-84347347D01*
X128938800Y-84338677D01*
X128940690Y-84338023D01*
X128942202Y-84339333D01*
X128941975Y-84341098D01*
X128936379Y-84349474D01*
X128925000Y-84406679D01*
X128925000Y-85681281D01*
X128936379Y-85738486D01*
X128948055Y-85755960D01*
X128948186Y-85757956D01*
X128946523Y-85759067D01*
X128945109Y-85758606D01*
X128898056Y-85719283D01*
X128829340Y-85710650D01*
X128766711Y-85740613D01*
X128759200Y-85749283D01*
X128757310Y-85749937D01*
X128755798Y-85748627D01*
X128756025Y-85746862D01*
X128761621Y-85738486D01*
X128773000Y-85681281D01*
X128773000Y-84406679D01*
X128761621Y-84349474D01*
X128749945Y-84332000D01*
X128749814Y-84330004D01*
X128751477Y-84328893D01*
X128752891Y-84329354D01*
G37*
G36*
X128102891Y-84329354D02*
G01*
X128149944Y-84368677D01*
X128218660Y-84377310D01*
X128281289Y-84347347D01*
X128288800Y-84338677D01*
X128290690Y-84338023D01*
X128292202Y-84339333D01*
X128291975Y-84341098D01*
X128286379Y-84349474D01*
X128275000Y-84406679D01*
X128275000Y-85681281D01*
X128286379Y-85738486D01*
X128298055Y-85755960D01*
X128298186Y-85757956D01*
X128296523Y-85759067D01*
X128295109Y-85758606D01*
X128248056Y-85719283D01*
X128179340Y-85710650D01*
X128116711Y-85740613D01*
X128109200Y-85749283D01*
X128107310Y-85749937D01*
X128105798Y-85748627D01*
X128106025Y-85746862D01*
X128111621Y-85738486D01*
X128123000Y-85681281D01*
X128123000Y-84406679D01*
X128111621Y-84349474D01*
X128099945Y-84332000D01*
X128099814Y-84330004D01*
X128101477Y-84328893D01*
X128102891Y-84329354D01*
G37*
G36*
X129402891Y-84329354D02*
G01*
X129449944Y-84368677D01*
X129518660Y-84377310D01*
X129581289Y-84347347D01*
X129588800Y-84338677D01*
X129590690Y-84338023D01*
X129592202Y-84339333D01*
X129591975Y-84341098D01*
X129586379Y-84349474D01*
X129575000Y-84406679D01*
X129575000Y-85681281D01*
X129586379Y-85738486D01*
X129598055Y-85755960D01*
X129598186Y-85757956D01*
X129596523Y-85759067D01*
X129595109Y-85758606D01*
X129548056Y-85719283D01*
X129479340Y-85710650D01*
X129416711Y-85740613D01*
X129409200Y-85749283D01*
X129407310Y-85749937D01*
X129405798Y-85748627D01*
X129406025Y-85746862D01*
X129411621Y-85738486D01*
X129423000Y-85681281D01*
X129423000Y-84406679D01*
X129411621Y-84349474D01*
X129399945Y-84332000D01*
X129399814Y-84330004D01*
X129401477Y-84328893D01*
X129402891Y-84329354D01*
G37*
G36*
X130702891Y-84329354D02*
G01*
X130749944Y-84368677D01*
X130818660Y-84377310D01*
X130881289Y-84347347D01*
X130888800Y-84338677D01*
X130890690Y-84338023D01*
X130892202Y-84339333D01*
X130891975Y-84341098D01*
X130886379Y-84349474D01*
X130875000Y-84406679D01*
X130875000Y-85681281D01*
X130886379Y-85738486D01*
X130898055Y-85755960D01*
X130898186Y-85757956D01*
X130896523Y-85759067D01*
X130895109Y-85758606D01*
X130848056Y-85719283D01*
X130779340Y-85710650D01*
X130716711Y-85740613D01*
X130709200Y-85749283D01*
X130707310Y-85749937D01*
X130705798Y-85748627D01*
X130706025Y-85746862D01*
X130711621Y-85738486D01*
X130723000Y-85681281D01*
X130723000Y-84406679D01*
X130711621Y-84349474D01*
X130699945Y-84332000D01*
X130699814Y-84330004D01*
X130701477Y-84328893D01*
X130702891Y-84329354D01*
G37*
G36*
X130052891Y-84329354D02*
G01*
X130099944Y-84368677D01*
X130168660Y-84377310D01*
X130231289Y-84347347D01*
X130238800Y-84338677D01*
X130240690Y-84338023D01*
X130242202Y-84339333D01*
X130241975Y-84341098D01*
X130236379Y-84349474D01*
X130225000Y-84406679D01*
X130225000Y-85681281D01*
X130236379Y-85738486D01*
X130248055Y-85755960D01*
X130248186Y-85757956D01*
X130246523Y-85759067D01*
X130245109Y-85758606D01*
X130198056Y-85719283D01*
X130129340Y-85710650D01*
X130066711Y-85740613D01*
X130059200Y-85749283D01*
X130057310Y-85749937D01*
X130055798Y-85748627D01*
X130056025Y-85746862D01*
X130061621Y-85738486D01*
X130073000Y-85681281D01*
X130073000Y-84406679D01*
X130061621Y-84349474D01*
X130049945Y-84332000D01*
X130049814Y-84330004D01*
X130051477Y-84328893D01*
X130052891Y-84329354D01*
G37*
G36*
X126152891Y-84329354D02*
G01*
X126199944Y-84368677D01*
X126268660Y-84377310D01*
X126331289Y-84347347D01*
X126338800Y-84338677D01*
X126340690Y-84338023D01*
X126342202Y-84339333D01*
X126341975Y-84341098D01*
X126336379Y-84349474D01*
X126325000Y-84406679D01*
X126325000Y-85681281D01*
X126336379Y-85738486D01*
X126348055Y-85755960D01*
X126348186Y-85757956D01*
X126346523Y-85759067D01*
X126345109Y-85758606D01*
X126298056Y-85719283D01*
X126229340Y-85710650D01*
X126166711Y-85740613D01*
X126159200Y-85749283D01*
X126157310Y-85749937D01*
X126155798Y-85748627D01*
X126156025Y-85746862D01*
X126161621Y-85738486D01*
X126173000Y-85681281D01*
X126173000Y-84406679D01*
X126161621Y-84349474D01*
X126149945Y-84332000D01*
X126149814Y-84330004D01*
X126151477Y-84328893D01*
X126152891Y-84329354D01*
G37*
G36*
X131352891Y-84329354D02*
G01*
X131399944Y-84368677D01*
X131468660Y-84377310D01*
X131531289Y-84347347D01*
X131538800Y-84338677D01*
X131540690Y-84338023D01*
X131542202Y-84339333D01*
X131541975Y-84341098D01*
X131536379Y-84349474D01*
X131525000Y-84406679D01*
X131525000Y-85681281D01*
X131536379Y-85738486D01*
X131548055Y-85755960D01*
X131548186Y-85757956D01*
X131546523Y-85759067D01*
X131545109Y-85758606D01*
X131498056Y-85719283D01*
X131429340Y-85710650D01*
X131366711Y-85740613D01*
X131359200Y-85749283D01*
X131357310Y-85749937D01*
X131355798Y-85748627D01*
X131356025Y-85746862D01*
X131361621Y-85738486D01*
X131373000Y-85681281D01*
X131373000Y-84406679D01*
X131361621Y-84349474D01*
X131349945Y-84332000D01*
X131349814Y-84330004D01*
X131351477Y-84328893D01*
X131352891Y-84329354D01*
G37*
G36*
X127452891Y-84329354D02*
G01*
X127499944Y-84368677D01*
X127568660Y-84377310D01*
X127631289Y-84347347D01*
X127638800Y-84338677D01*
X127640690Y-84338023D01*
X127642202Y-84339333D01*
X127641975Y-84341098D01*
X127636379Y-84349474D01*
X127625000Y-84406679D01*
X127625000Y-85681281D01*
X127636379Y-85738486D01*
X127648055Y-85755960D01*
X127648186Y-85757956D01*
X127646523Y-85759067D01*
X127645109Y-85758606D01*
X127598056Y-85719283D01*
X127529340Y-85710650D01*
X127466711Y-85740613D01*
X127459200Y-85749283D01*
X127457310Y-85749937D01*
X127455798Y-85748627D01*
X127456025Y-85746862D01*
X127461621Y-85738486D01*
X127473000Y-85681281D01*
X127473000Y-84406679D01*
X127461621Y-84349474D01*
X127449945Y-84332000D01*
X127449814Y-84330004D01*
X127451477Y-84328893D01*
X127452891Y-84329354D01*
G37*
M02*
