G04 #@! TF.GenerationSoftware,KiCad,Pcbnew,(6.0.1)*
G04 #@! TF.CreationDate,2022-03-23T19:49:34+02:00*
G04 #@! TF.ProjectId,infinity-table-pcb,696e6669-6e69-4747-992d-7461626c652d,rev?*
G04 #@! TF.SameCoordinates,Original*
G04 #@! TF.FileFunction,Legend,Top*
G04 #@! TF.FilePolarity,Positive*
%FSLAX46Y46*%
G04 Gerber Fmt 4.6, Leading zero omitted, Abs format (unit mm)*
G04 Created by KiCad (PCBNEW (6.0.1)) date 2022-03-23 19:49:34*
%MOMM*%
%LPD*%
G01*
G04 APERTURE LIST*
%ADD10C,0.300000*%
%ADD11C,0.150000*%
%ADD12C,0.120000*%
G04 APERTURE END LIST*
D10*
X70071371Y-102325142D02*
X69071371Y-102325142D01*
X68571371Y-102325142D02*
X68642800Y-102396571D01*
X68714228Y-102325142D01*
X68642800Y-102253714D01*
X68571371Y-102325142D01*
X68714228Y-102325142D01*
X69071371Y-101610857D02*
X70071371Y-101610857D01*
X69214228Y-101610857D02*
X69142800Y-101539428D01*
X69071371Y-101396571D01*
X69071371Y-101182285D01*
X69142800Y-101039428D01*
X69285657Y-100968000D01*
X70071371Y-100968000D01*
X69071371Y-100468000D02*
X69071371Y-99896571D01*
X70071371Y-100253714D02*
X68785657Y-100253714D01*
X68642800Y-100182285D01*
X68571371Y-100039428D01*
X68571371Y-99896571D01*
X70071371Y-99396571D02*
X69071371Y-99396571D01*
X68571371Y-99396571D02*
X68642800Y-99468000D01*
X68714228Y-99396571D01*
X68642800Y-99325142D01*
X68571371Y-99396571D01*
X68714228Y-99396571D01*
X69071371Y-98682285D02*
X70071371Y-98682285D01*
X69214228Y-98682285D02*
X69142800Y-98610857D01*
X69071371Y-98468000D01*
X69071371Y-98253714D01*
X69142800Y-98110857D01*
X69285657Y-98039428D01*
X70071371Y-98039428D01*
X70071371Y-97325142D02*
X69071371Y-97325142D01*
X68571371Y-97325142D02*
X68642800Y-97396571D01*
X68714228Y-97325142D01*
X68642800Y-97253714D01*
X68571371Y-97325142D01*
X68714228Y-97325142D01*
X69071371Y-96825142D02*
X69071371Y-96253714D01*
X68571371Y-96610857D02*
X69857085Y-96610857D01*
X69999942Y-96539428D01*
X70071371Y-96396571D01*
X70071371Y-96253714D01*
X69071371Y-95896571D02*
X70071371Y-95539428D01*
X69071371Y-95182285D02*
X70071371Y-95539428D01*
X70428514Y-95682285D01*
X70499942Y-95753714D01*
X70571371Y-95896571D01*
X69499942Y-94610857D02*
X69499942Y-93468000D01*
X69071371Y-92968000D02*
X69071371Y-92396571D01*
X68571371Y-92753714D02*
X69857085Y-92753714D01*
X69999942Y-92682285D01*
X70071371Y-92539428D01*
X70071371Y-92396571D01*
X70071371Y-91253714D02*
X69285657Y-91253714D01*
X69142800Y-91325142D01*
X69071371Y-91468000D01*
X69071371Y-91753714D01*
X69142800Y-91896571D01*
X69999942Y-91253714D02*
X70071371Y-91396571D01*
X70071371Y-91753714D01*
X69999942Y-91896571D01*
X69857085Y-91968000D01*
X69714228Y-91968000D01*
X69571371Y-91896571D01*
X69499942Y-91753714D01*
X69499942Y-91396571D01*
X69428514Y-91253714D01*
X70071371Y-90539428D02*
X68571371Y-90539428D01*
X69142800Y-90539428D02*
X69071371Y-90396571D01*
X69071371Y-90110857D01*
X69142800Y-89968000D01*
X69214228Y-89896571D01*
X69357085Y-89825142D01*
X69785657Y-89825142D01*
X69928514Y-89896571D01*
X69999942Y-89968000D01*
X70071371Y-90110857D01*
X70071371Y-90396571D01*
X69999942Y-90539428D01*
X70071371Y-88968000D02*
X69999942Y-89110857D01*
X69857085Y-89182285D01*
X68571371Y-89182285D01*
X69999942Y-87825142D02*
X70071371Y-87968000D01*
X70071371Y-88253714D01*
X69999942Y-88396571D01*
X69857085Y-88468000D01*
X69285657Y-88468000D01*
X69142800Y-88396571D01*
X69071371Y-88253714D01*
X69071371Y-87968000D01*
X69142800Y-87825142D01*
X69285657Y-87753714D01*
X69428514Y-87753714D01*
X69571371Y-88468000D01*
X69071371Y-86110857D02*
X70071371Y-85753714D01*
X69071371Y-85396571D01*
X68714228Y-84896571D02*
X68642800Y-84825142D01*
X68571371Y-84682285D01*
X68571371Y-84325142D01*
X68642800Y-84182285D01*
X68714228Y-84110857D01*
X68857085Y-84039428D01*
X68999942Y-84039428D01*
X69214228Y-84110857D01*
X70071371Y-84968000D01*
X70071371Y-84039428D01*
D11*
X154940095Y-111704380D02*
X154940095Y-110704380D01*
X154940095Y-111180571D02*
X155511523Y-111180571D01*
X155511523Y-111704380D02*
X155511523Y-110704380D01*
X156416285Y-111037714D02*
X156416285Y-111704380D01*
X156178190Y-110656761D02*
X155940095Y-111371047D01*
X156559142Y-111371047D01*
X70561295Y-103610380D02*
X70561295Y-102610380D01*
X70561295Y-103086571D02*
X71132723Y-103086571D01*
X71132723Y-103610380D02*
X71132723Y-102610380D01*
X72132723Y-103610380D02*
X71561295Y-103610380D01*
X71847009Y-103610380D02*
X71847009Y-102610380D01*
X71751771Y-102753238D01*
X71656533Y-102848476D01*
X71561295Y-102896095D01*
X121925142Y-105388666D02*
X121972761Y-105436285D01*
X122020380Y-105579142D01*
X122020380Y-105674380D01*
X121972761Y-105817238D01*
X121877523Y-105912476D01*
X121782285Y-105960095D01*
X121591809Y-106007714D01*
X121448952Y-106007714D01*
X121258476Y-105960095D01*
X121163238Y-105912476D01*
X121068000Y-105817238D01*
X121020380Y-105674380D01*
X121020380Y-105579142D01*
X121068000Y-105436285D01*
X121115619Y-105388666D01*
X121353714Y-104531523D02*
X122020380Y-104531523D01*
X120972761Y-104769619D02*
X121687047Y-105007714D01*
X121687047Y-104388666D01*
X119149342Y-90270666D02*
X119196961Y-90318285D01*
X119244580Y-90461142D01*
X119244580Y-90556380D01*
X119196961Y-90699238D01*
X119101723Y-90794476D01*
X119006485Y-90842095D01*
X118816009Y-90889714D01*
X118673152Y-90889714D01*
X118482676Y-90842095D01*
X118387438Y-90794476D01*
X118292200Y-90699238D01*
X118244580Y-90556380D01*
X118244580Y-90461142D01*
X118292200Y-90318285D01*
X118339819Y-90270666D01*
X118244580Y-89365904D02*
X118244580Y-89842095D01*
X118720771Y-89889714D01*
X118673152Y-89842095D01*
X118625533Y-89746857D01*
X118625533Y-89508761D01*
X118673152Y-89413523D01*
X118720771Y-89365904D01*
X118816009Y-89318285D01*
X119054104Y-89318285D01*
X119149342Y-89365904D01*
X119196961Y-89413523D01*
X119244580Y-89508761D01*
X119244580Y-89746857D01*
X119196961Y-89842095D01*
X119149342Y-89889714D01*
X111809161Y-88023533D02*
X111856780Y-87880676D01*
X111856780Y-87642580D01*
X111809161Y-87547342D01*
X111761542Y-87499723D01*
X111666304Y-87452104D01*
X111571066Y-87452104D01*
X111475828Y-87499723D01*
X111428209Y-87547342D01*
X111380590Y-87642580D01*
X111332971Y-87833057D01*
X111285352Y-87928295D01*
X111237733Y-87975914D01*
X111142495Y-88023533D01*
X111047257Y-88023533D01*
X110952019Y-87975914D01*
X110904400Y-87928295D01*
X110856780Y-87833057D01*
X110856780Y-87594961D01*
X110904400Y-87452104D01*
X110856780Y-87118771D02*
X111856780Y-86880676D01*
X111142495Y-86690200D01*
X111856780Y-86499723D01*
X110856780Y-86261628D01*
X110952019Y-85928295D02*
X110904400Y-85880676D01*
X110856780Y-85785438D01*
X110856780Y-85547342D01*
X110904400Y-85452104D01*
X110952019Y-85404485D01*
X111047257Y-85356866D01*
X111142495Y-85356866D01*
X111285352Y-85404485D01*
X111856780Y-85975914D01*
X111856780Y-85356866D01*
X147320095Y-89834980D02*
X147320095Y-88834980D01*
X147320095Y-89311171D02*
X147891523Y-89311171D01*
X147891523Y-89834980D02*
X147891523Y-88834980D01*
X148320095Y-88930219D02*
X148367714Y-88882600D01*
X148462952Y-88834980D01*
X148701047Y-88834980D01*
X148796285Y-88882600D01*
X148843904Y-88930219D01*
X148891523Y-89025457D01*
X148891523Y-89120695D01*
X148843904Y-89263552D01*
X148272476Y-89834980D01*
X148891523Y-89834980D01*
X89495238Y-95813619D02*
X89828571Y-96289809D01*
X90066666Y-95813619D02*
X90066666Y-96813619D01*
X89685714Y-96813619D01*
X89590476Y-96766000D01*
X89542857Y-96718380D01*
X89495238Y-96623142D01*
X89495238Y-96480285D01*
X89542857Y-96385047D01*
X89590476Y-96337428D01*
X89685714Y-96289809D01*
X90066666Y-96289809D01*
X89209523Y-96813619D02*
X88876190Y-95813619D01*
X88542857Y-96813619D01*
X87685714Y-95813619D02*
X88257142Y-95813619D01*
X87971428Y-95813619D02*
X87971428Y-96813619D01*
X88066666Y-96670761D01*
X88161904Y-96575523D01*
X88257142Y-96527904D01*
X67818095Y-78532380D02*
X67818095Y-77532380D01*
X67818095Y-78008571D02*
X68389523Y-78008571D01*
X68389523Y-78532380D02*
X68389523Y-77532380D01*
X68770476Y-77532380D02*
X69389523Y-77532380D01*
X69056190Y-77913333D01*
X69199047Y-77913333D01*
X69294285Y-77960952D01*
X69341904Y-78008571D01*
X69389523Y-78103809D01*
X69389523Y-78341904D01*
X69341904Y-78437142D01*
X69294285Y-78484761D01*
X69199047Y-78532380D01*
X68913333Y-78532380D01*
X68818095Y-78484761D01*
X68770476Y-78437142D01*
X111250361Y-103746133D02*
X111297980Y-103603276D01*
X111297980Y-103365180D01*
X111250361Y-103269942D01*
X111202742Y-103222323D01*
X111107504Y-103174704D01*
X111012266Y-103174704D01*
X110917028Y-103222323D01*
X110869409Y-103269942D01*
X110821790Y-103365180D01*
X110774171Y-103555657D01*
X110726552Y-103650895D01*
X110678933Y-103698514D01*
X110583695Y-103746133D01*
X110488457Y-103746133D01*
X110393219Y-103698514D01*
X110345600Y-103650895D01*
X110297980Y-103555657D01*
X110297980Y-103317561D01*
X110345600Y-103174704D01*
X110297980Y-102841371D02*
X111297980Y-102603276D01*
X110583695Y-102412800D01*
X111297980Y-102222323D01*
X110297980Y-101984228D01*
X111297980Y-101079466D02*
X111297980Y-101650895D01*
X111297980Y-101365180D02*
X110297980Y-101365180D01*
X110440838Y-101460419D01*
X110536076Y-101555657D01*
X110583695Y-101650895D01*
D12*
X119153000Y-104960748D02*
X119153000Y-105483252D01*
X120623000Y-104960748D02*
X120623000Y-105483252D01*
X121207200Y-90365252D02*
X121207200Y-89842748D01*
X119737200Y-90365252D02*
X119737200Y-89842748D01*
D11*
X104724200Y-93675200D02*
X116814600Y-93675200D01*
X116814600Y-93675200D02*
X116814600Y-81584800D01*
X116814600Y-81584800D02*
X104724200Y-81584800D01*
X104724200Y-81584800D02*
X104724200Y-93675200D01*
D12*
X71221600Y-83693000D02*
X91440000Y-83693000D01*
X91440000Y-98679000D02*
X91440000Y-83693000D01*
X71221600Y-98679000D02*
X71221600Y-83693000D01*
X71221600Y-98679000D02*
X91440000Y-98679000D01*
X87934840Y-91185961D02*
G75*
G03*
X87934840Y-91185961I-8102640J0D01*
G01*
D11*
X116840000Y-109677200D02*
X116840000Y-97586800D01*
X104749600Y-109677200D02*
X116840000Y-109677200D01*
X116840000Y-97586800D02*
X104749600Y-97586800D01*
X104749600Y-97586800D02*
X104749600Y-109677200D01*
M02*
