M48
; DRILL file {KiCad (6.0.1)} date Wed Mar 23 19:22:55 2022
; FORMAT={-:-/ absolute / inch / decimal}
; #@! TF.CreationDate,2022-03-23T19:22:55+02:00
; #@! TF.GenerationSoftware,Kicad,Pcbnew,(6.0.1)
; #@! TF.FileFunction,Plated,1,2,PTH
FMAT,2
INCH
; #@! TA.AperFunction,Plated,PTH,ViaDrill
T1C0.0157
; #@! TA.AperFunction,Plated,PTH,ComponentDrill
T2C0.0394
; #@! TA.AperFunction,Plated,PTH,ComponentDrill
T3C0.0433
; #@! TA.AperFunction,Plated,PTH,ComponentDrill
T4C0.1693
%
G90
G05
T1
X2.65Y-3.35
X2.65Y-3.45
X2.65Y-3.55
X2.65Y-3.65
X2.65Y-3.75
X2.65Y-3.85
X2.65Y-3.95
X2.65Y-4.05
X2.85Y-3.15
X2.95Y-3.15
X3.05Y-3.15
X3.148Y-4.152
X3.15Y-3.15
X3.166Y-4.025
X3.2Y-4.247
X3.25Y-3.15
X3.33Y-4.013
X3.34Y-4.26
X3.35Y-3.15
X3.385Y-4.077
X3.45Y-3.15
X3.474Y-4.077
X3.48Y-4.26
X3.532Y-4.423
X3.548Y-3.391
X3.55Y-3.15
X3.55Y-4.26
X3.55Y-4.34
X3.562Y-3.885
X3.562Y-3.985
X3.562Y-4.077
X3.632Y-4.423
X3.65Y-3.15
X3.65Y-3.904
X3.65Y-4.004
X3.662Y-4.101
X3.7Y-3.31
X3.7Y-3.47
X3.732Y-4.423
X3.737Y-4.037
X3.75Y-3.15
X3.786Y-4.185
X3.832Y-4.006
X3.832Y-4.423
X3.841Y-3.641
X3.849Y-3.549
X3.85Y-3.15
X3.856Y-3.391
X3.887Y-4.117
X3.932Y-4.423
X3.941Y-3.641
X3.945Y-3.991
X3.949Y-3.549
X3.95Y-3.15
X3.987Y-4.117
X4.032Y-4.423
X4.036Y-3.64
X4.047Y-3.993
X4.049Y-3.549
X4.05Y-3.15
X4.087Y-4.117
X4.132Y-4.423
X4.136Y-3.64
X4.15Y-3.15
X4.187Y-4.117
X4.211Y-3.552
X4.215Y-3.992
X4.232Y-4.423
X4.236Y-3.64
X4.25Y-3.15
X4.287Y-4.117
X4.311Y-3.552
X4.315Y-3.992
X4.336Y-3.64
X4.35Y-3.15
X4.365Y-3.838
X4.367Y-3.719
X4.387Y-4.117
X4.411Y-3.552
X4.415Y-3.992
X4.436Y-3.64
X4.45Y-3.15
X4.458Y-3.723
X4.458Y-3.834
X4.487Y-4.117
X4.487Y-4.217
X4.511Y-3.552
X4.515Y-3.992
X4.534Y-4.298
X4.536Y-3.64
X4.55Y-3.15
X4.595Y-4.104
X4.596Y-3.248
X4.636Y-3.64
X4.652Y-4.238
X4.652Y-4.315
X4.658Y-4.137
X4.675Y-3.532
X4.685Y-3.286
X4.689Y-3.406
X4.709Y-3.885
X4.709Y-3.985
X4.724Y-3.662
X4.756Y-4.258
X4.758Y-4.326
X4.786Y-4.134
X4.791Y-3.848
X4.791Y-3.948
X4.791Y-4.048
X4.801Y-3.691
X4.808Y-3.378
X4.808Y-3.45
X4.814Y-3.549
X4.856Y-4.223
X4.857Y-4.322
X4.895Y-4.14
X4.899Y-3.854
X4.899Y-3.954
X4.899Y-4.054
X4.932Y-3.44
X4.934Y-3.49
X4.957Y-4.318
X5.018Y-3.45
X5.057Y-4.32
X5.058Y-3.834
X5.067Y-3.504
X5.118Y-3.45
X5.157Y-3.834
X5.159Y-4.322
X5.174Y-3.501
X5.217Y-3.429
X5.218Y-3.576
X5.235Y-3.343
X5.257Y-4.322
X5.258Y-3.831
X5.309Y-3.574
X5.328Y-3.346
X5.356Y-3.837
X5.357Y-4.32
X5.393Y-3.623
X5.431Y-3.266
X5.457Y-3.837
X5.457Y-4.325
X5.493Y-3.623
X5.555Y-3.834
X5.559Y-4.32
X5.608Y-3.661
X5.657Y-4.327
X5.658Y-3.84
X5.708Y-3.888
X5.708Y-3.988
X5.708Y-4.088
X5.708Y-4.188
X5.708Y-4.288
X5.721Y-3.663
X5.789Y-3.722
X5.798Y-3.822
X5.798Y-3.922
X5.799Y-4.021
X5.799Y-4.121
X5.799Y-4.221
X5.799Y-4.321
X5.8Y-4.4
X6.0Y-3.5
X6.0Y-3.6
X6.0Y-3.7
X6.0Y-3.8
X6.0Y-3.9
X6.0Y-4.0
X6.0Y-4.1
X6.0Y-4.2
T2
X3.0828Y-4.3694
X3.26Y-4.0938
X3.26Y-4.33
X3.4372Y-4.3694
X3.64Y-4.31
X3.74Y-4.31
X3.84Y-4.31
X3.94Y-4.31
X4.308Y-3.78
X4.308Y-4.38
X4.408Y-3.78
X4.408Y-4.38
X4.508Y-3.78
X4.508Y-4.38
X4.608Y-3.78
X4.608Y-4.38
X4.64Y-3.19
X4.708Y-3.78
X4.708Y-4.38
X4.74Y-3.19
X4.808Y-3.78
X4.808Y-4.38
X4.84Y-3.19
X4.908Y-3.78
X4.908Y-4.38
X4.94Y-3.19
X5.008Y-3.78
X5.008Y-4.38
X5.04Y-3.19
X5.108Y-3.78
X5.108Y-4.38
X5.14Y-3.19
X5.208Y-3.78
X5.208Y-4.38
X5.24Y-3.19
X5.308Y-3.78
X5.308Y-4.38
X5.34Y-3.19
X5.408Y-3.78
X5.408Y-4.38
X5.44Y-3.19
X5.508Y-3.78
X5.508Y-4.38
X5.54Y-3.19
X5.608Y-3.78
X5.608Y-4.38
X5.708Y-3.78
X5.708Y-4.38
T3
X4.123Y-3.35
X4.123Y-3.55
X4.124Y-3.98
X4.124Y-4.18
X4.599Y-3.35
X4.599Y-3.55
X4.6Y-3.98
X4.6Y-4.18
T4
X2.808Y-4.27
X5.828Y-3.3
T0
M30
