G04 #@! TF.GenerationSoftware,KiCad,Pcbnew,(6.0.1)*
G04 #@! TF.CreationDate,2022-03-23T19:49:34+02:00*
G04 #@! TF.ProjectId,infinity-table-pcb,696e6669-6e69-4747-992d-7461626c652d,rev?*
G04 #@! TF.SameCoordinates,Original*
G04 #@! TF.FileFunction,Legend,Bot*
G04 #@! TF.FilePolarity,Positive*
%FSLAX46Y46*%
G04 Gerber Fmt 4.6, Leading zero omitted, Abs format (unit mm)*
G04 Created by KiCad (PCBNEW (6.0.1)) date 2022-03-23 19:49:34*
%MOMM*%
%LPD*%
G01*
G04 APERTURE LIST*
%ADD10C,1.000000*%
%ADD11C,0.300000*%
%ADD12C,0.150000*%
%ADD13C,0.050000*%
%ADD14C,0.120000*%
%ADD15C,0.127000*%
%ADD16C,0.400000*%
%ADD17C,1.600000*%
G04 APERTURE END LIST*
D10*
X93579009Y-83403514D02*
X93817104Y-84117800D01*
X93817104Y-85308276D01*
X93579009Y-85784466D01*
X93340914Y-86022561D01*
X92864723Y-86260657D01*
X92388533Y-86260657D01*
X91912342Y-86022561D01*
X91674247Y-85784466D01*
X91436152Y-85308276D01*
X91198057Y-84355895D01*
X90959961Y-83879704D01*
X90721866Y-83641609D01*
X90245676Y-83403514D01*
X89769485Y-83403514D01*
X89293295Y-83641609D01*
X89055200Y-83879704D01*
X88817104Y-84355895D01*
X88817104Y-85546371D01*
X89055200Y-86260657D01*
X93817104Y-90546371D02*
X91198057Y-90546371D01*
X90721866Y-90308276D01*
X90483771Y-89832085D01*
X90483771Y-88879704D01*
X90721866Y-88403514D01*
X93579009Y-90546371D02*
X93817104Y-90070180D01*
X93817104Y-88879704D01*
X93579009Y-88403514D01*
X93102819Y-88165419D01*
X92626628Y-88165419D01*
X92150438Y-88403514D01*
X91912342Y-88879704D01*
X91912342Y-90070180D01*
X91674247Y-90546371D01*
X93817104Y-92927323D02*
X90483771Y-92927323D01*
X90959961Y-92927323D02*
X90721866Y-93165419D01*
X90483771Y-93641609D01*
X90483771Y-94355895D01*
X90721866Y-94832085D01*
X91198057Y-95070180D01*
X93817104Y-95070180D01*
X91198057Y-95070180D02*
X90721866Y-95308276D01*
X90483771Y-95784466D01*
X90483771Y-96498752D01*
X90721866Y-96974942D01*
X91198057Y-97213038D01*
X93817104Y-97213038D01*
X93817104Y-99593990D02*
X90483771Y-99593990D01*
X88817104Y-99593990D02*
X89055200Y-99355895D01*
X89293295Y-99593990D01*
X89055200Y-99832085D01*
X88817104Y-99593990D01*
X89293295Y-99593990D01*
X101629009Y-81617800D02*
X101867104Y-82332085D01*
X101867104Y-83522561D01*
X101629009Y-83998752D01*
X101390914Y-84236847D01*
X100914723Y-84474942D01*
X100438533Y-84474942D01*
X99962342Y-84236847D01*
X99724247Y-83998752D01*
X99486152Y-83522561D01*
X99248057Y-82570180D01*
X99009961Y-82093990D01*
X98771866Y-81855895D01*
X98295676Y-81617800D01*
X97819485Y-81617800D01*
X97343295Y-81855895D01*
X97105200Y-82093990D01*
X96867104Y-82570180D01*
X96867104Y-83760657D01*
X97105200Y-84474942D01*
X101867104Y-87332085D02*
X101629009Y-86855895D01*
X101390914Y-86617800D01*
X100914723Y-86379704D01*
X99486152Y-86379704D01*
X99009961Y-86617800D01*
X98771866Y-86855895D01*
X98533771Y-87332085D01*
X98533771Y-88046371D01*
X98771866Y-88522561D01*
X99009961Y-88760657D01*
X99486152Y-88998752D01*
X100914723Y-88998752D01*
X101390914Y-88760657D01*
X101629009Y-88522561D01*
X101867104Y-88046371D01*
X101867104Y-87332085D01*
X101867104Y-91141609D02*
X98533771Y-91141609D01*
X99486152Y-91141609D02*
X99009961Y-91379704D01*
X98771866Y-91617800D01*
X98533771Y-92093990D01*
X98533771Y-92570180D01*
X101629009Y-96141609D02*
X101867104Y-95665419D01*
X101867104Y-94713038D01*
X101629009Y-94236847D01*
X101152819Y-93998752D01*
X99248057Y-93998752D01*
X98771866Y-94236847D01*
X98533771Y-94713038D01*
X98533771Y-95665419D01*
X98771866Y-96141609D01*
X99248057Y-96379704D01*
X99724247Y-96379704D01*
X100200438Y-93998752D01*
X101867104Y-99236847D02*
X101629009Y-98760657D01*
X101152819Y-98522561D01*
X96867104Y-98522561D01*
X101867104Y-101855895D02*
X101629009Y-101379704D01*
X101152819Y-101141609D01*
X96867104Y-101141609D01*
D11*
X70020571Y-84110857D02*
X69020571Y-84110857D01*
X68520571Y-84110857D02*
X68592000Y-84039428D01*
X68663428Y-84110857D01*
X68592000Y-84182285D01*
X68520571Y-84110857D01*
X68663428Y-84110857D01*
X69020571Y-84825142D02*
X70020571Y-84825142D01*
X69163428Y-84825142D02*
X69092000Y-84896571D01*
X69020571Y-85039428D01*
X69020571Y-85253714D01*
X69092000Y-85396571D01*
X69234857Y-85468000D01*
X70020571Y-85468000D01*
X69020571Y-85968000D02*
X69020571Y-86539428D01*
X70020571Y-86182285D02*
X68734857Y-86182285D01*
X68592000Y-86253714D01*
X68520571Y-86396571D01*
X68520571Y-86539428D01*
X70020571Y-87039428D02*
X69020571Y-87039428D01*
X68520571Y-87039428D02*
X68592000Y-86968000D01*
X68663428Y-87039428D01*
X68592000Y-87110857D01*
X68520571Y-87039428D01*
X68663428Y-87039428D01*
X69020571Y-87753714D02*
X70020571Y-87753714D01*
X69163428Y-87753714D02*
X69092000Y-87825142D01*
X69020571Y-87968000D01*
X69020571Y-88182285D01*
X69092000Y-88325142D01*
X69234857Y-88396571D01*
X70020571Y-88396571D01*
X70020571Y-89110857D02*
X69020571Y-89110857D01*
X68520571Y-89110857D02*
X68592000Y-89039428D01*
X68663428Y-89110857D01*
X68592000Y-89182285D01*
X68520571Y-89110857D01*
X68663428Y-89110857D01*
X69020571Y-89610857D02*
X69020571Y-90182285D01*
X68520571Y-89825142D02*
X69806285Y-89825142D01*
X69949142Y-89896571D01*
X70020571Y-90039428D01*
X70020571Y-90182285D01*
X69020571Y-90539428D02*
X70020571Y-90896571D01*
X69020571Y-91253714D02*
X70020571Y-90896571D01*
X70377714Y-90753714D01*
X70449142Y-90682285D01*
X70520571Y-90539428D01*
X69449142Y-91825142D02*
X69449142Y-92968000D01*
X69020571Y-93468000D02*
X69020571Y-94039428D01*
X68520571Y-93682285D02*
X69806285Y-93682285D01*
X69949142Y-93753714D01*
X70020571Y-93896571D01*
X70020571Y-94039428D01*
X70020571Y-95182285D02*
X69234857Y-95182285D01*
X69092000Y-95110857D01*
X69020571Y-94968000D01*
X69020571Y-94682285D01*
X69092000Y-94539428D01*
X69949142Y-95182285D02*
X70020571Y-95039428D01*
X70020571Y-94682285D01*
X69949142Y-94539428D01*
X69806285Y-94468000D01*
X69663428Y-94468000D01*
X69520571Y-94539428D01*
X69449142Y-94682285D01*
X69449142Y-95039428D01*
X69377714Y-95182285D01*
X70020571Y-95896571D02*
X68520571Y-95896571D01*
X69092000Y-95896571D02*
X69020571Y-96039428D01*
X69020571Y-96325142D01*
X69092000Y-96468000D01*
X69163428Y-96539428D01*
X69306285Y-96610857D01*
X69734857Y-96610857D01*
X69877714Y-96539428D01*
X69949142Y-96468000D01*
X70020571Y-96325142D01*
X70020571Y-96039428D01*
X69949142Y-95896571D01*
X70020571Y-97468000D02*
X69949142Y-97325142D01*
X69806285Y-97253714D01*
X68520571Y-97253714D01*
X69949142Y-98610857D02*
X70020571Y-98468000D01*
X70020571Y-98182285D01*
X69949142Y-98039428D01*
X69806285Y-97968000D01*
X69234857Y-97968000D01*
X69092000Y-98039428D01*
X69020571Y-98182285D01*
X69020571Y-98468000D01*
X69092000Y-98610857D01*
X69234857Y-98682285D01*
X69377714Y-98682285D01*
X69520571Y-97968000D01*
X69020571Y-100325142D02*
X70020571Y-100682285D01*
X69020571Y-101039428D01*
X68663428Y-101539428D02*
X68592000Y-101610857D01*
X68520571Y-101753714D01*
X68520571Y-102110857D01*
X68592000Y-102253714D01*
X68663428Y-102325142D01*
X68806285Y-102396571D01*
X68949142Y-102396571D01*
X69163428Y-102325142D01*
X70020571Y-101468000D01*
X70020571Y-102396571D01*
D12*
X107380066Y-95338514D02*
X107380066Y-95814704D01*
X107665780Y-95243276D02*
X106665780Y-95576609D01*
X107665780Y-95909942D01*
X107665780Y-96767085D02*
X107665780Y-96195657D01*
X107665780Y-96481371D02*
X106665780Y-96481371D01*
X106808638Y-96386133D01*
X106903876Y-96290895D01*
X106951495Y-96195657D01*
X101858380Y-109140666D02*
X102572666Y-109140666D01*
X102715523Y-109093047D01*
X102810761Y-108997809D01*
X102858380Y-108854952D01*
X102858380Y-108759714D01*
X101953619Y-109569238D02*
X101906000Y-109616857D01*
X101858380Y-109712095D01*
X101858380Y-109950190D01*
X101906000Y-110045428D01*
X101953619Y-110093047D01*
X102048857Y-110140666D01*
X102144095Y-110140666D01*
X102286952Y-110093047D01*
X102858380Y-109521619D01*
X102858380Y-110140666D01*
D13*
X85355055Y-103679590D02*
X86069505Y-103679590D01*
X86212395Y-103631960D01*
X86307655Y-103536700D01*
X86355285Y-103393810D01*
X86355285Y-103298550D01*
X86355285Y-104679820D02*
X86355285Y-104108260D01*
X86355285Y-104394040D02*
X85355055Y-104394040D01*
X85497945Y-104298780D01*
X85593205Y-104203520D01*
X85640835Y-104108260D01*
X89785008Y-102447326D02*
X88783178Y-102447326D01*
X88783178Y-102828975D01*
X88830885Y-102924388D01*
X88878591Y-102972094D01*
X88974003Y-103019800D01*
X89117122Y-103019800D01*
X89212534Y-102972094D01*
X89260240Y-102924388D01*
X89307946Y-102828975D01*
X89307946Y-102447326D01*
X88783178Y-103735393D02*
X89498771Y-103735393D01*
X89641890Y-103687687D01*
X89737302Y-103592275D01*
X89785008Y-103449156D01*
X89785008Y-103353744D01*
X89403359Y-104212455D02*
X89403359Y-104975754D01*
X88783178Y-105643641D02*
X88783178Y-105739053D01*
X88830885Y-105834465D01*
X88878591Y-105882172D01*
X88974003Y-105929878D01*
X89164828Y-105977584D01*
X89403359Y-105977584D01*
X89594184Y-105929878D01*
X89689596Y-105882172D01*
X89737302Y-105834465D01*
X89785008Y-105739053D01*
X89785008Y-105643641D01*
X89737302Y-105548228D01*
X89689596Y-105500522D01*
X89594184Y-105452816D01*
X89403359Y-105405110D01*
X89164828Y-105405110D01*
X88974003Y-105452816D01*
X88878591Y-105500522D01*
X88830885Y-105548228D01*
X88783178Y-105643641D01*
X88783178Y-106836295D02*
X88783178Y-106645471D01*
X88830885Y-106550058D01*
X88878591Y-106502352D01*
X89021709Y-106406940D01*
X89212534Y-106359234D01*
X89594184Y-106359234D01*
X89689596Y-106406940D01*
X89737302Y-106454646D01*
X89785008Y-106550058D01*
X89785008Y-106740883D01*
X89737302Y-106836295D01*
X89689596Y-106884002D01*
X89594184Y-106931708D01*
X89355653Y-106931708D01*
X89260240Y-106884002D01*
X89212534Y-106836295D01*
X89164828Y-106740883D01*
X89164828Y-106550058D01*
X89212534Y-106454646D01*
X89260240Y-106406940D01*
X89355653Y-106359234D01*
X88783178Y-107265651D02*
X88783178Y-107885832D01*
X89164828Y-107551888D01*
X89164828Y-107695007D01*
X89212534Y-107790419D01*
X89260240Y-107838125D01*
X89355653Y-107885832D01*
X89594184Y-107885832D01*
X89689596Y-107838125D01*
X89737302Y-107790419D01*
X89785008Y-107695007D01*
X89785008Y-107408770D01*
X89737302Y-107313357D01*
X89689596Y-107265651D01*
X89498771Y-108267481D02*
X89498771Y-108744543D01*
X89785008Y-108172069D02*
X88783178Y-108506012D01*
X89785008Y-108839955D01*
X89785008Y-109173899D02*
X88783178Y-109173899D01*
X89260240Y-109173899D02*
X89260240Y-109746373D01*
X89785008Y-109746373D02*
X88783178Y-109746373D01*
D12*
X122188266Y-89765142D02*
X122235885Y-89812761D01*
X122378742Y-89860380D01*
X122473980Y-89860380D01*
X122616838Y-89812761D01*
X122712076Y-89717523D01*
X122759695Y-89622285D01*
X122807314Y-89431809D01*
X122807314Y-89288952D01*
X122759695Y-89098476D01*
X122712076Y-89003238D01*
X122616838Y-88908000D01*
X122473980Y-88860380D01*
X122378742Y-88860380D01*
X122235885Y-88908000D01*
X122188266Y-88955619D01*
X121235885Y-89860380D02*
X121807314Y-89860380D01*
X121521600Y-89860380D02*
X121521600Y-88860380D01*
X121616838Y-89003238D01*
X121712076Y-89098476D01*
X121807314Y-89146095D01*
X122213666Y-84050142D02*
X122261285Y-84097761D01*
X122404142Y-84145380D01*
X122499380Y-84145380D01*
X122642238Y-84097761D01*
X122737476Y-84002523D01*
X122785095Y-83907285D01*
X122832714Y-83716809D01*
X122832714Y-83573952D01*
X122785095Y-83383476D01*
X122737476Y-83288238D01*
X122642238Y-83193000D01*
X122499380Y-83145380D01*
X122404142Y-83145380D01*
X122261285Y-83193000D01*
X122213666Y-83240619D01*
X121880333Y-83145380D02*
X121261285Y-83145380D01*
X121594619Y-83526333D01*
X121451761Y-83526333D01*
X121356523Y-83573952D01*
X121308904Y-83621571D01*
X121261285Y-83716809D01*
X121261285Y-83954904D01*
X121308904Y-84050142D01*
X121356523Y-84097761D01*
X121451761Y-84145380D01*
X121737476Y-84145380D01*
X121832714Y-84097761D01*
X121880333Y-84050142D01*
X142498380Y-80692666D02*
X143212666Y-80692666D01*
X143355523Y-80645047D01*
X143450761Y-80549809D01*
X143498380Y-80406952D01*
X143498380Y-80311714D01*
X142498380Y-81073619D02*
X142498380Y-81692666D01*
X142879333Y-81359333D01*
X142879333Y-81502190D01*
X142926952Y-81597428D01*
X142974571Y-81645047D01*
X143069809Y-81692666D01*
X143307904Y-81692666D01*
X143403142Y-81645047D01*
X143450761Y-81597428D01*
X143498380Y-81502190D01*
X143498380Y-81216476D01*
X143450761Y-81121238D01*
X143403142Y-81073619D01*
X129652780Y-87299895D02*
X130462304Y-87299895D01*
X130557542Y-87347514D01*
X130605161Y-87395133D01*
X130652780Y-87490371D01*
X130652780Y-87680847D01*
X130605161Y-87776085D01*
X130557542Y-87823704D01*
X130462304Y-87871323D01*
X129652780Y-87871323D01*
X130652780Y-88871323D02*
X130652780Y-88299895D01*
X130652780Y-88585609D02*
X129652780Y-88585609D01*
X129795638Y-88490371D01*
X129890876Y-88395133D01*
X129938495Y-88299895D01*
X118860866Y-83764380D02*
X119194200Y-83288190D01*
X119432295Y-83764380D02*
X119432295Y-82764380D01*
X119051342Y-82764380D01*
X118956104Y-82812000D01*
X118908485Y-82859619D01*
X118860866Y-82954857D01*
X118860866Y-83097714D01*
X118908485Y-83192952D01*
X118956104Y-83240571D01*
X119051342Y-83288190D01*
X119432295Y-83288190D01*
X117908485Y-83764380D02*
X118479914Y-83764380D01*
X118194200Y-83764380D02*
X118194200Y-82764380D01*
X118289438Y-82907238D01*
X118384676Y-83002476D01*
X118479914Y-83050095D01*
D14*
X148923200Y-112652000D02*
X105483200Y-112652000D01*
X146253200Y-97282000D02*
X146253200Y-94612000D01*
X110693200Y-97282000D02*
X146253200Y-97282000D01*
X108153200Y-109982000D02*
X146253200Y-109982000D01*
X110693200Y-97282000D02*
X110693200Y-94612000D01*
X148923200Y-94612000D02*
X148923200Y-112652000D01*
X110693200Y-94612000D02*
X148923200Y-94612000D01*
X110693200Y-97282000D02*
X108153200Y-97282000D01*
X105483200Y-112652000D02*
X105483200Y-94612000D01*
X108153200Y-97282000D02*
X108153200Y-94612000D01*
X146253200Y-109982000D02*
X146253200Y-112652000D01*
X108153200Y-109982000D02*
X108153200Y-112652000D01*
X105483200Y-94612000D02*
X108153200Y-94612000D01*
X100076000Y-110804000D02*
X101406000Y-110804000D01*
X98806000Y-110804000D02*
X98806000Y-108144000D01*
X98806000Y-108144000D02*
X91126000Y-108144000D01*
X98806000Y-110804000D02*
X91126000Y-110804000D01*
X101406000Y-110804000D02*
X101406000Y-109474000D01*
X91126000Y-110804000D02*
X91126000Y-108144000D01*
D15*
X87804000Y-102982000D02*
X84904000Y-102982000D01*
X77804000Y-115982000D02*
X87804000Y-115982000D01*
X87804000Y-108782000D02*
X87804000Y-102982000D01*
X77804000Y-113182000D02*
X77804000Y-115982000D01*
X80604000Y-102982000D02*
X77804000Y-102982000D01*
X87804000Y-115982000D02*
X87804000Y-113182000D01*
X77804000Y-102982000D02*
X77804000Y-108782000D01*
D16*
X83004000Y-102182000D02*
G75*
G03*
X83004000Y-102182000I-200000J0D01*
G01*
D14*
X123217000Y-90096748D02*
X123217000Y-90619252D01*
X124687000Y-90096748D02*
X124687000Y-90619252D01*
X124433000Y-85270748D02*
X124433000Y-85793252D01*
X122963000Y-85270748D02*
X122963000Y-85793252D01*
X140716000Y-82356000D02*
X142046000Y-82356000D01*
X142046000Y-82356000D02*
X142046000Y-81026000D01*
X116526000Y-82356000D02*
X116526000Y-79696000D01*
X139446000Y-82356000D02*
X116526000Y-82356000D01*
X139446000Y-79696000D02*
X116526000Y-79696000D01*
X139446000Y-82356000D02*
X139446000Y-79696000D01*
X125464000Y-87906480D02*
X125464000Y-90106480D01*
X125464000Y-87906480D02*
X125464000Y-84306480D01*
X132234000Y-87906480D02*
X132234000Y-85706480D01*
X132234000Y-87906480D02*
X132234000Y-90106480D01*
X119762600Y-85165836D02*
X119762600Y-85619964D01*
X121232600Y-85165836D02*
X121232600Y-85619964D01*
D17*
X82804000Y-112982000D03*
M02*
