G04 #@! TF.GenerationSoftware,KiCad,Pcbnew,(6.0.1)*
G04 #@! TF.CreationDate,2022-03-23T19:49:34+02:00*
G04 #@! TF.ProjectId,infinity-table-pcb,696e6669-6e69-4747-992d-7461626c652d,rev?*
G04 #@! TF.SameCoordinates,Original*
G04 #@! TF.FileFunction,Profile,NP*
%FSLAX46Y46*%
G04 Gerber Fmt 4.6, Leading zero omitted, Abs format (unit mm)*
G04 Created by KiCad (PCBNEW (6.0.1)) date 2022-03-23 19:49:34*
%MOMM*%
%LPD*%
G01*
G04 APERTURE LIST*
G04 #@! TA.AperFunction,Profile*
%ADD10C,0.150000*%
G04 #@! TD*
G04 #@! TA.AperFunction,Profile*
%ADD11C,0.001000*%
G04 #@! TD*
G04 APERTURE END LIST*
D10*
X66040000Y-78740000D02*
X153670000Y-78740000D01*
X153670000Y-78740000D02*
X153670000Y-113538000D01*
X66040000Y-113538000D02*
X66040000Y-78740000D01*
X87960359Y-91186000D02*
G75*
G03*
X87960359Y-91186000I-8128159J0D01*
G01*
X153670000Y-113538000D02*
X66040000Y-113538000D01*
D11*
X81304000Y-103482000D02*
X81304000Y-104482000D01*
X86804000Y-112232000D02*
X87804000Y-112232000D01*
X87804000Y-109732000D02*
X86804000Y-109732000D01*
X86804000Y-109732000D02*
X86804000Y-112232000D01*
X83954000Y-109482000D02*
X81654000Y-109482000D01*
X84304000Y-103482000D02*
X81304000Y-103482000D01*
X77804000Y-109732000D02*
X77804000Y-112232000D01*
X78804000Y-112232000D02*
X78804000Y-109732000D01*
X84304000Y-104482000D02*
X84304000Y-103482000D01*
X81654000Y-109482000D02*
X81654000Y-110482000D01*
X77804000Y-112232000D02*
X78804000Y-112232000D01*
X81304000Y-104482000D02*
X84304000Y-104482000D01*
X81654000Y-110482000D02*
X83954000Y-110482000D01*
X87804000Y-112232000D02*
X87804000Y-109732000D01*
X78804000Y-109732000D02*
X77804000Y-109732000D01*
X83954000Y-110482000D02*
X83954000Y-109482000D01*
M02*
