M48
; DRILL file {KiCad (6.0.1)} date Sun Oct 30 18:49:18 2022
; FORMAT={-:-/ absolute / inch / decimal}
; #@! TF.CreationDate,2022-10-30T18:49:18+02:00
; #@! TF.GenerationSoftware,Kicad,Pcbnew,(6.0.1)
; #@! TF.FileFunction,Plated,1,4,PTH
FMAT,2
INCH
; #@! TA.AperFunction,Plated,PTH,ViaDrill
T1C0.0157
; #@! TA.AperFunction,Plated,PTH,ComponentDrill
T2C0.0315
; #@! TA.AperFunction,Plated,PTH,ComponentDrill
T3C0.0394
; #@! TA.AperFunction,Plated,PTH,ComponentDrill
T4C0.0433
; #@! TA.AperFunction,Plated,PTH,ComponentDrill
T5C0.0560
; #@! TA.AperFunction,Plated,PTH,ComponentDrill
T6C0.0866
%
G90
G05
T1
X4.03Y-1.72
X4.03Y-1.82
X4.03Y-1.92
X4.03Y-2.02
X4.03Y-2.12
X4.03Y-2.22
X4.03Y-2.32
X4.03Y-2.42
X4.03Y-2.52
X4.03Y-2.62
X4.03Y-2.72
X4.03Y-2.82
X4.03Y-2.92
X4.03Y-3.02
X4.03Y-3.12
X4.03Y-3.22
X4.03Y-3.32
X4.03Y-3.42
X4.03Y-3.52
X4.03Y-3.62
X4.03Y-3.72
X4.03Y-3.82
X4.03Y-3.92
X4.03Y-4.02
X4.03Y-4.12
X4.03Y-4.22
X4.03Y-4.32
X4.03Y-4.42
X4.03Y-4.52
X4.03Y-4.62
X4.03Y-4.72
X4.03Y-4.82
X4.03Y-4.92
X4.03Y-5.02
X4.03Y-5.12
X4.03Y-5.22
X4.03Y-5.32
X4.03Y-5.42
X4.1Y-1.68
X4.13Y-5.42
X4.2Y-1.68
X4.27Y-5.42
X4.3Y-1.68
X4.37Y-5.42
X4.4Y-1.68
X4.402Y-2.085
X4.408Y-3.088
X4.41Y-1.887
X4.41Y-2.885
X4.414Y-3.883
X4.416Y-4.673
X4.42Y-1.8
X4.42Y-2.0
X4.42Y-2.672
X4.42Y-3.68
X4.421Y-4.08
X4.421Y-5.086
X4.422Y-4.802
X4.422Y-5.002
X4.423Y-4.889
X4.425Y-2.2
X4.425Y-3.0
X4.425Y-3.8
X4.425Y-4.0
X4.425Y-4.2
X4.43Y-2.8
X4.43Y-3.2
X4.432Y-5.204
X4.459Y-3.142
X4.46Y-1.742
X4.46Y-2.741
X4.46Y-2.945
X4.46Y-3.941
X4.46Y-4.74
X4.461Y-1.94
X4.461Y-2.143
X4.461Y-4.143
X4.461Y-4.941
X4.462Y-3.742
X4.463Y-5.142
X4.47Y-5.42
X4.486Y-5.241
X4.5Y-1.68
X4.513Y-3.144
X4.515Y-3.075
X4.516Y-3.872
X4.519Y-3.939
X4.521Y-3.449
X4.523Y-1.852
X4.524Y-2.251
X4.524Y-3.247
X4.525Y-3.742
X4.527Y-3.662
X4.528Y-4.731
X4.53Y-4.076
X4.531Y-4.141
X4.532Y-2.948
X4.537Y-2.876
X4.537Y-5.138
X4.538Y-2.144
X4.538Y-5.074
X4.539Y-1.751
X4.541Y-4.945
X4.542Y-2.672
X4.543Y-1.952
X4.543Y-4.256
X4.544Y-4.464
X4.545Y-4.666
X4.545Y-4.877
X4.546Y-2.75
X4.55Y-2.082
X4.57Y-5.42
X4.6Y-1.68
X4.66Y-2.879
X4.666Y-2.167
X4.674Y-4.616
X4.677Y-4.822
X4.678Y-4.417
X4.679Y-3.847
X4.679Y-4.219
X4.681Y-4.021
X4.682Y-5.019
X4.7Y-1.68
X4.705Y-3.564
X4.706Y-3.383
X4.742Y-3.123
X4.77Y-5.42
X4.774Y-2.071
X4.856Y-2.873
X4.87Y-5.42
X4.9Y-1.68
X4.97Y-2.069
X4.97Y-4.71
X4.97Y-5.42
X5.0Y-1.68
X5.008Y-1.933
X5.008Y-4.592
X5.015Y-4.392
X5.016Y-4.191
X5.017Y-3.189
X5.019Y-3.394
X5.02Y-2.17
X5.021Y-3.588
X5.022Y-2.376
X5.023Y-2.877
X5.023Y-3.304
X5.025Y-2.7
X5.025Y-3.505
X5.026Y-3.7
X5.026Y-4.302
X5.026Y-4.702
X5.028Y-2.574
X5.028Y-4.502
X5.03Y-2.3
X5.03Y-2.505
X5.06Y-2.441
X5.06Y-3.442
X5.06Y-3.643
X5.06Y-4.441
X5.061Y-2.241
X5.061Y-3.24
X5.061Y-4.242
X5.061Y-4.64
X5.062Y-2.639
X5.07Y-5.42
X5.1Y-1.68
X5.115Y-3.638
X5.118Y-3.553
X5.125Y-3.939
X5.126Y-3.436
X5.127Y-3.111
X5.128Y-3.747
X5.129Y-4.644
X5.131Y-3.245
X5.131Y-4.244
X5.133Y-2.444
X5.134Y-2.377
X5.134Y-2.643
X5.134Y-4.17
X5.135Y-2.57
X5.136Y-2.246
X5.139Y-4.408
X5.141Y-2.17
X5.152Y-2.746
X5.153Y-4.342
X5.157Y-3.382
X5.167Y-4.509
X5.167Y-4.603
X5.17Y-5.42
X5.2Y-1.68
X5.217Y-4.704
X5.251Y-1.934
X5.253Y-2.064
X5.268Y-3.929
X5.27Y-4.122
X5.27Y-5.42
X5.271Y-4.512
X5.274Y-4.329
X5.275Y-3.75
X5.3Y-1.68
X5.361Y-4.96
X5.37Y-5.42
X5.426Y-2.025
X5.47Y-5.42
X5.5Y-1.68
X5.5Y-2.082
X5.508Y-2.798
X5.537Y-3.714
X5.56Y-2.085
X5.57Y-5.42
X5.6Y-1.68
X5.624Y-5.093
X5.629Y-3.816
X5.661Y-4.96
X5.67Y-5.42
X5.7Y-1.68
X5.77Y-5.42
X5.8Y-1.68
X5.866Y-2.036
X5.87Y-5.207
X5.87Y-5.42
X5.9Y-1.68
X5.919Y-5.082
X5.927Y-3.816
X5.97Y-5.42
X5.973Y-4.787
X5.992Y-4.901
X5.999Y-1.97
X6.0Y-1.68
X6.027Y-4.667
X6.07Y-5.42
X6.093Y-4.737
X6.093Y-4.833
X6.1Y-1.68
X6.111Y-3.592
X6.117Y-4.555
X6.126Y-4.327
X6.166Y-5.206
X6.17Y-5.42
X6.196Y-4.209
X6.2Y-1.68
X6.22Y-4.76
X6.227Y-2.593
X6.26Y-4.328
X6.27Y-4.541
X6.27Y-5.42
X6.3Y-1.68
X6.302Y-2.31
X6.323Y-2.128
X6.338Y-3.14
X6.338Y-3.3
X6.338Y-3.462
X6.338Y-3.62
X6.34Y-3.382
X6.34Y-3.542
X6.363Y-5.221
X6.37Y-5.42
X6.4Y-1.68
X6.426Y-3.14
X6.426Y-3.3
X6.426Y-3.62
X6.428Y-3.382
X6.428Y-3.462
X6.428Y-3.542
X6.43Y-3.907
X6.461Y-4.353
X6.466Y-4.663
X6.47Y-5.42
X6.473Y-4.541
X6.5Y-1.68
X6.505Y-2.705
X6.51Y-3.19
X6.512Y-3.092
X6.515Y-2.89
X6.519Y-5.208
X6.528Y-2.012
X6.549Y-4.217
X6.549Y-4.427
X6.57Y-5.42
X6.596Y-2.393
X6.5994Y-2.5998
X6.6Y-1.68
X6.616Y-4.322
X6.67Y-5.42
X6.676Y-2.058
X6.679Y-4.774
X6.7Y-1.68
X6.727Y-2.335
X6.728Y-4.968
X6.739Y-5.118
X6.741Y-3.232
X6.755Y-2.511
X6.757Y-3.437
X6.759Y-2.663
X6.759Y-2.735
X6.767Y-4.851
X6.77Y-5.42
X6.774Y-2.86
X6.776Y-2.936
X6.791Y-5.188
X6.793Y-3.658
X6.798Y-3.751
X6.8Y-1.68
X6.808Y-4.726
X6.814Y-2.542
X6.816Y-2.232
X6.819Y-4.372
X6.826Y-4.559
X6.837Y-2.66
X6.839Y-2.859
X6.839Y-3.46
X6.839Y-4.656
X6.84Y-2.459
X6.841Y-4.458
X6.848Y-3.553
X6.863Y-3.747
X6.866Y-2.939
X6.87Y-2.734
X6.87Y-4.61
X6.87Y-5.42
X6.871Y-4.749
X6.8721Y-4.8165
X6.875Y-2.605
X6.875Y-2.805
X6.88Y-2.4
X6.88Y-3.4
X6.88Y-3.6
X6.88Y-3.8
X6.883Y-2.528
X6.893Y-4.556
X6.9Y-1.68
X6.901Y-3.511
X6.905Y-4.709
X6.915Y-4.515
X6.927Y-3.709
X6.959Y-2.094
X6.97Y-5.42
X7.0Y-1.68
X7.004Y-2.978
X7.03Y-3.22
X7.047Y-2.227
X7.07Y-5.42
X7.1Y-1.68
X7.17Y-5.42
X7.2Y-1.68
X7.218Y-3.226
X7.224Y-2.235
X7.224Y-4.328
X7.224Y-4.525
X7.224Y-4.745
X7.225Y-3.884
X7.225Y-4.973
X7.226Y-3.674
X7.227Y-2.047
X7.227Y-3.466
X7.227Y-5.176
X7.246Y-2.974
X7.27Y-5.42
X7.3Y-1.68
X7.335Y-4.839
X7.338Y-3.038
X7.344Y-4.978
X7.354Y-2.055
X7.356Y-4.341
X7.358Y-4.404
X7.358Y-4.727
X7.358Y-5.214
X7.361Y-5.147
X7.361Y-5.347
X7.363Y-2.438
X7.364Y-1.987
X7.365Y-2.365
X7.368Y-2.215
X7.368Y-4.121
X7.369Y-2.165
X7.369Y-4.165
X7.37Y-2.11
X7.37Y-1.915
X7.37Y-5.42
X7.375Y-2.31
X7.386Y-3.959
X7.39Y-4.02
X7.398Y-5.036
X7.4Y-1.68
X7.401Y-4.451
X7.406Y-3.446
X7.412Y-3.619
X7.415Y-5.253
X7.42Y-3.842
X7.424Y-2.957
X7.425Y-3.256
X7.427Y-3.052
X7.431Y-4.246
X7.434Y-2.844
X7.434Y-4.059
X7.438Y-2.359
X7.439Y-2.159
X7.44Y-1.959
X7.44Y-3.156
X7.44Y-4.158
X7.441Y-3.957
X7.441Y-4.958
X7.442Y-4.356
X7.442Y-5.157
X7.444Y-3.357
X7.464Y-2.442
X7.465Y-3.438
X7.466Y-2.898
X7.468Y-2.027
X7.468Y-2.223
X7.47Y-3.895
X7.47Y-4.3
X7.47Y-4.915
X7.47Y-5.11
X7.47Y-5.315
X7.47Y-5.42
X7.475Y-3.1
X7.475Y-3.305
X7.475Y-4.105
X7.477Y-5.042
X7.484Y-4.451
X7.485Y-5.242
X7.49Y-4.027
X7.491Y-4.222
X7.494Y-3.03
X7.496Y-3.211
X7.5Y-1.68
X7.512Y-3.41
X7.57Y-5.42
X7.6Y-1.68
X7.67Y-5.42
X7.7Y-1.68
X7.77Y-5.42
X7.8Y-1.68
X7.87Y-1.73
X7.87Y-1.83
X7.87Y-1.93
X7.87Y-2.03
X7.87Y-2.13
X7.87Y-2.23
X7.87Y-2.33
X7.87Y-2.43
X7.87Y-2.53
X7.87Y-2.63
X7.87Y-2.73
X7.87Y-2.83
X7.87Y-2.93
X7.87Y-3.03
X7.87Y-3.13
X7.87Y-3.23
X7.87Y-3.33
X7.87Y-3.43
X7.87Y-3.53
X7.87Y-3.63
X7.87Y-3.73
X7.87Y-3.83
X7.87Y-3.93
X7.87Y-4.03
X7.87Y-4.13
X7.87Y-4.23
X7.87Y-4.33
X7.87Y-4.43
X7.87Y-4.53
X7.87Y-4.63
X7.87Y-4.73
X7.87Y-4.83
X7.87Y-4.93
X7.87Y-5.03
X7.87Y-5.13
X7.87Y-5.23
X7.87Y-5.33
X7.87Y-5.42
T2
X5.25Y-2.1421
X5.25Y-2.2421
X5.25Y-2.3421
X5.25Y-2.4421
X5.25Y-2.5421
X5.25Y-2.6421
X5.25Y-2.7421
X5.25Y-2.8421
X5.25Y-2.9421
X5.25Y-3.0421
X5.25Y-3.1421
X5.25Y-3.2421
X5.25Y-3.3421
X5.25Y-3.4421
X5.25Y-3.5421
X5.25Y-3.6421
X5.35Y-2.1421
X5.35Y-2.2421
X5.35Y-2.3421
X5.35Y-2.4421
X5.35Y-2.5421
X5.35Y-2.6421
X5.35Y-2.7421
X5.35Y-2.8421
X5.35Y-2.9421
X5.35Y-3.0421
X5.35Y-3.1421
X5.35Y-3.2421
X5.35Y-3.3421
X5.35Y-3.4421
X5.35Y-3.5421
X5.35Y-3.6421
X5.45Y-2.1421
X5.45Y-2.2421
X5.55Y-2.1421
X5.55Y-2.2421
X5.65Y-2.1421
X5.65Y-2.2421
X5.95Y-2.1421
X5.95Y-2.2421
X6.05Y-2.1421
X6.05Y-2.2421
X6.15Y-2.1421
X6.15Y-2.2421
X6.55Y-2.1421
X6.55Y-2.2421
X6.55Y-2.3421
X6.55Y-2.4421
X6.55Y-2.5421
X6.55Y-2.6421
X6.55Y-2.7421
X6.55Y-2.8421
X6.55Y-2.9421
X6.55Y-3.0421
X6.55Y-3.1421
X6.55Y-3.2421
X6.55Y-3.3421
X6.55Y-3.4421
X6.55Y-3.5421
X6.55Y-3.6421
X6.55Y-3.7421
X6.55Y-3.8421
X6.55Y-3.9421
X6.55Y-4.0421
X6.55Y-4.1421
X6.65Y-2.1421
X6.65Y-2.2421
X6.65Y-2.3421
X6.65Y-2.4421
X6.65Y-2.5421
X6.65Y-2.6421
X6.65Y-2.7421
X6.65Y-2.8421
X6.65Y-2.9421
X6.65Y-3.0421
X6.65Y-3.1421
X6.65Y-3.2421
X6.65Y-3.3421
X6.65Y-3.4421
X6.65Y-3.5421
X6.65Y-3.6421
X6.65Y-3.7421
X6.65Y-3.8421
X6.65Y-3.9421
X6.65Y-4.0421
X6.65Y-4.1421
T3
X5.0447Y-5.255
X5.1976Y-1.796
X5.2218Y-4.9794
X5.2218Y-5.2156
X5.3944Y-1.6976
X5.3944Y-1.8944
X5.399Y-5.255
X5.452Y-2.344
X5.452Y-2.444
X5.452Y-2.544
X5.452Y-2.644
X5.452Y-2.744
X5.452Y-2.844
X5.452Y-2.944
X5.452Y-3.044
X5.452Y-3.144
X5.452Y-3.244
X5.452Y-3.344
X5.452Y-3.444
X5.452Y-3.544
X5.452Y-3.644
X5.452Y-3.744
X6.052Y-2.344
X6.052Y-2.444
X6.052Y-2.544
X6.052Y-2.644
X6.052Y-2.744
X6.052Y-2.844
X6.052Y-2.944
X6.052Y-3.044
X6.052Y-3.144
X6.052Y-3.244
X6.052Y-3.344
X6.052Y-3.444
X6.052Y-3.544
X6.052Y-3.644
X6.052Y-3.744
T4
X6.7929Y-5.288
X6.8599Y-5.288
X6.9268Y-5.288
X6.9937Y-5.288
X7.0607Y-5.288
T5
X4.175Y-1.75
X4.175Y-1.95
X4.175Y-2.15
X4.175Y-2.35
X4.175Y-2.75
X4.175Y-2.95
X4.175Y-3.15
X4.175Y-3.35
X4.175Y-3.75
X4.175Y-3.95
X4.175Y-4.15
X4.175Y-4.35
X4.175Y-4.75
X4.175Y-4.95
X4.175Y-5.15
X4.175Y-5.35
X4.775Y-2.25
X4.775Y-2.45
X4.775Y-2.65
X4.775Y-2.85
X4.775Y-3.25
X4.775Y-3.45
X4.775Y-3.65
X4.775Y-3.85
X4.775Y-4.25
X4.775Y-4.45
X4.775Y-4.65
X4.775Y-4.85
X5.78Y-1.84
X5.98Y-1.84
X6.18Y-1.84
X6.38Y-1.84
X6.58Y-1.84
X6.78Y-1.84
X7.125Y-2.25
X7.125Y-2.45
X7.125Y-2.65
X7.125Y-2.85
X7.125Y-3.25
X7.125Y-3.45
X7.125Y-3.65
X7.125Y-3.85
X7.125Y-4.25
X7.125Y-4.45
X7.125Y-4.65
X7.125Y-4.85
X7.725Y-1.75
X7.725Y-1.95
X7.725Y-2.15
X7.725Y-2.35
X7.725Y-2.75
X7.725Y-2.95
X7.725Y-3.15
X7.725Y-3.35
X7.725Y-3.75
X7.725Y-3.95
X7.725Y-4.15
X7.725Y-4.35
X7.725Y-4.75
X7.725Y-4.95
X7.725Y-5.15
X7.725Y-5.35
T6
X4.674Y-5.343
X4.799Y-1.764
X7.133Y-4.051
T0
M30
