%TF.GenerationSoftware,KiCad,Pcbnew,(6.0.1)*%
%TF.CreationDate,2022-10-30T18:49:11+02:00*%
%TF.ProjectId,stairway-to-heaven-pcb,73746169-7277-4617-992d-746f2d686561,rev?*%
%TF.SameCoordinates,Original*%
%TF.FileFunction,Paste,Bot*%
%TF.FilePolarity,Positive*%
%FSLAX46Y46*%
G04 Gerber Fmt 4.6, Leading zero omitted, Abs format (unit mm)*
G04 Created by KiCad (PCBNEW (6.0.1)) date 2022-10-30 18:49:11*
%MOMM*%
%LPD*%
G01*
G04 APERTURE LIST*
G04 Aperture macros list*
%AMRoundRect*
0 Rectangle with rounded corners*
0 $1 Rounding radius*
0 $2 $3 $4 $5 $6 $7 $8 $9 X,Y pos of 4 corners*
0 Add a 4 corners polygon primitive as box body*
4,1,4,$2,$3,$4,$5,$6,$7,$8,$9,$2,$3,0*
0 Add four circle primitives for the rounded corners*
1,1,$1+$1,$2,$3*
1,1,$1+$1,$4,$5*
1,1,$1+$1,$6,$7*
1,1,$1+$1,$8,$9*
0 Add four rect primitives between the rounded corners*
20,1,$1+$1,$2,$3,$4,$5,0*
20,1,$1+$1,$4,$5,$6,$7,0*
20,1,$1+$1,$6,$7,$8,$9,0*
20,1,$1+$1,$8,$9,$2,$3,0*%
G04 Aperture macros list end*
%ADD10RoundRect,0.250000X0.262500X0.450000X-0.262500X0.450000X-0.262500X-0.450000X0.262500X-0.450000X0*%
%ADD11RoundRect,0.250000X-0.262500X-0.450000X0.262500X-0.450000X0.262500X0.450000X-0.262500X0.450000X0*%
%ADD12RoundRect,0.250000X-0.450000X0.262500X-0.450000X-0.262500X0.450000X-0.262500X0.450000X0.262500X0*%
G04 APERTURE END LIST*
D10*
%TO.C,R28*%
X143967200Y-92252800D03*
X142142200Y-92252800D03*
%TD*%
%TO.C,R32*%
X144018000Y-73914000D03*
X142193000Y-73914000D03*
%TD*%
%TO.C,R40*%
X144018000Y-63754000D03*
X142193000Y-63754000D03*
%TD*%
D11*
%TO.C,R20*%
X162306000Y-58420000D03*
X164131000Y-58420000D03*
%TD*%
%TO.C,R7*%
X162306000Y-68580000D03*
X164131000Y-68580000D03*
%TD*%
D10*
%TO.C,R41*%
X144018000Y-61722000D03*
X142193000Y-61722000D03*
%TD*%
D11*
%TO.C,R6*%
X162306000Y-82804000D03*
X164131000Y-82804000D03*
%TD*%
%TO.C,R22*%
X162306000Y-52324000D03*
X164131000Y-52324000D03*
%TD*%
D10*
%TO.C,R31*%
X144018000Y-75946000D03*
X142193000Y-75946000D03*
%TD*%
D12*
%TO.C,R45*%
X143535400Y-49531900D03*
X143535400Y-51356900D03*
%TD*%
D11*
%TO.C,R18*%
X162306000Y-70612000D03*
X164131000Y-70612000D03*
%TD*%
D10*
%TO.C,R35*%
X144018000Y-86106000D03*
X142193000Y-86106000D03*
%TD*%
D11*
%TO.C,R12*%
X162306000Y-92964000D03*
X164131000Y-92964000D03*
%TD*%
D10*
%TO.C,R39*%
X144018000Y-65786000D03*
X142193000Y-65786000D03*
%TD*%
D11*
%TO.C,R5*%
X162306000Y-76708000D03*
X164131000Y-76708000D03*
%TD*%
%TO.C,R15*%
X162306000Y-86868000D03*
X164131000Y-86868000D03*
%TD*%
%TO.C,R21*%
X162306000Y-64516000D03*
X164131000Y-64516000D03*
%TD*%
D10*
%TO.C,R38*%
X144018000Y-67818000D03*
X142193000Y-67818000D03*
%TD*%
D11*
%TO.C,R13*%
X162306000Y-80772000D03*
X164131000Y-80772000D03*
%TD*%
D10*
%TO.C,R26*%
X144018000Y-80010000D03*
X142193000Y-80010000D03*
%TD*%
%TO.C,R27*%
X144018000Y-77978000D03*
X142193000Y-77978000D03*
%TD*%
D11*
%TO.C,R4*%
X162306000Y-78740000D03*
X164131000Y-78740000D03*
%TD*%
%TO.C,R9*%
X162306000Y-72644000D03*
X164131000Y-72644000D03*
%TD*%
D10*
%TO.C,R33*%
X144018000Y-69850000D03*
X142193000Y-69850000D03*
%TD*%
D11*
%TO.C,R19*%
X162306000Y-60452000D03*
X164131000Y-60452000D03*
%TD*%
D10*
%TO.C,R36*%
X144018000Y-84074000D03*
X142193000Y-84074000D03*
%TD*%
D11*
%TO.C,R14*%
X162306000Y-84836000D03*
X164131000Y-84836000D03*
%TD*%
D12*
%TO.C,R44*%
X139471400Y-49555400D03*
X139471400Y-51380400D03*
%TD*%
D10*
%TO.C,R29*%
X143967200Y-94284800D03*
X142142200Y-94284800D03*
%TD*%
%TO.C,R37*%
X144018000Y-71882000D03*
X142193000Y-71882000D03*
%TD*%
D11*
%TO.C,R11*%
X162306000Y-90932000D03*
X164131000Y-90932000D03*
%TD*%
D10*
%TO.C,R42*%
X144018000Y-59713500D03*
X142193000Y-59713500D03*
%TD*%
D11*
%TO.C,R8*%
X162306000Y-74676000D03*
X164131000Y-74676000D03*
%TD*%
D10*
%TO.C,R30*%
X143967200Y-90220800D03*
X142142200Y-90220800D03*
%TD*%
D11*
%TO.C,R24*%
X162306000Y-56388000D03*
X164131000Y-56388000D03*
%TD*%
%TO.C,R23*%
X162306000Y-54356000D03*
X164131000Y-54356000D03*
%TD*%
%TO.C,R16*%
X162306000Y-66548000D03*
X164131000Y-66548000D03*
%TD*%
%TO.C,R17*%
X162306000Y-62484000D03*
X164131000Y-62484000D03*
%TD*%
D10*
%TO.C,R25*%
X144018000Y-82042000D03*
X142193000Y-82042000D03*
%TD*%
D12*
%TO.C,R43*%
X141503400Y-49531900D03*
X141503400Y-51356900D03*
%TD*%
D10*
%TO.C,R34*%
X144018000Y-88138000D03*
X142193000Y-88138000D03*
%TD*%
D11*
%TO.C,R10*%
X162306000Y-88900000D03*
X164131000Y-88900000D03*
%TD*%
M02*
