%TF.GenerationSoftware,KiCad,Pcbnew,(6.0.1)*%
%TF.CreationDate,2022-10-30T18:49:11+02:00*%
%TF.ProjectId,stairway-to-heaven-pcb,73746169-7277-4617-992d-746f2d686561,rev?*%
%TF.SameCoordinates,Original*%
%TF.FileFunction,Soldermask,Bot*%
%TF.FilePolarity,Negative*%
%FSLAX46Y46*%
G04 Gerber Fmt 4.6, Leading zero omitted, Abs format (unit mm)*
G04 Created by KiCad (PCBNEW (6.0.1)) date 2022-10-30 18:49:11*
%MOMM*%
%LPD*%
G01*
G04 APERTURE LIST*
G04 Aperture macros list*
%AMRoundRect*
0 Rectangle with rounded corners*
0 $1 Rounding radius*
0 $2 $3 $4 $5 $6 $7 $8 $9 X,Y pos of 4 corners*
0 Add a 4 corners polygon primitive as box body*
4,1,4,$2,$3,$4,$5,$6,$7,$8,$9,$2,$3,0*
0 Add four circle primitives for the rounded corners*
1,1,$1+$1,$2,$3*
1,1,$1+$1,$4,$5*
1,1,$1+$1,$6,$7*
1,1,$1+$1,$8,$9*
0 Add four rect primitives between the rounded corners*
20,1,$1+$1,$2,$3,$4,$5,0*
20,1,$1+$1,$4,$5,$6,$7,0*
20,1,$1+$1,$6,$7,$8,$9,0*
20,1,$1+$1,$8,$9,$2,$3,0*%
G04 Aperture macros list end*
%ADD10C,1.930400*%
%ADD11R,1.600000X1.600000*%
%ADD12O,1.600000X1.600000*%
%ADD13C,3.800000*%
%ADD14C,1.676400*%
%ADD15C,1.600000*%
%ADD16O,4.500000X2.250000*%
%ADD17O,4.000000X2.000000*%
%ADD18O,2.000000X4.000000*%
%ADD19C,1.500000*%
%ADD20R,1.400000X2.000001*%
%ADD21O,1.400000X2.000001*%
%ADD22RoundRect,0.250000X0.262500X0.450000X-0.262500X0.450000X-0.262500X-0.450000X0.262500X-0.450000X0*%
%ADD23RoundRect,0.250000X-0.262500X-0.450000X0.262500X-0.450000X0.262500X0.450000X-0.262500X0.450000X0*%
%ADD24RoundRect,0.250000X-0.450000X0.262500X-0.450000X-0.262500X0.450000X-0.262500X0.450000X0.262500X0*%
G04 APERTURE END LIST*
D10*
%TO.C,J16*%
X146812000Y-46736000D03*
X151892000Y-46736000D03*
X156972000Y-46736000D03*
X162052000Y-46736000D03*
X167132000Y-46736000D03*
X172212000Y-46736000D03*
%TD*%
D11*
%TO.C,A1*%
X138480800Y-59537600D03*
D12*
X138480800Y-62077600D03*
X138480800Y-64617600D03*
X138480800Y-67157600D03*
X138480800Y-69697600D03*
X138480800Y-72237600D03*
X138480800Y-74777600D03*
X138480800Y-77317600D03*
X138480800Y-79857600D03*
X138480800Y-82397600D03*
X138480800Y-84937600D03*
X138480800Y-87477600D03*
X138480800Y-90017600D03*
X138480800Y-92557600D03*
X138480800Y-95097600D03*
X153720800Y-95097600D03*
X153720800Y-92557600D03*
X153720800Y-90017600D03*
X153720800Y-87477600D03*
X153720800Y-84937600D03*
X153720800Y-82397600D03*
X153720800Y-79857600D03*
X153720800Y-77317600D03*
X153720800Y-74777600D03*
X153720800Y-72237600D03*
X153720800Y-69697600D03*
X153720800Y-67157600D03*
X153720800Y-64617600D03*
X153720800Y-62077600D03*
X153720800Y-59537600D03*
%TD*%
D10*
%TO.C,J13*%
X121285000Y-72390000D03*
X121285000Y-67310000D03*
X121285000Y-62230000D03*
X121285000Y-57150000D03*
%TD*%
%TO.C,J12*%
X106045000Y-85090000D03*
X106045000Y-80010000D03*
X106045000Y-74930000D03*
X106045000Y-69850000D03*
%TD*%
%TO.C,J4*%
X180975000Y-82550000D03*
X180975000Y-87630000D03*
X180975000Y-92710000D03*
X180975000Y-97790000D03*
%TD*%
%TO.C,J11*%
X121285000Y-97790000D03*
X121285000Y-92710000D03*
X121285000Y-87630000D03*
X121285000Y-82550000D03*
%TD*%
%TO.C,J1*%
X196215000Y-120650000D03*
X196215000Y-125730000D03*
X196215000Y-130810000D03*
X196215000Y-135890000D03*
%TD*%
D13*
%TO.C,H3*%
X121894600Y-44805600D03*
%TD*%
%TO.C,H2*%
X118719600Y-135712200D03*
%TD*%
D14*
%TO.C,U1*%
X168910000Y-97590000D03*
X166370000Y-97590000D03*
X168910000Y-100130000D03*
X166370000Y-100130000D03*
X151130000Y-54410000D03*
X133350000Y-92510000D03*
X135890000Y-92510000D03*
X133350000Y-89970000D03*
X135890000Y-89970000D03*
X133350000Y-87430000D03*
X135890000Y-87430000D03*
X133350000Y-84890000D03*
X135890000Y-84890000D03*
X133350000Y-82350000D03*
X135890000Y-82350000D03*
X133350000Y-79810000D03*
X135890000Y-79810000D03*
X133350000Y-77270000D03*
X135890000Y-77270000D03*
X133350000Y-74730000D03*
X135890000Y-74730000D03*
X166370000Y-95050000D03*
X166370000Y-89970000D03*
X168910000Y-89970000D03*
X166370000Y-87430000D03*
X168910000Y-87430000D03*
X166370000Y-84890000D03*
X168910000Y-84890000D03*
X166370000Y-82350000D03*
X168910000Y-82350000D03*
X166370000Y-79810000D03*
X168910000Y-79810000D03*
X166370000Y-77270000D03*
X168910000Y-77270000D03*
X166370000Y-74730000D03*
X168910000Y-74730000D03*
X166370000Y-72190000D03*
X168910000Y-72190000D03*
X166370000Y-69650000D03*
X168910000Y-69650000D03*
X166370000Y-67110000D03*
X168910000Y-67110000D03*
X166370000Y-64570000D03*
X168910000Y-64570000D03*
X166370000Y-62030000D03*
X168910000Y-62030000D03*
X166370000Y-59490000D03*
X168910000Y-59490000D03*
X166370000Y-56950000D03*
X168910000Y-56950000D03*
X166370000Y-54410000D03*
X168910000Y-54410000D03*
X133350000Y-72190000D03*
X135890000Y-72190000D03*
X133350000Y-69650000D03*
X135890000Y-69650000D03*
X133350000Y-67110000D03*
X135890000Y-67110000D03*
X133350000Y-64570000D03*
X135890000Y-64570000D03*
X133350000Y-62030000D03*
X135890000Y-62030000D03*
X133350000Y-59490000D03*
X135890000Y-59490000D03*
X133350000Y-56950000D03*
X135890000Y-56950000D03*
X133350000Y-54410000D03*
X135890000Y-54410000D03*
X138430000Y-54410000D03*
X138430000Y-56950000D03*
X140970000Y-54410000D03*
X140970000Y-56950000D03*
X143510000Y-54410000D03*
X143510000Y-56950000D03*
X168910000Y-102670000D03*
X166370000Y-102670000D03*
X156210000Y-54410000D03*
X151130000Y-56950000D03*
X153670000Y-54410000D03*
X156210000Y-56950000D03*
X168910000Y-95050000D03*
X166370000Y-92510000D03*
X153670000Y-56950000D03*
X168910000Y-92510000D03*
X168910000Y-105210000D03*
X166370000Y-105210000D03*
%TD*%
D10*
%TO.C,J9*%
X121285000Y-123190000D03*
X121285000Y-118110000D03*
X121285000Y-113030000D03*
X121285000Y-107950000D03*
%TD*%
%TO.C,J2*%
X196215000Y-95250000D03*
X196215000Y-100330000D03*
X196215000Y-105410000D03*
X196215000Y-110490000D03*
%TD*%
D15*
%TO.C,J15*%
X132634600Y-135477000D03*
D16*
X132634600Y-126477000D03*
D17*
X132634600Y-132477000D03*
D18*
X137134600Y-133477000D03*
X128134600Y-133477000D03*
%TD*%
D10*
%TO.C,J5*%
X196215000Y-69850000D03*
X196215000Y-74930000D03*
X196215000Y-80010000D03*
X196215000Y-85090000D03*
%TD*%
D13*
%TO.C,H1*%
X181178200Y-102895400D03*
%TD*%
D19*
%TO.C,RV100k1*%
X137018400Y-48118400D03*
X132018400Y-45618400D03*
X137018400Y-43118400D03*
%TD*%
D10*
%TO.C,J14*%
X106045000Y-59690000D03*
X106045000Y-54610000D03*
X106045000Y-49530000D03*
X106045000Y-44450000D03*
%TD*%
%TO.C,J10*%
X106045000Y-110490000D03*
X106045000Y-105410000D03*
X106045000Y-100330000D03*
X106045000Y-95250000D03*
%TD*%
D20*
%TO.C,U2*%
X172540800Y-134315200D03*
D21*
X174240800Y-134315200D03*
X175940801Y-134315200D03*
X177640800Y-134315200D03*
X179340800Y-134315200D03*
%TD*%
D10*
%TO.C,J7*%
X196215000Y-44450000D03*
X196215000Y-49530000D03*
X196215000Y-54610000D03*
X196215000Y-59690000D03*
%TD*%
%TO.C,J8*%
X106045000Y-135890000D03*
X106045000Y-130810000D03*
X106045000Y-125730000D03*
X106045000Y-120650000D03*
%TD*%
%TO.C,J6*%
X180975000Y-57150000D03*
X180975000Y-62230000D03*
X180975000Y-67310000D03*
X180975000Y-72390000D03*
%TD*%
%TO.C,J3*%
X180975000Y-107950000D03*
X180975000Y-113030000D03*
X180975000Y-118110000D03*
X180975000Y-123190000D03*
%TD*%
D22*
%TO.C,R28*%
X143967200Y-92252800D03*
X142142200Y-92252800D03*
%TD*%
%TO.C,R32*%
X144018000Y-73914000D03*
X142193000Y-73914000D03*
%TD*%
%TO.C,R40*%
X144018000Y-63754000D03*
X142193000Y-63754000D03*
%TD*%
D23*
%TO.C,R20*%
X162306000Y-58420000D03*
X164131000Y-58420000D03*
%TD*%
%TO.C,R7*%
X162306000Y-68580000D03*
X164131000Y-68580000D03*
%TD*%
D22*
%TO.C,R41*%
X144018000Y-61722000D03*
X142193000Y-61722000D03*
%TD*%
D23*
%TO.C,R6*%
X162306000Y-82804000D03*
X164131000Y-82804000D03*
%TD*%
%TO.C,R22*%
X162306000Y-52324000D03*
X164131000Y-52324000D03*
%TD*%
D22*
%TO.C,R31*%
X144018000Y-75946000D03*
X142193000Y-75946000D03*
%TD*%
D24*
%TO.C,R45*%
X143535400Y-49531900D03*
X143535400Y-51356900D03*
%TD*%
D23*
%TO.C,R18*%
X162306000Y-70612000D03*
X164131000Y-70612000D03*
%TD*%
D22*
%TO.C,R35*%
X144018000Y-86106000D03*
X142193000Y-86106000D03*
%TD*%
D23*
%TO.C,R12*%
X162306000Y-92964000D03*
X164131000Y-92964000D03*
%TD*%
D22*
%TO.C,R39*%
X144018000Y-65786000D03*
X142193000Y-65786000D03*
%TD*%
D23*
%TO.C,R5*%
X162306000Y-76708000D03*
X164131000Y-76708000D03*
%TD*%
%TO.C,R15*%
X162306000Y-86868000D03*
X164131000Y-86868000D03*
%TD*%
%TO.C,R21*%
X162306000Y-64516000D03*
X164131000Y-64516000D03*
%TD*%
D22*
%TO.C,R38*%
X144018000Y-67818000D03*
X142193000Y-67818000D03*
%TD*%
D23*
%TO.C,R13*%
X162306000Y-80772000D03*
X164131000Y-80772000D03*
%TD*%
D22*
%TO.C,R26*%
X144018000Y-80010000D03*
X142193000Y-80010000D03*
%TD*%
%TO.C,R27*%
X144018000Y-77978000D03*
X142193000Y-77978000D03*
%TD*%
D23*
%TO.C,R4*%
X162306000Y-78740000D03*
X164131000Y-78740000D03*
%TD*%
%TO.C,R9*%
X162306000Y-72644000D03*
X164131000Y-72644000D03*
%TD*%
D22*
%TO.C,R33*%
X144018000Y-69850000D03*
X142193000Y-69850000D03*
%TD*%
D23*
%TO.C,R19*%
X162306000Y-60452000D03*
X164131000Y-60452000D03*
%TD*%
D22*
%TO.C,R36*%
X144018000Y-84074000D03*
X142193000Y-84074000D03*
%TD*%
D23*
%TO.C,R14*%
X162306000Y-84836000D03*
X164131000Y-84836000D03*
%TD*%
D24*
%TO.C,R44*%
X139471400Y-49555400D03*
X139471400Y-51380400D03*
%TD*%
D22*
%TO.C,R29*%
X143967200Y-94284800D03*
X142142200Y-94284800D03*
%TD*%
%TO.C,R37*%
X144018000Y-71882000D03*
X142193000Y-71882000D03*
%TD*%
D23*
%TO.C,R11*%
X162306000Y-90932000D03*
X164131000Y-90932000D03*
%TD*%
D22*
%TO.C,R42*%
X144018000Y-59713500D03*
X142193000Y-59713500D03*
%TD*%
D23*
%TO.C,R8*%
X162306000Y-74676000D03*
X164131000Y-74676000D03*
%TD*%
D22*
%TO.C,R30*%
X143967200Y-90220800D03*
X142142200Y-90220800D03*
%TD*%
D23*
%TO.C,R24*%
X162306000Y-56388000D03*
X164131000Y-56388000D03*
%TD*%
%TO.C,R23*%
X162306000Y-54356000D03*
X164131000Y-54356000D03*
%TD*%
%TO.C,R16*%
X162306000Y-66548000D03*
X164131000Y-66548000D03*
%TD*%
%TO.C,R17*%
X162306000Y-62484000D03*
X164131000Y-62484000D03*
%TD*%
D22*
%TO.C,R25*%
X144018000Y-82042000D03*
X142193000Y-82042000D03*
%TD*%
D24*
%TO.C,R43*%
X141503400Y-49531900D03*
X141503400Y-51356900D03*
%TD*%
D22*
%TO.C,R34*%
X144018000Y-88138000D03*
X142193000Y-88138000D03*
%TD*%
D23*
%TO.C,R10*%
X162306000Y-88900000D03*
X164131000Y-88900000D03*
%TD*%
M02*
