%TF.GenerationSoftware,KiCad,Pcbnew,(6.0.1)*%
%TF.CreationDate,2022-10-30T18:49:11+02:00*%
%TF.ProjectId,stairway-to-heaven-pcb,73746169-7277-4617-992d-746f2d686561,rev?*%
%TF.SameCoordinates,Original*%
%TF.FileFunction,Legend,Top*%
%TF.FilePolarity,Positive*%
%FSLAX46Y46*%
G04 Gerber Fmt 4.6, Leading zero omitted, Abs format (unit mm)*
G04 Created by KiCad (PCBNEW (6.0.1)) date 2022-10-30 18:49:11*
%MOMM*%
%LPD*%
G01*
G04 APERTURE LIST*
%ADD10C,0.250000*%
%ADD11C,0.300000*%
%ADD12C,0.150000*%
%ADD13C,0.050000*%
%ADD14C,0.254000*%
%ADD15C,0.120000*%
%ADD16C,0.127000*%
%ADD17C,0.400000*%
%ADD18C,0.100000*%
%ADD19C,0.200000*%
%ADD20C,1.600000*%
G04 APERTURE END LIST*
D10*
X118460828Y-48313571D02*
X118603685Y-48361190D01*
X118651304Y-48408809D01*
X118698923Y-48504047D01*
X118698923Y-48646904D01*
X118651304Y-48742142D01*
X118603685Y-48789761D01*
X118508447Y-48837380D01*
X118127495Y-48837380D01*
X118127495Y-47837380D01*
X118460828Y-47837380D01*
X118556066Y-47885000D01*
X118603685Y-47932619D01*
X118651304Y-48027857D01*
X118651304Y-48123095D01*
X118603685Y-48218333D01*
X118556066Y-48265952D01*
X118460828Y-48313571D01*
X118127495Y-48313571D01*
X118698923Y-50447380D02*
X118365590Y-49971190D01*
X118127495Y-50447380D02*
X118127495Y-49447380D01*
X118508447Y-49447380D01*
X118603685Y-49495000D01*
X118651304Y-49542619D01*
X118698923Y-49637857D01*
X118698923Y-49780714D01*
X118651304Y-49875952D01*
X118603685Y-49923571D01*
X118508447Y-49971190D01*
X118127495Y-49971190D01*
X118651304Y-51105000D02*
X118556066Y-51057380D01*
X118413209Y-51057380D01*
X118270352Y-51105000D01*
X118175114Y-51200238D01*
X118127495Y-51295476D01*
X118079876Y-51485952D01*
X118079876Y-51628809D01*
X118127495Y-51819285D01*
X118175114Y-51914523D01*
X118270352Y-52009761D01*
X118413209Y-52057380D01*
X118508447Y-52057380D01*
X118651304Y-52009761D01*
X118698923Y-51962142D01*
X118698923Y-51628809D01*
X118508447Y-51628809D01*
X117151304Y-52667380D02*
X117484638Y-53667380D01*
X117817971Y-52667380D01*
X118579876Y-53667380D02*
X118579876Y-52667380D01*
X118579876Y-53619761D02*
X118484638Y-53667380D01*
X118294161Y-53667380D01*
X118198923Y-53619761D01*
X118151304Y-53572142D01*
X118103685Y-53476904D01*
X118103685Y-53191190D01*
X118151304Y-53095952D01*
X118198923Y-53048333D01*
X118294161Y-53000714D01*
X118484638Y-53000714D01*
X118579876Y-53048333D01*
X119484638Y-53667380D02*
X119484638Y-52667380D01*
X119484638Y-53619761D02*
X119389400Y-53667380D01*
X119198923Y-53667380D01*
X119103685Y-53619761D01*
X119056066Y-53572142D01*
X119008447Y-53476904D01*
X119008447Y-53191190D01*
X119056066Y-53095952D01*
X119103685Y-53048333D01*
X119198923Y-53000714D01*
X119389400Y-53000714D01*
X119484638Y-53048333D01*
D11*
X191686571Y-122221428D02*
X191686571Y-122935714D01*
X190186571Y-122935714D01*
X191615142Y-121150000D02*
X191686571Y-121292857D01*
X191686571Y-121578571D01*
X191615142Y-121721428D01*
X191472285Y-121792857D01*
X190900857Y-121792857D01*
X190758000Y-121721428D01*
X190686571Y-121578571D01*
X190686571Y-121292857D01*
X190758000Y-121150000D01*
X190900857Y-121078571D01*
X191043714Y-121078571D01*
X191186571Y-121792857D01*
X191686571Y-119792857D02*
X190186571Y-119792857D01*
X191615142Y-119792857D02*
X191686571Y-119935714D01*
X191686571Y-120221428D01*
X191615142Y-120364285D01*
X191543714Y-120435714D01*
X191400857Y-120507142D01*
X190972285Y-120507142D01*
X190829428Y-120435714D01*
X190758000Y-120364285D01*
X190686571Y-120221428D01*
X190686571Y-119935714D01*
X190758000Y-119792857D01*
X191686571Y-118292857D02*
X191686571Y-119150000D01*
X191686571Y-118721428D02*
X190186571Y-118721428D01*
X190400857Y-118864285D01*
X190543714Y-119007142D01*
X190615142Y-119150000D01*
X125813428Y-70104285D02*
X125813428Y-69390000D01*
X127313428Y-69390000D01*
X125884857Y-71175714D02*
X125813428Y-71032857D01*
X125813428Y-70747142D01*
X125884857Y-70604285D01*
X126027714Y-70532857D01*
X126599142Y-70532857D01*
X126742000Y-70604285D01*
X126813428Y-70747142D01*
X126813428Y-71032857D01*
X126742000Y-71175714D01*
X126599142Y-71247142D01*
X126456285Y-71247142D01*
X126313428Y-70532857D01*
X125813428Y-72532857D02*
X127313428Y-72532857D01*
X125884857Y-72532857D02*
X125813428Y-72390000D01*
X125813428Y-72104285D01*
X125884857Y-71961428D01*
X125956285Y-71890000D01*
X126099142Y-71818571D01*
X126527714Y-71818571D01*
X126670571Y-71890000D01*
X126742000Y-71961428D01*
X126813428Y-72104285D01*
X126813428Y-72390000D01*
X126742000Y-72532857D01*
X125813428Y-74032857D02*
X125813428Y-73175714D01*
X125813428Y-73604285D02*
X127313428Y-73604285D01*
X127099142Y-73461428D01*
X126956285Y-73318571D01*
X126884857Y-73175714D01*
X127313428Y-74532857D02*
X127313428Y-75461428D01*
X126742000Y-74961428D01*
X126742000Y-75175714D01*
X126670571Y-75318571D01*
X126599142Y-75390000D01*
X126456285Y-75461428D01*
X126099142Y-75461428D01*
X125956285Y-75390000D01*
X125884857Y-75318571D01*
X125813428Y-75175714D01*
X125813428Y-74747142D01*
X125884857Y-74604285D01*
X125956285Y-74532857D01*
X125813428Y-95758285D02*
X125813428Y-95044000D01*
X127313428Y-95044000D01*
X125884857Y-96829714D02*
X125813428Y-96686857D01*
X125813428Y-96401142D01*
X125884857Y-96258285D01*
X126027714Y-96186857D01*
X126599142Y-96186857D01*
X126742000Y-96258285D01*
X126813428Y-96401142D01*
X126813428Y-96686857D01*
X126742000Y-96829714D01*
X126599142Y-96901142D01*
X126456285Y-96901142D01*
X126313428Y-96186857D01*
X125813428Y-98186857D02*
X127313428Y-98186857D01*
X125884857Y-98186857D02*
X125813428Y-98044000D01*
X125813428Y-97758285D01*
X125884857Y-97615428D01*
X125956285Y-97544000D01*
X126099142Y-97472571D01*
X126527714Y-97472571D01*
X126670571Y-97544000D01*
X126742000Y-97615428D01*
X126813428Y-97758285D01*
X126813428Y-98044000D01*
X126742000Y-98186857D01*
X125813428Y-99686857D02*
X125813428Y-98829714D01*
X125813428Y-99258285D02*
X127313428Y-99258285D01*
X127099142Y-99115428D01*
X126956285Y-98972571D01*
X126884857Y-98829714D01*
X125813428Y-101115428D02*
X125813428Y-100258285D01*
X125813428Y-100686857D02*
X127313428Y-100686857D01*
X127099142Y-100544000D01*
X126956285Y-100401142D01*
X126884857Y-100258285D01*
X110573428Y-133810571D02*
X110573428Y-133096285D01*
X112073428Y-133096285D01*
X110644857Y-134882000D02*
X110573428Y-134739142D01*
X110573428Y-134453428D01*
X110644857Y-134310571D01*
X110787714Y-134239142D01*
X111359142Y-134239142D01*
X111502000Y-134310571D01*
X111573428Y-134453428D01*
X111573428Y-134739142D01*
X111502000Y-134882000D01*
X111359142Y-134953428D01*
X111216285Y-134953428D01*
X111073428Y-134239142D01*
X110573428Y-136239142D02*
X112073428Y-136239142D01*
X110644857Y-136239142D02*
X110573428Y-136096285D01*
X110573428Y-135810571D01*
X110644857Y-135667714D01*
X110716285Y-135596285D01*
X110859142Y-135524857D01*
X111287714Y-135524857D01*
X111430571Y-135596285D01*
X111502000Y-135667714D01*
X111573428Y-135810571D01*
X111573428Y-136096285D01*
X111502000Y-136239142D01*
X111430571Y-137167714D02*
X111502000Y-137024857D01*
X111573428Y-136953428D01*
X111716285Y-136882000D01*
X111787714Y-136882000D01*
X111930571Y-136953428D01*
X112002000Y-137024857D01*
X112073428Y-137167714D01*
X112073428Y-137453428D01*
X112002000Y-137596285D01*
X111930571Y-137667714D01*
X111787714Y-137739142D01*
X111716285Y-137739142D01*
X111573428Y-137667714D01*
X111502000Y-137596285D01*
X111430571Y-137453428D01*
X111430571Y-137167714D01*
X111359142Y-137024857D01*
X111287714Y-136953428D01*
X111144857Y-136882000D01*
X110859142Y-136882000D01*
X110716285Y-136953428D01*
X110644857Y-137024857D01*
X110573428Y-137167714D01*
X110573428Y-137453428D01*
X110644857Y-137596285D01*
X110716285Y-137667714D01*
X110859142Y-137739142D01*
X111144857Y-137739142D01*
X111287714Y-137667714D01*
X111359142Y-137596285D01*
X111430571Y-137453428D01*
X191686571Y-46529428D02*
X191686571Y-47243714D01*
X190186571Y-47243714D01*
X191615142Y-45458000D02*
X191686571Y-45600857D01*
X191686571Y-45886571D01*
X191615142Y-46029428D01*
X191472285Y-46100857D01*
X190900857Y-46100857D01*
X190758000Y-46029428D01*
X190686571Y-45886571D01*
X190686571Y-45600857D01*
X190758000Y-45458000D01*
X190900857Y-45386571D01*
X191043714Y-45386571D01*
X191186571Y-46100857D01*
X191686571Y-44100857D02*
X190186571Y-44100857D01*
X191615142Y-44100857D02*
X191686571Y-44243714D01*
X191686571Y-44529428D01*
X191615142Y-44672285D01*
X191543714Y-44743714D01*
X191400857Y-44815142D01*
X190972285Y-44815142D01*
X190829428Y-44743714D01*
X190758000Y-44672285D01*
X190686571Y-44529428D01*
X190686571Y-44243714D01*
X190758000Y-44100857D01*
X190186571Y-43529428D02*
X190186571Y-42529428D01*
X191686571Y-43172285D01*
X176446571Y-58721428D02*
X176446571Y-59435714D01*
X174946571Y-59435714D01*
X176375142Y-57650000D02*
X176446571Y-57792857D01*
X176446571Y-58078571D01*
X176375142Y-58221428D01*
X176232285Y-58292857D01*
X175660857Y-58292857D01*
X175518000Y-58221428D01*
X175446571Y-58078571D01*
X175446571Y-57792857D01*
X175518000Y-57650000D01*
X175660857Y-57578571D01*
X175803714Y-57578571D01*
X175946571Y-58292857D01*
X176446571Y-56292857D02*
X174946571Y-56292857D01*
X176375142Y-56292857D02*
X176446571Y-56435714D01*
X176446571Y-56721428D01*
X176375142Y-56864285D01*
X176303714Y-56935714D01*
X176160857Y-57007142D01*
X175732285Y-57007142D01*
X175589428Y-56935714D01*
X175518000Y-56864285D01*
X175446571Y-56721428D01*
X175446571Y-56435714D01*
X175518000Y-56292857D01*
X174946571Y-54935714D02*
X174946571Y-55221428D01*
X175018000Y-55364285D01*
X175089428Y-55435714D01*
X175303714Y-55578571D01*
X175589428Y-55650000D01*
X176160857Y-55650000D01*
X176303714Y-55578571D01*
X176375142Y-55507142D01*
X176446571Y-55364285D01*
X176446571Y-55078571D01*
X176375142Y-54935714D01*
X176303714Y-54864285D01*
X176160857Y-54792857D01*
X175803714Y-54792857D01*
X175660857Y-54864285D01*
X175589428Y-54935714D01*
X175518000Y-55078571D01*
X175518000Y-55364285D01*
X175589428Y-55507142D01*
X175660857Y-55578571D01*
X175803714Y-55650000D01*
X191686571Y-96821428D02*
X191686571Y-97535714D01*
X190186571Y-97535714D01*
X191615142Y-95750000D02*
X191686571Y-95892857D01*
X191686571Y-96178571D01*
X191615142Y-96321428D01*
X191472285Y-96392857D01*
X190900857Y-96392857D01*
X190758000Y-96321428D01*
X190686571Y-96178571D01*
X190686571Y-95892857D01*
X190758000Y-95750000D01*
X190900857Y-95678571D01*
X191043714Y-95678571D01*
X191186571Y-96392857D01*
X191686571Y-94392857D02*
X190186571Y-94392857D01*
X191615142Y-94392857D02*
X191686571Y-94535714D01*
X191686571Y-94821428D01*
X191615142Y-94964285D01*
X191543714Y-95035714D01*
X191400857Y-95107142D01*
X190972285Y-95107142D01*
X190829428Y-95035714D01*
X190758000Y-94964285D01*
X190686571Y-94821428D01*
X190686571Y-94535714D01*
X190758000Y-94392857D01*
X190186571Y-93821428D02*
X190186571Y-92892857D01*
X190758000Y-93392857D01*
X190758000Y-93178571D01*
X190829428Y-93035714D01*
X190900857Y-92964285D01*
X191043714Y-92892857D01*
X191400857Y-92892857D01*
X191543714Y-92964285D01*
X191615142Y-93035714D01*
X191686571Y-93178571D01*
X191686571Y-93607142D01*
X191615142Y-93750000D01*
X191543714Y-93821428D01*
X176446571Y-109521428D02*
X176446571Y-110235714D01*
X174946571Y-110235714D01*
X176375142Y-108450000D02*
X176446571Y-108592857D01*
X176446571Y-108878571D01*
X176375142Y-109021428D01*
X176232285Y-109092857D01*
X175660857Y-109092857D01*
X175518000Y-109021428D01*
X175446571Y-108878571D01*
X175446571Y-108592857D01*
X175518000Y-108450000D01*
X175660857Y-108378571D01*
X175803714Y-108378571D01*
X175946571Y-109092857D01*
X176446571Y-107092857D02*
X174946571Y-107092857D01*
X176375142Y-107092857D02*
X176446571Y-107235714D01*
X176446571Y-107521428D01*
X176375142Y-107664285D01*
X176303714Y-107735714D01*
X176160857Y-107807142D01*
X175732285Y-107807142D01*
X175589428Y-107735714D01*
X175518000Y-107664285D01*
X175446571Y-107521428D01*
X175446571Y-107235714D01*
X175518000Y-107092857D01*
X175089428Y-106450000D02*
X175018000Y-106378571D01*
X174946571Y-106235714D01*
X174946571Y-105878571D01*
X175018000Y-105735714D01*
X175089428Y-105664285D01*
X175232285Y-105592857D01*
X175375142Y-105592857D01*
X175589428Y-105664285D01*
X176446571Y-106521428D01*
X176446571Y-105592857D01*
X125813428Y-121872571D02*
X125813428Y-121158285D01*
X127313428Y-121158285D01*
X125884857Y-122944000D02*
X125813428Y-122801142D01*
X125813428Y-122515428D01*
X125884857Y-122372571D01*
X126027714Y-122301142D01*
X126599142Y-122301142D01*
X126742000Y-122372571D01*
X126813428Y-122515428D01*
X126813428Y-122801142D01*
X126742000Y-122944000D01*
X126599142Y-123015428D01*
X126456285Y-123015428D01*
X126313428Y-122301142D01*
X125813428Y-124301142D02*
X127313428Y-124301142D01*
X125884857Y-124301142D02*
X125813428Y-124158285D01*
X125813428Y-123872571D01*
X125884857Y-123729714D01*
X125956285Y-123658285D01*
X126099142Y-123586857D01*
X126527714Y-123586857D01*
X126670571Y-123658285D01*
X126742000Y-123729714D01*
X126813428Y-123872571D01*
X126813428Y-124158285D01*
X126742000Y-124301142D01*
X125813428Y-125086857D02*
X125813428Y-125372571D01*
X125884857Y-125515428D01*
X125956285Y-125586857D01*
X126170571Y-125729714D01*
X126456285Y-125801142D01*
X127027714Y-125801142D01*
X127170571Y-125729714D01*
X127242000Y-125658285D01*
X127313428Y-125515428D01*
X127313428Y-125229714D01*
X127242000Y-125086857D01*
X127170571Y-125015428D01*
X127027714Y-124944000D01*
X126670571Y-124944000D01*
X126527714Y-125015428D01*
X126456285Y-125086857D01*
X126384857Y-125229714D01*
X126384857Y-125515428D01*
X126456285Y-125658285D01*
X126527714Y-125729714D01*
X126670571Y-125801142D01*
X110573428Y-57150285D02*
X110573428Y-56436000D01*
X112073428Y-56436000D01*
X110644857Y-58221714D02*
X110573428Y-58078857D01*
X110573428Y-57793142D01*
X110644857Y-57650285D01*
X110787714Y-57578857D01*
X111359142Y-57578857D01*
X111502000Y-57650285D01*
X111573428Y-57793142D01*
X111573428Y-58078857D01*
X111502000Y-58221714D01*
X111359142Y-58293142D01*
X111216285Y-58293142D01*
X111073428Y-57578857D01*
X110573428Y-59578857D02*
X112073428Y-59578857D01*
X110644857Y-59578857D02*
X110573428Y-59436000D01*
X110573428Y-59150285D01*
X110644857Y-59007428D01*
X110716285Y-58936000D01*
X110859142Y-58864571D01*
X111287714Y-58864571D01*
X111430571Y-58936000D01*
X111502000Y-59007428D01*
X111573428Y-59150285D01*
X111573428Y-59436000D01*
X111502000Y-59578857D01*
X110573428Y-61078857D02*
X110573428Y-60221714D01*
X110573428Y-60650285D02*
X112073428Y-60650285D01*
X111859142Y-60507428D01*
X111716285Y-60364571D01*
X111644857Y-60221714D01*
X111573428Y-62364571D02*
X110573428Y-62364571D01*
X112144857Y-62007428D02*
X111073428Y-61650285D01*
X111073428Y-62578857D01*
X137897942Y-113900842D02*
X138112228Y-113972271D01*
X138469371Y-113972271D01*
X138612228Y-113900842D01*
X138683657Y-113829414D01*
X138755085Y-113686557D01*
X138755085Y-113543700D01*
X138683657Y-113400842D01*
X138612228Y-113329414D01*
X138469371Y-113257985D01*
X138183657Y-113186557D01*
X138040800Y-113115128D01*
X137969371Y-113043700D01*
X137897942Y-112900842D01*
X137897942Y-112757985D01*
X137969371Y-112615128D01*
X138040800Y-112543700D01*
X138183657Y-112472271D01*
X138540800Y-112472271D01*
X138755085Y-112543700D01*
X139183657Y-112972271D02*
X139755085Y-112972271D01*
X139397942Y-112472271D02*
X139397942Y-113757985D01*
X139469371Y-113900842D01*
X139612228Y-113972271D01*
X139755085Y-113972271D01*
X140897942Y-113972271D02*
X140897942Y-113186557D01*
X140826514Y-113043700D01*
X140683657Y-112972271D01*
X140397942Y-112972271D01*
X140255085Y-113043700D01*
X140897942Y-113900842D02*
X140755085Y-113972271D01*
X140397942Y-113972271D01*
X140255085Y-113900842D01*
X140183657Y-113757985D01*
X140183657Y-113615128D01*
X140255085Y-113472271D01*
X140397942Y-113400842D01*
X140755085Y-113400842D01*
X140897942Y-113329414D01*
X141612228Y-113972271D02*
X141612228Y-112972271D01*
X141612228Y-112472271D02*
X141540800Y-112543700D01*
X141612228Y-112615128D01*
X141683657Y-112543700D01*
X141612228Y-112472271D01*
X141612228Y-112615128D01*
X142326514Y-113972271D02*
X142326514Y-112972271D01*
X142326514Y-113257985D02*
X142397942Y-113115128D01*
X142469371Y-113043700D01*
X142612228Y-112972271D01*
X142755085Y-112972271D01*
X143112228Y-112972271D02*
X143397942Y-113972271D01*
X143683657Y-113257985D01*
X143969371Y-113972271D01*
X144255085Y-112972271D01*
X145469371Y-113972271D02*
X145469371Y-113186557D01*
X145397942Y-113043700D01*
X145255085Y-112972271D01*
X144969371Y-112972271D01*
X144826514Y-113043700D01*
X145469371Y-113900842D02*
X145326514Y-113972271D01*
X144969371Y-113972271D01*
X144826514Y-113900842D01*
X144755085Y-113757985D01*
X144755085Y-113615128D01*
X144826514Y-113472271D01*
X144969371Y-113400842D01*
X145326514Y-113400842D01*
X145469371Y-113329414D01*
X146040800Y-112972271D02*
X146397942Y-113972271D01*
X146755085Y-112972271D02*
X146397942Y-113972271D01*
X146255085Y-114329414D01*
X146183657Y-114400842D01*
X146040800Y-114472271D01*
X136755085Y-115387271D02*
X137326514Y-115387271D01*
X136969371Y-114887271D02*
X136969371Y-116172985D01*
X137040800Y-116315842D01*
X137183657Y-116387271D01*
X137326514Y-116387271D01*
X138040800Y-116387271D02*
X137897942Y-116315842D01*
X137826514Y-116244414D01*
X137755085Y-116101557D01*
X137755085Y-115672985D01*
X137826514Y-115530128D01*
X137897942Y-115458700D01*
X138040800Y-115387271D01*
X138255085Y-115387271D01*
X138397942Y-115458700D01*
X138469371Y-115530128D01*
X138540800Y-115672985D01*
X138540800Y-116101557D01*
X138469371Y-116244414D01*
X138397942Y-116315842D01*
X138255085Y-116387271D01*
X138040800Y-116387271D01*
X140326514Y-116387271D02*
X140326514Y-114887271D01*
X140326514Y-115601557D02*
X141183657Y-115601557D01*
X141183657Y-116387271D02*
X141183657Y-114887271D01*
X142469371Y-116315842D02*
X142326514Y-116387271D01*
X142040800Y-116387271D01*
X141897942Y-116315842D01*
X141826514Y-116172985D01*
X141826514Y-115601557D01*
X141897942Y-115458700D01*
X142040800Y-115387271D01*
X142326514Y-115387271D01*
X142469371Y-115458700D01*
X142540800Y-115601557D01*
X142540800Y-115744414D01*
X141826514Y-115887271D01*
X143826514Y-116387271D02*
X143826514Y-115601557D01*
X143755085Y-115458700D01*
X143612228Y-115387271D01*
X143326514Y-115387271D01*
X143183657Y-115458700D01*
X143826514Y-116315842D02*
X143683657Y-116387271D01*
X143326514Y-116387271D01*
X143183657Y-116315842D01*
X143112228Y-116172985D01*
X143112228Y-116030128D01*
X143183657Y-115887271D01*
X143326514Y-115815842D01*
X143683657Y-115815842D01*
X143826514Y-115744414D01*
X144397942Y-115387271D02*
X144755085Y-116387271D01*
X145112228Y-115387271D01*
X146255085Y-116315842D02*
X146112228Y-116387271D01*
X145826514Y-116387271D01*
X145683657Y-116315842D01*
X145612228Y-116172985D01*
X145612228Y-115601557D01*
X145683657Y-115458700D01*
X145826514Y-115387271D01*
X146112228Y-115387271D01*
X146255085Y-115458700D01*
X146326514Y-115601557D01*
X146326514Y-115744414D01*
X145612228Y-115887271D01*
X146969371Y-115387271D02*
X146969371Y-116387271D01*
X146969371Y-115530128D02*
X147040800Y-115458700D01*
X147183657Y-115387271D01*
X147397942Y-115387271D01*
X147540800Y-115458700D01*
X147612228Y-115601557D01*
X147612228Y-116387271D01*
X141719371Y-118230842D02*
X142862228Y-118230842D01*
X135969371Y-121145842D02*
X136183657Y-121217271D01*
X136540800Y-121217271D01*
X136683657Y-121145842D01*
X136755085Y-121074414D01*
X136826514Y-120931557D01*
X136826514Y-120788700D01*
X136755085Y-120645842D01*
X136683657Y-120574414D01*
X136540800Y-120502985D01*
X136255085Y-120431557D01*
X136112228Y-120360128D01*
X136040800Y-120288700D01*
X135969371Y-120145842D01*
X135969371Y-120002985D01*
X136040800Y-119860128D01*
X136112228Y-119788700D01*
X136255085Y-119717271D01*
X136612228Y-119717271D01*
X136826514Y-119788700D01*
X138112228Y-121217271D02*
X138112228Y-120431557D01*
X138040800Y-120288700D01*
X137897942Y-120217271D01*
X137612228Y-120217271D01*
X137469371Y-120288700D01*
X138112228Y-121145842D02*
X137969371Y-121217271D01*
X137612228Y-121217271D01*
X137469371Y-121145842D01*
X137397942Y-121002985D01*
X137397942Y-120860128D01*
X137469371Y-120717271D01*
X137612228Y-120645842D01*
X137969371Y-120645842D01*
X138112228Y-120574414D01*
X138826514Y-121217271D02*
X138826514Y-120217271D01*
X138826514Y-120360128D02*
X138897942Y-120288700D01*
X139040800Y-120217271D01*
X139255085Y-120217271D01*
X139397942Y-120288700D01*
X139469371Y-120431557D01*
X139469371Y-121217271D01*
X139469371Y-120431557D02*
X139540800Y-120288700D01*
X139683657Y-120217271D01*
X139897942Y-120217271D01*
X140040800Y-120288700D01*
X140112228Y-120431557D01*
X140112228Y-121217271D01*
X140826514Y-121217271D02*
X140826514Y-120217271D01*
X140826514Y-119717271D02*
X140755085Y-119788700D01*
X140826514Y-119860128D01*
X140897942Y-119788700D01*
X140826514Y-119717271D01*
X140826514Y-119860128D01*
X142612228Y-121145842D02*
X142826514Y-121217271D01*
X143183657Y-121217271D01*
X143326514Y-121145842D01*
X143397942Y-121074414D01*
X143469371Y-120931557D01*
X143469371Y-120788700D01*
X143397942Y-120645842D01*
X143326514Y-120574414D01*
X143183657Y-120502985D01*
X142897942Y-120431557D01*
X142755085Y-120360128D01*
X142683657Y-120288700D01*
X142612228Y-120145842D01*
X142612228Y-120002985D01*
X142683657Y-119860128D01*
X142755085Y-119788700D01*
X142897942Y-119717271D01*
X143255085Y-119717271D01*
X143469371Y-119788700D01*
X144326514Y-121217271D02*
X144183657Y-121145842D01*
X144112228Y-121074414D01*
X144040800Y-120931557D01*
X144040800Y-120502985D01*
X144112228Y-120360128D01*
X144183657Y-120288700D01*
X144326514Y-120217271D01*
X144540800Y-120217271D01*
X144683657Y-120288700D01*
X144755085Y-120360128D01*
X144826514Y-120502985D01*
X144826514Y-120931557D01*
X144755085Y-121074414D01*
X144683657Y-121145842D01*
X144540800Y-121217271D01*
X144326514Y-121217271D01*
X145469371Y-121217271D02*
X145469371Y-120217271D01*
X145469371Y-120502985D02*
X145540800Y-120360128D01*
X145612228Y-120288700D01*
X145755085Y-120217271D01*
X145897942Y-120217271D01*
X146969371Y-121145842D02*
X146826514Y-121217271D01*
X146540800Y-121217271D01*
X146397942Y-121145842D01*
X146326514Y-121002985D01*
X146326514Y-120431557D01*
X146397942Y-120288700D01*
X146540800Y-120217271D01*
X146826514Y-120217271D01*
X146969371Y-120288700D01*
X147040800Y-120431557D01*
X147040800Y-120574414D01*
X146326514Y-120717271D01*
X147897942Y-121217271D02*
X147755085Y-121145842D01*
X147683657Y-121002985D01*
X147683657Y-119717271D01*
X148683657Y-121217271D02*
X148540800Y-121145842D01*
X148469371Y-121002985D01*
X148469371Y-119717271D01*
X110573428Y-83058285D02*
X110573428Y-82344000D01*
X112073428Y-82344000D01*
X110644857Y-84129714D02*
X110573428Y-83986857D01*
X110573428Y-83701142D01*
X110644857Y-83558285D01*
X110787714Y-83486857D01*
X111359142Y-83486857D01*
X111502000Y-83558285D01*
X111573428Y-83701142D01*
X111573428Y-83986857D01*
X111502000Y-84129714D01*
X111359142Y-84201142D01*
X111216285Y-84201142D01*
X111073428Y-83486857D01*
X110573428Y-85486857D02*
X112073428Y-85486857D01*
X110644857Y-85486857D02*
X110573428Y-85344000D01*
X110573428Y-85058285D01*
X110644857Y-84915428D01*
X110716285Y-84844000D01*
X110859142Y-84772571D01*
X111287714Y-84772571D01*
X111430571Y-84844000D01*
X111502000Y-84915428D01*
X111573428Y-85058285D01*
X111573428Y-85344000D01*
X111502000Y-85486857D01*
X110573428Y-86986857D02*
X110573428Y-86129714D01*
X110573428Y-86558285D02*
X112073428Y-86558285D01*
X111859142Y-86415428D01*
X111716285Y-86272571D01*
X111644857Y-86129714D01*
X111930571Y-87558285D02*
X112002000Y-87629714D01*
X112073428Y-87772571D01*
X112073428Y-88129714D01*
X112002000Y-88272571D01*
X111930571Y-88344000D01*
X111787714Y-88415428D01*
X111644857Y-88415428D01*
X111430571Y-88344000D01*
X110573428Y-87486857D01*
X110573428Y-88415428D01*
X110573428Y-108458285D02*
X110573428Y-107744000D01*
X112073428Y-107744000D01*
X110644857Y-109529714D02*
X110573428Y-109386857D01*
X110573428Y-109101142D01*
X110644857Y-108958285D01*
X110787714Y-108886857D01*
X111359142Y-108886857D01*
X111502000Y-108958285D01*
X111573428Y-109101142D01*
X111573428Y-109386857D01*
X111502000Y-109529714D01*
X111359142Y-109601142D01*
X111216285Y-109601142D01*
X111073428Y-108886857D01*
X110573428Y-110886857D02*
X112073428Y-110886857D01*
X110644857Y-110886857D02*
X110573428Y-110744000D01*
X110573428Y-110458285D01*
X110644857Y-110315428D01*
X110716285Y-110244000D01*
X110859142Y-110172571D01*
X111287714Y-110172571D01*
X111430571Y-110244000D01*
X111502000Y-110315428D01*
X111573428Y-110458285D01*
X111573428Y-110744000D01*
X111502000Y-110886857D01*
X110573428Y-112386857D02*
X110573428Y-111529714D01*
X110573428Y-111958285D02*
X112073428Y-111958285D01*
X111859142Y-111815428D01*
X111716285Y-111672571D01*
X111644857Y-111529714D01*
X112073428Y-113315428D02*
X112073428Y-113458285D01*
X112002000Y-113601142D01*
X111930571Y-113672571D01*
X111787714Y-113744000D01*
X111502000Y-113815428D01*
X111144857Y-113815428D01*
X110859142Y-113744000D01*
X110716285Y-113672571D01*
X110644857Y-113601142D01*
X110573428Y-113458285D01*
X110573428Y-113315428D01*
X110644857Y-113172571D01*
X110716285Y-113101142D01*
X110859142Y-113029714D01*
X111144857Y-112958285D01*
X111502000Y-112958285D01*
X111787714Y-113029714D01*
X111930571Y-113101142D01*
X112002000Y-113172571D01*
X112073428Y-113315428D01*
X139885457Y-131397271D02*
X140385457Y-132897271D01*
X140885457Y-131397271D01*
X142028314Y-132897271D02*
X142028314Y-131397271D01*
X142028314Y-132825842D02*
X141885457Y-132897271D01*
X141599742Y-132897271D01*
X141456885Y-132825842D01*
X141385457Y-132754414D01*
X141314028Y-132611557D01*
X141314028Y-132182985D01*
X141385457Y-132040128D01*
X141456885Y-131968700D01*
X141599742Y-131897271D01*
X141885457Y-131897271D01*
X142028314Y-131968700D01*
X143385457Y-132897271D02*
X143385457Y-131397271D01*
X143385457Y-132825842D02*
X143242600Y-132897271D01*
X142956885Y-132897271D01*
X142814028Y-132825842D01*
X142742600Y-132754414D01*
X142671171Y-132611557D01*
X142671171Y-132182985D01*
X142742600Y-132040128D01*
X142814028Y-131968700D01*
X142956885Y-131897271D01*
X143242600Y-131897271D01*
X143385457Y-131968700D01*
X144099742Y-132754414D02*
X144171171Y-132825842D01*
X144099742Y-132897271D01*
X144028314Y-132825842D01*
X144099742Y-132754414D01*
X144099742Y-132897271D01*
X144099742Y-131968700D02*
X144171171Y-132040128D01*
X144099742Y-132111557D01*
X144028314Y-132040128D01*
X144099742Y-131968700D01*
X144099742Y-132111557D01*
X139956885Y-133812271D02*
X140956885Y-133812271D01*
X140314028Y-135312271D01*
X141528314Y-134740842D02*
X142671171Y-134740842D01*
X144028314Y-134312271D02*
X144028314Y-135312271D01*
X143671171Y-133740842D02*
X143314028Y-134812271D01*
X144242600Y-134812271D01*
X145099742Y-133812271D02*
X145242600Y-133812271D01*
X145385457Y-133883700D01*
X145456885Y-133955128D01*
X145528314Y-134097985D01*
X145599742Y-134383700D01*
X145599742Y-134740842D01*
X145528314Y-135026557D01*
X145456885Y-135169414D01*
X145385457Y-135240842D01*
X145242600Y-135312271D01*
X145099742Y-135312271D01*
X144956885Y-135240842D01*
X144885457Y-135169414D01*
X144814028Y-135026557D01*
X144742600Y-134740842D01*
X144742600Y-134383700D01*
X144814028Y-134097985D01*
X144885457Y-133955128D01*
X144956885Y-133883700D01*
X145099742Y-133812271D01*
X146028314Y-133812271D02*
X146528314Y-135312271D01*
X147028314Y-133812271D01*
X176700571Y-84375428D02*
X176700571Y-85089714D01*
X175200571Y-85089714D01*
X176629142Y-83304000D02*
X176700571Y-83446857D01*
X176700571Y-83732571D01*
X176629142Y-83875428D01*
X176486285Y-83946857D01*
X175914857Y-83946857D01*
X175772000Y-83875428D01*
X175700571Y-83732571D01*
X175700571Y-83446857D01*
X175772000Y-83304000D01*
X175914857Y-83232571D01*
X176057714Y-83232571D01*
X176200571Y-83946857D01*
X176700571Y-81946857D02*
X175200571Y-81946857D01*
X176629142Y-81946857D02*
X176700571Y-82089714D01*
X176700571Y-82375428D01*
X176629142Y-82518285D01*
X176557714Y-82589714D01*
X176414857Y-82661142D01*
X175986285Y-82661142D01*
X175843428Y-82589714D01*
X175772000Y-82518285D01*
X175700571Y-82375428D01*
X175700571Y-82089714D01*
X175772000Y-81946857D01*
X175700571Y-80589714D02*
X176700571Y-80589714D01*
X175129142Y-80946857D02*
X176200571Y-81304000D01*
X176200571Y-80375428D01*
D10*
X183521504Y-127212380D02*
X183854838Y-128212380D01*
X184188171Y-127212380D01*
X184950076Y-128212380D02*
X184950076Y-127212380D01*
X184950076Y-128164761D02*
X184854838Y-128212380D01*
X184664361Y-128212380D01*
X184569123Y-128164761D01*
X184521504Y-128117142D01*
X184473885Y-128021904D01*
X184473885Y-127736190D01*
X184521504Y-127640952D01*
X184569123Y-127593333D01*
X184664361Y-127545714D01*
X184854838Y-127545714D01*
X184950076Y-127593333D01*
X185854838Y-128212380D02*
X185854838Y-127212380D01*
X185854838Y-128164761D02*
X185759600Y-128212380D01*
X185569123Y-128212380D01*
X185473885Y-128164761D01*
X185426266Y-128117142D01*
X185378647Y-128021904D01*
X185378647Y-127736190D01*
X185426266Y-127640952D01*
X185473885Y-127593333D01*
X185569123Y-127545714D01*
X185759600Y-127545714D01*
X185854838Y-127593333D01*
X185021504Y-128870000D02*
X184926266Y-128822380D01*
X184783409Y-128822380D01*
X184640552Y-128870000D01*
X184545314Y-128965238D01*
X184497695Y-129060476D01*
X184450076Y-129250952D01*
X184450076Y-129393809D01*
X184497695Y-129584285D01*
X184545314Y-129679523D01*
X184640552Y-129774761D01*
X184783409Y-129822380D01*
X184878647Y-129822380D01*
X185021504Y-129774761D01*
X185069123Y-129727142D01*
X185069123Y-129393809D01*
X184878647Y-129393809D01*
X185069123Y-131432380D02*
X184735790Y-130956190D01*
X184497695Y-131432380D02*
X184497695Y-130432380D01*
X184878647Y-130432380D01*
X184973885Y-130480000D01*
X185021504Y-130527619D01*
X185069123Y-130622857D01*
X185069123Y-130765714D01*
X185021504Y-130860952D01*
X184973885Y-130908571D01*
X184878647Y-130956190D01*
X184497695Y-130956190D01*
X184831028Y-132518571D02*
X184973885Y-132566190D01*
X185021504Y-132613809D01*
X185069123Y-132709047D01*
X185069123Y-132851904D01*
X185021504Y-132947142D01*
X184973885Y-132994761D01*
X184878647Y-133042380D01*
X184497695Y-133042380D01*
X184497695Y-132042380D01*
X184831028Y-132042380D01*
X184926266Y-132090000D01*
X184973885Y-132137619D01*
X185021504Y-132232857D01*
X185021504Y-132328095D01*
X184973885Y-132423333D01*
X184926266Y-132470952D01*
X184831028Y-132518571D01*
X184497695Y-132518571D01*
X176668961Y-45844185D02*
X176716580Y-45701328D01*
X176716580Y-45463233D01*
X176668961Y-45367995D01*
X176621342Y-45320376D01*
X176526104Y-45272757D01*
X176430866Y-45272757D01*
X176335628Y-45320376D01*
X176288009Y-45367995D01*
X176240390Y-45463233D01*
X176192771Y-45653709D01*
X176145152Y-45748947D01*
X176097533Y-45796566D01*
X176002295Y-45844185D01*
X175907057Y-45844185D01*
X175811819Y-45796566D01*
X175764200Y-45748947D01*
X175716580Y-45653709D01*
X175716580Y-45415614D01*
X175764200Y-45272757D01*
X176716580Y-44320376D02*
X176716580Y-44891804D01*
X176716580Y-44606090D02*
X175716580Y-44606090D01*
X175859438Y-44701328D01*
X175954676Y-44796566D01*
X176002295Y-44891804D01*
X178278961Y-45844185D02*
X178326580Y-45701328D01*
X178326580Y-45463233D01*
X178278961Y-45367995D01*
X178231342Y-45320376D01*
X178136104Y-45272757D01*
X178040866Y-45272757D01*
X177945628Y-45320376D01*
X177898009Y-45367995D01*
X177850390Y-45463233D01*
X177802771Y-45653709D01*
X177755152Y-45748947D01*
X177707533Y-45796566D01*
X177612295Y-45844185D01*
X177517057Y-45844185D01*
X177421819Y-45796566D01*
X177374200Y-45748947D01*
X177326580Y-45653709D01*
X177326580Y-45415614D01*
X177374200Y-45272757D01*
X177421819Y-44891804D02*
X177374200Y-44844185D01*
X177326580Y-44748947D01*
X177326580Y-44510852D01*
X177374200Y-44415614D01*
X177421819Y-44367995D01*
X177517057Y-44320376D01*
X177612295Y-44320376D01*
X177755152Y-44367995D01*
X178326580Y-44939423D01*
X178326580Y-44320376D01*
X178936580Y-45225138D02*
X178936580Y-45701328D01*
X179412771Y-45748947D01*
X179365152Y-45701328D01*
X179317533Y-45606090D01*
X179317533Y-45367995D01*
X179365152Y-45272757D01*
X179412771Y-45225138D01*
X179508009Y-45177519D01*
X179746104Y-45177519D01*
X179841342Y-45225138D01*
X179888961Y-45272757D01*
X179936580Y-45367995D01*
X179936580Y-45606090D01*
X179888961Y-45701328D01*
X179841342Y-45748947D01*
X178936580Y-44891804D02*
X179936580Y-44558471D01*
X178936580Y-44225138D01*
X180594200Y-46415614D02*
X180546580Y-46510852D01*
X180546580Y-46653709D01*
X180594200Y-46796566D01*
X180689438Y-46891804D01*
X180784676Y-46939423D01*
X180975152Y-46987042D01*
X181118009Y-46987042D01*
X181308485Y-46939423D01*
X181403723Y-46891804D01*
X181498961Y-46796566D01*
X181546580Y-46653709D01*
X181546580Y-46558471D01*
X181498961Y-46415614D01*
X181451342Y-46367995D01*
X181118009Y-46367995D01*
X181118009Y-46558471D01*
X181546580Y-45939423D02*
X180546580Y-45939423D01*
X181546580Y-45367995D01*
X180546580Y-45367995D01*
X181546580Y-44891804D02*
X180546580Y-44891804D01*
X180546580Y-44653709D01*
X180594200Y-44510852D01*
X180689438Y-44415614D01*
X180784676Y-44367995D01*
X180975152Y-44320376D01*
X181118009Y-44320376D01*
X181308485Y-44367995D01*
X181403723Y-44415614D01*
X181498961Y-44510852D01*
X181546580Y-44653709D01*
X181546580Y-44891804D01*
X183108961Y-45844185D02*
X183156580Y-45701328D01*
X183156580Y-45463233D01*
X183108961Y-45367995D01*
X183061342Y-45320376D01*
X182966104Y-45272757D01*
X182870866Y-45272757D01*
X182775628Y-45320376D01*
X182728009Y-45367995D01*
X182680390Y-45463233D01*
X182632771Y-45653709D01*
X182585152Y-45748947D01*
X182537533Y-45796566D01*
X182442295Y-45844185D01*
X182347057Y-45844185D01*
X182251819Y-45796566D01*
X182204200Y-45748947D01*
X182156580Y-45653709D01*
X182156580Y-45415614D01*
X182204200Y-45272757D01*
X182156580Y-44939423D02*
X182156580Y-44320376D01*
X182537533Y-44653709D01*
X182537533Y-44510852D01*
X182585152Y-44415614D01*
X182632771Y-44367995D01*
X182728009Y-44320376D01*
X182966104Y-44320376D01*
X183061342Y-44367995D01*
X183108961Y-44415614D01*
X183156580Y-44510852D01*
X183156580Y-44796566D01*
X183108961Y-44891804D01*
X183061342Y-44939423D01*
X184718961Y-45844185D02*
X184766580Y-45701328D01*
X184766580Y-45463233D01*
X184718961Y-45367995D01*
X184671342Y-45320376D01*
X184576104Y-45272757D01*
X184480866Y-45272757D01*
X184385628Y-45320376D01*
X184338009Y-45367995D01*
X184290390Y-45463233D01*
X184242771Y-45653709D01*
X184195152Y-45748947D01*
X184147533Y-45796566D01*
X184052295Y-45844185D01*
X183957057Y-45844185D01*
X183861819Y-45796566D01*
X183814200Y-45748947D01*
X183766580Y-45653709D01*
X183766580Y-45415614D01*
X183814200Y-45272757D01*
X184099914Y-44415614D02*
X184766580Y-44415614D01*
X183718961Y-44653709D02*
X184433247Y-44891804D01*
X184433247Y-44272757D01*
D11*
X191686571Y-71421428D02*
X191686571Y-72135714D01*
X190186571Y-72135714D01*
X191615142Y-70350000D02*
X191686571Y-70492857D01*
X191686571Y-70778571D01*
X191615142Y-70921428D01*
X191472285Y-70992857D01*
X190900857Y-70992857D01*
X190758000Y-70921428D01*
X190686571Y-70778571D01*
X190686571Y-70492857D01*
X190758000Y-70350000D01*
X190900857Y-70278571D01*
X191043714Y-70278571D01*
X191186571Y-70992857D01*
X191686571Y-68992857D02*
X190186571Y-68992857D01*
X191615142Y-68992857D02*
X191686571Y-69135714D01*
X191686571Y-69421428D01*
X191615142Y-69564285D01*
X191543714Y-69635714D01*
X191400857Y-69707142D01*
X190972285Y-69707142D01*
X190829428Y-69635714D01*
X190758000Y-69564285D01*
X190686571Y-69421428D01*
X190686571Y-69135714D01*
X190758000Y-68992857D01*
X190186571Y-67564285D02*
X190186571Y-68278571D01*
X190900857Y-68350000D01*
X190829428Y-68278571D01*
X190758000Y-68135714D01*
X190758000Y-67778571D01*
X190829428Y-67635714D01*
X190900857Y-67564285D01*
X191043714Y-67492857D01*
X191400857Y-67492857D01*
X191543714Y-67564285D01*
X191615142Y-67635714D01*
X191686571Y-67778571D01*
X191686571Y-68135714D01*
X191615142Y-68278571D01*
X191543714Y-68350000D01*
D12*
%TO.C,Q3*%
X188594957Y-133752619D02*
X188499719Y-133705000D01*
X188404481Y-133609761D01*
X188261624Y-133466904D01*
X188166386Y-133419285D01*
X188071148Y-133419285D01*
X188118767Y-133657380D02*
X188023529Y-133609761D01*
X187928291Y-133514523D01*
X187880672Y-133324047D01*
X187880672Y-132990714D01*
X187928291Y-132800238D01*
X188023529Y-132705000D01*
X188118767Y-132657380D01*
X188309243Y-132657380D01*
X188404481Y-132705000D01*
X188499719Y-132800238D01*
X188547338Y-132990714D01*
X188547338Y-133324047D01*
X188499719Y-133514523D01*
X188404481Y-133609761D01*
X188309243Y-133657380D01*
X188118767Y-133657380D01*
X188880672Y-132657380D02*
X189499719Y-132657380D01*
X189166386Y-133038333D01*
X189309243Y-133038333D01*
X189404481Y-133085952D01*
X189452100Y-133133571D01*
X189499719Y-133228809D01*
X189499719Y-133466904D01*
X189452100Y-133562142D01*
X189404481Y-133609761D01*
X189309243Y-133657380D01*
X189023529Y-133657380D01*
X188928291Y-133609761D01*
X188880672Y-133562142D01*
%TO.C,Q27*%
X127762184Y-111182619D02*
X127666946Y-111135000D01*
X127571708Y-111039761D01*
X127428851Y-110896904D01*
X127333613Y-110849285D01*
X127238375Y-110849285D01*
X127285994Y-111087380D02*
X127190756Y-111039761D01*
X127095518Y-110944523D01*
X127047899Y-110754047D01*
X127047899Y-110420714D01*
X127095518Y-110230238D01*
X127190756Y-110135000D01*
X127285994Y-110087380D01*
X127476470Y-110087380D01*
X127571708Y-110135000D01*
X127666946Y-110230238D01*
X127714565Y-110420714D01*
X127714565Y-110754047D01*
X127666946Y-110944523D01*
X127571708Y-111039761D01*
X127476470Y-111087380D01*
X127285994Y-111087380D01*
X128095518Y-110182619D02*
X128143137Y-110135000D01*
X128238375Y-110087380D01*
X128476470Y-110087380D01*
X128571708Y-110135000D01*
X128619327Y-110182619D01*
X128666946Y-110277857D01*
X128666946Y-110373095D01*
X128619327Y-110515952D01*
X128047899Y-111087380D01*
X128666946Y-111087380D01*
X129000280Y-110087380D02*
X129666946Y-110087380D01*
X129238375Y-111087380D01*
%TO.C,J16*%
X146256476Y-43648380D02*
X146256476Y-44362666D01*
X146208857Y-44505523D01*
X146113619Y-44600761D01*
X145970761Y-44648380D01*
X145875523Y-44648380D01*
X147256476Y-44648380D02*
X146685047Y-44648380D01*
X146970761Y-44648380D02*
X146970761Y-43648380D01*
X146875523Y-43791238D01*
X146780285Y-43886476D01*
X146685047Y-43934095D01*
X148113619Y-43648380D02*
X147923142Y-43648380D01*
X147827904Y-43696000D01*
X147780285Y-43743619D01*
X147685047Y-43886476D01*
X147637428Y-44076952D01*
X147637428Y-44457904D01*
X147685047Y-44553142D01*
X147732666Y-44600761D01*
X147827904Y-44648380D01*
X148018380Y-44648380D01*
X148113619Y-44600761D01*
X148161238Y-44553142D01*
X148208857Y-44457904D01*
X148208857Y-44219809D01*
X148161238Y-44124571D01*
X148113619Y-44076952D01*
X148018380Y-44029333D01*
X147827904Y-44029333D01*
X147732666Y-44076952D01*
X147685047Y-44124571D01*
X147637428Y-44219809D01*
%TO.C,Q8*%
X173354957Y-115972619D02*
X173259719Y-115925000D01*
X173164481Y-115829761D01*
X173021624Y-115686904D01*
X172926386Y-115639285D01*
X172831148Y-115639285D01*
X172878767Y-115877380D02*
X172783529Y-115829761D01*
X172688291Y-115734523D01*
X172640672Y-115544047D01*
X172640672Y-115210714D01*
X172688291Y-115020238D01*
X172783529Y-114925000D01*
X172878767Y-114877380D01*
X173069243Y-114877380D01*
X173164481Y-114925000D01*
X173259719Y-115020238D01*
X173307338Y-115210714D01*
X173307338Y-115544047D01*
X173259719Y-115734523D01*
X173164481Y-115829761D01*
X173069243Y-115877380D01*
X172878767Y-115877380D01*
X173878767Y-115305952D02*
X173783529Y-115258333D01*
X173735910Y-115210714D01*
X173688291Y-115115476D01*
X173688291Y-115067857D01*
X173735910Y-114972619D01*
X173783529Y-114925000D01*
X173878767Y-114877380D01*
X174069243Y-114877380D01*
X174164481Y-114925000D01*
X174212100Y-114972619D01*
X174259719Y-115067857D01*
X174259719Y-115115476D01*
X174212100Y-115210714D01*
X174164481Y-115258333D01*
X174069243Y-115305952D01*
X173878767Y-115305952D01*
X173783529Y-115353571D01*
X173735910Y-115401190D01*
X173688291Y-115496428D01*
X173688291Y-115686904D01*
X173735910Y-115782142D01*
X173783529Y-115829761D01*
X173878767Y-115877380D01*
X174069243Y-115877380D01*
X174164481Y-115829761D01*
X174212100Y-115782142D01*
X174259719Y-115686904D01*
X174259719Y-115496428D01*
X174212100Y-115401190D01*
X174164481Y-115353571D01*
X174069243Y-115305952D01*
%TO.C,Q6*%
X188594957Y-108352619D02*
X188499719Y-108305000D01*
X188404481Y-108209761D01*
X188261624Y-108066904D01*
X188166386Y-108019285D01*
X188071148Y-108019285D01*
X188118767Y-108257380D02*
X188023529Y-108209761D01*
X187928291Y-108114523D01*
X187880672Y-107924047D01*
X187880672Y-107590714D01*
X187928291Y-107400238D01*
X188023529Y-107305000D01*
X188118767Y-107257380D01*
X188309243Y-107257380D01*
X188404481Y-107305000D01*
X188499719Y-107400238D01*
X188547338Y-107590714D01*
X188547338Y-107924047D01*
X188499719Y-108114523D01*
X188404481Y-108209761D01*
X188309243Y-108257380D01*
X188118767Y-108257380D01*
X189404481Y-107257380D02*
X189214005Y-107257380D01*
X189118767Y-107305000D01*
X189071148Y-107352619D01*
X188975910Y-107495476D01*
X188928291Y-107685952D01*
X188928291Y-108066904D01*
X188975910Y-108162142D01*
X189023529Y-108209761D01*
X189118767Y-108257380D01*
X189309243Y-108257380D01*
X189404481Y-108209761D01*
X189452100Y-108162142D01*
X189499719Y-108066904D01*
X189499719Y-107828809D01*
X189452100Y-107733571D01*
X189404481Y-107685952D01*
X189309243Y-107638333D01*
X189118767Y-107638333D01*
X189023529Y-107685952D01*
X188975910Y-107733571D01*
X188928291Y-107828809D01*
%TO.C,Q11*%
X173354957Y-90572619D02*
X173259719Y-90525000D01*
X173164481Y-90429761D01*
X173021624Y-90286904D01*
X172926386Y-90239285D01*
X172831148Y-90239285D01*
X172878767Y-90477380D02*
X172783529Y-90429761D01*
X172688291Y-90334523D01*
X172640672Y-90144047D01*
X172640672Y-89810714D01*
X172688291Y-89620238D01*
X172783529Y-89525000D01*
X172878767Y-89477380D01*
X173069243Y-89477380D01*
X173164481Y-89525000D01*
X173259719Y-89620238D01*
X173307338Y-89810714D01*
X173307338Y-90144047D01*
X173259719Y-90334523D01*
X173164481Y-90429761D01*
X173069243Y-90477380D01*
X172878767Y-90477380D01*
X174259719Y-90477380D02*
X173688291Y-90477380D01*
X173974005Y-90477380D02*
X173974005Y-89477380D01*
X173878767Y-89620238D01*
X173783529Y-89715476D01*
X173688291Y-89763095D01*
X175212100Y-90477380D02*
X174640672Y-90477380D01*
X174926386Y-90477380D02*
X174926386Y-89477380D01*
X174831148Y-89620238D01*
X174735910Y-89715476D01*
X174640672Y-89763095D01*
%TO.C,A1*%
X145386514Y-54624266D02*
X145862704Y-54624266D01*
X145291276Y-54909980D02*
X145624609Y-53909980D01*
X145957942Y-54909980D01*
X146815085Y-54909980D02*
X146243657Y-54909980D01*
X146529371Y-54909980D02*
X146529371Y-53909980D01*
X146434133Y-54052838D01*
X146338895Y-54148076D01*
X146243657Y-54195695D01*
%TO.C,Q14*%
X188594957Y-77872619D02*
X188499719Y-77825000D01*
X188404481Y-77729761D01*
X188261624Y-77586904D01*
X188166386Y-77539285D01*
X188071148Y-77539285D01*
X188118767Y-77777380D02*
X188023529Y-77729761D01*
X187928291Y-77634523D01*
X187880672Y-77444047D01*
X187880672Y-77110714D01*
X187928291Y-76920238D01*
X188023529Y-76825000D01*
X188118767Y-76777380D01*
X188309243Y-76777380D01*
X188404481Y-76825000D01*
X188499719Y-76920238D01*
X188547338Y-77110714D01*
X188547338Y-77444047D01*
X188499719Y-77634523D01*
X188404481Y-77729761D01*
X188309243Y-77777380D01*
X188118767Y-77777380D01*
X189499719Y-77777380D02*
X188928291Y-77777380D01*
X189214005Y-77777380D02*
X189214005Y-76777380D01*
X189118767Y-76920238D01*
X189023529Y-77015476D01*
X188928291Y-77063095D01*
X190356862Y-77110714D02*
X190356862Y-77777380D01*
X190118767Y-76729761D02*
X189880672Y-77444047D01*
X190499719Y-77444047D01*
%TO.C,Q24*%
X112522184Y-123882619D02*
X112426946Y-123835000D01*
X112331708Y-123739761D01*
X112188851Y-123596904D01*
X112093613Y-123549285D01*
X111998375Y-123549285D01*
X112045994Y-123787380D02*
X111950756Y-123739761D01*
X111855518Y-123644523D01*
X111807899Y-123454047D01*
X111807899Y-123120714D01*
X111855518Y-122930238D01*
X111950756Y-122835000D01*
X112045994Y-122787380D01*
X112236470Y-122787380D01*
X112331708Y-122835000D01*
X112426946Y-122930238D01*
X112474565Y-123120714D01*
X112474565Y-123454047D01*
X112426946Y-123644523D01*
X112331708Y-123739761D01*
X112236470Y-123787380D01*
X112045994Y-123787380D01*
X112855518Y-122882619D02*
X112903137Y-122835000D01*
X112998375Y-122787380D01*
X113236470Y-122787380D01*
X113331708Y-122835000D01*
X113379327Y-122882619D01*
X113426946Y-122977857D01*
X113426946Y-123073095D01*
X113379327Y-123215952D01*
X112807899Y-123787380D01*
X113426946Y-123787380D01*
X114284089Y-123120714D02*
X114284089Y-123787380D01*
X114045994Y-122739761D02*
X113807899Y-123454047D01*
X114426946Y-123454047D01*
%TO.C,Q10*%
X172706261Y-85383619D02*
X172611023Y-85336000D01*
X172515785Y-85240761D01*
X172372928Y-85097904D01*
X172277690Y-85050285D01*
X172182452Y-85050285D01*
X172230071Y-85288380D02*
X172134833Y-85240761D01*
X172039595Y-85145523D01*
X171991976Y-84955047D01*
X171991976Y-84621714D01*
X172039595Y-84431238D01*
X172134833Y-84336000D01*
X172230071Y-84288380D01*
X172420547Y-84288380D01*
X172515785Y-84336000D01*
X172611023Y-84431238D01*
X172658642Y-84621714D01*
X172658642Y-84955047D01*
X172611023Y-85145523D01*
X172515785Y-85240761D01*
X172420547Y-85288380D01*
X172230071Y-85288380D01*
X173611023Y-85288380D02*
X173039595Y-85288380D01*
X173325309Y-85288380D02*
X173325309Y-84288380D01*
X173230071Y-84431238D01*
X173134833Y-84526476D01*
X173039595Y-84574095D01*
X174230071Y-84288380D02*
X174325309Y-84288380D01*
X174420547Y-84336000D01*
X174468166Y-84383619D01*
X174515785Y-84478857D01*
X174563404Y-84669333D01*
X174563404Y-84907428D01*
X174515785Y-85097904D01*
X174468166Y-85193142D01*
X174420547Y-85240761D01*
X174325309Y-85288380D01*
X174230071Y-85288380D01*
X174134833Y-85240761D01*
X174087214Y-85193142D01*
X174039595Y-85097904D01*
X173991976Y-84907428D01*
X173991976Y-84669333D01*
X174039595Y-84478857D01*
X174087214Y-84383619D01*
X174134833Y-84336000D01*
X174230071Y-84288380D01*
%TO.C,C6*%
X152093142Y-120486466D02*
X152140761Y-120534085D01*
X152188380Y-120676942D01*
X152188380Y-120772180D01*
X152140761Y-120915038D01*
X152045523Y-121010276D01*
X151950285Y-121057895D01*
X151759809Y-121105514D01*
X151616952Y-121105514D01*
X151426476Y-121057895D01*
X151331238Y-121010276D01*
X151236000Y-120915038D01*
X151188380Y-120772180D01*
X151188380Y-120676942D01*
X151236000Y-120534085D01*
X151283619Y-120486466D01*
X151188380Y-119629323D02*
X151188380Y-119819800D01*
X151236000Y-119915038D01*
X151283619Y-119962657D01*
X151426476Y-120057895D01*
X151616952Y-120105514D01*
X151997904Y-120105514D01*
X152093142Y-120057895D01*
X152140761Y-120010276D01*
X152188380Y-119915038D01*
X152188380Y-119724561D01*
X152140761Y-119629323D01*
X152093142Y-119581704D01*
X151997904Y-119534085D01*
X151759809Y-119534085D01*
X151664571Y-119581704D01*
X151616952Y-119629323D01*
X151569333Y-119724561D01*
X151569333Y-119915038D01*
X151616952Y-120010276D01*
X151664571Y-120057895D01*
X151759809Y-120105514D01*
%TO.C,J13*%
X123150380Y-71167523D02*
X123864666Y-71167523D01*
X124007523Y-71215142D01*
X124102761Y-71310380D01*
X124150380Y-71453238D01*
X124150380Y-71548476D01*
X124150380Y-70167523D02*
X124150380Y-70738952D01*
X124150380Y-70453238D02*
X123150380Y-70453238D01*
X123293238Y-70548476D01*
X123388476Y-70643714D01*
X123436095Y-70738952D01*
X123150380Y-69834190D02*
X123150380Y-69215142D01*
X123531333Y-69548476D01*
X123531333Y-69405619D01*
X123578952Y-69310380D01*
X123626571Y-69262761D01*
X123721809Y-69215142D01*
X123959904Y-69215142D01*
X124055142Y-69262761D01*
X124102761Y-69310380D01*
X124150380Y-69405619D01*
X124150380Y-69691333D01*
X124102761Y-69786571D01*
X124055142Y-69834190D01*
%TO.C,J12*%
X107656380Y-83867523D02*
X108370666Y-83867523D01*
X108513523Y-83915142D01*
X108608761Y-84010380D01*
X108656380Y-84153238D01*
X108656380Y-84248476D01*
X108656380Y-82867523D02*
X108656380Y-83438952D01*
X108656380Y-83153238D02*
X107656380Y-83153238D01*
X107799238Y-83248476D01*
X107894476Y-83343714D01*
X107942095Y-83438952D01*
X107751619Y-82486571D02*
X107704000Y-82438952D01*
X107656380Y-82343714D01*
X107656380Y-82105619D01*
X107704000Y-82010380D01*
X107751619Y-81962761D01*
X107846857Y-81915142D01*
X107942095Y-81915142D01*
X108084952Y-81962761D01*
X108656380Y-82534190D01*
X108656380Y-81915142D01*
%TO.C,J4*%
X178522380Y-85423333D02*
X179236666Y-85423333D01*
X179379523Y-85470952D01*
X179474761Y-85566190D01*
X179522380Y-85709047D01*
X179522380Y-85804285D01*
X178855714Y-84518571D02*
X179522380Y-84518571D01*
X178474761Y-84756666D02*
X179189047Y-84994761D01*
X179189047Y-84375714D01*
%TO.C,Q33*%
X127762184Y-85782619D02*
X127666946Y-85735000D01*
X127571708Y-85639761D01*
X127428851Y-85496904D01*
X127333613Y-85449285D01*
X127238375Y-85449285D01*
X127285994Y-85687380D02*
X127190756Y-85639761D01*
X127095518Y-85544523D01*
X127047899Y-85354047D01*
X127047899Y-85020714D01*
X127095518Y-84830238D01*
X127190756Y-84735000D01*
X127285994Y-84687380D01*
X127476470Y-84687380D01*
X127571708Y-84735000D01*
X127666946Y-84830238D01*
X127714565Y-85020714D01*
X127714565Y-85354047D01*
X127666946Y-85544523D01*
X127571708Y-85639761D01*
X127476470Y-85687380D01*
X127285994Y-85687380D01*
X128047899Y-84687380D02*
X128666946Y-84687380D01*
X128333613Y-85068333D01*
X128476470Y-85068333D01*
X128571708Y-85115952D01*
X128619327Y-85163571D01*
X128666946Y-85258809D01*
X128666946Y-85496904D01*
X128619327Y-85592142D01*
X128571708Y-85639761D01*
X128476470Y-85687380D01*
X128190756Y-85687380D01*
X128095518Y-85639761D01*
X128047899Y-85592142D01*
X129000280Y-84687380D02*
X129619327Y-84687380D01*
X129285994Y-85068333D01*
X129428851Y-85068333D01*
X129524089Y-85115952D01*
X129571708Y-85163571D01*
X129619327Y-85258809D01*
X129619327Y-85496904D01*
X129571708Y-85592142D01*
X129524089Y-85639761D01*
X129428851Y-85687380D01*
X129143137Y-85687380D01*
X129047899Y-85639761D01*
X129000280Y-85592142D01*
%TO.C,Q30*%
X112522184Y-98482619D02*
X112426946Y-98435000D01*
X112331708Y-98339761D01*
X112188851Y-98196904D01*
X112093613Y-98149285D01*
X111998375Y-98149285D01*
X112045994Y-98387380D02*
X111950756Y-98339761D01*
X111855518Y-98244523D01*
X111807899Y-98054047D01*
X111807899Y-97720714D01*
X111855518Y-97530238D01*
X111950756Y-97435000D01*
X112045994Y-97387380D01*
X112236470Y-97387380D01*
X112331708Y-97435000D01*
X112426946Y-97530238D01*
X112474565Y-97720714D01*
X112474565Y-98054047D01*
X112426946Y-98244523D01*
X112331708Y-98339761D01*
X112236470Y-98387380D01*
X112045994Y-98387380D01*
X112807899Y-97387380D02*
X113426946Y-97387380D01*
X113093613Y-97768333D01*
X113236470Y-97768333D01*
X113331708Y-97815952D01*
X113379327Y-97863571D01*
X113426946Y-97958809D01*
X113426946Y-98196904D01*
X113379327Y-98292142D01*
X113331708Y-98339761D01*
X113236470Y-98387380D01*
X112950756Y-98387380D01*
X112855518Y-98339761D01*
X112807899Y-98292142D01*
X114045994Y-97387380D02*
X114141232Y-97387380D01*
X114236470Y-97435000D01*
X114284089Y-97482619D01*
X114331708Y-97577857D01*
X114379327Y-97768333D01*
X114379327Y-98006428D01*
X114331708Y-98196904D01*
X114284089Y-98292142D01*
X114236470Y-98339761D01*
X114141232Y-98387380D01*
X114045994Y-98387380D01*
X113950756Y-98339761D01*
X113903137Y-98292142D01*
X113855518Y-98196904D01*
X113807899Y-98006428D01*
X113807899Y-97768333D01*
X113855518Y-97577857D01*
X113903137Y-97482619D01*
X113950756Y-97435000D01*
X114045994Y-97387380D01*
%TO.C,Q2*%
X188594957Y-128672619D02*
X188499719Y-128625000D01*
X188404481Y-128529761D01*
X188261624Y-128386904D01*
X188166386Y-128339285D01*
X188071148Y-128339285D01*
X188118767Y-128577380D02*
X188023529Y-128529761D01*
X187928291Y-128434523D01*
X187880672Y-128244047D01*
X187880672Y-127910714D01*
X187928291Y-127720238D01*
X188023529Y-127625000D01*
X188118767Y-127577380D01*
X188309243Y-127577380D01*
X188404481Y-127625000D01*
X188499719Y-127720238D01*
X188547338Y-127910714D01*
X188547338Y-128244047D01*
X188499719Y-128434523D01*
X188404481Y-128529761D01*
X188309243Y-128577380D01*
X188118767Y-128577380D01*
X188928291Y-127672619D02*
X188975910Y-127625000D01*
X189071148Y-127577380D01*
X189309243Y-127577380D01*
X189404481Y-127625000D01*
X189452100Y-127672619D01*
X189499719Y-127767857D01*
X189499719Y-127863095D01*
X189452100Y-128005952D01*
X188880672Y-128577380D01*
X189499719Y-128577380D01*
%TO.C,Q20*%
X188594957Y-52472619D02*
X188499719Y-52425000D01*
X188404481Y-52329761D01*
X188261624Y-52186904D01*
X188166386Y-52139285D01*
X188071148Y-52139285D01*
X188118767Y-52377380D02*
X188023529Y-52329761D01*
X187928291Y-52234523D01*
X187880672Y-52044047D01*
X187880672Y-51710714D01*
X187928291Y-51520238D01*
X188023529Y-51425000D01*
X188118767Y-51377380D01*
X188309243Y-51377380D01*
X188404481Y-51425000D01*
X188499719Y-51520238D01*
X188547338Y-51710714D01*
X188547338Y-52044047D01*
X188499719Y-52234523D01*
X188404481Y-52329761D01*
X188309243Y-52377380D01*
X188118767Y-52377380D01*
X188928291Y-51472619D02*
X188975910Y-51425000D01*
X189071148Y-51377380D01*
X189309243Y-51377380D01*
X189404481Y-51425000D01*
X189452100Y-51472619D01*
X189499719Y-51567857D01*
X189499719Y-51663095D01*
X189452100Y-51805952D01*
X188880672Y-52377380D01*
X189499719Y-52377380D01*
X190118767Y-51377380D02*
X190214005Y-51377380D01*
X190309243Y-51425000D01*
X190356862Y-51472619D01*
X190404481Y-51567857D01*
X190452100Y-51758333D01*
X190452100Y-51996428D01*
X190404481Y-52186904D01*
X190356862Y-52282142D01*
X190309243Y-52329761D01*
X190214005Y-52377380D01*
X190118767Y-52377380D01*
X190023529Y-52329761D01*
X189975910Y-52282142D01*
X189928291Y-52186904D01*
X189880672Y-51996428D01*
X189880672Y-51758333D01*
X189928291Y-51567857D01*
X189975910Y-51472619D01*
X190023529Y-51425000D01*
X190118767Y-51377380D01*
%TO.C,C5*%
X152093142Y-123026466D02*
X152140761Y-123074085D01*
X152188380Y-123216942D01*
X152188380Y-123312180D01*
X152140761Y-123455038D01*
X152045523Y-123550276D01*
X151950285Y-123597895D01*
X151759809Y-123645514D01*
X151616952Y-123645514D01*
X151426476Y-123597895D01*
X151331238Y-123550276D01*
X151236000Y-123455038D01*
X151188380Y-123312180D01*
X151188380Y-123216942D01*
X151236000Y-123074085D01*
X151283619Y-123026466D01*
X151188380Y-122121704D02*
X151188380Y-122597895D01*
X151664571Y-122645514D01*
X151616952Y-122597895D01*
X151569333Y-122502657D01*
X151569333Y-122264561D01*
X151616952Y-122169323D01*
X151664571Y-122121704D01*
X151759809Y-122074085D01*
X151997904Y-122074085D01*
X152093142Y-122121704D01*
X152140761Y-122169323D01*
X152188380Y-122264561D01*
X152188380Y-122502657D01*
X152140761Y-122597895D01*
X152093142Y-122645514D01*
%TO.C,J11*%
X122896380Y-96313523D02*
X123610666Y-96313523D01*
X123753523Y-96361142D01*
X123848761Y-96456380D01*
X123896380Y-96599238D01*
X123896380Y-96694476D01*
X123896380Y-95313523D02*
X123896380Y-95884952D01*
X123896380Y-95599238D02*
X122896380Y-95599238D01*
X123039238Y-95694476D01*
X123134476Y-95789714D01*
X123182095Y-95884952D01*
X123896380Y-94361142D02*
X123896380Y-94932571D01*
X123896380Y-94646857D02*
X122896380Y-94646857D01*
X123039238Y-94742095D01*
X123134476Y-94837333D01*
X123182095Y-94932571D01*
%TO.C,J1*%
X193305180Y-123370933D02*
X194019466Y-123370933D01*
X194162323Y-123418552D01*
X194257561Y-123513790D01*
X194305180Y-123656647D01*
X194305180Y-123751885D01*
X194305180Y-122370933D02*
X194305180Y-122942361D01*
X194305180Y-122656647D02*
X193305180Y-122656647D01*
X193448038Y-122751885D01*
X193543276Y-122847123D01*
X193590895Y-122942361D01*
%TO.C,H3*%
X119446980Y-45567504D02*
X118446980Y-45567504D01*
X118923171Y-45567504D02*
X118923171Y-44996076D01*
X119446980Y-44996076D02*
X118446980Y-44996076D01*
X118446980Y-44615123D02*
X118446980Y-43996076D01*
X118827933Y-44329409D01*
X118827933Y-44186552D01*
X118875552Y-44091314D01*
X118923171Y-44043695D01*
X119018409Y-43996076D01*
X119256504Y-43996076D01*
X119351742Y-44043695D01*
X119399361Y-44091314D01*
X119446980Y-44186552D01*
X119446980Y-44472266D01*
X119399361Y-44567504D01*
X119351742Y-44615123D01*
%TO.C,Q28*%
X113678880Y-108751619D02*
X113583642Y-108704000D01*
X113488404Y-108608761D01*
X113345547Y-108465904D01*
X113250309Y-108418285D01*
X113155071Y-108418285D01*
X113202690Y-108656380D02*
X113107452Y-108608761D01*
X113012214Y-108513523D01*
X112964595Y-108323047D01*
X112964595Y-107989714D01*
X113012214Y-107799238D01*
X113107452Y-107704000D01*
X113202690Y-107656380D01*
X113393166Y-107656380D01*
X113488404Y-107704000D01*
X113583642Y-107799238D01*
X113631261Y-107989714D01*
X113631261Y-108323047D01*
X113583642Y-108513523D01*
X113488404Y-108608761D01*
X113393166Y-108656380D01*
X113202690Y-108656380D01*
X114012214Y-107751619D02*
X114059833Y-107704000D01*
X114155071Y-107656380D01*
X114393166Y-107656380D01*
X114488404Y-107704000D01*
X114536023Y-107751619D01*
X114583642Y-107846857D01*
X114583642Y-107942095D01*
X114536023Y-108084952D01*
X113964595Y-108656380D01*
X114583642Y-108656380D01*
X115155071Y-108084952D02*
X115059833Y-108037333D01*
X115012214Y-107989714D01*
X114964595Y-107894476D01*
X114964595Y-107846857D01*
X115012214Y-107751619D01*
X115059833Y-107704000D01*
X115155071Y-107656380D01*
X115345547Y-107656380D01*
X115440785Y-107704000D01*
X115488404Y-107751619D01*
X115536023Y-107846857D01*
X115536023Y-107894476D01*
X115488404Y-107989714D01*
X115440785Y-108037333D01*
X115345547Y-108084952D01*
X115155071Y-108084952D01*
X115059833Y-108132571D01*
X115012214Y-108180190D01*
X114964595Y-108275428D01*
X114964595Y-108465904D01*
X115012214Y-108561142D01*
X115059833Y-108608761D01*
X115155071Y-108656380D01*
X115345547Y-108656380D01*
X115440785Y-108608761D01*
X115488404Y-108561142D01*
X115536023Y-108465904D01*
X115536023Y-108275428D01*
X115488404Y-108180190D01*
X115440785Y-108132571D01*
X115345547Y-108084952D01*
%TO.C,Q32*%
X127762184Y-90862619D02*
X127666946Y-90815000D01*
X127571708Y-90719761D01*
X127428851Y-90576904D01*
X127333613Y-90529285D01*
X127238375Y-90529285D01*
X127285994Y-90767380D02*
X127190756Y-90719761D01*
X127095518Y-90624523D01*
X127047899Y-90434047D01*
X127047899Y-90100714D01*
X127095518Y-89910238D01*
X127190756Y-89815000D01*
X127285994Y-89767380D01*
X127476470Y-89767380D01*
X127571708Y-89815000D01*
X127666946Y-89910238D01*
X127714565Y-90100714D01*
X127714565Y-90434047D01*
X127666946Y-90624523D01*
X127571708Y-90719761D01*
X127476470Y-90767380D01*
X127285994Y-90767380D01*
X128047899Y-89767380D02*
X128666946Y-89767380D01*
X128333613Y-90148333D01*
X128476470Y-90148333D01*
X128571708Y-90195952D01*
X128619327Y-90243571D01*
X128666946Y-90338809D01*
X128666946Y-90576904D01*
X128619327Y-90672142D01*
X128571708Y-90719761D01*
X128476470Y-90767380D01*
X128190756Y-90767380D01*
X128095518Y-90719761D01*
X128047899Y-90672142D01*
X129047899Y-89862619D02*
X129095518Y-89815000D01*
X129190756Y-89767380D01*
X129428851Y-89767380D01*
X129524089Y-89815000D01*
X129571708Y-89862619D01*
X129619327Y-89957857D01*
X129619327Y-90053095D01*
X129571708Y-90195952D01*
X129000280Y-90767380D01*
X129619327Y-90767380D01*
%TO.C,Q21*%
X188594957Y-57552619D02*
X188499719Y-57505000D01*
X188404481Y-57409761D01*
X188261624Y-57266904D01*
X188166386Y-57219285D01*
X188071148Y-57219285D01*
X188118767Y-57457380D02*
X188023529Y-57409761D01*
X187928291Y-57314523D01*
X187880672Y-57124047D01*
X187880672Y-56790714D01*
X187928291Y-56600238D01*
X188023529Y-56505000D01*
X188118767Y-56457380D01*
X188309243Y-56457380D01*
X188404481Y-56505000D01*
X188499719Y-56600238D01*
X188547338Y-56790714D01*
X188547338Y-57124047D01*
X188499719Y-57314523D01*
X188404481Y-57409761D01*
X188309243Y-57457380D01*
X188118767Y-57457380D01*
X188928291Y-56552619D02*
X188975910Y-56505000D01*
X189071148Y-56457380D01*
X189309243Y-56457380D01*
X189404481Y-56505000D01*
X189452100Y-56552619D01*
X189499719Y-56647857D01*
X189499719Y-56743095D01*
X189452100Y-56885952D01*
X188880672Y-57457380D01*
X189499719Y-57457380D01*
X190452100Y-57457380D02*
X189880672Y-57457380D01*
X190166386Y-57457380D02*
X190166386Y-56457380D01*
X190071148Y-56600238D01*
X189975910Y-56695476D01*
X189880672Y-56743095D01*
%TO.C,Q12*%
X173354957Y-95652619D02*
X173259719Y-95605000D01*
X173164481Y-95509761D01*
X173021624Y-95366904D01*
X172926386Y-95319285D01*
X172831148Y-95319285D01*
X172878767Y-95557380D02*
X172783529Y-95509761D01*
X172688291Y-95414523D01*
X172640672Y-95224047D01*
X172640672Y-94890714D01*
X172688291Y-94700238D01*
X172783529Y-94605000D01*
X172878767Y-94557380D01*
X173069243Y-94557380D01*
X173164481Y-94605000D01*
X173259719Y-94700238D01*
X173307338Y-94890714D01*
X173307338Y-95224047D01*
X173259719Y-95414523D01*
X173164481Y-95509761D01*
X173069243Y-95557380D01*
X172878767Y-95557380D01*
X174259719Y-95557380D02*
X173688291Y-95557380D01*
X173974005Y-95557380D02*
X173974005Y-94557380D01*
X173878767Y-94700238D01*
X173783529Y-94795476D01*
X173688291Y-94843095D01*
X174640672Y-94652619D02*
X174688291Y-94605000D01*
X174783529Y-94557380D01*
X175021624Y-94557380D01*
X175116862Y-94605000D01*
X175164481Y-94652619D01*
X175212100Y-94747857D01*
X175212100Y-94843095D01*
X175164481Y-94985952D01*
X174593053Y-95557380D01*
X175212100Y-95557380D01*
%TO.C,Q36*%
X112522184Y-73082619D02*
X112426946Y-73035000D01*
X112331708Y-72939761D01*
X112188851Y-72796904D01*
X112093613Y-72749285D01*
X111998375Y-72749285D01*
X112045994Y-72987380D02*
X111950756Y-72939761D01*
X111855518Y-72844523D01*
X111807899Y-72654047D01*
X111807899Y-72320714D01*
X111855518Y-72130238D01*
X111950756Y-72035000D01*
X112045994Y-71987380D01*
X112236470Y-71987380D01*
X112331708Y-72035000D01*
X112426946Y-72130238D01*
X112474565Y-72320714D01*
X112474565Y-72654047D01*
X112426946Y-72844523D01*
X112331708Y-72939761D01*
X112236470Y-72987380D01*
X112045994Y-72987380D01*
X112807899Y-71987380D02*
X113426946Y-71987380D01*
X113093613Y-72368333D01*
X113236470Y-72368333D01*
X113331708Y-72415952D01*
X113379327Y-72463571D01*
X113426946Y-72558809D01*
X113426946Y-72796904D01*
X113379327Y-72892142D01*
X113331708Y-72939761D01*
X113236470Y-72987380D01*
X112950756Y-72987380D01*
X112855518Y-72939761D01*
X112807899Y-72892142D01*
X114284089Y-71987380D02*
X114093613Y-71987380D01*
X113998375Y-72035000D01*
X113950756Y-72082619D01*
X113855518Y-72225476D01*
X113807899Y-72415952D01*
X113807899Y-72796904D01*
X113855518Y-72892142D01*
X113903137Y-72939761D01*
X113998375Y-72987380D01*
X114188851Y-72987380D01*
X114284089Y-72939761D01*
X114331708Y-72892142D01*
X114379327Y-72796904D01*
X114379327Y-72558809D01*
X114331708Y-72463571D01*
X114284089Y-72415952D01*
X114188851Y-72368333D01*
X113998375Y-72368333D01*
X113903137Y-72415952D01*
X113855518Y-72463571D01*
X113807899Y-72558809D01*
%TO.C,H2*%
X116271980Y-136474104D02*
X115271980Y-136474104D01*
X115748171Y-136474104D02*
X115748171Y-135902676D01*
X116271980Y-135902676D02*
X115271980Y-135902676D01*
X115367219Y-135474104D02*
X115319600Y-135426485D01*
X115271980Y-135331247D01*
X115271980Y-135093152D01*
X115319600Y-134997914D01*
X115367219Y-134950295D01*
X115462457Y-134902676D01*
X115557695Y-134902676D01*
X115700552Y-134950295D01*
X116271980Y-135521723D01*
X116271980Y-134902676D01*
%TO.C,Q9*%
X173354957Y-121052619D02*
X173259719Y-121005000D01*
X173164481Y-120909761D01*
X173021624Y-120766904D01*
X172926386Y-120719285D01*
X172831148Y-120719285D01*
X172878767Y-120957380D02*
X172783529Y-120909761D01*
X172688291Y-120814523D01*
X172640672Y-120624047D01*
X172640672Y-120290714D01*
X172688291Y-120100238D01*
X172783529Y-120005000D01*
X172878767Y-119957380D01*
X173069243Y-119957380D01*
X173164481Y-120005000D01*
X173259719Y-120100238D01*
X173307338Y-120290714D01*
X173307338Y-120624047D01*
X173259719Y-120814523D01*
X173164481Y-120909761D01*
X173069243Y-120957380D01*
X172878767Y-120957380D01*
X173783529Y-120957380D02*
X173974005Y-120957380D01*
X174069243Y-120909761D01*
X174116862Y-120862142D01*
X174212100Y-120719285D01*
X174259719Y-120528809D01*
X174259719Y-120147857D01*
X174212100Y-120052619D01*
X174164481Y-120005000D01*
X174069243Y-119957380D01*
X173878767Y-119957380D01*
X173783529Y-120005000D01*
X173735910Y-120052619D01*
X173688291Y-120147857D01*
X173688291Y-120385952D01*
X173735910Y-120481190D01*
X173783529Y-120528809D01*
X173878767Y-120576428D01*
X174069243Y-120576428D01*
X174164481Y-120528809D01*
X174212100Y-120481190D01*
X174259719Y-120385952D01*
%TO.C,Q1*%
X188594957Y-123592619D02*
X188499719Y-123545000D01*
X188404481Y-123449761D01*
X188261624Y-123306904D01*
X188166386Y-123259285D01*
X188071148Y-123259285D01*
X188118767Y-123497380D02*
X188023529Y-123449761D01*
X187928291Y-123354523D01*
X187880672Y-123164047D01*
X187880672Y-122830714D01*
X187928291Y-122640238D01*
X188023529Y-122545000D01*
X188118767Y-122497380D01*
X188309243Y-122497380D01*
X188404481Y-122545000D01*
X188499719Y-122640238D01*
X188547338Y-122830714D01*
X188547338Y-123164047D01*
X188499719Y-123354523D01*
X188404481Y-123449761D01*
X188309243Y-123497380D01*
X188118767Y-123497380D01*
X189499719Y-123497380D02*
X188928291Y-123497380D01*
X189214005Y-123497380D02*
X189214005Y-122497380D01*
X189118767Y-122640238D01*
X189023529Y-122735476D01*
X188928291Y-122783095D01*
%TO.C,Q41*%
X112522184Y-52762619D02*
X112426946Y-52715000D01*
X112331708Y-52619761D01*
X112188851Y-52476904D01*
X112093613Y-52429285D01*
X111998375Y-52429285D01*
X112045994Y-52667380D02*
X111950756Y-52619761D01*
X111855518Y-52524523D01*
X111807899Y-52334047D01*
X111807899Y-52000714D01*
X111855518Y-51810238D01*
X111950756Y-51715000D01*
X112045994Y-51667380D01*
X112236470Y-51667380D01*
X112331708Y-51715000D01*
X112426946Y-51810238D01*
X112474565Y-52000714D01*
X112474565Y-52334047D01*
X112426946Y-52524523D01*
X112331708Y-52619761D01*
X112236470Y-52667380D01*
X112045994Y-52667380D01*
X113331708Y-52000714D02*
X113331708Y-52667380D01*
X113093613Y-51619761D02*
X112855518Y-52334047D01*
X113474565Y-52334047D01*
X114379327Y-52667380D02*
X113807899Y-52667380D01*
X114093613Y-52667380D02*
X114093613Y-51667380D01*
X113998375Y-51810238D01*
X113903137Y-51905476D01*
X113807899Y-51953095D01*
%TO.C,Q35*%
X112522184Y-78162619D02*
X112426946Y-78115000D01*
X112331708Y-78019761D01*
X112188851Y-77876904D01*
X112093613Y-77829285D01*
X111998375Y-77829285D01*
X112045994Y-78067380D02*
X111950756Y-78019761D01*
X111855518Y-77924523D01*
X111807899Y-77734047D01*
X111807899Y-77400714D01*
X111855518Y-77210238D01*
X111950756Y-77115000D01*
X112045994Y-77067380D01*
X112236470Y-77067380D01*
X112331708Y-77115000D01*
X112426946Y-77210238D01*
X112474565Y-77400714D01*
X112474565Y-77734047D01*
X112426946Y-77924523D01*
X112331708Y-78019761D01*
X112236470Y-78067380D01*
X112045994Y-78067380D01*
X112807899Y-77067380D02*
X113426946Y-77067380D01*
X113093613Y-77448333D01*
X113236470Y-77448333D01*
X113331708Y-77495952D01*
X113379327Y-77543571D01*
X113426946Y-77638809D01*
X113426946Y-77876904D01*
X113379327Y-77972142D01*
X113331708Y-78019761D01*
X113236470Y-78067380D01*
X112950756Y-78067380D01*
X112855518Y-78019761D01*
X112807899Y-77972142D01*
X114331708Y-77067380D02*
X113855518Y-77067380D01*
X113807899Y-77543571D01*
X113855518Y-77495952D01*
X113950756Y-77448333D01*
X114188851Y-77448333D01*
X114284089Y-77495952D01*
X114331708Y-77543571D01*
X114379327Y-77638809D01*
X114379327Y-77876904D01*
X114331708Y-77972142D01*
X114284089Y-78019761D01*
X114188851Y-78067380D01*
X113950756Y-78067380D01*
X113855518Y-78019761D01*
X113807899Y-77972142D01*
%TO.C,Q39*%
X127762184Y-60382619D02*
X127666946Y-60335000D01*
X127571708Y-60239761D01*
X127428851Y-60096904D01*
X127333613Y-60049285D01*
X127238375Y-60049285D01*
X127285994Y-60287380D02*
X127190756Y-60239761D01*
X127095518Y-60144523D01*
X127047899Y-59954047D01*
X127047899Y-59620714D01*
X127095518Y-59430238D01*
X127190756Y-59335000D01*
X127285994Y-59287380D01*
X127476470Y-59287380D01*
X127571708Y-59335000D01*
X127666946Y-59430238D01*
X127714565Y-59620714D01*
X127714565Y-59954047D01*
X127666946Y-60144523D01*
X127571708Y-60239761D01*
X127476470Y-60287380D01*
X127285994Y-60287380D01*
X128047899Y-59287380D02*
X128666946Y-59287380D01*
X128333613Y-59668333D01*
X128476470Y-59668333D01*
X128571708Y-59715952D01*
X128619327Y-59763571D01*
X128666946Y-59858809D01*
X128666946Y-60096904D01*
X128619327Y-60192142D01*
X128571708Y-60239761D01*
X128476470Y-60287380D01*
X128190756Y-60287380D01*
X128095518Y-60239761D01*
X128047899Y-60192142D01*
X129143137Y-60287380D02*
X129333613Y-60287380D01*
X129428851Y-60239761D01*
X129476470Y-60192142D01*
X129571708Y-60049285D01*
X129619327Y-59858809D01*
X129619327Y-59477857D01*
X129571708Y-59382619D01*
X129524089Y-59335000D01*
X129428851Y-59287380D01*
X129238375Y-59287380D01*
X129143137Y-59335000D01*
X129095518Y-59382619D01*
X129047899Y-59477857D01*
X129047899Y-59715952D01*
X129095518Y-59811190D01*
X129143137Y-59858809D01*
X129238375Y-59906428D01*
X129428851Y-59906428D01*
X129524089Y-59858809D01*
X129571708Y-59811190D01*
X129619327Y-59715952D01*
%TO.C,U1*%
X130897380Y-104066904D02*
X131706904Y-104066904D01*
X131802142Y-104019285D01*
X131849761Y-103971666D01*
X131897380Y-103876428D01*
X131897380Y-103685952D01*
X131849761Y-103590714D01*
X131802142Y-103543095D01*
X131706904Y-103495476D01*
X130897380Y-103495476D01*
X131897380Y-102495476D02*
X131897380Y-103066904D01*
X131897380Y-102781190D02*
X130897380Y-102781190D01*
X131040238Y-102876428D01*
X131135476Y-102971666D01*
X131183095Y-103066904D01*
%TO.C,Q42*%
X112522184Y-47682619D02*
X112426946Y-47635000D01*
X112331708Y-47539761D01*
X112188851Y-47396904D01*
X112093613Y-47349285D01*
X111998375Y-47349285D01*
X112045994Y-47587380D02*
X111950756Y-47539761D01*
X111855518Y-47444523D01*
X111807899Y-47254047D01*
X111807899Y-46920714D01*
X111855518Y-46730238D01*
X111950756Y-46635000D01*
X112045994Y-46587380D01*
X112236470Y-46587380D01*
X112331708Y-46635000D01*
X112426946Y-46730238D01*
X112474565Y-46920714D01*
X112474565Y-47254047D01*
X112426946Y-47444523D01*
X112331708Y-47539761D01*
X112236470Y-47587380D01*
X112045994Y-47587380D01*
X113331708Y-46920714D02*
X113331708Y-47587380D01*
X113093613Y-46539761D02*
X112855518Y-47254047D01*
X113474565Y-47254047D01*
X113807899Y-46682619D02*
X113855518Y-46635000D01*
X113950756Y-46587380D01*
X114188851Y-46587380D01*
X114284089Y-46635000D01*
X114331708Y-46682619D01*
X114379327Y-46777857D01*
X114379327Y-46873095D01*
X114331708Y-47015952D01*
X113760280Y-47587380D01*
X114379327Y-47587380D01*
%TO.C,L1*%
X156957733Y-128620780D02*
X156481542Y-128620780D01*
X156481542Y-127620780D01*
X157814876Y-128620780D02*
X157243447Y-128620780D01*
X157529161Y-128620780D02*
X157529161Y-127620780D01*
X157433923Y-127763638D01*
X157338685Y-127858876D01*
X157243447Y-127906495D01*
%TO.C,J9*%
X122896380Y-121491333D02*
X123610666Y-121491333D01*
X123753523Y-121538952D01*
X123848761Y-121634190D01*
X123896380Y-121777047D01*
X123896380Y-121872285D01*
X123896380Y-120967523D02*
X123896380Y-120777047D01*
X123848761Y-120681809D01*
X123801142Y-120634190D01*
X123658285Y-120538952D01*
X123467809Y-120491333D01*
X123086857Y-120491333D01*
X122991619Y-120538952D01*
X122944000Y-120586571D01*
X122896380Y-120681809D01*
X122896380Y-120872285D01*
X122944000Y-120967523D01*
X122991619Y-121015142D01*
X123086857Y-121062761D01*
X123324952Y-121062761D01*
X123420190Y-121015142D01*
X123467809Y-120967523D01*
X123515428Y-120872285D01*
X123515428Y-120681809D01*
X123467809Y-120586571D01*
X123420190Y-120538952D01*
X123324952Y-120491333D01*
%TO.C,C2*%
X169098933Y-118413542D02*
X169051314Y-118461161D01*
X168908457Y-118508780D01*
X168813219Y-118508780D01*
X168670361Y-118461161D01*
X168575123Y-118365923D01*
X168527504Y-118270685D01*
X168479885Y-118080209D01*
X168479885Y-117937352D01*
X168527504Y-117746876D01*
X168575123Y-117651638D01*
X168670361Y-117556400D01*
X168813219Y-117508780D01*
X168908457Y-117508780D01*
X169051314Y-117556400D01*
X169098933Y-117604019D01*
X169479885Y-117604019D02*
X169527504Y-117556400D01*
X169622742Y-117508780D01*
X169860838Y-117508780D01*
X169956076Y-117556400D01*
X170003695Y-117604019D01*
X170051314Y-117699257D01*
X170051314Y-117794495D01*
X170003695Y-117937352D01*
X169432266Y-118508780D01*
X170051314Y-118508780D01*
%TO.C,J2*%
X193152780Y-97869333D02*
X193867066Y-97869333D01*
X194009923Y-97916952D01*
X194105161Y-98012190D01*
X194152780Y-98155047D01*
X194152780Y-98250285D01*
X193248019Y-97440761D02*
X193200400Y-97393142D01*
X193152780Y-97297904D01*
X193152780Y-97059809D01*
X193200400Y-96964571D01*
X193248019Y-96916952D01*
X193343257Y-96869333D01*
X193438495Y-96869333D01*
X193581352Y-96916952D01*
X194152780Y-97488380D01*
X194152780Y-96869333D01*
%TO.C,D1*%
X179525704Y-128849380D02*
X179525704Y-127849380D01*
X179763800Y-127849380D01*
X179906657Y-127897000D01*
X180001895Y-127992238D01*
X180049514Y-128087476D01*
X180097133Y-128277952D01*
X180097133Y-128420809D01*
X180049514Y-128611285D01*
X180001895Y-128706523D01*
X179906657Y-128801761D01*
X179763800Y-128849380D01*
X179525704Y-128849380D01*
X181049514Y-128849380D02*
X180478085Y-128849380D01*
X180763800Y-128849380D02*
X180763800Y-127849380D01*
X180668561Y-127992238D01*
X180573323Y-128087476D01*
X180478085Y-128135095D01*
%TO.C,Q26*%
X127762184Y-116262619D02*
X127666946Y-116215000D01*
X127571708Y-116119761D01*
X127428851Y-115976904D01*
X127333613Y-115929285D01*
X127238375Y-115929285D01*
X127285994Y-116167380D02*
X127190756Y-116119761D01*
X127095518Y-116024523D01*
X127047899Y-115834047D01*
X127047899Y-115500714D01*
X127095518Y-115310238D01*
X127190756Y-115215000D01*
X127285994Y-115167380D01*
X127476470Y-115167380D01*
X127571708Y-115215000D01*
X127666946Y-115310238D01*
X127714565Y-115500714D01*
X127714565Y-115834047D01*
X127666946Y-116024523D01*
X127571708Y-116119761D01*
X127476470Y-116167380D01*
X127285994Y-116167380D01*
X128095518Y-115262619D02*
X128143137Y-115215000D01*
X128238375Y-115167380D01*
X128476470Y-115167380D01*
X128571708Y-115215000D01*
X128619327Y-115262619D01*
X128666946Y-115357857D01*
X128666946Y-115453095D01*
X128619327Y-115595952D01*
X128047899Y-116167380D01*
X128666946Y-116167380D01*
X129524089Y-115167380D02*
X129333613Y-115167380D01*
X129238375Y-115215000D01*
X129190756Y-115262619D01*
X129095518Y-115405476D01*
X129047899Y-115595952D01*
X129047899Y-115976904D01*
X129095518Y-116072142D01*
X129143137Y-116119761D01*
X129238375Y-116167380D01*
X129428851Y-116167380D01*
X129524089Y-116119761D01*
X129571708Y-116072142D01*
X129619327Y-115976904D01*
X129619327Y-115738809D01*
X129571708Y-115643571D01*
X129524089Y-115595952D01*
X129428851Y-115548333D01*
X129238375Y-115548333D01*
X129143137Y-115595952D01*
X129095518Y-115643571D01*
X129047899Y-115738809D01*
%TO.C,Q17*%
X173354957Y-65172619D02*
X173259719Y-65125000D01*
X173164481Y-65029761D01*
X173021624Y-64886904D01*
X172926386Y-64839285D01*
X172831148Y-64839285D01*
X172878767Y-65077380D02*
X172783529Y-65029761D01*
X172688291Y-64934523D01*
X172640672Y-64744047D01*
X172640672Y-64410714D01*
X172688291Y-64220238D01*
X172783529Y-64125000D01*
X172878767Y-64077380D01*
X173069243Y-64077380D01*
X173164481Y-64125000D01*
X173259719Y-64220238D01*
X173307338Y-64410714D01*
X173307338Y-64744047D01*
X173259719Y-64934523D01*
X173164481Y-65029761D01*
X173069243Y-65077380D01*
X172878767Y-65077380D01*
X174259719Y-65077380D02*
X173688291Y-65077380D01*
X173974005Y-65077380D02*
X173974005Y-64077380D01*
X173878767Y-64220238D01*
X173783529Y-64315476D01*
X173688291Y-64363095D01*
X174593053Y-64077380D02*
X175259719Y-64077380D01*
X174831148Y-65077380D01*
D13*
%TO.C,J15*%
X128738255Y-127809710D02*
X129452705Y-127809710D01*
X129595595Y-127857340D01*
X129690855Y-127952600D01*
X129738485Y-128095490D01*
X129738485Y-128190750D01*
X129738485Y-126809480D02*
X129738485Y-127381040D01*
X129738485Y-127095260D02*
X128738255Y-127095260D01*
X128881145Y-127190520D01*
X128976405Y-127285780D01*
X129024035Y-127381040D01*
X128738255Y-125904510D02*
X128738255Y-126380810D01*
X129214555Y-126428440D01*
X129166925Y-126380810D01*
X129119295Y-126285550D01*
X129119295Y-126047400D01*
X129166925Y-125952140D01*
X129214555Y-125904510D01*
X129309815Y-125856880D01*
X129547965Y-125856880D01*
X129643225Y-125904510D01*
X129690855Y-125952140D01*
X129738485Y-126047400D01*
X129738485Y-126285550D01*
X129690855Y-126380810D01*
X129643225Y-126428440D01*
X126437208Y-135729523D02*
X125435378Y-135729523D01*
X125435378Y-135347874D01*
X125483085Y-135252461D01*
X125530791Y-135204755D01*
X125626203Y-135157049D01*
X125769322Y-135157049D01*
X125864734Y-135204755D01*
X125912440Y-135252461D01*
X125960146Y-135347874D01*
X125960146Y-135729523D01*
X125435378Y-134441456D02*
X126150971Y-134441456D01*
X126294090Y-134489162D01*
X126389502Y-134584575D01*
X126437208Y-134727693D01*
X126437208Y-134823105D01*
X126055559Y-133964394D02*
X126055559Y-133201095D01*
X125435378Y-132533208D02*
X125435378Y-132437796D01*
X125483085Y-132342384D01*
X125530791Y-132294677D01*
X125626203Y-132246971D01*
X125817028Y-132199265D01*
X126055559Y-132199265D01*
X126246384Y-132246971D01*
X126341796Y-132294677D01*
X126389502Y-132342384D01*
X126437208Y-132437796D01*
X126437208Y-132533208D01*
X126389502Y-132628621D01*
X126341796Y-132676327D01*
X126246384Y-132724033D01*
X126055559Y-132771739D01*
X125817028Y-132771739D01*
X125626203Y-132724033D01*
X125530791Y-132676327D01*
X125483085Y-132628621D01*
X125435378Y-132533208D01*
X125435378Y-131340554D02*
X125435378Y-131531378D01*
X125483085Y-131626791D01*
X125530791Y-131674497D01*
X125673909Y-131769909D01*
X125864734Y-131817615D01*
X126246384Y-131817615D01*
X126341796Y-131769909D01*
X126389502Y-131722203D01*
X126437208Y-131626791D01*
X126437208Y-131435966D01*
X126389502Y-131340554D01*
X126341796Y-131292847D01*
X126246384Y-131245141D01*
X126007853Y-131245141D01*
X125912440Y-131292847D01*
X125864734Y-131340554D01*
X125817028Y-131435966D01*
X125817028Y-131626791D01*
X125864734Y-131722203D01*
X125912440Y-131769909D01*
X126007853Y-131817615D01*
X125435378Y-130911198D02*
X125435378Y-130291017D01*
X125817028Y-130624961D01*
X125817028Y-130481842D01*
X125864734Y-130386430D01*
X125912440Y-130338724D01*
X126007853Y-130291017D01*
X126246384Y-130291017D01*
X126341796Y-130338724D01*
X126389502Y-130386430D01*
X126437208Y-130481842D01*
X126437208Y-130768079D01*
X126389502Y-130863492D01*
X126341796Y-130911198D01*
X126150971Y-129909368D02*
X126150971Y-129432306D01*
X126437208Y-130004780D02*
X125435378Y-129670837D01*
X126437208Y-129336894D01*
X126437208Y-129002950D02*
X125435378Y-129002950D01*
X125912440Y-129002950D02*
X125912440Y-128430476D01*
X126437208Y-128430476D02*
X125435378Y-128430476D01*
D12*
%TO.C,J5*%
X193508380Y-72215333D02*
X194222666Y-72215333D01*
X194365523Y-72262952D01*
X194460761Y-72358190D01*
X194508380Y-72501047D01*
X194508380Y-72596285D01*
X193508380Y-71262952D02*
X193508380Y-71739142D01*
X193984571Y-71786761D01*
X193936952Y-71739142D01*
X193889333Y-71643904D01*
X193889333Y-71405809D01*
X193936952Y-71310571D01*
X193984571Y-71262952D01*
X194079809Y-71215333D01*
X194317904Y-71215333D01*
X194413142Y-71262952D01*
X194460761Y-71310571D01*
X194508380Y-71405809D01*
X194508380Y-71643904D01*
X194460761Y-71739142D01*
X194413142Y-71786761D01*
%TO.C,H1*%
X178730580Y-103657304D02*
X177730580Y-103657304D01*
X178206771Y-103657304D02*
X178206771Y-103085876D01*
X178730580Y-103085876D02*
X177730580Y-103085876D01*
X178730580Y-102085876D02*
X178730580Y-102657304D01*
X178730580Y-102371590D02*
X177730580Y-102371590D01*
X177873438Y-102466828D01*
X177968676Y-102562066D01*
X178016295Y-102657304D01*
D14*
%TO.C,RV100k1*%
X130089123Y-50404485D02*
X129484361Y-50827819D01*
X130089123Y-51130200D02*
X128819123Y-51130200D01*
X128819123Y-50646390D01*
X128879600Y-50525438D01*
X128940076Y-50464961D01*
X129061028Y-50404485D01*
X129242457Y-50404485D01*
X129363409Y-50464961D01*
X129423885Y-50525438D01*
X129484361Y-50646390D01*
X129484361Y-51130200D01*
X128819123Y-50041628D02*
X130089123Y-49618295D01*
X128819123Y-49194961D01*
X130089123Y-48106390D02*
X130089123Y-48832104D01*
X130089123Y-48469247D02*
X128819123Y-48469247D01*
X129000552Y-48590200D01*
X129121504Y-48711152D01*
X129181980Y-48832104D01*
X128819123Y-47320200D02*
X128819123Y-47199247D01*
X128879600Y-47078295D01*
X128940076Y-47017819D01*
X129061028Y-46957342D01*
X129302933Y-46896866D01*
X129605314Y-46896866D01*
X129847219Y-46957342D01*
X129968171Y-47017819D01*
X130028647Y-47078295D01*
X130089123Y-47199247D01*
X130089123Y-47320200D01*
X130028647Y-47441152D01*
X129968171Y-47501628D01*
X129847219Y-47562104D01*
X129605314Y-47622580D01*
X129302933Y-47622580D01*
X129061028Y-47562104D01*
X128940076Y-47501628D01*
X128879600Y-47441152D01*
X128819123Y-47320200D01*
X128819123Y-46110676D02*
X128819123Y-45989723D01*
X128879600Y-45868771D01*
X128940076Y-45808295D01*
X129061028Y-45747819D01*
X129302933Y-45687342D01*
X129605314Y-45687342D01*
X129847219Y-45747819D01*
X129968171Y-45808295D01*
X130028647Y-45868771D01*
X130089123Y-45989723D01*
X130089123Y-46110676D01*
X130028647Y-46231628D01*
X129968171Y-46292104D01*
X129847219Y-46352580D01*
X129605314Y-46413057D01*
X129302933Y-46413057D01*
X129061028Y-46352580D01*
X128940076Y-46292104D01*
X128879600Y-46231628D01*
X128819123Y-46110676D01*
X130089123Y-45143057D02*
X128819123Y-45143057D01*
X129605314Y-45022104D02*
X130089123Y-44659247D01*
X129242457Y-44659247D02*
X129726266Y-45143057D01*
X130089123Y-43449723D02*
X130089123Y-44175438D01*
X130089123Y-43812580D02*
X128819123Y-43812580D01*
X129000552Y-43933533D01*
X129121504Y-44054485D01*
X129181980Y-44175438D01*
D12*
%TO.C,J14*%
X107402380Y-58467523D02*
X108116666Y-58467523D01*
X108259523Y-58515142D01*
X108354761Y-58610380D01*
X108402380Y-58753238D01*
X108402380Y-58848476D01*
X108402380Y-57467523D02*
X108402380Y-58038952D01*
X108402380Y-57753238D02*
X107402380Y-57753238D01*
X107545238Y-57848476D01*
X107640476Y-57943714D01*
X107688095Y-58038952D01*
X107735714Y-56610380D02*
X108402380Y-56610380D01*
X107354761Y-56848476D02*
X108069047Y-57086571D01*
X108069047Y-56467523D01*
%TO.C,J10*%
X107910380Y-109267523D02*
X108624666Y-109267523D01*
X108767523Y-109315142D01*
X108862761Y-109410380D01*
X108910380Y-109553238D01*
X108910380Y-109648476D01*
X108910380Y-108267523D02*
X108910380Y-108838952D01*
X108910380Y-108553238D02*
X107910380Y-108553238D01*
X108053238Y-108648476D01*
X108148476Y-108743714D01*
X108196095Y-108838952D01*
X107910380Y-107648476D02*
X107910380Y-107553238D01*
X107958000Y-107458000D01*
X108005619Y-107410380D01*
X108100857Y-107362761D01*
X108291333Y-107315142D01*
X108529428Y-107315142D01*
X108719904Y-107362761D01*
X108815142Y-107410380D01*
X108862761Y-107458000D01*
X108910380Y-107553238D01*
X108910380Y-107648476D01*
X108862761Y-107743714D01*
X108815142Y-107791333D01*
X108719904Y-107838952D01*
X108529428Y-107886571D01*
X108291333Y-107886571D01*
X108100857Y-107838952D01*
X108005619Y-107791333D01*
X107958000Y-107743714D01*
X107910380Y-107648476D01*
%TO.C,U2*%
X181748180Y-135102504D02*
X182557704Y-135102504D01*
X182652942Y-135054885D01*
X182700561Y-135007266D01*
X182748180Y-134912028D01*
X182748180Y-134721552D01*
X182700561Y-134626314D01*
X182652942Y-134578695D01*
X182557704Y-134531076D01*
X181748180Y-134531076D01*
X181843419Y-134102504D02*
X181795800Y-134054885D01*
X181748180Y-133959647D01*
X181748180Y-133721552D01*
X181795800Y-133626314D01*
X181843419Y-133578695D01*
X181938657Y-133531076D01*
X182033895Y-133531076D01*
X182176752Y-133578695D01*
X182748180Y-134150123D01*
X182748180Y-133531076D01*
X171461657Y-137815580D02*
X170985466Y-137815580D01*
X170985466Y-136815580D01*
X171794990Y-137815580D02*
X171794990Y-136815580D01*
X172128323Y-137529866D01*
X172461657Y-136815580D01*
X172461657Y-137815580D01*
X172890228Y-136910819D02*
X172937847Y-136863200D01*
X173033085Y-136815580D01*
X173271180Y-136815580D01*
X173366419Y-136863200D01*
X173414038Y-136910819D01*
X173461657Y-137006057D01*
X173461657Y-137101295D01*
X173414038Y-137244152D01*
X172842609Y-137815580D01*
X173461657Y-137815580D01*
X174366419Y-136815580D02*
X173890228Y-136815580D01*
X173842609Y-137291771D01*
X173890228Y-137244152D01*
X173985466Y-137196533D01*
X174223561Y-137196533D01*
X174318800Y-137244152D01*
X174366419Y-137291771D01*
X174414038Y-137387009D01*
X174414038Y-137625104D01*
X174366419Y-137720342D01*
X174318800Y-137767961D01*
X174223561Y-137815580D01*
X173985466Y-137815580D01*
X173890228Y-137767961D01*
X173842609Y-137720342D01*
X174747371Y-136815580D02*
X175414038Y-136815580D01*
X174985466Y-137815580D01*
X176271180Y-136815580D02*
X175794990Y-136815580D01*
X175747371Y-137291771D01*
X175794990Y-137244152D01*
X175890228Y-137196533D01*
X176128323Y-137196533D01*
X176223561Y-137244152D01*
X176271180Y-137291771D01*
X176318800Y-137387009D01*
X176318800Y-137625104D01*
X176271180Y-137720342D01*
X176223561Y-137767961D01*
X176128323Y-137815580D01*
X175890228Y-137815580D01*
X175794990Y-137767961D01*
X175747371Y-137720342D01*
X176604514Y-136815580D02*
X177175942Y-136815580D01*
X176890228Y-137815580D02*
X176890228Y-136815580D01*
X177509276Y-137434628D02*
X178271180Y-137434628D01*
X179223561Y-136815580D02*
X178747371Y-136815580D01*
X178699752Y-137291771D01*
X178747371Y-137244152D01*
X178842609Y-137196533D01*
X179080704Y-137196533D01*
X179175942Y-137244152D01*
X179223561Y-137291771D01*
X179271180Y-137387009D01*
X179271180Y-137625104D01*
X179223561Y-137720342D01*
X179175942Y-137767961D01*
X179080704Y-137815580D01*
X178842609Y-137815580D01*
X178747371Y-137767961D01*
X178699752Y-137720342D01*
X179699752Y-137720342D02*
X179747371Y-137767961D01*
X179699752Y-137815580D01*
X179652133Y-137767961D01*
X179699752Y-137720342D01*
X179699752Y-137815580D01*
X180366419Y-136815580D02*
X180461657Y-136815580D01*
X180556895Y-136863200D01*
X180604514Y-136910819D01*
X180652133Y-137006057D01*
X180699752Y-137196533D01*
X180699752Y-137434628D01*
X180652133Y-137625104D01*
X180604514Y-137720342D01*
X180556895Y-137767961D01*
X180461657Y-137815580D01*
X180366419Y-137815580D01*
X180271180Y-137767961D01*
X180223561Y-137720342D01*
X180175942Y-137625104D01*
X180128323Y-137434628D01*
X180128323Y-137196533D01*
X180175942Y-137006057D01*
X180223561Y-136910819D01*
X180271180Y-136863200D01*
X180366419Y-136815580D01*
%TO.C,J7*%
X193000380Y-46561333D02*
X193714666Y-46561333D01*
X193857523Y-46608952D01*
X193952761Y-46704190D01*
X194000380Y-46847047D01*
X194000380Y-46942285D01*
X193000380Y-46180380D02*
X193000380Y-45513714D01*
X194000380Y-45942285D01*
%TO.C,Q16*%
X172452261Y-59983619D02*
X172357023Y-59936000D01*
X172261785Y-59840761D01*
X172118928Y-59697904D01*
X172023690Y-59650285D01*
X171928452Y-59650285D01*
X171976071Y-59888380D02*
X171880833Y-59840761D01*
X171785595Y-59745523D01*
X171737976Y-59555047D01*
X171737976Y-59221714D01*
X171785595Y-59031238D01*
X171880833Y-58936000D01*
X171976071Y-58888380D01*
X172166547Y-58888380D01*
X172261785Y-58936000D01*
X172357023Y-59031238D01*
X172404642Y-59221714D01*
X172404642Y-59555047D01*
X172357023Y-59745523D01*
X172261785Y-59840761D01*
X172166547Y-59888380D01*
X171976071Y-59888380D01*
X173357023Y-59888380D02*
X172785595Y-59888380D01*
X173071309Y-59888380D02*
X173071309Y-58888380D01*
X172976071Y-59031238D01*
X172880833Y-59126476D01*
X172785595Y-59174095D01*
X174214166Y-58888380D02*
X174023690Y-58888380D01*
X173928452Y-58936000D01*
X173880833Y-58983619D01*
X173785595Y-59126476D01*
X173737976Y-59316952D01*
X173737976Y-59697904D01*
X173785595Y-59793142D01*
X173833214Y-59840761D01*
X173928452Y-59888380D01*
X174118928Y-59888380D01*
X174214166Y-59840761D01*
X174261785Y-59793142D01*
X174309404Y-59697904D01*
X174309404Y-59459809D01*
X174261785Y-59364571D01*
X174214166Y-59316952D01*
X174118928Y-59269333D01*
X173928452Y-59269333D01*
X173833214Y-59316952D01*
X173785595Y-59364571D01*
X173737976Y-59459809D01*
%TO.C,C1*%
X156117033Y-134875542D02*
X156069414Y-134923161D01*
X155926557Y-134970780D01*
X155831319Y-134970780D01*
X155688461Y-134923161D01*
X155593223Y-134827923D01*
X155545604Y-134732685D01*
X155497985Y-134542209D01*
X155497985Y-134399352D01*
X155545604Y-134208876D01*
X155593223Y-134113638D01*
X155688461Y-134018400D01*
X155831319Y-133970780D01*
X155926557Y-133970780D01*
X156069414Y-134018400D01*
X156117033Y-134066019D01*
X157069414Y-134970780D02*
X156497985Y-134970780D01*
X156783700Y-134970780D02*
X156783700Y-133970780D01*
X156688461Y-134113638D01*
X156593223Y-134208876D01*
X156497985Y-134256495D01*
%TO.C,J8*%
X107656380Y-133937333D02*
X108370666Y-133937333D01*
X108513523Y-133984952D01*
X108608761Y-134080190D01*
X108656380Y-134223047D01*
X108656380Y-134318285D01*
X108084952Y-133318285D02*
X108037333Y-133413523D01*
X107989714Y-133461142D01*
X107894476Y-133508761D01*
X107846857Y-133508761D01*
X107751619Y-133461142D01*
X107704000Y-133413523D01*
X107656380Y-133318285D01*
X107656380Y-133127809D01*
X107704000Y-133032571D01*
X107751619Y-132984952D01*
X107846857Y-132937333D01*
X107894476Y-132937333D01*
X107989714Y-132984952D01*
X108037333Y-133032571D01*
X108084952Y-133127809D01*
X108084952Y-133318285D01*
X108132571Y-133413523D01*
X108180190Y-133461142D01*
X108275428Y-133508761D01*
X108465904Y-133508761D01*
X108561142Y-133461142D01*
X108608761Y-133413523D01*
X108656380Y-133318285D01*
X108656380Y-133127809D01*
X108608761Y-133032571D01*
X108561142Y-132984952D01*
X108465904Y-132937333D01*
X108275428Y-132937333D01*
X108180190Y-132984952D01*
X108132571Y-133032571D01*
X108084952Y-133127809D01*
%TO.C,J6*%
X178268380Y-59769333D02*
X178982666Y-59769333D01*
X179125523Y-59816952D01*
X179220761Y-59912190D01*
X179268380Y-60055047D01*
X179268380Y-60150285D01*
X178268380Y-58864571D02*
X178268380Y-59055047D01*
X178316000Y-59150285D01*
X178363619Y-59197904D01*
X178506476Y-59293142D01*
X178696952Y-59340761D01*
X179077904Y-59340761D01*
X179173142Y-59293142D01*
X179220761Y-59245523D01*
X179268380Y-59150285D01*
X179268380Y-58959809D01*
X179220761Y-58864571D01*
X179173142Y-58816952D01*
X179077904Y-58769333D01*
X178839809Y-58769333D01*
X178744571Y-58816952D01*
X178696952Y-58864571D01*
X178649333Y-58959809D01*
X178649333Y-59150285D01*
X178696952Y-59245523D01*
X178744571Y-59293142D01*
X178839809Y-59340761D01*
%TO.C,Q4*%
X188594957Y-98192619D02*
X188499719Y-98145000D01*
X188404481Y-98049761D01*
X188261624Y-97906904D01*
X188166386Y-97859285D01*
X188071148Y-97859285D01*
X188118767Y-98097380D02*
X188023529Y-98049761D01*
X187928291Y-97954523D01*
X187880672Y-97764047D01*
X187880672Y-97430714D01*
X187928291Y-97240238D01*
X188023529Y-97145000D01*
X188118767Y-97097380D01*
X188309243Y-97097380D01*
X188404481Y-97145000D01*
X188499719Y-97240238D01*
X188547338Y-97430714D01*
X188547338Y-97764047D01*
X188499719Y-97954523D01*
X188404481Y-98049761D01*
X188309243Y-98097380D01*
X188118767Y-98097380D01*
X189404481Y-97430714D02*
X189404481Y-98097380D01*
X189166386Y-97049761D02*
X188928291Y-97764047D01*
X189547338Y-97764047D01*
%TO.C,Q40*%
X113932880Y-57951619D02*
X113837642Y-57904000D01*
X113742404Y-57808761D01*
X113599547Y-57665904D01*
X113504309Y-57618285D01*
X113409071Y-57618285D01*
X113456690Y-57856380D02*
X113361452Y-57808761D01*
X113266214Y-57713523D01*
X113218595Y-57523047D01*
X113218595Y-57189714D01*
X113266214Y-56999238D01*
X113361452Y-56904000D01*
X113456690Y-56856380D01*
X113647166Y-56856380D01*
X113742404Y-56904000D01*
X113837642Y-56999238D01*
X113885261Y-57189714D01*
X113885261Y-57523047D01*
X113837642Y-57713523D01*
X113742404Y-57808761D01*
X113647166Y-57856380D01*
X113456690Y-57856380D01*
X114742404Y-57189714D02*
X114742404Y-57856380D01*
X114504309Y-56808761D02*
X114266214Y-57523047D01*
X114885261Y-57523047D01*
X115456690Y-56856380D02*
X115551928Y-56856380D01*
X115647166Y-56904000D01*
X115694785Y-56951619D01*
X115742404Y-57046857D01*
X115790023Y-57237333D01*
X115790023Y-57475428D01*
X115742404Y-57665904D01*
X115694785Y-57761142D01*
X115647166Y-57808761D01*
X115551928Y-57856380D01*
X115456690Y-57856380D01*
X115361452Y-57808761D01*
X115313833Y-57761142D01*
X115266214Y-57665904D01*
X115218595Y-57475428D01*
X115218595Y-57237333D01*
X115266214Y-57046857D01*
X115313833Y-56951619D01*
X115361452Y-56904000D01*
X115456690Y-56856380D01*
%TO.C,Q34*%
X113424880Y-83242619D02*
X113329642Y-83195000D01*
X113234404Y-83099761D01*
X113091547Y-82956904D01*
X112996309Y-82909285D01*
X112901071Y-82909285D01*
X112948690Y-83147380D02*
X112853452Y-83099761D01*
X112758214Y-83004523D01*
X112710595Y-82814047D01*
X112710595Y-82480714D01*
X112758214Y-82290238D01*
X112853452Y-82195000D01*
X112948690Y-82147380D01*
X113139166Y-82147380D01*
X113234404Y-82195000D01*
X113329642Y-82290238D01*
X113377261Y-82480714D01*
X113377261Y-82814047D01*
X113329642Y-83004523D01*
X113234404Y-83099761D01*
X113139166Y-83147380D01*
X112948690Y-83147380D01*
X113710595Y-82147380D02*
X114329642Y-82147380D01*
X113996309Y-82528333D01*
X114139166Y-82528333D01*
X114234404Y-82575952D01*
X114282023Y-82623571D01*
X114329642Y-82718809D01*
X114329642Y-82956904D01*
X114282023Y-83052142D01*
X114234404Y-83099761D01*
X114139166Y-83147380D01*
X113853452Y-83147380D01*
X113758214Y-83099761D01*
X113710595Y-83052142D01*
X115186785Y-82480714D02*
X115186785Y-83147380D01*
X114948690Y-82099761D02*
X114710595Y-82814047D01*
X115329642Y-82814047D01*
%TO.C,Q22*%
X113932880Y-133897619D02*
X113837642Y-133850000D01*
X113742404Y-133754761D01*
X113599547Y-133611904D01*
X113504309Y-133564285D01*
X113409071Y-133564285D01*
X113456690Y-133802380D02*
X113361452Y-133754761D01*
X113266214Y-133659523D01*
X113218595Y-133469047D01*
X113218595Y-133135714D01*
X113266214Y-132945238D01*
X113361452Y-132850000D01*
X113456690Y-132802380D01*
X113647166Y-132802380D01*
X113742404Y-132850000D01*
X113837642Y-132945238D01*
X113885261Y-133135714D01*
X113885261Y-133469047D01*
X113837642Y-133659523D01*
X113742404Y-133754761D01*
X113647166Y-133802380D01*
X113456690Y-133802380D01*
X114266214Y-132897619D02*
X114313833Y-132850000D01*
X114409071Y-132802380D01*
X114647166Y-132802380D01*
X114742404Y-132850000D01*
X114790023Y-132897619D01*
X114837642Y-132992857D01*
X114837642Y-133088095D01*
X114790023Y-133230952D01*
X114218595Y-133802380D01*
X114837642Y-133802380D01*
X115218595Y-132897619D02*
X115266214Y-132850000D01*
X115361452Y-132802380D01*
X115599547Y-132802380D01*
X115694785Y-132850000D01*
X115742404Y-132897619D01*
X115790023Y-132992857D01*
X115790023Y-133088095D01*
X115742404Y-133230952D01*
X115170976Y-133802380D01*
X115790023Y-133802380D01*
%TO.C,Q31*%
X128664880Y-95942619D02*
X128569642Y-95895000D01*
X128474404Y-95799761D01*
X128331547Y-95656904D01*
X128236309Y-95609285D01*
X128141071Y-95609285D01*
X128188690Y-95847380D02*
X128093452Y-95799761D01*
X127998214Y-95704523D01*
X127950595Y-95514047D01*
X127950595Y-95180714D01*
X127998214Y-94990238D01*
X128093452Y-94895000D01*
X128188690Y-94847380D01*
X128379166Y-94847380D01*
X128474404Y-94895000D01*
X128569642Y-94990238D01*
X128617261Y-95180714D01*
X128617261Y-95514047D01*
X128569642Y-95704523D01*
X128474404Y-95799761D01*
X128379166Y-95847380D01*
X128188690Y-95847380D01*
X128950595Y-94847380D02*
X129569642Y-94847380D01*
X129236309Y-95228333D01*
X129379166Y-95228333D01*
X129474404Y-95275952D01*
X129522023Y-95323571D01*
X129569642Y-95418809D01*
X129569642Y-95656904D01*
X129522023Y-95752142D01*
X129474404Y-95799761D01*
X129379166Y-95847380D01*
X129093452Y-95847380D01*
X128998214Y-95799761D01*
X128950595Y-95752142D01*
X130522023Y-95847380D02*
X129950595Y-95847380D01*
X130236309Y-95847380D02*
X130236309Y-94847380D01*
X130141071Y-94990238D01*
X130045833Y-95085476D01*
X129950595Y-95133095D01*
%TO.C,Q25*%
X129172880Y-121342619D02*
X129077642Y-121295000D01*
X128982404Y-121199761D01*
X128839547Y-121056904D01*
X128744309Y-121009285D01*
X128649071Y-121009285D01*
X128696690Y-121247380D02*
X128601452Y-121199761D01*
X128506214Y-121104523D01*
X128458595Y-120914047D01*
X128458595Y-120580714D01*
X128506214Y-120390238D01*
X128601452Y-120295000D01*
X128696690Y-120247380D01*
X128887166Y-120247380D01*
X128982404Y-120295000D01*
X129077642Y-120390238D01*
X129125261Y-120580714D01*
X129125261Y-120914047D01*
X129077642Y-121104523D01*
X128982404Y-121199761D01*
X128887166Y-121247380D01*
X128696690Y-121247380D01*
X129506214Y-120342619D02*
X129553833Y-120295000D01*
X129649071Y-120247380D01*
X129887166Y-120247380D01*
X129982404Y-120295000D01*
X130030023Y-120342619D01*
X130077642Y-120437857D01*
X130077642Y-120533095D01*
X130030023Y-120675952D01*
X129458595Y-121247380D01*
X130077642Y-121247380D01*
X130982404Y-120247380D02*
X130506214Y-120247380D01*
X130458595Y-120723571D01*
X130506214Y-120675952D01*
X130601452Y-120628333D01*
X130839547Y-120628333D01*
X130934785Y-120675952D01*
X130982404Y-120723571D01*
X131030023Y-120818809D01*
X131030023Y-121056904D01*
X130982404Y-121152142D01*
X130934785Y-121199761D01*
X130839547Y-121247380D01*
X130601452Y-121247380D01*
X130506214Y-121199761D01*
X130458595Y-121152142D01*
%TO.C,Q38*%
X127762184Y-65462619D02*
X127666946Y-65415000D01*
X127571708Y-65319761D01*
X127428851Y-65176904D01*
X127333613Y-65129285D01*
X127238375Y-65129285D01*
X127285994Y-65367380D02*
X127190756Y-65319761D01*
X127095518Y-65224523D01*
X127047899Y-65034047D01*
X127047899Y-64700714D01*
X127095518Y-64510238D01*
X127190756Y-64415000D01*
X127285994Y-64367380D01*
X127476470Y-64367380D01*
X127571708Y-64415000D01*
X127666946Y-64510238D01*
X127714565Y-64700714D01*
X127714565Y-65034047D01*
X127666946Y-65224523D01*
X127571708Y-65319761D01*
X127476470Y-65367380D01*
X127285994Y-65367380D01*
X128047899Y-64367380D02*
X128666946Y-64367380D01*
X128333613Y-64748333D01*
X128476470Y-64748333D01*
X128571708Y-64795952D01*
X128619327Y-64843571D01*
X128666946Y-64938809D01*
X128666946Y-65176904D01*
X128619327Y-65272142D01*
X128571708Y-65319761D01*
X128476470Y-65367380D01*
X128190756Y-65367380D01*
X128095518Y-65319761D01*
X128047899Y-65272142D01*
X129238375Y-64795952D02*
X129143137Y-64748333D01*
X129095518Y-64700714D01*
X129047899Y-64605476D01*
X129047899Y-64557857D01*
X129095518Y-64462619D01*
X129143137Y-64415000D01*
X129238375Y-64367380D01*
X129428851Y-64367380D01*
X129524089Y-64415000D01*
X129571708Y-64462619D01*
X129619327Y-64557857D01*
X129619327Y-64605476D01*
X129571708Y-64700714D01*
X129524089Y-64748333D01*
X129428851Y-64795952D01*
X129238375Y-64795952D01*
X129143137Y-64843571D01*
X129095518Y-64891190D01*
X129047899Y-64986428D01*
X129047899Y-65176904D01*
X129095518Y-65272142D01*
X129143137Y-65319761D01*
X129238375Y-65367380D01*
X129428851Y-65367380D01*
X129524089Y-65319761D01*
X129571708Y-65272142D01*
X129619327Y-65176904D01*
X129619327Y-64986428D01*
X129571708Y-64891190D01*
X129524089Y-64843571D01*
X129428851Y-64795952D01*
%TO.C,Q37*%
X128664880Y-70397619D02*
X128569642Y-70350000D01*
X128474404Y-70254761D01*
X128331547Y-70111904D01*
X128236309Y-70064285D01*
X128141071Y-70064285D01*
X128188690Y-70302380D02*
X128093452Y-70254761D01*
X127998214Y-70159523D01*
X127950595Y-69969047D01*
X127950595Y-69635714D01*
X127998214Y-69445238D01*
X128093452Y-69350000D01*
X128188690Y-69302380D01*
X128379166Y-69302380D01*
X128474404Y-69350000D01*
X128569642Y-69445238D01*
X128617261Y-69635714D01*
X128617261Y-69969047D01*
X128569642Y-70159523D01*
X128474404Y-70254761D01*
X128379166Y-70302380D01*
X128188690Y-70302380D01*
X128950595Y-69302380D02*
X129569642Y-69302380D01*
X129236309Y-69683333D01*
X129379166Y-69683333D01*
X129474404Y-69730952D01*
X129522023Y-69778571D01*
X129569642Y-69873809D01*
X129569642Y-70111904D01*
X129522023Y-70207142D01*
X129474404Y-70254761D01*
X129379166Y-70302380D01*
X129093452Y-70302380D01*
X128998214Y-70254761D01*
X128950595Y-70207142D01*
X129902976Y-69302380D02*
X130569642Y-69302380D01*
X130141071Y-70302380D01*
%TO.C,Q15*%
X188594957Y-82952619D02*
X188499719Y-82905000D01*
X188404481Y-82809761D01*
X188261624Y-82666904D01*
X188166386Y-82619285D01*
X188071148Y-82619285D01*
X188118767Y-82857380D02*
X188023529Y-82809761D01*
X187928291Y-82714523D01*
X187880672Y-82524047D01*
X187880672Y-82190714D01*
X187928291Y-82000238D01*
X188023529Y-81905000D01*
X188118767Y-81857380D01*
X188309243Y-81857380D01*
X188404481Y-81905000D01*
X188499719Y-82000238D01*
X188547338Y-82190714D01*
X188547338Y-82524047D01*
X188499719Y-82714523D01*
X188404481Y-82809761D01*
X188309243Y-82857380D01*
X188118767Y-82857380D01*
X189499719Y-82857380D02*
X188928291Y-82857380D01*
X189214005Y-82857380D02*
X189214005Y-81857380D01*
X189118767Y-82000238D01*
X189023529Y-82095476D01*
X188928291Y-82143095D01*
X190404481Y-81857380D02*
X189928291Y-81857380D01*
X189880672Y-82333571D01*
X189928291Y-82285952D01*
X190023529Y-82238333D01*
X190261624Y-82238333D01*
X190356862Y-82285952D01*
X190404481Y-82333571D01*
X190452100Y-82428809D01*
X190452100Y-82666904D01*
X190404481Y-82762142D01*
X190356862Y-82809761D01*
X190261624Y-82857380D01*
X190023529Y-82857380D01*
X189928291Y-82809761D01*
X189880672Y-82762142D01*
%TO.C,J3*%
X178268380Y-110569333D02*
X178982666Y-110569333D01*
X179125523Y-110616952D01*
X179220761Y-110712190D01*
X179268380Y-110855047D01*
X179268380Y-110950285D01*
X178268380Y-110188380D02*
X178268380Y-109569333D01*
X178649333Y-109902666D01*
X178649333Y-109759809D01*
X178696952Y-109664571D01*
X178744571Y-109616952D01*
X178839809Y-109569333D01*
X179077904Y-109569333D01*
X179173142Y-109616952D01*
X179220761Y-109664571D01*
X179268380Y-109759809D01*
X179268380Y-110045523D01*
X179220761Y-110140761D01*
X179173142Y-110188380D01*
%TO.C,Q7*%
X173354957Y-110892619D02*
X173259719Y-110845000D01*
X173164481Y-110749761D01*
X173021624Y-110606904D01*
X172926386Y-110559285D01*
X172831148Y-110559285D01*
X172878767Y-110797380D02*
X172783529Y-110749761D01*
X172688291Y-110654523D01*
X172640672Y-110464047D01*
X172640672Y-110130714D01*
X172688291Y-109940238D01*
X172783529Y-109845000D01*
X172878767Y-109797380D01*
X173069243Y-109797380D01*
X173164481Y-109845000D01*
X173259719Y-109940238D01*
X173307338Y-110130714D01*
X173307338Y-110464047D01*
X173259719Y-110654523D01*
X173164481Y-110749761D01*
X173069243Y-110797380D01*
X172878767Y-110797380D01*
X173640672Y-109797380D02*
X174307338Y-109797380D01*
X173878767Y-110797380D01*
%TO.C,C4*%
X160056533Y-118388142D02*
X160008914Y-118435761D01*
X159866057Y-118483380D01*
X159770819Y-118483380D01*
X159627961Y-118435761D01*
X159532723Y-118340523D01*
X159485104Y-118245285D01*
X159437485Y-118054809D01*
X159437485Y-117911952D01*
X159485104Y-117721476D01*
X159532723Y-117626238D01*
X159627961Y-117531000D01*
X159770819Y-117483380D01*
X159866057Y-117483380D01*
X160008914Y-117531000D01*
X160056533Y-117578619D01*
X160913676Y-117816714D02*
X160913676Y-118483380D01*
X160675580Y-117435761D02*
X160437485Y-118150047D01*
X161056533Y-118150047D01*
%TO.C,C3*%
X168006733Y-137948942D02*
X167959114Y-137996561D01*
X167816257Y-138044180D01*
X167721019Y-138044180D01*
X167578161Y-137996561D01*
X167482923Y-137901323D01*
X167435304Y-137806085D01*
X167387685Y-137615609D01*
X167387685Y-137472752D01*
X167435304Y-137282276D01*
X167482923Y-137187038D01*
X167578161Y-137091800D01*
X167721019Y-137044180D01*
X167816257Y-137044180D01*
X167959114Y-137091800D01*
X168006733Y-137139419D01*
X168340066Y-137044180D02*
X168959114Y-137044180D01*
X168625780Y-137425133D01*
X168768638Y-137425133D01*
X168863876Y-137472752D01*
X168911495Y-137520371D01*
X168959114Y-137615609D01*
X168959114Y-137853704D01*
X168911495Y-137948942D01*
X168863876Y-137996561D01*
X168768638Y-138044180D01*
X168482923Y-138044180D01*
X168387685Y-137996561D01*
X168340066Y-137948942D01*
%TO.C,Q19*%
X187438261Y-47392619D02*
X187343023Y-47345000D01*
X187247785Y-47249761D01*
X187104928Y-47106904D01*
X187009690Y-47059285D01*
X186914452Y-47059285D01*
X186962071Y-47297380D02*
X186866833Y-47249761D01*
X186771595Y-47154523D01*
X186723976Y-46964047D01*
X186723976Y-46630714D01*
X186771595Y-46440238D01*
X186866833Y-46345000D01*
X186962071Y-46297380D01*
X187152547Y-46297380D01*
X187247785Y-46345000D01*
X187343023Y-46440238D01*
X187390642Y-46630714D01*
X187390642Y-46964047D01*
X187343023Y-47154523D01*
X187247785Y-47249761D01*
X187152547Y-47297380D01*
X186962071Y-47297380D01*
X188343023Y-47297380D02*
X187771595Y-47297380D01*
X188057309Y-47297380D02*
X188057309Y-46297380D01*
X187962071Y-46440238D01*
X187866833Y-46535476D01*
X187771595Y-46583095D01*
X188819214Y-47297380D02*
X189009690Y-47297380D01*
X189104928Y-47249761D01*
X189152547Y-47202142D01*
X189247785Y-47059285D01*
X189295404Y-46868809D01*
X189295404Y-46487857D01*
X189247785Y-46392619D01*
X189200166Y-46345000D01*
X189104928Y-46297380D01*
X188914452Y-46297380D01*
X188819214Y-46345000D01*
X188771595Y-46392619D01*
X188723976Y-46487857D01*
X188723976Y-46725952D01*
X188771595Y-46821190D01*
X188819214Y-46868809D01*
X188914452Y-46916428D01*
X189104928Y-46916428D01*
X189200166Y-46868809D01*
X189247785Y-46821190D01*
X189295404Y-46725952D01*
%TO.C,Q18*%
X173354957Y-70252619D02*
X173259719Y-70205000D01*
X173164481Y-70109761D01*
X173021624Y-69966904D01*
X172926386Y-69919285D01*
X172831148Y-69919285D01*
X172878767Y-70157380D02*
X172783529Y-70109761D01*
X172688291Y-70014523D01*
X172640672Y-69824047D01*
X172640672Y-69490714D01*
X172688291Y-69300238D01*
X172783529Y-69205000D01*
X172878767Y-69157380D01*
X173069243Y-69157380D01*
X173164481Y-69205000D01*
X173259719Y-69300238D01*
X173307338Y-69490714D01*
X173307338Y-69824047D01*
X173259719Y-70014523D01*
X173164481Y-70109761D01*
X173069243Y-70157380D01*
X172878767Y-70157380D01*
X174259719Y-70157380D02*
X173688291Y-70157380D01*
X173974005Y-70157380D02*
X173974005Y-69157380D01*
X173878767Y-69300238D01*
X173783529Y-69395476D01*
X173688291Y-69443095D01*
X174831148Y-69585952D02*
X174735910Y-69538333D01*
X174688291Y-69490714D01*
X174640672Y-69395476D01*
X174640672Y-69347857D01*
X174688291Y-69252619D01*
X174735910Y-69205000D01*
X174831148Y-69157380D01*
X175021624Y-69157380D01*
X175116862Y-69205000D01*
X175164481Y-69252619D01*
X175212100Y-69347857D01*
X175212100Y-69395476D01*
X175164481Y-69490714D01*
X175116862Y-69538333D01*
X175021624Y-69585952D01*
X174831148Y-69585952D01*
X174735910Y-69633571D01*
X174688291Y-69681190D01*
X174640672Y-69776428D01*
X174640672Y-69966904D01*
X174688291Y-70062142D01*
X174735910Y-70109761D01*
X174831148Y-70157380D01*
X175021624Y-70157380D01*
X175116862Y-70109761D01*
X175164481Y-70062142D01*
X175212100Y-69966904D01*
X175212100Y-69776428D01*
X175164481Y-69681190D01*
X175116862Y-69633571D01*
X175021624Y-69585952D01*
%TO.C,Q13*%
X187184261Y-72937619D02*
X187089023Y-72890000D01*
X186993785Y-72794761D01*
X186850928Y-72651904D01*
X186755690Y-72604285D01*
X186660452Y-72604285D01*
X186708071Y-72842380D02*
X186612833Y-72794761D01*
X186517595Y-72699523D01*
X186469976Y-72509047D01*
X186469976Y-72175714D01*
X186517595Y-71985238D01*
X186612833Y-71890000D01*
X186708071Y-71842380D01*
X186898547Y-71842380D01*
X186993785Y-71890000D01*
X187089023Y-71985238D01*
X187136642Y-72175714D01*
X187136642Y-72509047D01*
X187089023Y-72699523D01*
X186993785Y-72794761D01*
X186898547Y-72842380D01*
X186708071Y-72842380D01*
X188089023Y-72842380D02*
X187517595Y-72842380D01*
X187803309Y-72842380D02*
X187803309Y-71842380D01*
X187708071Y-71985238D01*
X187612833Y-72080476D01*
X187517595Y-72128095D01*
X188422357Y-71842380D02*
X189041404Y-71842380D01*
X188708071Y-72223333D01*
X188850928Y-72223333D01*
X188946166Y-72270952D01*
X188993785Y-72318571D01*
X189041404Y-72413809D01*
X189041404Y-72651904D01*
X188993785Y-72747142D01*
X188946166Y-72794761D01*
X188850928Y-72842380D01*
X188565214Y-72842380D01*
X188469976Y-72794761D01*
X188422357Y-72747142D01*
%TO.C,Q29*%
X112522184Y-103562619D02*
X112426946Y-103515000D01*
X112331708Y-103419761D01*
X112188851Y-103276904D01*
X112093613Y-103229285D01*
X111998375Y-103229285D01*
X112045994Y-103467380D02*
X111950756Y-103419761D01*
X111855518Y-103324523D01*
X111807899Y-103134047D01*
X111807899Y-102800714D01*
X111855518Y-102610238D01*
X111950756Y-102515000D01*
X112045994Y-102467380D01*
X112236470Y-102467380D01*
X112331708Y-102515000D01*
X112426946Y-102610238D01*
X112474565Y-102800714D01*
X112474565Y-103134047D01*
X112426946Y-103324523D01*
X112331708Y-103419761D01*
X112236470Y-103467380D01*
X112045994Y-103467380D01*
X112855518Y-102562619D02*
X112903137Y-102515000D01*
X112998375Y-102467380D01*
X113236470Y-102467380D01*
X113331708Y-102515000D01*
X113379327Y-102562619D01*
X113426946Y-102657857D01*
X113426946Y-102753095D01*
X113379327Y-102895952D01*
X112807899Y-103467380D01*
X113426946Y-103467380D01*
X113903137Y-103467380D02*
X114093613Y-103467380D01*
X114188851Y-103419761D01*
X114236470Y-103372142D01*
X114331708Y-103229285D01*
X114379327Y-103038809D01*
X114379327Y-102657857D01*
X114331708Y-102562619D01*
X114284089Y-102515000D01*
X114188851Y-102467380D01*
X113998375Y-102467380D01*
X113903137Y-102515000D01*
X113855518Y-102562619D01*
X113807899Y-102657857D01*
X113807899Y-102895952D01*
X113855518Y-102991190D01*
X113903137Y-103038809D01*
X113998375Y-103086428D01*
X114188851Y-103086428D01*
X114284089Y-103038809D01*
X114331708Y-102991190D01*
X114379327Y-102895952D01*
%TO.C,Q5*%
X188594957Y-103272619D02*
X188499719Y-103225000D01*
X188404481Y-103129761D01*
X188261624Y-102986904D01*
X188166386Y-102939285D01*
X188071148Y-102939285D01*
X188118767Y-103177380D02*
X188023529Y-103129761D01*
X187928291Y-103034523D01*
X187880672Y-102844047D01*
X187880672Y-102510714D01*
X187928291Y-102320238D01*
X188023529Y-102225000D01*
X188118767Y-102177380D01*
X188309243Y-102177380D01*
X188404481Y-102225000D01*
X188499719Y-102320238D01*
X188547338Y-102510714D01*
X188547338Y-102844047D01*
X188499719Y-103034523D01*
X188404481Y-103129761D01*
X188309243Y-103177380D01*
X188118767Y-103177380D01*
X189452100Y-102177380D02*
X188975910Y-102177380D01*
X188928291Y-102653571D01*
X188975910Y-102605952D01*
X189071148Y-102558333D01*
X189309243Y-102558333D01*
X189404481Y-102605952D01*
X189452100Y-102653571D01*
X189499719Y-102748809D01*
X189499719Y-102986904D01*
X189452100Y-103082142D01*
X189404481Y-103129761D01*
X189309243Y-103177380D01*
X189071148Y-103177380D01*
X188975910Y-103129761D01*
X188928291Y-103082142D01*
%TO.C,Q23*%
X112522184Y-128962619D02*
X112426946Y-128915000D01*
X112331708Y-128819761D01*
X112188851Y-128676904D01*
X112093613Y-128629285D01*
X111998375Y-128629285D01*
X112045994Y-128867380D02*
X111950756Y-128819761D01*
X111855518Y-128724523D01*
X111807899Y-128534047D01*
X111807899Y-128200714D01*
X111855518Y-128010238D01*
X111950756Y-127915000D01*
X112045994Y-127867380D01*
X112236470Y-127867380D01*
X112331708Y-127915000D01*
X112426946Y-128010238D01*
X112474565Y-128200714D01*
X112474565Y-128534047D01*
X112426946Y-128724523D01*
X112331708Y-128819761D01*
X112236470Y-128867380D01*
X112045994Y-128867380D01*
X112855518Y-127962619D02*
X112903137Y-127915000D01*
X112998375Y-127867380D01*
X113236470Y-127867380D01*
X113331708Y-127915000D01*
X113379327Y-127962619D01*
X113426946Y-128057857D01*
X113426946Y-128153095D01*
X113379327Y-128295952D01*
X112807899Y-128867380D01*
X113426946Y-128867380D01*
X113760280Y-127867380D02*
X114379327Y-127867380D01*
X114045994Y-128248333D01*
X114188851Y-128248333D01*
X114284089Y-128295952D01*
X114331708Y-128343571D01*
X114379327Y-128438809D01*
X114379327Y-128676904D01*
X114331708Y-128772142D01*
X114284089Y-128819761D01*
X114188851Y-128867380D01*
X113903137Y-128867380D01*
X113807899Y-128819761D01*
X113760280Y-128772142D01*
%TO.C,Q3*%
X190165000Y-135226007D02*
X190165000Y-134430000D01*
X189592305Y-134430000D02*
X190165000Y-134430000D01*
X189592305Y-137350000D02*
X190165000Y-137350000D01*
X190165000Y-137350000D02*
X190165000Y-136553993D01*
%TO.C,Q27*%
X127335000Y-108613993D02*
X127335000Y-109410000D01*
X127907695Y-106490000D02*
X127335000Y-106490000D01*
X127335000Y-106490000D02*
X127335000Y-107286007D01*
X127907695Y-109410000D02*
X127335000Y-109410000D01*
D15*
%TO.C,J16*%
X144185000Y-42158999D02*
X144185000Y-50613000D01*
X174919000Y-42158999D02*
X144185000Y-42158999D01*
X174919000Y-50613000D02*
X174919000Y-42158999D01*
X144185000Y-50613000D02*
X174919000Y-50613000D01*
X147193000Y-48768000D02*
G75*
G03*
X147193000Y-48768000I-381000J0D01*
G01*
D12*
%TO.C,Q8*%
X174352305Y-119570000D02*
X174925000Y-119570000D01*
X174925000Y-117446007D02*
X174925000Y-116650000D01*
X174352305Y-116650000D02*
X174925000Y-116650000D01*
X174925000Y-119570000D02*
X174925000Y-118773993D01*
%TO.C,Q6*%
X190165000Y-109826007D02*
X190165000Y-109030000D01*
X190165000Y-111950000D02*
X190165000Y-111153993D01*
X189592305Y-111950000D02*
X190165000Y-111950000D01*
X189592305Y-109030000D02*
X190165000Y-109030000D01*
%TO.C,Q11*%
X174352305Y-91250000D02*
X174925000Y-91250000D01*
X174925000Y-92046007D02*
X174925000Y-91250000D01*
X174352305Y-94170000D02*
X174925000Y-94170000D01*
X174925000Y-94170000D02*
X174925000Y-93373993D01*
D15*
%TO.C,A1*%
X152450800Y-58267600D02*
X152450800Y-96367600D01*
X139750800Y-96367600D02*
X137080800Y-96367600D01*
X152450800Y-96367600D02*
X155120800Y-96367600D01*
X139750800Y-58267600D02*
X137080800Y-58267600D01*
X137080800Y-60807600D02*
X137080800Y-99037600D01*
X137080800Y-55597600D02*
X137080800Y-58267600D01*
X155120800Y-55597600D02*
X137080800Y-55597600D01*
X155120800Y-99037600D02*
X155120800Y-55597600D01*
X139750800Y-60807600D02*
X139750800Y-96367600D01*
X139750800Y-60807600D02*
X137080800Y-60807600D01*
X152450800Y-58267600D02*
X155120800Y-58267600D01*
X137080800Y-99037600D02*
X155120800Y-99037600D01*
X139750800Y-60807600D02*
X139750800Y-58267600D01*
D12*
%TO.C,Q14*%
X190165000Y-81470000D02*
X190165000Y-80673993D01*
X190165000Y-79346007D02*
X190165000Y-78550000D01*
X189592305Y-81470000D02*
X190165000Y-81470000D01*
X189592305Y-78550000D02*
X190165000Y-78550000D01*
%TO.C,Q24*%
X112095000Y-119190000D02*
X112095000Y-119986007D01*
X112095000Y-121313993D02*
X112095000Y-122110000D01*
X112667695Y-119190000D02*
X112095000Y-119190000D01*
X112667695Y-122110000D02*
X112095000Y-122110000D01*
%TO.C,Q10*%
X174925000Y-86966007D02*
X174925000Y-86170000D01*
X174352305Y-86170000D02*
X174925000Y-86170000D01*
X174925000Y-89090000D02*
X174925000Y-88293993D01*
X174352305Y-89090000D02*
X174925000Y-89090000D01*
D15*
%TO.C,C6*%
X155573252Y-119409800D02*
X154150748Y-119409800D01*
X155573252Y-121229800D02*
X154150748Y-121229800D01*
%TO.C,J13*%
X125162000Y-54443000D02*
X116707999Y-54443000D01*
X116707999Y-75017000D02*
X125162000Y-75017000D01*
X116707999Y-54443000D02*
X116707999Y-75017000D01*
X125162000Y-75017000D02*
X125162000Y-54443000D01*
X123444000Y-72390000D02*
G75*
G03*
X123444000Y-72390000I-381000J0D01*
G01*
%TO.C,J12*%
X101467999Y-67143000D02*
X101467999Y-87717000D01*
X101467999Y-87717000D02*
X109922000Y-87717000D01*
X109922000Y-87717000D02*
X109922000Y-67143000D01*
X109922000Y-67143000D02*
X101467999Y-67143000D01*
X108204000Y-85090000D02*
G75*
G03*
X108204000Y-85090000I-381000J0D01*
G01*
%TO.C,J4*%
X177098000Y-79923000D02*
X177098000Y-100497000D01*
X177098000Y-100497000D02*
X185552001Y-100497000D01*
X185552001Y-100497000D02*
X185552001Y-79923000D01*
X185552001Y-79923000D02*
X177098000Y-79923000D01*
X179578000Y-82550000D02*
G75*
G03*
X179578000Y-82550000I-381000J0D01*
G01*
D12*
%TO.C,Q33*%
X127907695Y-84010000D02*
X127335000Y-84010000D01*
X127907695Y-81090000D02*
X127335000Y-81090000D01*
X127335000Y-81090000D02*
X127335000Y-81886007D01*
X127335000Y-83213993D02*
X127335000Y-84010000D01*
%TO.C,Q30*%
X112667695Y-96710000D02*
X112095000Y-96710000D01*
X112095000Y-95913993D02*
X112095000Y-96710000D01*
X112667695Y-93790000D02*
X112095000Y-93790000D01*
X112095000Y-93790000D02*
X112095000Y-94586007D01*
%TO.C,Q2*%
X190165000Y-132270000D02*
X190165000Y-131473993D01*
X189592305Y-132270000D02*
X190165000Y-132270000D01*
X189592305Y-129350000D02*
X190165000Y-129350000D01*
X190165000Y-130146007D02*
X190165000Y-129350000D01*
%TO.C,Q20*%
X190165000Y-53946007D02*
X190165000Y-53150000D01*
X190165000Y-56070000D02*
X190165000Y-55273993D01*
X189592305Y-53150000D02*
X190165000Y-53150000D01*
X189592305Y-56070000D02*
X190165000Y-56070000D01*
D15*
%TO.C,C5*%
X155573252Y-121949800D02*
X154150748Y-121949800D01*
X155573252Y-123769800D02*
X154150748Y-123769800D01*
%TO.C,J11*%
X116707999Y-100417000D02*
X125162000Y-100417000D01*
X116707999Y-79843000D02*
X116707999Y-100417000D01*
X125162000Y-100417000D02*
X125162000Y-79843000D01*
X125162000Y-79843000D02*
X116707999Y-79843000D01*
X123444000Y-97790000D02*
G75*
G03*
X123444000Y-97790000I-381000J0D01*
G01*
%TO.C,J1*%
X192338000Y-138597000D02*
X200792001Y-138597000D01*
X192338000Y-118023000D02*
X192338000Y-138597000D01*
X200792001Y-118023000D02*
X192338000Y-118023000D01*
X200792001Y-138597000D02*
X200792001Y-118023000D01*
X194818000Y-120650000D02*
G75*
G03*
X194818000Y-120650000I-381000J0D01*
G01*
D12*
%TO.C,Q28*%
X112667695Y-103950000D02*
X112095000Y-103950000D01*
X112667695Y-106870000D02*
X112095000Y-106870000D01*
X112095000Y-103950000D02*
X112095000Y-104746007D01*
X112095000Y-106073993D02*
X112095000Y-106870000D01*
%TO.C,Q32*%
X127335000Y-88293993D02*
X127335000Y-89090000D01*
X127335000Y-86170000D02*
X127335000Y-86966007D01*
X127907695Y-89090000D02*
X127335000Y-89090000D01*
X127907695Y-86170000D02*
X127335000Y-86170000D01*
%TO.C,Q21*%
X190165000Y-59026007D02*
X190165000Y-58230000D01*
X190165000Y-61150000D02*
X190165000Y-60353993D01*
X189592305Y-61150000D02*
X190165000Y-61150000D01*
X189592305Y-58230000D02*
X190165000Y-58230000D01*
%TO.C,Q12*%
X174925000Y-97126007D02*
X174925000Y-96330000D01*
X174925000Y-99250000D02*
X174925000Y-98453993D01*
X174352305Y-99250000D02*
X174925000Y-99250000D01*
X174352305Y-96330000D02*
X174925000Y-96330000D01*
%TO.C,Q36*%
X112667695Y-71310000D02*
X112095000Y-71310000D01*
X112095000Y-68390000D02*
X112095000Y-69186007D01*
X112667695Y-68390000D02*
X112095000Y-68390000D01*
X112095000Y-70513993D02*
X112095000Y-71310000D01*
%TO.C,Q9*%
X174925000Y-122526007D02*
X174925000Y-121730000D01*
X174352305Y-124650000D02*
X174925000Y-124650000D01*
X174352305Y-121730000D02*
X174925000Y-121730000D01*
X174925000Y-124650000D02*
X174925000Y-123853993D01*
%TO.C,Q1*%
X189592305Y-127190000D02*
X190165000Y-127190000D01*
X190165000Y-127190000D02*
X190165000Y-126393993D01*
X189592305Y-124270000D02*
X190165000Y-124270000D01*
X190165000Y-125066007D02*
X190165000Y-124270000D01*
%TO.C,Q41*%
X112667695Y-48070000D02*
X112095000Y-48070000D01*
X112095000Y-50193993D02*
X112095000Y-50990000D01*
X112667695Y-50990000D02*
X112095000Y-50990000D01*
X112095000Y-48070000D02*
X112095000Y-48866007D01*
%TO.C,Q35*%
X112667695Y-73470000D02*
X112095000Y-73470000D01*
X112095000Y-75593993D02*
X112095000Y-76390000D01*
X112667695Y-76390000D02*
X112095000Y-76390000D01*
X112095000Y-73470000D02*
X112095000Y-74266007D01*
%TO.C,Q39*%
X127907695Y-55690000D02*
X127335000Y-55690000D01*
X127907695Y-58610000D02*
X127335000Y-58610000D01*
X127335000Y-55690000D02*
X127335000Y-56486007D01*
X127335000Y-57813993D02*
X127335000Y-58610000D01*
D16*
%TO.C,U1*%
X170130000Y-107010000D02*
X132130000Y-107010000D01*
X170130000Y-107010000D02*
X170130000Y-53010000D01*
X132130000Y-107010000D02*
X132130000Y-53010000D01*
X170130000Y-53010000D02*
X132130000Y-53010000D01*
D12*
%TO.C,Q42*%
X112095000Y-45113993D02*
X112095000Y-45910000D01*
X112095000Y-42990000D02*
X112095000Y-43786007D01*
X112667695Y-42990000D02*
X112095000Y-42990000D01*
X112667695Y-45910000D02*
X112095000Y-45910000D01*
D15*
%TO.C,L1*%
X158469400Y-122969600D02*
X158469400Y-119769600D01*
X158469400Y-130369600D02*
X158469400Y-127169600D01*
X158469400Y-119769600D02*
X169069400Y-119769600D01*
X169069400Y-119769600D02*
X169069400Y-122969600D01*
X169069400Y-130369600D02*
X158469400Y-130369600D01*
X169069400Y-127169600D02*
X169069400Y-130369600D01*
%TO.C,J9*%
X125162000Y-105243000D02*
X116707999Y-105243000D01*
X125162000Y-125817000D02*
X125162000Y-105243000D01*
X116707999Y-125817000D02*
X125162000Y-125817000D01*
X116707999Y-105243000D02*
X116707999Y-125817000D01*
X123444000Y-123190000D02*
G75*
G03*
X123444000Y-123190000I-381000J0D01*
G01*
%TO.C,C2*%
X163149037Y-117275900D02*
X162084600Y-116211463D01*
X163149037Y-117275900D02*
X165284600Y-117275900D01*
X170604600Y-108755900D02*
X167404600Y-108755900D01*
X170604600Y-116211463D02*
X170604600Y-108755900D01*
X169540163Y-117275900D02*
X170604600Y-116211463D01*
X169540163Y-117275900D02*
X167404600Y-117275900D01*
X162084600Y-108755900D02*
X165284600Y-108755900D01*
X162084600Y-116211463D02*
X162084600Y-108755900D01*
%TO.C,J2*%
X200792001Y-113197000D02*
X200792001Y-92623000D01*
X200792001Y-92623000D02*
X192338000Y-92623000D01*
X192338000Y-92623000D02*
X192338000Y-113197000D01*
X192338000Y-113197000D02*
X200792001Y-113197000D01*
X194818000Y-95250000D02*
G75*
G03*
X194818000Y-95250000I-381000J0D01*
G01*
%TO.C,D1*%
X172215600Y-126747000D02*
X172215600Y-130047000D01*
X172215600Y-130047000D02*
X177615600Y-130047000D01*
X172215600Y-126747000D02*
X177615600Y-126747000D01*
D12*
%TO.C,Q26*%
X127335000Y-111570000D02*
X127335000Y-112366007D01*
X127907695Y-114490000D02*
X127335000Y-114490000D01*
X127335000Y-113693993D02*
X127335000Y-114490000D01*
X127907695Y-111570000D02*
X127335000Y-111570000D01*
%TO.C,Q17*%
X174352305Y-68770000D02*
X174925000Y-68770000D01*
X174352305Y-65850000D02*
X174925000Y-65850000D01*
X174925000Y-68770000D02*
X174925000Y-67973993D01*
X174925000Y-66646007D02*
X174925000Y-65850000D01*
D16*
%TO.C,J15*%
X137634600Y-138477000D02*
X127634600Y-138477000D01*
X127634600Y-131277000D02*
X127634600Y-125477000D01*
X137634600Y-135677000D02*
X137634600Y-138477000D01*
X127634600Y-138477000D02*
X127634600Y-135677000D01*
X134834600Y-125477000D02*
X137634600Y-125477000D01*
X137634600Y-125477000D02*
X137634600Y-131277000D01*
X127634600Y-125477000D02*
X130534600Y-125477000D01*
D17*
X132834600Y-124677000D02*
G75*
G03*
X132834600Y-124677000I-200000J0D01*
G01*
D15*
%TO.C,J5*%
X192338000Y-87797000D02*
X200792001Y-87797000D01*
X200792001Y-67223000D02*
X192338000Y-67223000D01*
X192338000Y-67223000D02*
X192338000Y-87797000D01*
X200792001Y-87797000D02*
X200792001Y-67223000D01*
X194818000Y-69850000D02*
G75*
G03*
X194818000Y-69850000I-381000J0D01*
G01*
D18*
%TO.C,RV100k1*%
X137768400Y-46868400D02*
X137768400Y-44368400D01*
X131268400Y-44618400D02*
X131268400Y-44618400D01*
D19*
X137018400Y-49418400D02*
X137018400Y-49418400D01*
D18*
X131268400Y-42368400D02*
X131268400Y-44618400D01*
X137768400Y-44368400D02*
X137768400Y-46868400D01*
X131268400Y-42368400D02*
X136018400Y-42368400D01*
X131268400Y-42368400D02*
X131268400Y-42368400D01*
X136018400Y-42368400D02*
X131268400Y-42368400D01*
X131268400Y-48868400D02*
X131268400Y-46868400D01*
X131268400Y-42368400D02*
X131268400Y-42368400D01*
X136018400Y-42368400D02*
X136018400Y-42368400D01*
X137768400Y-46868400D02*
X137768400Y-46868400D01*
X131268400Y-46868400D02*
X131268400Y-48868400D01*
X131268400Y-44618400D02*
X131268400Y-42368400D01*
X136018400Y-48868400D02*
X136018400Y-48868400D01*
X131268400Y-48868400D02*
X131268400Y-48868400D01*
D19*
X137018400Y-49318400D02*
X137018400Y-49318400D01*
X137018400Y-49418400D02*
X137018400Y-49418400D01*
D18*
X131268400Y-48868400D02*
X131268400Y-48868400D01*
X131268400Y-48868400D02*
X136018400Y-48868400D01*
X136018400Y-48868400D02*
X131268400Y-48868400D01*
X131268400Y-46868400D02*
X131268400Y-46868400D01*
X137768400Y-44368400D02*
X137768400Y-44368400D01*
D19*
X137018400Y-49418400D02*
G75*
G03*
X137018400Y-49318400I0J50000D01*
G01*
X137018400Y-49318400D02*
G75*
G03*
X137018400Y-49418400I0J-50000D01*
G01*
X137018400Y-49418400D02*
G75*
G03*
X137018400Y-49318400I0J50000D01*
G01*
D15*
%TO.C,J14*%
X101467999Y-62317000D02*
X109922000Y-62317000D01*
X109922000Y-41743000D02*
X101467999Y-41743000D01*
X101467999Y-41743000D02*
X101467999Y-62317000D01*
X109922000Y-62317000D02*
X109922000Y-41743000D01*
X108204000Y-59690000D02*
G75*
G03*
X108204000Y-59690000I-381000J0D01*
G01*
%TO.C,J10*%
X109922000Y-113117000D02*
X109922000Y-92543000D01*
X101467999Y-113117000D02*
X109922000Y-113117000D01*
X101467999Y-92543000D02*
X101467999Y-113117000D01*
X109922000Y-92543000D02*
X101467999Y-92543000D01*
X108204000Y-110490000D02*
G75*
G03*
X108204000Y-110490000I-381000J0D01*
G01*
%TO.C,U2*%
X181295799Y-136420200D02*
X170595801Y-136420200D01*
X181295799Y-136420200D02*
X181295799Y-131520199D01*
X181295799Y-132782201D02*
X170595801Y-132782201D01*
X181295799Y-131520199D02*
X170595801Y-131520199D01*
X170595801Y-136420200D02*
X170595801Y-131520199D01*
D18*
X171627800Y-136442201D02*
X171627800Y-135331200D01*
X171627800Y-135331200D02*
X170595801Y-135331200D01*
X170595801Y-135331200D02*
X170595801Y-136442201D01*
X170595801Y-136442201D02*
X171627800Y-136442201D01*
G36*
X171627800Y-136442201D02*
G01*
X170595801Y-136442201D01*
X170595801Y-135331200D01*
X171627800Y-135331200D01*
X171627800Y-136442201D01*
G37*
X171627800Y-136442201D02*
X170595801Y-136442201D01*
X170595801Y-135331200D01*
X171627800Y-135331200D01*
X171627800Y-136442201D01*
D15*
%TO.C,J7*%
X192338000Y-62397000D02*
X200792001Y-62397000D01*
X192338000Y-41823000D02*
X192338000Y-62397000D01*
X200792001Y-62397000D02*
X200792001Y-41823000D01*
X200792001Y-41823000D02*
X192338000Y-41823000D01*
X194818000Y-44450000D02*
G75*
G03*
X194818000Y-44450000I-381000J0D01*
G01*
D12*
%TO.C,Q16*%
X174925000Y-63690000D02*
X174925000Y-62893993D01*
X174352305Y-63690000D02*
X174925000Y-63690000D01*
X174925000Y-61566007D02*
X174925000Y-60770000D01*
X174352305Y-60770000D02*
X174925000Y-60770000D01*
D15*
%TO.C,C1*%
X158235600Y-137826800D02*
X158235600Y-135476800D01*
X165055600Y-132071237D02*
X163991163Y-131006800D01*
X158235600Y-131006800D02*
X158235600Y-133356800D01*
X163991163Y-137826800D02*
X158235600Y-137826800D01*
X165055600Y-132071237D02*
X165055600Y-133356800D01*
X165055600Y-136762363D02*
X165055600Y-135476800D01*
X165055600Y-136762363D02*
X163991163Y-137826800D01*
X163991163Y-131006800D02*
X158235600Y-131006800D01*
%TO.C,J8*%
X109922000Y-117943000D02*
X101467999Y-117943000D01*
X101467999Y-138517000D02*
X109922000Y-138517000D01*
X109922000Y-138517000D02*
X109922000Y-117943000D01*
X101467999Y-117943000D02*
X101467999Y-138517000D01*
X108204000Y-135890000D02*
G75*
G03*
X108204000Y-135890000I-381000J0D01*
G01*
%TO.C,J6*%
X185552001Y-75097000D02*
X185552001Y-54523000D01*
X185552001Y-54523000D02*
X177098000Y-54523000D01*
X177098000Y-75097000D02*
X185552001Y-75097000D01*
X177098000Y-54523000D02*
X177098000Y-75097000D01*
X179578000Y-57150000D02*
G75*
G03*
X179578000Y-57150000I-381000J0D01*
G01*
D12*
%TO.C,Q4*%
X189592305Y-98870000D02*
X190165000Y-98870000D01*
X189592305Y-101790000D02*
X190165000Y-101790000D01*
X190165000Y-99666007D02*
X190165000Y-98870000D01*
X190165000Y-101790000D02*
X190165000Y-100993993D01*
%TO.C,Q40*%
X112667695Y-53150000D02*
X112095000Y-53150000D01*
X112667695Y-56070000D02*
X112095000Y-56070000D01*
X112095000Y-55273993D02*
X112095000Y-56070000D01*
X112095000Y-53150000D02*
X112095000Y-53946007D01*
%TO.C,Q34*%
X112095000Y-78550000D02*
X112095000Y-79346007D01*
X112095000Y-80673993D02*
X112095000Y-81470000D01*
X112667695Y-78550000D02*
X112095000Y-78550000D01*
X112667695Y-81470000D02*
X112095000Y-81470000D01*
%TO.C,Q22*%
X112667695Y-132270000D02*
X112095000Y-132270000D01*
X112667695Y-129350000D02*
X112095000Y-129350000D01*
X112095000Y-131473993D02*
X112095000Y-132270000D01*
X112095000Y-129350000D02*
X112095000Y-130146007D01*
%TO.C,Q31*%
X127335000Y-91250000D02*
X127335000Y-92046007D01*
X127907695Y-91250000D02*
X127335000Y-91250000D01*
X127335000Y-93373993D02*
X127335000Y-94170000D01*
X127907695Y-94170000D02*
X127335000Y-94170000D01*
%TO.C,Q25*%
X127907695Y-116650000D02*
X127335000Y-116650000D01*
X127907695Y-119570000D02*
X127335000Y-119570000D01*
X127335000Y-118773993D02*
X127335000Y-119570000D01*
X127335000Y-116650000D02*
X127335000Y-117446007D01*
%TO.C,Q38*%
X127907695Y-60770000D02*
X127335000Y-60770000D01*
X127907695Y-63690000D02*
X127335000Y-63690000D01*
X127335000Y-62893993D02*
X127335000Y-63690000D01*
X127335000Y-60770000D02*
X127335000Y-61566007D01*
%TO.C,Q37*%
X127907695Y-65850000D02*
X127335000Y-65850000D01*
X127335000Y-67973993D02*
X127335000Y-68770000D01*
X127335000Y-65850000D02*
X127335000Y-66646007D01*
X127907695Y-68770000D02*
X127335000Y-68770000D01*
%TO.C,Q15*%
X189592305Y-83630000D02*
X190165000Y-83630000D01*
X190165000Y-84426007D02*
X190165000Y-83630000D01*
X189592305Y-86550000D02*
X190165000Y-86550000D01*
X190165000Y-86550000D02*
X190165000Y-85753993D01*
D15*
%TO.C,J3*%
X185552001Y-105323000D02*
X177098000Y-105323000D01*
X185552001Y-125897000D02*
X185552001Y-105323000D01*
X177098000Y-105323000D02*
X177098000Y-125897000D01*
X177098000Y-125897000D02*
X185552001Y-125897000D01*
X179578000Y-107950000D02*
G75*
G03*
X179578000Y-107950000I-381000J0D01*
G01*
D12*
%TO.C,Q7*%
X174925000Y-112366007D02*
X174925000Y-111570000D01*
X174352305Y-114490000D02*
X174925000Y-114490000D01*
X174352305Y-111570000D02*
X174925000Y-111570000D01*
X174925000Y-114490000D02*
X174925000Y-113693993D01*
D15*
%TO.C,C4*%
X154106637Y-117250500D02*
X156242200Y-117250500D01*
X160497763Y-117250500D02*
X161562200Y-116186063D01*
X160497763Y-117250500D02*
X158362200Y-117250500D01*
X154106637Y-117250500D02*
X153042200Y-116186063D01*
X153042200Y-116186063D02*
X153042200Y-108730500D01*
X161562200Y-108730500D02*
X158362200Y-108730500D01*
X161562200Y-116186063D02*
X161562200Y-108730500D01*
X153042200Y-108730500D02*
X156242200Y-108730500D01*
%TO.C,C3*%
X169337400Y-135380252D02*
X169337400Y-133957748D01*
X167517400Y-135380252D02*
X167517400Y-133957748D01*
D12*
%TO.C,Q19*%
X190165000Y-50990000D02*
X190165000Y-50193993D01*
X190165000Y-48866007D02*
X190165000Y-48070000D01*
X189592305Y-48070000D02*
X190165000Y-48070000D01*
X189592305Y-50990000D02*
X190165000Y-50990000D01*
%TO.C,Q18*%
X174352305Y-70930000D02*
X174925000Y-70930000D01*
X174352305Y-73850000D02*
X174925000Y-73850000D01*
X174925000Y-73850000D02*
X174925000Y-73053993D01*
X174925000Y-71726007D02*
X174925000Y-70930000D01*
%TO.C,Q13*%
X190165000Y-76390000D02*
X190165000Y-75593993D01*
X190165000Y-74266007D02*
X190165000Y-73470000D01*
X189592305Y-73470000D02*
X190165000Y-73470000D01*
X189592305Y-76390000D02*
X190165000Y-76390000D01*
%TO.C,Q29*%
X112095000Y-100993993D02*
X112095000Y-101790000D01*
X112667695Y-101790000D02*
X112095000Y-101790000D01*
X112667695Y-98870000D02*
X112095000Y-98870000D01*
X112095000Y-98870000D02*
X112095000Y-99666007D01*
%TO.C,Q5*%
X189592305Y-106870000D02*
X190165000Y-106870000D01*
X190165000Y-104746007D02*
X190165000Y-103950000D01*
X190165000Y-106870000D02*
X190165000Y-106073993D01*
X189592305Y-103950000D02*
X190165000Y-103950000D01*
%TO.C,Q23*%
X112095000Y-124270000D02*
X112095000Y-125066007D01*
X112667695Y-124270000D02*
X112095000Y-124270000D01*
X112095000Y-126393993D02*
X112095000Y-127190000D01*
X112667695Y-127190000D02*
X112095000Y-127190000D01*
%TD*%
D20*
%TO.C,J15*%
X132634600Y-135477000D03*
%TD*%
M02*
