%TF.GenerationSoftware,KiCad,Pcbnew,(6.0.1)*%
%TF.CreationDate,2022-10-30T18:49:11+02:00*%
%TF.ProjectId,stairway-to-heaven-pcb,73746169-7277-4617-992d-746f2d686561,rev?*%
%TF.SameCoordinates,Original*%
%TF.FileFunction,Legend,Bot*%
%TF.FilePolarity,Positive*%
%FSLAX46Y46*%
G04 Gerber Fmt 4.6, Leading zero omitted, Abs format (unit mm)*
G04 Created by KiCad (PCBNEW (6.0.1)) date 2022-10-30 18:49:11*
%MOMM*%
%LPD*%
G01*
G04 APERTURE LIST*
%ADD10C,0.150000*%
%ADD11C,0.120000*%
G04 APERTURE END LIST*
D10*
%TO.C,R28*%
X146819857Y-92755980D02*
X147153190Y-92279790D01*
X147391285Y-92755980D02*
X147391285Y-91755980D01*
X147010333Y-91755980D01*
X146915095Y-91803600D01*
X146867476Y-91851219D01*
X146819857Y-91946457D01*
X146819857Y-92089314D01*
X146867476Y-92184552D01*
X146915095Y-92232171D01*
X147010333Y-92279790D01*
X147391285Y-92279790D01*
X146438904Y-91851219D02*
X146391285Y-91803600D01*
X146296047Y-91755980D01*
X146057952Y-91755980D01*
X145962714Y-91803600D01*
X145915095Y-91851219D01*
X145867476Y-91946457D01*
X145867476Y-92041695D01*
X145915095Y-92184552D01*
X146486523Y-92755980D01*
X145867476Y-92755980D01*
X145296047Y-92184552D02*
X145391285Y-92136933D01*
X145438904Y-92089314D01*
X145486523Y-91994076D01*
X145486523Y-91946457D01*
X145438904Y-91851219D01*
X145391285Y-91803600D01*
X145296047Y-91755980D01*
X145105571Y-91755980D01*
X145010333Y-91803600D01*
X144962714Y-91851219D01*
X144915095Y-91946457D01*
X144915095Y-91994076D01*
X144962714Y-92089314D01*
X145010333Y-92136933D01*
X145105571Y-92184552D01*
X145296047Y-92184552D01*
X145391285Y-92232171D01*
X145438904Y-92279790D01*
X145486523Y-92375028D01*
X145486523Y-92565504D01*
X145438904Y-92660742D01*
X145391285Y-92708361D01*
X145296047Y-92755980D01*
X145105571Y-92755980D01*
X145010333Y-92708361D01*
X144962714Y-92660742D01*
X144915095Y-92565504D01*
X144915095Y-92375028D01*
X144962714Y-92279790D01*
X145010333Y-92232171D01*
X145105571Y-92184552D01*
%TO.C,R32*%
X146870657Y-74417180D02*
X147203990Y-73940990D01*
X147442085Y-74417180D02*
X147442085Y-73417180D01*
X147061133Y-73417180D01*
X146965895Y-73464800D01*
X146918276Y-73512419D01*
X146870657Y-73607657D01*
X146870657Y-73750514D01*
X146918276Y-73845752D01*
X146965895Y-73893371D01*
X147061133Y-73940990D01*
X147442085Y-73940990D01*
X146537323Y-73417180D02*
X145918276Y-73417180D01*
X146251609Y-73798133D01*
X146108752Y-73798133D01*
X146013514Y-73845752D01*
X145965895Y-73893371D01*
X145918276Y-73988609D01*
X145918276Y-74226704D01*
X145965895Y-74321942D01*
X146013514Y-74369561D01*
X146108752Y-74417180D01*
X146394466Y-74417180D01*
X146489704Y-74369561D01*
X146537323Y-74321942D01*
X145537323Y-73512419D02*
X145489704Y-73464800D01*
X145394466Y-73417180D01*
X145156371Y-73417180D01*
X145061133Y-73464800D01*
X145013514Y-73512419D01*
X144965895Y-73607657D01*
X144965895Y-73702895D01*
X145013514Y-73845752D01*
X145584942Y-74417180D01*
X144965895Y-74417180D01*
%TO.C,R40*%
X146870657Y-64257180D02*
X147203990Y-63780990D01*
X147442085Y-64257180D02*
X147442085Y-63257180D01*
X147061133Y-63257180D01*
X146965895Y-63304800D01*
X146918276Y-63352419D01*
X146870657Y-63447657D01*
X146870657Y-63590514D01*
X146918276Y-63685752D01*
X146965895Y-63733371D01*
X147061133Y-63780990D01*
X147442085Y-63780990D01*
X146013514Y-63590514D02*
X146013514Y-64257180D01*
X146251609Y-63209561D02*
X146489704Y-63923847D01*
X145870657Y-63923847D01*
X145299228Y-63257180D02*
X145203990Y-63257180D01*
X145108752Y-63304800D01*
X145061133Y-63352419D01*
X145013514Y-63447657D01*
X144965895Y-63638133D01*
X144965895Y-63876228D01*
X145013514Y-64066704D01*
X145061133Y-64161942D01*
X145108752Y-64209561D01*
X145203990Y-64257180D01*
X145299228Y-64257180D01*
X145394466Y-64209561D01*
X145442085Y-64161942D01*
X145489704Y-64066704D01*
X145537323Y-63876228D01*
X145537323Y-63638133D01*
X145489704Y-63447657D01*
X145442085Y-63352419D01*
X145394466Y-63304800D01*
X145299228Y-63257180D01*
%TO.C,R20*%
X160688257Y-58999380D02*
X161021590Y-58523190D01*
X161259685Y-58999380D02*
X161259685Y-57999380D01*
X160878733Y-57999380D01*
X160783495Y-58047000D01*
X160735876Y-58094619D01*
X160688257Y-58189857D01*
X160688257Y-58332714D01*
X160735876Y-58427952D01*
X160783495Y-58475571D01*
X160878733Y-58523190D01*
X161259685Y-58523190D01*
X160307304Y-58094619D02*
X160259685Y-58047000D01*
X160164447Y-57999380D01*
X159926352Y-57999380D01*
X159831114Y-58047000D01*
X159783495Y-58094619D01*
X159735876Y-58189857D01*
X159735876Y-58285095D01*
X159783495Y-58427952D01*
X160354923Y-58999380D01*
X159735876Y-58999380D01*
X159116828Y-57999380D02*
X159021590Y-57999380D01*
X158926352Y-58047000D01*
X158878733Y-58094619D01*
X158831114Y-58189857D01*
X158783495Y-58380333D01*
X158783495Y-58618428D01*
X158831114Y-58808904D01*
X158878733Y-58904142D01*
X158926352Y-58951761D01*
X159021590Y-58999380D01*
X159116828Y-58999380D01*
X159212066Y-58951761D01*
X159259685Y-58904142D01*
X159307304Y-58808904D01*
X159354923Y-58618428D01*
X159354923Y-58380333D01*
X159307304Y-58189857D01*
X159259685Y-58094619D01*
X159212066Y-58047000D01*
X159116828Y-57999380D01*
%TO.C,R7*%
X160212066Y-69159380D02*
X160545400Y-68683190D01*
X160783495Y-69159380D02*
X160783495Y-68159380D01*
X160402542Y-68159380D01*
X160307304Y-68207000D01*
X160259685Y-68254619D01*
X160212066Y-68349857D01*
X160212066Y-68492714D01*
X160259685Y-68587952D01*
X160307304Y-68635571D01*
X160402542Y-68683190D01*
X160783495Y-68683190D01*
X159878733Y-68159380D02*
X159212066Y-68159380D01*
X159640638Y-69159380D01*
%TO.C,R41*%
X146870657Y-62225180D02*
X147203990Y-61748990D01*
X147442085Y-62225180D02*
X147442085Y-61225180D01*
X147061133Y-61225180D01*
X146965895Y-61272800D01*
X146918276Y-61320419D01*
X146870657Y-61415657D01*
X146870657Y-61558514D01*
X146918276Y-61653752D01*
X146965895Y-61701371D01*
X147061133Y-61748990D01*
X147442085Y-61748990D01*
X146013514Y-61558514D02*
X146013514Y-62225180D01*
X146251609Y-61177561D02*
X146489704Y-61891847D01*
X145870657Y-61891847D01*
X144965895Y-62225180D02*
X145537323Y-62225180D01*
X145251609Y-62225180D02*
X145251609Y-61225180D01*
X145346847Y-61368038D01*
X145442085Y-61463276D01*
X145537323Y-61510895D01*
%TO.C,R6*%
X160212066Y-83383380D02*
X160545400Y-82907190D01*
X160783495Y-83383380D02*
X160783495Y-82383380D01*
X160402542Y-82383380D01*
X160307304Y-82431000D01*
X160259685Y-82478619D01*
X160212066Y-82573857D01*
X160212066Y-82716714D01*
X160259685Y-82811952D01*
X160307304Y-82859571D01*
X160402542Y-82907190D01*
X160783495Y-82907190D01*
X159354923Y-82383380D02*
X159545400Y-82383380D01*
X159640638Y-82431000D01*
X159688257Y-82478619D01*
X159783495Y-82621476D01*
X159831114Y-82811952D01*
X159831114Y-83192904D01*
X159783495Y-83288142D01*
X159735876Y-83335761D01*
X159640638Y-83383380D01*
X159450161Y-83383380D01*
X159354923Y-83335761D01*
X159307304Y-83288142D01*
X159259685Y-83192904D01*
X159259685Y-82954809D01*
X159307304Y-82859571D01*
X159354923Y-82811952D01*
X159450161Y-82764333D01*
X159640638Y-82764333D01*
X159735876Y-82811952D01*
X159783495Y-82859571D01*
X159831114Y-82954809D01*
%TO.C,R22*%
X160688257Y-52903380D02*
X161021590Y-52427190D01*
X161259685Y-52903380D02*
X161259685Y-51903380D01*
X160878733Y-51903380D01*
X160783495Y-51951000D01*
X160735876Y-51998619D01*
X160688257Y-52093857D01*
X160688257Y-52236714D01*
X160735876Y-52331952D01*
X160783495Y-52379571D01*
X160878733Y-52427190D01*
X161259685Y-52427190D01*
X160307304Y-51998619D02*
X160259685Y-51951000D01*
X160164447Y-51903380D01*
X159926352Y-51903380D01*
X159831114Y-51951000D01*
X159783495Y-51998619D01*
X159735876Y-52093857D01*
X159735876Y-52189095D01*
X159783495Y-52331952D01*
X160354923Y-52903380D01*
X159735876Y-52903380D01*
X159354923Y-51998619D02*
X159307304Y-51951000D01*
X159212066Y-51903380D01*
X158973971Y-51903380D01*
X158878733Y-51951000D01*
X158831114Y-51998619D01*
X158783495Y-52093857D01*
X158783495Y-52189095D01*
X158831114Y-52331952D01*
X159402542Y-52903380D01*
X158783495Y-52903380D01*
%TO.C,R31*%
X146870657Y-76449180D02*
X147203990Y-75972990D01*
X147442085Y-76449180D02*
X147442085Y-75449180D01*
X147061133Y-75449180D01*
X146965895Y-75496800D01*
X146918276Y-75544419D01*
X146870657Y-75639657D01*
X146870657Y-75782514D01*
X146918276Y-75877752D01*
X146965895Y-75925371D01*
X147061133Y-75972990D01*
X147442085Y-75972990D01*
X146537323Y-75449180D02*
X145918276Y-75449180D01*
X146251609Y-75830133D01*
X146108752Y-75830133D01*
X146013514Y-75877752D01*
X145965895Y-75925371D01*
X145918276Y-76020609D01*
X145918276Y-76258704D01*
X145965895Y-76353942D01*
X146013514Y-76401561D01*
X146108752Y-76449180D01*
X146394466Y-76449180D01*
X146489704Y-76401561D01*
X146537323Y-76353942D01*
X144965895Y-76449180D02*
X145537323Y-76449180D01*
X145251609Y-76449180D02*
X145251609Y-75449180D01*
X145346847Y-75592038D01*
X145442085Y-75687276D01*
X145537323Y-75734895D01*
%TO.C,R45*%
X143962380Y-46601142D02*
X143486190Y-46267809D01*
X143962380Y-46029714D02*
X142962380Y-46029714D01*
X142962380Y-46410666D01*
X143010000Y-46505904D01*
X143057619Y-46553523D01*
X143152857Y-46601142D01*
X143295714Y-46601142D01*
X143390952Y-46553523D01*
X143438571Y-46505904D01*
X143486190Y-46410666D01*
X143486190Y-46029714D01*
X143295714Y-47458285D02*
X143962380Y-47458285D01*
X142914761Y-47220190D02*
X143629047Y-46982095D01*
X143629047Y-47601142D01*
X142962380Y-48458285D02*
X142962380Y-47982095D01*
X143438571Y-47934476D01*
X143390952Y-47982095D01*
X143343333Y-48077333D01*
X143343333Y-48315428D01*
X143390952Y-48410666D01*
X143438571Y-48458285D01*
X143533809Y-48505904D01*
X143771904Y-48505904D01*
X143867142Y-48458285D01*
X143914761Y-48410666D01*
X143962380Y-48315428D01*
X143962380Y-48077333D01*
X143914761Y-47982095D01*
X143867142Y-47934476D01*
%TO.C,R18*%
X160688257Y-71191380D02*
X161021590Y-70715190D01*
X161259685Y-71191380D02*
X161259685Y-70191380D01*
X160878733Y-70191380D01*
X160783495Y-70239000D01*
X160735876Y-70286619D01*
X160688257Y-70381857D01*
X160688257Y-70524714D01*
X160735876Y-70619952D01*
X160783495Y-70667571D01*
X160878733Y-70715190D01*
X161259685Y-70715190D01*
X159735876Y-71191380D02*
X160307304Y-71191380D01*
X160021590Y-71191380D02*
X160021590Y-70191380D01*
X160116828Y-70334238D01*
X160212066Y-70429476D01*
X160307304Y-70477095D01*
X159164447Y-70619952D02*
X159259685Y-70572333D01*
X159307304Y-70524714D01*
X159354923Y-70429476D01*
X159354923Y-70381857D01*
X159307304Y-70286619D01*
X159259685Y-70239000D01*
X159164447Y-70191380D01*
X158973971Y-70191380D01*
X158878733Y-70239000D01*
X158831114Y-70286619D01*
X158783495Y-70381857D01*
X158783495Y-70429476D01*
X158831114Y-70524714D01*
X158878733Y-70572333D01*
X158973971Y-70619952D01*
X159164447Y-70619952D01*
X159259685Y-70667571D01*
X159307304Y-70715190D01*
X159354923Y-70810428D01*
X159354923Y-71000904D01*
X159307304Y-71096142D01*
X159259685Y-71143761D01*
X159164447Y-71191380D01*
X158973971Y-71191380D01*
X158878733Y-71143761D01*
X158831114Y-71096142D01*
X158783495Y-71000904D01*
X158783495Y-70810428D01*
X158831114Y-70715190D01*
X158878733Y-70667571D01*
X158973971Y-70619952D01*
%TO.C,R35*%
X146870657Y-86609180D02*
X147203990Y-86132990D01*
X147442085Y-86609180D02*
X147442085Y-85609180D01*
X147061133Y-85609180D01*
X146965895Y-85656800D01*
X146918276Y-85704419D01*
X146870657Y-85799657D01*
X146870657Y-85942514D01*
X146918276Y-86037752D01*
X146965895Y-86085371D01*
X147061133Y-86132990D01*
X147442085Y-86132990D01*
X146537323Y-85609180D02*
X145918276Y-85609180D01*
X146251609Y-85990133D01*
X146108752Y-85990133D01*
X146013514Y-86037752D01*
X145965895Y-86085371D01*
X145918276Y-86180609D01*
X145918276Y-86418704D01*
X145965895Y-86513942D01*
X146013514Y-86561561D01*
X146108752Y-86609180D01*
X146394466Y-86609180D01*
X146489704Y-86561561D01*
X146537323Y-86513942D01*
X145013514Y-85609180D02*
X145489704Y-85609180D01*
X145537323Y-86085371D01*
X145489704Y-86037752D01*
X145394466Y-85990133D01*
X145156371Y-85990133D01*
X145061133Y-86037752D01*
X145013514Y-86085371D01*
X144965895Y-86180609D01*
X144965895Y-86418704D01*
X145013514Y-86513942D01*
X145061133Y-86561561D01*
X145156371Y-86609180D01*
X145394466Y-86609180D01*
X145489704Y-86561561D01*
X145537323Y-86513942D01*
%TO.C,R12*%
X160688257Y-93543380D02*
X161021590Y-93067190D01*
X161259685Y-93543380D02*
X161259685Y-92543380D01*
X160878733Y-92543380D01*
X160783495Y-92591000D01*
X160735876Y-92638619D01*
X160688257Y-92733857D01*
X160688257Y-92876714D01*
X160735876Y-92971952D01*
X160783495Y-93019571D01*
X160878733Y-93067190D01*
X161259685Y-93067190D01*
X159735876Y-93543380D02*
X160307304Y-93543380D01*
X160021590Y-93543380D02*
X160021590Y-92543380D01*
X160116828Y-92686238D01*
X160212066Y-92781476D01*
X160307304Y-92829095D01*
X159354923Y-92638619D02*
X159307304Y-92591000D01*
X159212066Y-92543380D01*
X158973971Y-92543380D01*
X158878733Y-92591000D01*
X158831114Y-92638619D01*
X158783495Y-92733857D01*
X158783495Y-92829095D01*
X158831114Y-92971952D01*
X159402542Y-93543380D01*
X158783495Y-93543380D01*
%TO.C,R39*%
X146870657Y-66289180D02*
X147203990Y-65812990D01*
X147442085Y-66289180D02*
X147442085Y-65289180D01*
X147061133Y-65289180D01*
X146965895Y-65336800D01*
X146918276Y-65384419D01*
X146870657Y-65479657D01*
X146870657Y-65622514D01*
X146918276Y-65717752D01*
X146965895Y-65765371D01*
X147061133Y-65812990D01*
X147442085Y-65812990D01*
X146537323Y-65289180D02*
X145918276Y-65289180D01*
X146251609Y-65670133D01*
X146108752Y-65670133D01*
X146013514Y-65717752D01*
X145965895Y-65765371D01*
X145918276Y-65860609D01*
X145918276Y-66098704D01*
X145965895Y-66193942D01*
X146013514Y-66241561D01*
X146108752Y-66289180D01*
X146394466Y-66289180D01*
X146489704Y-66241561D01*
X146537323Y-66193942D01*
X145442085Y-66289180D02*
X145251609Y-66289180D01*
X145156371Y-66241561D01*
X145108752Y-66193942D01*
X145013514Y-66051085D01*
X144965895Y-65860609D01*
X144965895Y-65479657D01*
X145013514Y-65384419D01*
X145061133Y-65336800D01*
X145156371Y-65289180D01*
X145346847Y-65289180D01*
X145442085Y-65336800D01*
X145489704Y-65384419D01*
X145537323Y-65479657D01*
X145537323Y-65717752D01*
X145489704Y-65812990D01*
X145442085Y-65860609D01*
X145346847Y-65908228D01*
X145156371Y-65908228D01*
X145061133Y-65860609D01*
X145013514Y-65812990D01*
X144965895Y-65717752D01*
%TO.C,R5*%
X160212066Y-77287380D02*
X160545400Y-76811190D01*
X160783495Y-77287380D02*
X160783495Y-76287380D01*
X160402542Y-76287380D01*
X160307304Y-76335000D01*
X160259685Y-76382619D01*
X160212066Y-76477857D01*
X160212066Y-76620714D01*
X160259685Y-76715952D01*
X160307304Y-76763571D01*
X160402542Y-76811190D01*
X160783495Y-76811190D01*
X159307304Y-76287380D02*
X159783495Y-76287380D01*
X159831114Y-76763571D01*
X159783495Y-76715952D01*
X159688257Y-76668333D01*
X159450161Y-76668333D01*
X159354923Y-76715952D01*
X159307304Y-76763571D01*
X159259685Y-76858809D01*
X159259685Y-77096904D01*
X159307304Y-77192142D01*
X159354923Y-77239761D01*
X159450161Y-77287380D01*
X159688257Y-77287380D01*
X159783495Y-77239761D01*
X159831114Y-77192142D01*
%TO.C,R15*%
X160688257Y-87447380D02*
X161021590Y-86971190D01*
X161259685Y-87447380D02*
X161259685Y-86447380D01*
X160878733Y-86447380D01*
X160783495Y-86495000D01*
X160735876Y-86542619D01*
X160688257Y-86637857D01*
X160688257Y-86780714D01*
X160735876Y-86875952D01*
X160783495Y-86923571D01*
X160878733Y-86971190D01*
X161259685Y-86971190D01*
X159735876Y-87447380D02*
X160307304Y-87447380D01*
X160021590Y-87447380D02*
X160021590Y-86447380D01*
X160116828Y-86590238D01*
X160212066Y-86685476D01*
X160307304Y-86733095D01*
X158831114Y-86447380D02*
X159307304Y-86447380D01*
X159354923Y-86923571D01*
X159307304Y-86875952D01*
X159212066Y-86828333D01*
X158973971Y-86828333D01*
X158878733Y-86875952D01*
X158831114Y-86923571D01*
X158783495Y-87018809D01*
X158783495Y-87256904D01*
X158831114Y-87352142D01*
X158878733Y-87399761D01*
X158973971Y-87447380D01*
X159212066Y-87447380D01*
X159307304Y-87399761D01*
X159354923Y-87352142D01*
%TO.C,R21*%
X160688257Y-65095380D02*
X161021590Y-64619190D01*
X161259685Y-65095380D02*
X161259685Y-64095380D01*
X160878733Y-64095380D01*
X160783495Y-64143000D01*
X160735876Y-64190619D01*
X160688257Y-64285857D01*
X160688257Y-64428714D01*
X160735876Y-64523952D01*
X160783495Y-64571571D01*
X160878733Y-64619190D01*
X161259685Y-64619190D01*
X160307304Y-64190619D02*
X160259685Y-64143000D01*
X160164447Y-64095380D01*
X159926352Y-64095380D01*
X159831114Y-64143000D01*
X159783495Y-64190619D01*
X159735876Y-64285857D01*
X159735876Y-64381095D01*
X159783495Y-64523952D01*
X160354923Y-65095380D01*
X159735876Y-65095380D01*
X158783495Y-65095380D02*
X159354923Y-65095380D01*
X159069209Y-65095380D02*
X159069209Y-64095380D01*
X159164447Y-64238238D01*
X159259685Y-64333476D01*
X159354923Y-64381095D01*
%TO.C,R38*%
X146870657Y-68321180D02*
X147203990Y-67844990D01*
X147442085Y-68321180D02*
X147442085Y-67321180D01*
X147061133Y-67321180D01*
X146965895Y-67368800D01*
X146918276Y-67416419D01*
X146870657Y-67511657D01*
X146870657Y-67654514D01*
X146918276Y-67749752D01*
X146965895Y-67797371D01*
X147061133Y-67844990D01*
X147442085Y-67844990D01*
X146537323Y-67321180D02*
X145918276Y-67321180D01*
X146251609Y-67702133D01*
X146108752Y-67702133D01*
X146013514Y-67749752D01*
X145965895Y-67797371D01*
X145918276Y-67892609D01*
X145918276Y-68130704D01*
X145965895Y-68225942D01*
X146013514Y-68273561D01*
X146108752Y-68321180D01*
X146394466Y-68321180D01*
X146489704Y-68273561D01*
X146537323Y-68225942D01*
X145346847Y-67749752D02*
X145442085Y-67702133D01*
X145489704Y-67654514D01*
X145537323Y-67559276D01*
X145537323Y-67511657D01*
X145489704Y-67416419D01*
X145442085Y-67368800D01*
X145346847Y-67321180D01*
X145156371Y-67321180D01*
X145061133Y-67368800D01*
X145013514Y-67416419D01*
X144965895Y-67511657D01*
X144965895Y-67559276D01*
X145013514Y-67654514D01*
X145061133Y-67702133D01*
X145156371Y-67749752D01*
X145346847Y-67749752D01*
X145442085Y-67797371D01*
X145489704Y-67844990D01*
X145537323Y-67940228D01*
X145537323Y-68130704D01*
X145489704Y-68225942D01*
X145442085Y-68273561D01*
X145346847Y-68321180D01*
X145156371Y-68321180D01*
X145061133Y-68273561D01*
X145013514Y-68225942D01*
X144965895Y-68130704D01*
X144965895Y-67940228D01*
X145013514Y-67844990D01*
X145061133Y-67797371D01*
X145156371Y-67749752D01*
%TO.C,R13*%
X160688257Y-81351380D02*
X161021590Y-80875190D01*
X161259685Y-81351380D02*
X161259685Y-80351380D01*
X160878733Y-80351380D01*
X160783495Y-80399000D01*
X160735876Y-80446619D01*
X160688257Y-80541857D01*
X160688257Y-80684714D01*
X160735876Y-80779952D01*
X160783495Y-80827571D01*
X160878733Y-80875190D01*
X161259685Y-80875190D01*
X159735876Y-81351380D02*
X160307304Y-81351380D01*
X160021590Y-81351380D02*
X160021590Y-80351380D01*
X160116828Y-80494238D01*
X160212066Y-80589476D01*
X160307304Y-80637095D01*
X159402542Y-80351380D02*
X158783495Y-80351380D01*
X159116828Y-80732333D01*
X158973971Y-80732333D01*
X158878733Y-80779952D01*
X158831114Y-80827571D01*
X158783495Y-80922809D01*
X158783495Y-81160904D01*
X158831114Y-81256142D01*
X158878733Y-81303761D01*
X158973971Y-81351380D01*
X159259685Y-81351380D01*
X159354923Y-81303761D01*
X159402542Y-81256142D01*
%TO.C,R26*%
X146870657Y-80513180D02*
X147203990Y-80036990D01*
X147442085Y-80513180D02*
X147442085Y-79513180D01*
X147061133Y-79513180D01*
X146965895Y-79560800D01*
X146918276Y-79608419D01*
X146870657Y-79703657D01*
X146870657Y-79846514D01*
X146918276Y-79941752D01*
X146965895Y-79989371D01*
X147061133Y-80036990D01*
X147442085Y-80036990D01*
X146489704Y-79608419D02*
X146442085Y-79560800D01*
X146346847Y-79513180D01*
X146108752Y-79513180D01*
X146013514Y-79560800D01*
X145965895Y-79608419D01*
X145918276Y-79703657D01*
X145918276Y-79798895D01*
X145965895Y-79941752D01*
X146537323Y-80513180D01*
X145918276Y-80513180D01*
X145061133Y-79513180D02*
X145251609Y-79513180D01*
X145346847Y-79560800D01*
X145394466Y-79608419D01*
X145489704Y-79751276D01*
X145537323Y-79941752D01*
X145537323Y-80322704D01*
X145489704Y-80417942D01*
X145442085Y-80465561D01*
X145346847Y-80513180D01*
X145156371Y-80513180D01*
X145061133Y-80465561D01*
X145013514Y-80417942D01*
X144965895Y-80322704D01*
X144965895Y-80084609D01*
X145013514Y-79989371D01*
X145061133Y-79941752D01*
X145156371Y-79894133D01*
X145346847Y-79894133D01*
X145442085Y-79941752D01*
X145489704Y-79989371D01*
X145537323Y-80084609D01*
%TO.C,R27*%
X146870657Y-78481180D02*
X147203990Y-78004990D01*
X147442085Y-78481180D02*
X147442085Y-77481180D01*
X147061133Y-77481180D01*
X146965895Y-77528800D01*
X146918276Y-77576419D01*
X146870657Y-77671657D01*
X146870657Y-77814514D01*
X146918276Y-77909752D01*
X146965895Y-77957371D01*
X147061133Y-78004990D01*
X147442085Y-78004990D01*
X146489704Y-77576419D02*
X146442085Y-77528800D01*
X146346847Y-77481180D01*
X146108752Y-77481180D01*
X146013514Y-77528800D01*
X145965895Y-77576419D01*
X145918276Y-77671657D01*
X145918276Y-77766895D01*
X145965895Y-77909752D01*
X146537323Y-78481180D01*
X145918276Y-78481180D01*
X145584942Y-77481180D02*
X144918276Y-77481180D01*
X145346847Y-78481180D01*
%TO.C,R4*%
X160212066Y-79319380D02*
X160545400Y-78843190D01*
X160783495Y-79319380D02*
X160783495Y-78319380D01*
X160402542Y-78319380D01*
X160307304Y-78367000D01*
X160259685Y-78414619D01*
X160212066Y-78509857D01*
X160212066Y-78652714D01*
X160259685Y-78747952D01*
X160307304Y-78795571D01*
X160402542Y-78843190D01*
X160783495Y-78843190D01*
X159354923Y-78652714D02*
X159354923Y-79319380D01*
X159593019Y-78271761D02*
X159831114Y-78986047D01*
X159212066Y-78986047D01*
%TO.C,R9*%
X160212066Y-73223380D02*
X160545400Y-72747190D01*
X160783495Y-73223380D02*
X160783495Y-72223380D01*
X160402542Y-72223380D01*
X160307304Y-72271000D01*
X160259685Y-72318619D01*
X160212066Y-72413857D01*
X160212066Y-72556714D01*
X160259685Y-72651952D01*
X160307304Y-72699571D01*
X160402542Y-72747190D01*
X160783495Y-72747190D01*
X159735876Y-73223380D02*
X159545400Y-73223380D01*
X159450161Y-73175761D01*
X159402542Y-73128142D01*
X159307304Y-72985285D01*
X159259685Y-72794809D01*
X159259685Y-72413857D01*
X159307304Y-72318619D01*
X159354923Y-72271000D01*
X159450161Y-72223380D01*
X159640638Y-72223380D01*
X159735876Y-72271000D01*
X159783495Y-72318619D01*
X159831114Y-72413857D01*
X159831114Y-72651952D01*
X159783495Y-72747190D01*
X159735876Y-72794809D01*
X159640638Y-72842428D01*
X159450161Y-72842428D01*
X159354923Y-72794809D01*
X159307304Y-72747190D01*
X159259685Y-72651952D01*
%TO.C,R33*%
X146870657Y-70353180D02*
X147203990Y-69876990D01*
X147442085Y-70353180D02*
X147442085Y-69353180D01*
X147061133Y-69353180D01*
X146965895Y-69400800D01*
X146918276Y-69448419D01*
X146870657Y-69543657D01*
X146870657Y-69686514D01*
X146918276Y-69781752D01*
X146965895Y-69829371D01*
X147061133Y-69876990D01*
X147442085Y-69876990D01*
X146537323Y-69353180D02*
X145918276Y-69353180D01*
X146251609Y-69734133D01*
X146108752Y-69734133D01*
X146013514Y-69781752D01*
X145965895Y-69829371D01*
X145918276Y-69924609D01*
X145918276Y-70162704D01*
X145965895Y-70257942D01*
X146013514Y-70305561D01*
X146108752Y-70353180D01*
X146394466Y-70353180D01*
X146489704Y-70305561D01*
X146537323Y-70257942D01*
X145584942Y-69353180D02*
X144965895Y-69353180D01*
X145299228Y-69734133D01*
X145156371Y-69734133D01*
X145061133Y-69781752D01*
X145013514Y-69829371D01*
X144965895Y-69924609D01*
X144965895Y-70162704D01*
X145013514Y-70257942D01*
X145061133Y-70305561D01*
X145156371Y-70353180D01*
X145442085Y-70353180D01*
X145537323Y-70305561D01*
X145584942Y-70257942D01*
%TO.C,R19*%
X160688257Y-61031380D02*
X161021590Y-60555190D01*
X161259685Y-61031380D02*
X161259685Y-60031380D01*
X160878733Y-60031380D01*
X160783495Y-60079000D01*
X160735876Y-60126619D01*
X160688257Y-60221857D01*
X160688257Y-60364714D01*
X160735876Y-60459952D01*
X160783495Y-60507571D01*
X160878733Y-60555190D01*
X161259685Y-60555190D01*
X159735876Y-61031380D02*
X160307304Y-61031380D01*
X160021590Y-61031380D02*
X160021590Y-60031380D01*
X160116828Y-60174238D01*
X160212066Y-60269476D01*
X160307304Y-60317095D01*
X159259685Y-61031380D02*
X159069209Y-61031380D01*
X158973971Y-60983761D01*
X158926352Y-60936142D01*
X158831114Y-60793285D01*
X158783495Y-60602809D01*
X158783495Y-60221857D01*
X158831114Y-60126619D01*
X158878733Y-60079000D01*
X158973971Y-60031380D01*
X159164447Y-60031380D01*
X159259685Y-60079000D01*
X159307304Y-60126619D01*
X159354923Y-60221857D01*
X159354923Y-60459952D01*
X159307304Y-60555190D01*
X159259685Y-60602809D01*
X159164447Y-60650428D01*
X158973971Y-60650428D01*
X158878733Y-60602809D01*
X158831114Y-60555190D01*
X158783495Y-60459952D01*
%TO.C,R36*%
X146870657Y-84577180D02*
X147203990Y-84100990D01*
X147442085Y-84577180D02*
X147442085Y-83577180D01*
X147061133Y-83577180D01*
X146965895Y-83624800D01*
X146918276Y-83672419D01*
X146870657Y-83767657D01*
X146870657Y-83910514D01*
X146918276Y-84005752D01*
X146965895Y-84053371D01*
X147061133Y-84100990D01*
X147442085Y-84100990D01*
X146537323Y-83577180D02*
X145918276Y-83577180D01*
X146251609Y-83958133D01*
X146108752Y-83958133D01*
X146013514Y-84005752D01*
X145965895Y-84053371D01*
X145918276Y-84148609D01*
X145918276Y-84386704D01*
X145965895Y-84481942D01*
X146013514Y-84529561D01*
X146108752Y-84577180D01*
X146394466Y-84577180D01*
X146489704Y-84529561D01*
X146537323Y-84481942D01*
X145061133Y-83577180D02*
X145251609Y-83577180D01*
X145346847Y-83624800D01*
X145394466Y-83672419D01*
X145489704Y-83815276D01*
X145537323Y-84005752D01*
X145537323Y-84386704D01*
X145489704Y-84481942D01*
X145442085Y-84529561D01*
X145346847Y-84577180D01*
X145156371Y-84577180D01*
X145061133Y-84529561D01*
X145013514Y-84481942D01*
X144965895Y-84386704D01*
X144965895Y-84148609D01*
X145013514Y-84053371D01*
X145061133Y-84005752D01*
X145156371Y-83958133D01*
X145346847Y-83958133D01*
X145442085Y-84005752D01*
X145489704Y-84053371D01*
X145537323Y-84148609D01*
%TO.C,R14*%
X160688257Y-85415380D02*
X161021590Y-84939190D01*
X161259685Y-85415380D02*
X161259685Y-84415380D01*
X160878733Y-84415380D01*
X160783495Y-84463000D01*
X160735876Y-84510619D01*
X160688257Y-84605857D01*
X160688257Y-84748714D01*
X160735876Y-84843952D01*
X160783495Y-84891571D01*
X160878733Y-84939190D01*
X161259685Y-84939190D01*
X159735876Y-85415380D02*
X160307304Y-85415380D01*
X160021590Y-85415380D02*
X160021590Y-84415380D01*
X160116828Y-84558238D01*
X160212066Y-84653476D01*
X160307304Y-84701095D01*
X158878733Y-84748714D02*
X158878733Y-85415380D01*
X159116828Y-84367761D02*
X159354923Y-85082047D01*
X158735876Y-85082047D01*
%TO.C,R44*%
X139974580Y-46651942D02*
X139498390Y-46318609D01*
X139974580Y-46080514D02*
X138974580Y-46080514D01*
X138974580Y-46461466D01*
X139022200Y-46556704D01*
X139069819Y-46604323D01*
X139165057Y-46651942D01*
X139307914Y-46651942D01*
X139403152Y-46604323D01*
X139450771Y-46556704D01*
X139498390Y-46461466D01*
X139498390Y-46080514D01*
X139307914Y-47509085D02*
X139974580Y-47509085D01*
X138926961Y-47270990D02*
X139641247Y-47032895D01*
X139641247Y-47651942D01*
X139307914Y-48461466D02*
X139974580Y-48461466D01*
X138926961Y-48223371D02*
X139641247Y-47985276D01*
X139641247Y-48604323D01*
%TO.C,R29*%
X146819857Y-94787980D02*
X147153190Y-94311790D01*
X147391285Y-94787980D02*
X147391285Y-93787980D01*
X147010333Y-93787980D01*
X146915095Y-93835600D01*
X146867476Y-93883219D01*
X146819857Y-93978457D01*
X146819857Y-94121314D01*
X146867476Y-94216552D01*
X146915095Y-94264171D01*
X147010333Y-94311790D01*
X147391285Y-94311790D01*
X146438904Y-93883219D02*
X146391285Y-93835600D01*
X146296047Y-93787980D01*
X146057952Y-93787980D01*
X145962714Y-93835600D01*
X145915095Y-93883219D01*
X145867476Y-93978457D01*
X145867476Y-94073695D01*
X145915095Y-94216552D01*
X146486523Y-94787980D01*
X145867476Y-94787980D01*
X145391285Y-94787980D02*
X145200809Y-94787980D01*
X145105571Y-94740361D01*
X145057952Y-94692742D01*
X144962714Y-94549885D01*
X144915095Y-94359409D01*
X144915095Y-93978457D01*
X144962714Y-93883219D01*
X145010333Y-93835600D01*
X145105571Y-93787980D01*
X145296047Y-93787980D01*
X145391285Y-93835600D01*
X145438904Y-93883219D01*
X145486523Y-93978457D01*
X145486523Y-94216552D01*
X145438904Y-94311790D01*
X145391285Y-94359409D01*
X145296047Y-94407028D01*
X145105571Y-94407028D01*
X145010333Y-94359409D01*
X144962714Y-94311790D01*
X144915095Y-94216552D01*
%TO.C,R37*%
X146870657Y-72385180D02*
X147203990Y-71908990D01*
X147442085Y-72385180D02*
X147442085Y-71385180D01*
X147061133Y-71385180D01*
X146965895Y-71432800D01*
X146918276Y-71480419D01*
X146870657Y-71575657D01*
X146870657Y-71718514D01*
X146918276Y-71813752D01*
X146965895Y-71861371D01*
X147061133Y-71908990D01*
X147442085Y-71908990D01*
X146537323Y-71385180D02*
X145918276Y-71385180D01*
X146251609Y-71766133D01*
X146108752Y-71766133D01*
X146013514Y-71813752D01*
X145965895Y-71861371D01*
X145918276Y-71956609D01*
X145918276Y-72194704D01*
X145965895Y-72289942D01*
X146013514Y-72337561D01*
X146108752Y-72385180D01*
X146394466Y-72385180D01*
X146489704Y-72337561D01*
X146537323Y-72289942D01*
X145584942Y-71385180D02*
X144918276Y-71385180D01*
X145346847Y-72385180D01*
%TO.C,R11*%
X160688257Y-91511380D02*
X161021590Y-91035190D01*
X161259685Y-91511380D02*
X161259685Y-90511380D01*
X160878733Y-90511380D01*
X160783495Y-90559000D01*
X160735876Y-90606619D01*
X160688257Y-90701857D01*
X160688257Y-90844714D01*
X160735876Y-90939952D01*
X160783495Y-90987571D01*
X160878733Y-91035190D01*
X161259685Y-91035190D01*
X159735876Y-91511380D02*
X160307304Y-91511380D01*
X160021590Y-91511380D02*
X160021590Y-90511380D01*
X160116828Y-90654238D01*
X160212066Y-90749476D01*
X160307304Y-90797095D01*
X158783495Y-91511380D02*
X159354923Y-91511380D01*
X159069209Y-91511380D02*
X159069209Y-90511380D01*
X159164447Y-90654238D01*
X159259685Y-90749476D01*
X159354923Y-90797095D01*
%TO.C,R42*%
X146870657Y-60216680D02*
X147203990Y-59740490D01*
X147442085Y-60216680D02*
X147442085Y-59216680D01*
X147061133Y-59216680D01*
X146965895Y-59264300D01*
X146918276Y-59311919D01*
X146870657Y-59407157D01*
X146870657Y-59550014D01*
X146918276Y-59645252D01*
X146965895Y-59692871D01*
X147061133Y-59740490D01*
X147442085Y-59740490D01*
X146013514Y-59550014D02*
X146013514Y-60216680D01*
X146251609Y-59169061D02*
X146489704Y-59883347D01*
X145870657Y-59883347D01*
X145537323Y-59311919D02*
X145489704Y-59264300D01*
X145394466Y-59216680D01*
X145156371Y-59216680D01*
X145061133Y-59264300D01*
X145013514Y-59311919D01*
X144965895Y-59407157D01*
X144965895Y-59502395D01*
X145013514Y-59645252D01*
X145584942Y-60216680D01*
X144965895Y-60216680D01*
%TO.C,R8*%
X160212066Y-75255380D02*
X160545400Y-74779190D01*
X160783495Y-75255380D02*
X160783495Y-74255380D01*
X160402542Y-74255380D01*
X160307304Y-74303000D01*
X160259685Y-74350619D01*
X160212066Y-74445857D01*
X160212066Y-74588714D01*
X160259685Y-74683952D01*
X160307304Y-74731571D01*
X160402542Y-74779190D01*
X160783495Y-74779190D01*
X159640638Y-74683952D02*
X159735876Y-74636333D01*
X159783495Y-74588714D01*
X159831114Y-74493476D01*
X159831114Y-74445857D01*
X159783495Y-74350619D01*
X159735876Y-74303000D01*
X159640638Y-74255380D01*
X159450161Y-74255380D01*
X159354923Y-74303000D01*
X159307304Y-74350619D01*
X159259685Y-74445857D01*
X159259685Y-74493476D01*
X159307304Y-74588714D01*
X159354923Y-74636333D01*
X159450161Y-74683952D01*
X159640638Y-74683952D01*
X159735876Y-74731571D01*
X159783495Y-74779190D01*
X159831114Y-74874428D01*
X159831114Y-75064904D01*
X159783495Y-75160142D01*
X159735876Y-75207761D01*
X159640638Y-75255380D01*
X159450161Y-75255380D01*
X159354923Y-75207761D01*
X159307304Y-75160142D01*
X159259685Y-75064904D01*
X159259685Y-74874428D01*
X159307304Y-74779190D01*
X159354923Y-74731571D01*
X159450161Y-74683952D01*
%TO.C,R30*%
X146819857Y-90723980D02*
X147153190Y-90247790D01*
X147391285Y-90723980D02*
X147391285Y-89723980D01*
X147010333Y-89723980D01*
X146915095Y-89771600D01*
X146867476Y-89819219D01*
X146819857Y-89914457D01*
X146819857Y-90057314D01*
X146867476Y-90152552D01*
X146915095Y-90200171D01*
X147010333Y-90247790D01*
X147391285Y-90247790D01*
X146486523Y-89723980D02*
X145867476Y-89723980D01*
X146200809Y-90104933D01*
X146057952Y-90104933D01*
X145962714Y-90152552D01*
X145915095Y-90200171D01*
X145867476Y-90295409D01*
X145867476Y-90533504D01*
X145915095Y-90628742D01*
X145962714Y-90676361D01*
X146057952Y-90723980D01*
X146343666Y-90723980D01*
X146438904Y-90676361D01*
X146486523Y-90628742D01*
X145248428Y-89723980D02*
X145153190Y-89723980D01*
X145057952Y-89771600D01*
X145010333Y-89819219D01*
X144962714Y-89914457D01*
X144915095Y-90104933D01*
X144915095Y-90343028D01*
X144962714Y-90533504D01*
X145010333Y-90628742D01*
X145057952Y-90676361D01*
X145153190Y-90723980D01*
X145248428Y-90723980D01*
X145343666Y-90676361D01*
X145391285Y-90628742D01*
X145438904Y-90533504D01*
X145486523Y-90343028D01*
X145486523Y-90104933D01*
X145438904Y-89914457D01*
X145391285Y-89819219D01*
X145343666Y-89771600D01*
X145248428Y-89723980D01*
%TO.C,R24*%
X160688257Y-56967380D02*
X161021590Y-56491190D01*
X161259685Y-56967380D02*
X161259685Y-55967380D01*
X160878733Y-55967380D01*
X160783495Y-56015000D01*
X160735876Y-56062619D01*
X160688257Y-56157857D01*
X160688257Y-56300714D01*
X160735876Y-56395952D01*
X160783495Y-56443571D01*
X160878733Y-56491190D01*
X161259685Y-56491190D01*
X160307304Y-56062619D02*
X160259685Y-56015000D01*
X160164447Y-55967380D01*
X159926352Y-55967380D01*
X159831114Y-56015000D01*
X159783495Y-56062619D01*
X159735876Y-56157857D01*
X159735876Y-56253095D01*
X159783495Y-56395952D01*
X160354923Y-56967380D01*
X159735876Y-56967380D01*
X158878733Y-56300714D02*
X158878733Y-56967380D01*
X159116828Y-55919761D02*
X159354923Y-56634047D01*
X158735876Y-56634047D01*
%TO.C,R23*%
X160688257Y-54935380D02*
X161021590Y-54459190D01*
X161259685Y-54935380D02*
X161259685Y-53935380D01*
X160878733Y-53935380D01*
X160783495Y-53983000D01*
X160735876Y-54030619D01*
X160688257Y-54125857D01*
X160688257Y-54268714D01*
X160735876Y-54363952D01*
X160783495Y-54411571D01*
X160878733Y-54459190D01*
X161259685Y-54459190D01*
X160307304Y-54030619D02*
X160259685Y-53983000D01*
X160164447Y-53935380D01*
X159926352Y-53935380D01*
X159831114Y-53983000D01*
X159783495Y-54030619D01*
X159735876Y-54125857D01*
X159735876Y-54221095D01*
X159783495Y-54363952D01*
X160354923Y-54935380D01*
X159735876Y-54935380D01*
X159402542Y-53935380D02*
X158783495Y-53935380D01*
X159116828Y-54316333D01*
X158973971Y-54316333D01*
X158878733Y-54363952D01*
X158831114Y-54411571D01*
X158783495Y-54506809D01*
X158783495Y-54744904D01*
X158831114Y-54840142D01*
X158878733Y-54887761D01*
X158973971Y-54935380D01*
X159259685Y-54935380D01*
X159354923Y-54887761D01*
X159402542Y-54840142D01*
%TO.C,R16*%
X160688257Y-67127380D02*
X161021590Y-66651190D01*
X161259685Y-67127380D02*
X161259685Y-66127380D01*
X160878733Y-66127380D01*
X160783495Y-66175000D01*
X160735876Y-66222619D01*
X160688257Y-66317857D01*
X160688257Y-66460714D01*
X160735876Y-66555952D01*
X160783495Y-66603571D01*
X160878733Y-66651190D01*
X161259685Y-66651190D01*
X159735876Y-67127380D02*
X160307304Y-67127380D01*
X160021590Y-67127380D02*
X160021590Y-66127380D01*
X160116828Y-66270238D01*
X160212066Y-66365476D01*
X160307304Y-66413095D01*
X158878733Y-66127380D02*
X159069209Y-66127380D01*
X159164447Y-66175000D01*
X159212066Y-66222619D01*
X159307304Y-66365476D01*
X159354923Y-66555952D01*
X159354923Y-66936904D01*
X159307304Y-67032142D01*
X159259685Y-67079761D01*
X159164447Y-67127380D01*
X158973971Y-67127380D01*
X158878733Y-67079761D01*
X158831114Y-67032142D01*
X158783495Y-66936904D01*
X158783495Y-66698809D01*
X158831114Y-66603571D01*
X158878733Y-66555952D01*
X158973971Y-66508333D01*
X159164447Y-66508333D01*
X159259685Y-66555952D01*
X159307304Y-66603571D01*
X159354923Y-66698809D01*
%TO.C,R17*%
X160688257Y-63063380D02*
X161021590Y-62587190D01*
X161259685Y-63063380D02*
X161259685Y-62063380D01*
X160878733Y-62063380D01*
X160783495Y-62111000D01*
X160735876Y-62158619D01*
X160688257Y-62253857D01*
X160688257Y-62396714D01*
X160735876Y-62491952D01*
X160783495Y-62539571D01*
X160878733Y-62587190D01*
X161259685Y-62587190D01*
X159735876Y-63063380D02*
X160307304Y-63063380D01*
X160021590Y-63063380D02*
X160021590Y-62063380D01*
X160116828Y-62206238D01*
X160212066Y-62301476D01*
X160307304Y-62349095D01*
X159402542Y-62063380D02*
X158735876Y-62063380D01*
X159164447Y-63063380D01*
%TO.C,R25*%
X146870657Y-82545180D02*
X147203990Y-82068990D01*
X147442085Y-82545180D02*
X147442085Y-81545180D01*
X147061133Y-81545180D01*
X146965895Y-81592800D01*
X146918276Y-81640419D01*
X146870657Y-81735657D01*
X146870657Y-81878514D01*
X146918276Y-81973752D01*
X146965895Y-82021371D01*
X147061133Y-82068990D01*
X147442085Y-82068990D01*
X146489704Y-81640419D02*
X146442085Y-81592800D01*
X146346847Y-81545180D01*
X146108752Y-81545180D01*
X146013514Y-81592800D01*
X145965895Y-81640419D01*
X145918276Y-81735657D01*
X145918276Y-81830895D01*
X145965895Y-81973752D01*
X146537323Y-82545180D01*
X145918276Y-82545180D01*
X145013514Y-81545180D02*
X145489704Y-81545180D01*
X145537323Y-82021371D01*
X145489704Y-81973752D01*
X145394466Y-81926133D01*
X145156371Y-81926133D01*
X145061133Y-81973752D01*
X145013514Y-82021371D01*
X144965895Y-82116609D01*
X144965895Y-82354704D01*
X145013514Y-82449942D01*
X145061133Y-82497561D01*
X145156371Y-82545180D01*
X145394466Y-82545180D01*
X145489704Y-82497561D01*
X145537323Y-82449942D01*
%TO.C,R43*%
X142006580Y-46628442D02*
X141530390Y-46295109D01*
X142006580Y-46057014D02*
X141006580Y-46057014D01*
X141006580Y-46437966D01*
X141054200Y-46533204D01*
X141101819Y-46580823D01*
X141197057Y-46628442D01*
X141339914Y-46628442D01*
X141435152Y-46580823D01*
X141482771Y-46533204D01*
X141530390Y-46437966D01*
X141530390Y-46057014D01*
X141339914Y-47485585D02*
X142006580Y-47485585D01*
X140958961Y-47247490D02*
X141673247Y-47009395D01*
X141673247Y-47628442D01*
X141006580Y-47914157D02*
X141006580Y-48533204D01*
X141387533Y-48199871D01*
X141387533Y-48342728D01*
X141435152Y-48437966D01*
X141482771Y-48485585D01*
X141578009Y-48533204D01*
X141816104Y-48533204D01*
X141911342Y-48485585D01*
X141958961Y-48437966D01*
X142006580Y-48342728D01*
X142006580Y-48057014D01*
X141958961Y-47961776D01*
X141911342Y-47914157D01*
%TO.C,R34*%
X146870657Y-88641180D02*
X147203990Y-88164990D01*
X147442085Y-88641180D02*
X147442085Y-87641180D01*
X147061133Y-87641180D01*
X146965895Y-87688800D01*
X146918276Y-87736419D01*
X146870657Y-87831657D01*
X146870657Y-87974514D01*
X146918276Y-88069752D01*
X146965895Y-88117371D01*
X147061133Y-88164990D01*
X147442085Y-88164990D01*
X146537323Y-87641180D02*
X145918276Y-87641180D01*
X146251609Y-88022133D01*
X146108752Y-88022133D01*
X146013514Y-88069752D01*
X145965895Y-88117371D01*
X145918276Y-88212609D01*
X145918276Y-88450704D01*
X145965895Y-88545942D01*
X146013514Y-88593561D01*
X146108752Y-88641180D01*
X146394466Y-88641180D01*
X146489704Y-88593561D01*
X146537323Y-88545942D01*
X145061133Y-87974514D02*
X145061133Y-88641180D01*
X145299228Y-87593561D02*
X145537323Y-88307847D01*
X144918276Y-88307847D01*
%TO.C,R10*%
X160688257Y-89479380D02*
X161021590Y-89003190D01*
X161259685Y-89479380D02*
X161259685Y-88479380D01*
X160878733Y-88479380D01*
X160783495Y-88527000D01*
X160735876Y-88574619D01*
X160688257Y-88669857D01*
X160688257Y-88812714D01*
X160735876Y-88907952D01*
X160783495Y-88955571D01*
X160878733Y-89003190D01*
X161259685Y-89003190D01*
X159735876Y-89479380D02*
X160307304Y-89479380D01*
X160021590Y-89479380D02*
X160021590Y-88479380D01*
X160116828Y-88622238D01*
X160212066Y-88717476D01*
X160307304Y-88765095D01*
X159116828Y-88479380D02*
X159021590Y-88479380D01*
X158926352Y-88527000D01*
X158878733Y-88574619D01*
X158831114Y-88669857D01*
X158783495Y-88860333D01*
X158783495Y-89098428D01*
X158831114Y-89288904D01*
X158878733Y-89384142D01*
X158926352Y-89431761D01*
X159021590Y-89479380D01*
X159116828Y-89479380D01*
X159212066Y-89431761D01*
X159259685Y-89384142D01*
X159307304Y-89288904D01*
X159354923Y-89098428D01*
X159354923Y-88860333D01*
X159307304Y-88669857D01*
X159259685Y-88574619D01*
X159212066Y-88527000D01*
X159116828Y-88479380D01*
D11*
%TO.C,J16*%
X147193000Y-48768000D02*
G75*
G03*
X147193000Y-48768000I-381000J0D01*
G01*
%TO.C,J13*%
X123444000Y-72390000D02*
G75*
G03*
X123444000Y-72390000I-381000J0D01*
G01*
%TO.C,J12*%
X108204000Y-85090000D02*
G75*
G03*
X108204000Y-85090000I-381000J0D01*
G01*
%TO.C,J4*%
X179578000Y-82550000D02*
G75*
G03*
X179578000Y-82550000I-381000J0D01*
G01*
%TO.C,J11*%
X123444000Y-97790000D02*
G75*
G03*
X123444000Y-97790000I-381000J0D01*
G01*
%TO.C,J1*%
X194818000Y-120650000D02*
G75*
G03*
X194818000Y-120650000I-381000J0D01*
G01*
%TO.C,J9*%
X123444000Y-123190000D02*
G75*
G03*
X123444000Y-123190000I-381000J0D01*
G01*
%TO.C,J2*%
X194818000Y-95250000D02*
G75*
G03*
X194818000Y-95250000I-381000J0D01*
G01*
%TO.C,J5*%
X194818000Y-69850000D02*
G75*
G03*
X194818000Y-69850000I-381000J0D01*
G01*
%TO.C,J14*%
X108204000Y-59690000D02*
G75*
G03*
X108204000Y-59690000I-381000J0D01*
G01*
%TO.C,J10*%
X108204000Y-110490000D02*
G75*
G03*
X108204000Y-110490000I-381000J0D01*
G01*
%TO.C,J7*%
X194818000Y-44450000D02*
G75*
G03*
X194818000Y-44450000I-381000J0D01*
G01*
%TO.C,J8*%
X108204000Y-135890000D02*
G75*
G03*
X108204000Y-135890000I-381000J0D01*
G01*
%TO.C,J6*%
X179578000Y-57150000D02*
G75*
G03*
X179578000Y-57150000I-381000J0D01*
G01*
%TO.C,J3*%
X179578000Y-107950000D02*
G75*
G03*
X179578000Y-107950000I-381000J0D01*
G01*
%TO.C,R28*%
X143281764Y-92987800D02*
X142827636Y-92987800D01*
X143281764Y-91517800D02*
X142827636Y-91517800D01*
%TO.C,R32*%
X143332564Y-74649000D02*
X142878436Y-74649000D01*
X143332564Y-73179000D02*
X142878436Y-73179000D01*
%TO.C,R40*%
X143332564Y-63019000D02*
X142878436Y-63019000D01*
X143332564Y-64489000D02*
X142878436Y-64489000D01*
%TO.C,R20*%
X162991436Y-57685000D02*
X163445564Y-57685000D01*
X162991436Y-59155000D02*
X163445564Y-59155000D01*
%TO.C,R7*%
X162991436Y-69315000D02*
X163445564Y-69315000D01*
X162991436Y-67845000D02*
X163445564Y-67845000D01*
%TO.C,R41*%
X143332564Y-60987000D02*
X142878436Y-60987000D01*
X143332564Y-62457000D02*
X142878436Y-62457000D01*
%TO.C,R6*%
X162991436Y-82069000D02*
X163445564Y-82069000D01*
X162991436Y-83539000D02*
X163445564Y-83539000D01*
%TO.C,R22*%
X162991436Y-53059000D02*
X163445564Y-53059000D01*
X162991436Y-51589000D02*
X163445564Y-51589000D01*
%TO.C,R31*%
X143332564Y-76681000D02*
X142878436Y-76681000D01*
X143332564Y-75211000D02*
X142878436Y-75211000D01*
%TO.C,R45*%
X144270400Y-50217336D02*
X144270400Y-50671464D01*
X142800400Y-50217336D02*
X142800400Y-50671464D01*
%TO.C,R18*%
X162991436Y-69877000D02*
X163445564Y-69877000D01*
X162991436Y-71347000D02*
X163445564Y-71347000D01*
%TO.C,R35*%
X143332564Y-86841000D02*
X142878436Y-86841000D01*
X143332564Y-85371000D02*
X142878436Y-85371000D01*
%TO.C,R12*%
X162991436Y-92229000D02*
X163445564Y-92229000D01*
X162991436Y-93699000D02*
X163445564Y-93699000D01*
%TO.C,R39*%
X143332564Y-65051000D02*
X142878436Y-65051000D01*
X143332564Y-66521000D02*
X142878436Y-66521000D01*
%TO.C,R5*%
X162991436Y-77443000D02*
X163445564Y-77443000D01*
X162991436Y-75973000D02*
X163445564Y-75973000D01*
%TO.C,R15*%
X162991436Y-87603000D02*
X163445564Y-87603000D01*
X162991436Y-86133000D02*
X163445564Y-86133000D01*
%TO.C,R21*%
X162991436Y-65251000D02*
X163445564Y-65251000D01*
X162991436Y-63781000D02*
X163445564Y-63781000D01*
%TO.C,R38*%
X143332564Y-68553000D02*
X142878436Y-68553000D01*
X143332564Y-67083000D02*
X142878436Y-67083000D01*
%TO.C,R13*%
X162991436Y-81507000D02*
X163445564Y-81507000D01*
X162991436Y-80037000D02*
X163445564Y-80037000D01*
%TO.C,R26*%
X143332564Y-80745000D02*
X142878436Y-80745000D01*
X143332564Y-79275000D02*
X142878436Y-79275000D01*
%TO.C,R27*%
X143332564Y-78713000D02*
X142878436Y-78713000D01*
X143332564Y-77243000D02*
X142878436Y-77243000D01*
%TO.C,R4*%
X162991436Y-78005000D02*
X163445564Y-78005000D01*
X162991436Y-79475000D02*
X163445564Y-79475000D01*
%TO.C,R9*%
X162991436Y-71909000D02*
X163445564Y-71909000D01*
X162991436Y-73379000D02*
X163445564Y-73379000D01*
%TO.C,R33*%
X143332564Y-69115000D02*
X142878436Y-69115000D01*
X143332564Y-70585000D02*
X142878436Y-70585000D01*
%TO.C,R19*%
X162991436Y-59717000D02*
X163445564Y-59717000D01*
X162991436Y-61187000D02*
X163445564Y-61187000D01*
%TO.C,R36*%
X143332564Y-84809000D02*
X142878436Y-84809000D01*
X143332564Y-83339000D02*
X142878436Y-83339000D01*
%TO.C,R14*%
X162991436Y-85571000D02*
X163445564Y-85571000D01*
X162991436Y-84101000D02*
X163445564Y-84101000D01*
%TO.C,R44*%
X140206400Y-50240836D02*
X140206400Y-50694964D01*
X138736400Y-50240836D02*
X138736400Y-50694964D01*
%TO.C,R29*%
X143281764Y-93549800D02*
X142827636Y-93549800D01*
X143281764Y-95019800D02*
X142827636Y-95019800D01*
%TO.C,R37*%
X143332564Y-72617000D02*
X142878436Y-72617000D01*
X143332564Y-71147000D02*
X142878436Y-71147000D01*
%TO.C,R11*%
X162991436Y-90197000D02*
X163445564Y-90197000D01*
X162991436Y-91667000D02*
X163445564Y-91667000D01*
%TO.C,R42*%
X143332564Y-60448500D02*
X142878436Y-60448500D01*
X143332564Y-58978500D02*
X142878436Y-58978500D01*
%TO.C,R8*%
X162991436Y-73941000D02*
X163445564Y-73941000D01*
X162991436Y-75411000D02*
X163445564Y-75411000D01*
%TO.C,R30*%
X143281764Y-90955800D02*
X142827636Y-90955800D01*
X143281764Y-89485800D02*
X142827636Y-89485800D01*
%TO.C,R24*%
X162991436Y-57123000D02*
X163445564Y-57123000D01*
X162991436Y-55653000D02*
X163445564Y-55653000D01*
%TO.C,R23*%
X162991436Y-53621000D02*
X163445564Y-53621000D01*
X162991436Y-55091000D02*
X163445564Y-55091000D01*
%TO.C,R16*%
X162991436Y-65813000D02*
X163445564Y-65813000D01*
X162991436Y-67283000D02*
X163445564Y-67283000D01*
%TO.C,R17*%
X162991436Y-63219000D02*
X163445564Y-63219000D01*
X162991436Y-61749000D02*
X163445564Y-61749000D01*
%TO.C,R25*%
X143332564Y-82777000D02*
X142878436Y-82777000D01*
X143332564Y-81307000D02*
X142878436Y-81307000D01*
%TO.C,R43*%
X140768400Y-50217336D02*
X140768400Y-50671464D01*
X142238400Y-50217336D02*
X142238400Y-50671464D01*
%TO.C,R34*%
X143332564Y-87403000D02*
X142878436Y-87403000D01*
X143332564Y-88873000D02*
X142878436Y-88873000D01*
%TO.C,R10*%
X162991436Y-88165000D02*
X163445564Y-88165000D01*
X162991436Y-89635000D02*
X163445564Y-89635000D01*
%TD*%
M02*
